%TF.GenerationSoftware,KiCad,Pcbnew,(5.1.6)-1*%
%TF.CreationDate,2020-06-22T20:03:53-05:00*%
%TF.ProjectId,NOISE_x_S_and_H,4e4f4953-455f-4785-9f53-5f616e645f48,rev?*%
%TF.SameCoordinates,Original*%
%TF.FileFunction,Legend,Bot*%
%TF.FilePolarity,Positive*%
%FSLAX46Y46*%
G04 Gerber Fmt 4.6, Leading zero omitted, Abs format (unit mm)*
G04 Created by KiCad (PCBNEW (5.1.6)-1) date 2020-06-22 20:03:53*
%MOMM*%
%LPD*%
G01*
G04 APERTURE LIST*
%ADD10C,0.150000*%
%ADD11C,0.120000*%
G04 APERTURE END LIST*
D10*
X99609523Y-160502380D02*
X99609523Y-159502380D01*
X99038095Y-160502380D01*
X99038095Y-159502380D01*
X98371428Y-159502380D02*
X98180952Y-159502380D01*
X98085714Y-159550000D01*
X97990476Y-159645238D01*
X97942857Y-159835714D01*
X97942857Y-160169047D01*
X97990476Y-160359523D01*
X98085714Y-160454761D01*
X98180952Y-160502380D01*
X98371428Y-160502380D01*
X98466666Y-160454761D01*
X98561904Y-160359523D01*
X98609523Y-160169047D01*
X98609523Y-159835714D01*
X98561904Y-159645238D01*
X98466666Y-159550000D01*
X98371428Y-159502380D01*
X97514285Y-160502380D02*
X97514285Y-159502380D01*
X97085714Y-160454761D02*
X96942857Y-160502380D01*
X96704761Y-160502380D01*
X96609523Y-160454761D01*
X96561904Y-160407142D01*
X96514285Y-160311904D01*
X96514285Y-160216666D01*
X96561904Y-160121428D01*
X96609523Y-160073809D01*
X96704761Y-160026190D01*
X96895238Y-159978571D01*
X96990476Y-159930952D01*
X97038095Y-159883333D01*
X97085714Y-159788095D01*
X97085714Y-159692857D01*
X97038095Y-159597619D01*
X96990476Y-159550000D01*
X96895238Y-159502380D01*
X96657142Y-159502380D01*
X96514285Y-159550000D01*
X96085714Y-159978571D02*
X95752380Y-159978571D01*
X95609523Y-160502380D02*
X96085714Y-160502380D01*
X96085714Y-159502380D01*
X95609523Y-159502380D01*
X94514285Y-159502380D02*
X93847619Y-160502380D01*
X93847619Y-159502380D02*
X94514285Y-160502380D01*
X92752380Y-160454761D02*
X92609523Y-160502380D01*
X92371428Y-160502380D01*
X92276190Y-160454761D01*
X92228571Y-160407142D01*
X92180952Y-160311904D01*
X92180952Y-160216666D01*
X92228571Y-160121428D01*
X92276190Y-160073809D01*
X92371428Y-160026190D01*
X92561904Y-159978571D01*
X92657142Y-159930952D01*
X92704761Y-159883333D01*
X92752380Y-159788095D01*
X92752380Y-159692857D01*
X92704761Y-159597619D01*
X92657142Y-159550000D01*
X92561904Y-159502380D01*
X92323809Y-159502380D01*
X92180952Y-159550000D01*
X90942857Y-160502380D02*
X90990476Y-160502380D01*
X91085714Y-160454761D01*
X91228571Y-160311904D01*
X91466666Y-160026190D01*
X91561904Y-159883333D01*
X91609523Y-159740476D01*
X91609523Y-159645238D01*
X91561904Y-159550000D01*
X91466666Y-159502380D01*
X91419047Y-159502380D01*
X91323809Y-159550000D01*
X91276190Y-159645238D01*
X91276190Y-159692857D01*
X91323809Y-159788095D01*
X91371428Y-159835714D01*
X91657142Y-160026190D01*
X91704761Y-160073809D01*
X91752380Y-160169047D01*
X91752380Y-160311904D01*
X91704761Y-160407142D01*
X91657142Y-160454761D01*
X91561904Y-160502380D01*
X91419047Y-160502380D01*
X91323809Y-160454761D01*
X91276190Y-160407142D01*
X91133333Y-160216666D01*
X91085714Y-160073809D01*
X91085714Y-159978571D01*
X90514285Y-160502380D02*
X90514285Y-159502380D01*
X90514285Y-159978571D02*
X89942857Y-159978571D01*
X89942857Y-160502380D02*
X89942857Y-159502380D01*
X88800000Y-159835714D02*
X88609523Y-160502380D01*
X88419047Y-160026190D01*
X88228571Y-160502380D01*
X88038095Y-159835714D01*
X86942857Y-159454761D02*
X87800000Y-160740476D01*
X85847619Y-159978571D02*
X85514285Y-159978571D01*
X85371428Y-160502380D02*
X85847619Y-160502380D01*
X85847619Y-159502380D01*
X85371428Y-159502380D01*
X85038095Y-160502380D02*
X84514285Y-159835714D01*
X85038095Y-159835714D02*
X84514285Y-160502380D01*
X84276190Y-159835714D02*
X83895238Y-159835714D01*
X84133333Y-159502380D02*
X84133333Y-160359523D01*
X84085714Y-160454761D01*
X83990476Y-160502380D01*
X83895238Y-160502380D01*
X83180952Y-160454761D02*
X83276190Y-160502380D01*
X83466666Y-160502380D01*
X83561904Y-160454761D01*
X83609523Y-160359523D01*
X83609523Y-159978571D01*
X83561904Y-159883333D01*
X83466666Y-159835714D01*
X83276190Y-159835714D01*
X83180952Y-159883333D01*
X83133333Y-159978571D01*
X83133333Y-160073809D01*
X83609523Y-160169047D01*
X82704761Y-160502380D02*
X82704761Y-159835714D01*
X82704761Y-160026190D02*
X82657142Y-159930952D01*
X82609523Y-159883333D01*
X82514285Y-159835714D01*
X82419047Y-159835714D01*
X82085714Y-159835714D02*
X82085714Y-160502380D01*
X82085714Y-159930952D02*
X82038095Y-159883333D01*
X81942857Y-159835714D01*
X81800000Y-159835714D01*
X81704761Y-159883333D01*
X81657142Y-159978571D01*
X81657142Y-160502380D01*
X80752380Y-160502380D02*
X80752380Y-159978571D01*
X80800000Y-159883333D01*
X80895238Y-159835714D01*
X81085714Y-159835714D01*
X81180952Y-159883333D01*
X80752380Y-160454761D02*
X80847619Y-160502380D01*
X81085714Y-160502380D01*
X81180952Y-160454761D01*
X81228571Y-160359523D01*
X81228571Y-160264285D01*
X81180952Y-160169047D01*
X81085714Y-160121428D01*
X80847619Y-160121428D01*
X80752380Y-160073809D01*
X80133333Y-160502380D02*
X80228571Y-160454761D01*
X80276190Y-160359523D01*
X80276190Y-159502380D01*
X79038095Y-160454761D02*
X78895238Y-160502380D01*
X78657142Y-160502380D01*
X78561904Y-160454761D01*
X78514285Y-160407142D01*
X78466666Y-160311904D01*
X78466666Y-160216666D01*
X78514285Y-160121428D01*
X78561904Y-160073809D01*
X78657142Y-160026190D01*
X78847619Y-159978571D01*
X78942857Y-159930952D01*
X78990476Y-159883333D01*
X79038095Y-159788095D01*
X79038095Y-159692857D01*
X78990476Y-159597619D01*
X78942857Y-159550000D01*
X78847619Y-159502380D01*
X78609523Y-159502380D01*
X78466666Y-159550000D01*
X77609523Y-160502380D02*
X77609523Y-159978571D01*
X77657142Y-159883333D01*
X77752380Y-159835714D01*
X77942857Y-159835714D01*
X78038095Y-159883333D01*
X77609523Y-160454761D02*
X77704761Y-160502380D01*
X77942857Y-160502380D01*
X78038095Y-160454761D01*
X78085714Y-160359523D01*
X78085714Y-160264285D01*
X78038095Y-160169047D01*
X77942857Y-160121428D01*
X77704761Y-160121428D01*
X77609523Y-160073809D01*
X77133333Y-160502380D02*
X77133333Y-159835714D01*
X77133333Y-159930952D02*
X77085714Y-159883333D01*
X76990476Y-159835714D01*
X76847619Y-159835714D01*
X76752380Y-159883333D01*
X76704761Y-159978571D01*
X76704761Y-160502380D01*
X76704761Y-159978571D02*
X76657142Y-159883333D01*
X76561904Y-159835714D01*
X76419047Y-159835714D01*
X76323809Y-159883333D01*
X76276190Y-159978571D01*
X76276190Y-160502380D01*
X75800000Y-159835714D02*
X75800000Y-160835714D01*
X75800000Y-159883333D02*
X75704761Y-159835714D01*
X75514285Y-159835714D01*
X75419047Y-159883333D01*
X75371428Y-159930952D01*
X75323809Y-160026190D01*
X75323809Y-160311904D01*
X75371428Y-160407142D01*
X75419047Y-160454761D01*
X75514285Y-160502380D01*
X75704761Y-160502380D01*
X75800000Y-160454761D01*
X74752380Y-160502380D02*
X74847619Y-160454761D01*
X74895238Y-160359523D01*
X74895238Y-159502380D01*
X73990476Y-160454761D02*
X74085714Y-160502380D01*
X74276190Y-160502380D01*
X74371428Y-160454761D01*
X74419047Y-160359523D01*
X74419047Y-159978571D01*
X74371428Y-159883333D01*
X74276190Y-159835714D01*
X74085714Y-159835714D01*
X73990476Y-159883333D01*
X73942857Y-159978571D01*
X73942857Y-160073809D01*
X74419047Y-160169047D01*
X96609523Y-163707142D02*
X96657142Y-163754761D01*
X96800000Y-163802380D01*
X96895238Y-163802380D01*
X97038095Y-163754761D01*
X97133333Y-163659523D01*
X97180952Y-163564285D01*
X97228571Y-163373809D01*
X97228571Y-163230952D01*
X97180952Y-163040476D01*
X97133333Y-162945238D01*
X97038095Y-162850000D01*
X96895238Y-162802380D01*
X96800000Y-162802380D01*
X96657142Y-162850000D01*
X96609523Y-162897619D01*
X95609523Y-163707142D02*
X95657142Y-163754761D01*
X95800000Y-163802380D01*
X95895238Y-163802380D01*
X96038095Y-163754761D01*
X96133333Y-163659523D01*
X96180952Y-163564285D01*
X96228571Y-163373809D01*
X96228571Y-163230952D01*
X96180952Y-163040476D01*
X96133333Y-162945238D01*
X96038095Y-162850000D01*
X95895238Y-162802380D01*
X95800000Y-162802380D01*
X95657142Y-162850000D01*
X95609523Y-162897619D01*
X95180952Y-163421428D02*
X94419047Y-163421428D01*
X93609523Y-163278571D02*
X93466666Y-163326190D01*
X93419047Y-163373809D01*
X93371428Y-163469047D01*
X93371428Y-163611904D01*
X93419047Y-163707142D01*
X93466666Y-163754761D01*
X93561904Y-163802380D01*
X93942857Y-163802380D01*
X93942857Y-162802380D01*
X93609523Y-162802380D01*
X93514285Y-162850000D01*
X93466666Y-162897619D01*
X93419047Y-162992857D01*
X93419047Y-163088095D01*
X93466666Y-163183333D01*
X93514285Y-163230952D01*
X93609523Y-163278571D01*
X93942857Y-163278571D01*
X92752380Y-163326190D02*
X92752380Y-163802380D01*
X93085714Y-162802380D02*
X92752380Y-163326190D01*
X92419047Y-162802380D01*
X92085714Y-163421428D02*
X91323809Y-163421428D01*
X90895238Y-163754761D02*
X90752380Y-163802380D01*
X90514285Y-163802380D01*
X90419047Y-163754761D01*
X90371428Y-163707142D01*
X90323809Y-163611904D01*
X90323809Y-163516666D01*
X90371428Y-163421428D01*
X90419047Y-163373809D01*
X90514285Y-163326190D01*
X90704761Y-163278571D01*
X90800000Y-163230952D01*
X90847619Y-163183333D01*
X90895238Y-163088095D01*
X90895238Y-162992857D01*
X90847619Y-162897619D01*
X90800000Y-162850000D01*
X90704761Y-162802380D01*
X90466666Y-162802380D01*
X90323809Y-162850000D01*
X89942857Y-163516666D02*
X89466666Y-163516666D01*
X90038095Y-163802380D02*
X89704761Y-162802380D01*
X89371428Y-163802380D01*
X88276190Y-163802380D02*
X88276190Y-162802380D01*
X87704761Y-163802380D01*
X87704761Y-162802380D01*
X87228571Y-163802380D02*
X87228571Y-163135714D01*
X87228571Y-162802380D02*
X87276190Y-162850000D01*
X87228571Y-162897619D01*
X87180952Y-162850000D01*
X87228571Y-162802380D01*
X87228571Y-162897619D01*
X86752380Y-163802380D02*
X86752380Y-162802380D01*
X86657142Y-163421428D02*
X86371428Y-163802380D01*
X86371428Y-163135714D02*
X86752380Y-163516666D01*
X85800000Y-163802380D02*
X85895238Y-163754761D01*
X85942857Y-163659523D01*
X85942857Y-162802380D01*
X84990476Y-163802380D02*
X84990476Y-163278571D01*
X85038095Y-163183333D01*
X85133333Y-163135714D01*
X85323809Y-163135714D01*
X85419047Y-163183333D01*
X84990476Y-163754761D02*
X85085714Y-163802380D01*
X85323809Y-163802380D01*
X85419047Y-163754761D01*
X85466666Y-163659523D01*
X85466666Y-163564285D01*
X85419047Y-163469047D01*
X85323809Y-163421428D01*
X85085714Y-163421428D01*
X84990476Y-163373809D01*
X84561904Y-163754761D02*
X84466666Y-163802380D01*
X84276190Y-163802380D01*
X84180952Y-163754761D01*
X84133333Y-163659523D01*
X84133333Y-163611904D01*
X84180952Y-163516666D01*
X84276190Y-163469047D01*
X84419047Y-163469047D01*
X84514285Y-163421428D01*
X84561904Y-163326190D01*
X84561904Y-163278571D01*
X84514285Y-163183333D01*
X84419047Y-163135714D01*
X84276190Y-163135714D01*
X84180952Y-163183333D01*
X82371428Y-163802380D02*
X82704761Y-163326190D01*
X82942857Y-163802380D02*
X82942857Y-162802380D01*
X82561904Y-162802380D01*
X82466666Y-162850000D01*
X82419047Y-162897619D01*
X82371428Y-162992857D01*
X82371428Y-163135714D01*
X82419047Y-163230952D01*
X82466666Y-163278571D01*
X82561904Y-163326190D01*
X82942857Y-163326190D01*
X81800000Y-163802380D02*
X81895238Y-163754761D01*
X81942857Y-163707142D01*
X81990476Y-163611904D01*
X81990476Y-163326190D01*
X81942857Y-163230952D01*
X81895238Y-163183333D01*
X81800000Y-163135714D01*
X81657142Y-163135714D01*
X81561904Y-163183333D01*
X81514285Y-163230952D01*
X81466666Y-163326190D01*
X81466666Y-163611904D01*
X81514285Y-163707142D01*
X81561904Y-163754761D01*
X81657142Y-163802380D01*
X81800000Y-163802380D01*
X81038095Y-163135714D02*
X81038095Y-163802380D01*
X81038095Y-163230952D02*
X80990476Y-163183333D01*
X80895238Y-163135714D01*
X80752380Y-163135714D01*
X80657142Y-163183333D01*
X80609523Y-163278571D01*
X80609523Y-163802380D01*
X80133333Y-163135714D02*
X80133333Y-163802380D01*
X80133333Y-163230952D02*
X80085714Y-163183333D01*
X79990476Y-163135714D01*
X79847619Y-163135714D01*
X79752380Y-163183333D01*
X79704761Y-163278571D01*
X79704761Y-163802380D01*
X79228571Y-163802380D02*
X79228571Y-162802380D01*
X79228571Y-163183333D02*
X79133333Y-163135714D01*
X78942857Y-163135714D01*
X78847619Y-163183333D01*
X78800000Y-163230952D01*
X78752380Y-163326190D01*
X78752380Y-163611904D01*
X78800000Y-163707142D01*
X78847619Y-163754761D01*
X78942857Y-163802380D01*
X79133333Y-163802380D01*
X79228571Y-163754761D01*
X77942857Y-163754761D02*
X78038095Y-163802380D01*
X78228571Y-163802380D01*
X78323809Y-163754761D01*
X78371428Y-163659523D01*
X78371428Y-163278571D01*
X78323809Y-163183333D01*
X78228571Y-163135714D01*
X78038095Y-163135714D01*
X77942857Y-163183333D01*
X77895238Y-163278571D01*
X77895238Y-163373809D01*
X78371428Y-163469047D01*
X77466666Y-163802380D02*
X77466666Y-163135714D01*
X77466666Y-163326190D02*
X77419047Y-163230952D01*
X77371428Y-163183333D01*
X77276190Y-163135714D01*
X77180952Y-163135714D01*
X76419047Y-163135714D02*
X76419047Y-163945238D01*
X76466666Y-164040476D01*
X76514285Y-164088095D01*
X76609523Y-164135714D01*
X76752380Y-164135714D01*
X76847619Y-164088095D01*
X76419047Y-163754761D02*
X76514285Y-163802380D01*
X76704761Y-163802380D01*
X76800000Y-163754761D01*
X76847619Y-163707142D01*
X76895238Y-163611904D01*
X76895238Y-163326190D01*
X76847619Y-163230952D01*
X76800000Y-163183333D01*
X76704761Y-163135714D01*
X76514285Y-163135714D01*
X76419047Y-163183333D01*
X95538095Y-165452380D02*
X95538095Y-164452380D01*
X95300000Y-164452380D01*
X95157142Y-164500000D01*
X95061904Y-164595238D01*
X95014285Y-164690476D01*
X94966666Y-164880952D01*
X94966666Y-165023809D01*
X95014285Y-165214285D01*
X95061904Y-165309523D01*
X95157142Y-165404761D01*
X95300000Y-165452380D01*
X95538095Y-165452380D01*
X94157142Y-165404761D02*
X94252380Y-165452380D01*
X94442857Y-165452380D01*
X94538095Y-165404761D01*
X94585714Y-165309523D01*
X94585714Y-164928571D01*
X94538095Y-164833333D01*
X94442857Y-164785714D01*
X94252380Y-164785714D01*
X94157142Y-164833333D01*
X94109523Y-164928571D01*
X94109523Y-165023809D01*
X94585714Y-165119047D01*
X93728571Y-165404761D02*
X93633333Y-165452380D01*
X93442857Y-165452380D01*
X93347619Y-165404761D01*
X93300000Y-165309523D01*
X93300000Y-165261904D01*
X93347619Y-165166666D01*
X93442857Y-165119047D01*
X93585714Y-165119047D01*
X93680952Y-165071428D01*
X93728571Y-164976190D01*
X93728571Y-164928571D01*
X93680952Y-164833333D01*
X93585714Y-164785714D01*
X93442857Y-164785714D01*
X93347619Y-164833333D01*
X92871428Y-165452380D02*
X92871428Y-164785714D01*
X92871428Y-164452380D02*
X92919047Y-164500000D01*
X92871428Y-164547619D01*
X92823809Y-164500000D01*
X92871428Y-164452380D01*
X92871428Y-164547619D01*
X91966666Y-164785714D02*
X91966666Y-165595238D01*
X92014285Y-165690476D01*
X92061904Y-165738095D01*
X92157142Y-165785714D01*
X92300000Y-165785714D01*
X92395238Y-165738095D01*
X91966666Y-165404761D02*
X92061904Y-165452380D01*
X92252380Y-165452380D01*
X92347619Y-165404761D01*
X92395238Y-165357142D01*
X92442857Y-165261904D01*
X92442857Y-164976190D01*
X92395238Y-164880952D01*
X92347619Y-164833333D01*
X92252380Y-164785714D01*
X92061904Y-164785714D01*
X91966666Y-164833333D01*
X91490476Y-164785714D02*
X91490476Y-165452380D01*
X91490476Y-164880952D02*
X91442857Y-164833333D01*
X91347619Y-164785714D01*
X91204761Y-164785714D01*
X91109523Y-164833333D01*
X91061904Y-164928571D01*
X91061904Y-165452380D01*
X90204761Y-165404761D02*
X90300000Y-165452380D01*
X90490476Y-165452380D01*
X90585714Y-165404761D01*
X90633333Y-165309523D01*
X90633333Y-164928571D01*
X90585714Y-164833333D01*
X90490476Y-164785714D01*
X90300000Y-164785714D01*
X90204761Y-164833333D01*
X90157142Y-164928571D01*
X90157142Y-165023809D01*
X90633333Y-165119047D01*
X89300000Y-165452380D02*
X89300000Y-164452380D01*
X89300000Y-165404761D02*
X89395238Y-165452380D01*
X89585714Y-165452380D01*
X89680952Y-165404761D01*
X89728571Y-165357142D01*
X89776190Y-165261904D01*
X89776190Y-164976190D01*
X89728571Y-164880952D01*
X89680952Y-164833333D01*
X89585714Y-164785714D01*
X89395238Y-164785714D01*
X89300000Y-164833333D01*
X88204761Y-164785714D02*
X87823809Y-164785714D01*
X88061904Y-165452380D02*
X88061904Y-164595238D01*
X88014285Y-164500000D01*
X87919047Y-164452380D01*
X87823809Y-164452380D01*
X87347619Y-165452380D02*
X87442857Y-165404761D01*
X87490476Y-165357142D01*
X87538095Y-165261904D01*
X87538095Y-164976190D01*
X87490476Y-164880952D01*
X87442857Y-164833333D01*
X87347619Y-164785714D01*
X87204761Y-164785714D01*
X87109523Y-164833333D01*
X87061904Y-164880952D01*
X87014285Y-164976190D01*
X87014285Y-165261904D01*
X87061904Y-165357142D01*
X87109523Y-165404761D01*
X87204761Y-165452380D01*
X87347619Y-165452380D01*
X86585714Y-165452380D02*
X86585714Y-164785714D01*
X86585714Y-164976190D02*
X86538095Y-164880952D01*
X86490476Y-164833333D01*
X86395238Y-164785714D01*
X86300000Y-164785714D01*
X85204761Y-165452380D02*
X85204761Y-164452380D01*
X84633333Y-165452380D02*
X85061904Y-164880952D01*
X84633333Y-164452380D02*
X85204761Y-165023809D01*
X84014285Y-164452380D02*
X83823809Y-164452380D01*
X83728571Y-164500000D01*
X83633333Y-164595238D01*
X83585714Y-164785714D01*
X83585714Y-165119047D01*
X83633333Y-165309523D01*
X83728571Y-165404761D01*
X83823809Y-165452380D01*
X84014285Y-165452380D01*
X84109523Y-165404761D01*
X84204761Y-165309523D01*
X84252380Y-165119047D01*
X84252380Y-164785714D01*
X84204761Y-164595238D01*
X84109523Y-164500000D01*
X84014285Y-164452380D01*
X83204761Y-165404761D02*
X83061904Y-165452380D01*
X82823809Y-165452380D01*
X82728571Y-165404761D01*
X82680952Y-165357142D01*
X82633333Y-165261904D01*
X82633333Y-165166666D01*
X82680952Y-165071428D01*
X82728571Y-165023809D01*
X82823809Y-164976190D01*
X83014285Y-164928571D01*
X83109523Y-164880952D01*
X83157142Y-164833333D01*
X83204761Y-164738095D01*
X83204761Y-164642857D01*
X83157142Y-164547619D01*
X83109523Y-164500000D01*
X83014285Y-164452380D01*
X82776190Y-164452380D01*
X82633333Y-164500000D01*
X82204761Y-165452380D02*
X82204761Y-164452380D01*
X81871428Y-165166666D01*
X81538095Y-164452380D01*
X81538095Y-165452380D01*
X80871428Y-164452380D02*
X80680952Y-164452380D01*
X80585714Y-164500000D01*
X80490476Y-164595238D01*
X80442857Y-164785714D01*
X80442857Y-165119047D01*
X80490476Y-165309523D01*
X80585714Y-165404761D01*
X80680952Y-165452380D01*
X80871428Y-165452380D01*
X80966666Y-165404761D01*
X81061904Y-165309523D01*
X81109523Y-165119047D01*
X81109523Y-164785714D01*
X81061904Y-164595238D01*
X80966666Y-164500000D01*
X80871428Y-164452380D01*
X79252380Y-165452380D02*
X79252380Y-164452380D01*
X79252380Y-164833333D02*
X79157142Y-164785714D01*
X78966666Y-164785714D01*
X78871428Y-164833333D01*
X78823809Y-164880952D01*
X78776190Y-164976190D01*
X78776190Y-165261904D01*
X78823809Y-165357142D01*
X78871428Y-165404761D01*
X78966666Y-165452380D01*
X79157142Y-165452380D01*
X79252380Y-165404761D01*
X78442857Y-164785714D02*
X78204761Y-165452380D01*
X77966666Y-164785714D02*
X78204761Y-165452380D01*
X78300000Y-165690476D01*
X78347619Y-165738095D01*
X78442857Y-165785714D01*
X95800000Y-167054761D02*
X95895238Y-167102380D01*
X96085714Y-167102380D01*
X96180952Y-167054761D01*
X96228571Y-167007142D01*
X96276190Y-166911904D01*
X96276190Y-166626190D01*
X96228571Y-166530952D01*
X96180952Y-166483333D01*
X96085714Y-166435714D01*
X95895238Y-166435714D01*
X95800000Y-166483333D01*
X95371428Y-167102380D02*
X95371428Y-166435714D01*
X95371428Y-166626190D02*
X95323809Y-166530952D01*
X95276190Y-166483333D01*
X95180952Y-166435714D01*
X95085714Y-166435714D01*
X94323809Y-166435714D02*
X94323809Y-167102380D01*
X94752380Y-166435714D02*
X94752380Y-166959523D01*
X94704761Y-167054761D01*
X94609523Y-167102380D01*
X94466666Y-167102380D01*
X94371428Y-167054761D01*
X94323809Y-167007142D01*
X93419047Y-167054761D02*
X93514285Y-167102380D01*
X93704761Y-167102380D01*
X93800000Y-167054761D01*
X93847619Y-167007142D01*
X93895238Y-166911904D01*
X93895238Y-166626190D01*
X93847619Y-166530952D01*
X93800000Y-166483333D01*
X93704761Y-166435714D01*
X93514285Y-166435714D01*
X93419047Y-166483333D01*
X92657142Y-166578571D02*
X92990476Y-166578571D01*
X92990476Y-167102380D02*
X92990476Y-166102380D01*
X92514285Y-166102380D01*
X92228571Y-166102380D02*
X91561904Y-167102380D01*
X91561904Y-166102380D02*
X92228571Y-167102380D01*
X90419047Y-166721428D02*
X89657142Y-166721428D01*
X88133333Y-166102380D02*
X88133333Y-166816666D01*
X88180952Y-166959523D01*
X88276190Y-167054761D01*
X88419047Y-167102380D01*
X88514285Y-167102380D01*
X87514285Y-167102380D02*
X87609523Y-167054761D01*
X87657142Y-167007142D01*
X87704761Y-166911904D01*
X87704761Y-166626190D01*
X87657142Y-166530952D01*
X87609523Y-166483333D01*
X87514285Y-166435714D01*
X87371428Y-166435714D01*
X87276190Y-166483333D01*
X87228571Y-166530952D01*
X87180952Y-166626190D01*
X87180952Y-166911904D01*
X87228571Y-167007142D01*
X87276190Y-167054761D01*
X87371428Y-167102380D01*
X87514285Y-167102380D01*
X86800000Y-167054761D02*
X86704761Y-167102380D01*
X86514285Y-167102380D01*
X86419047Y-167054761D01*
X86371428Y-166959523D01*
X86371428Y-166911904D01*
X86419047Y-166816666D01*
X86514285Y-166769047D01*
X86657142Y-166769047D01*
X86752380Y-166721428D01*
X86800000Y-166626190D01*
X86800000Y-166578571D01*
X86752380Y-166483333D01*
X86657142Y-166435714D01*
X86514285Y-166435714D01*
X86419047Y-166483333D01*
X85942857Y-167102380D02*
X85942857Y-166102380D01*
X85514285Y-167102380D02*
X85514285Y-166578571D01*
X85561904Y-166483333D01*
X85657142Y-166435714D01*
X85800000Y-166435714D01*
X85895238Y-166483333D01*
X85942857Y-166530952D01*
X83704761Y-167102380D02*
X84038095Y-166626190D01*
X84276190Y-167102380D02*
X84276190Y-166102380D01*
X83895238Y-166102380D01*
X83800000Y-166150000D01*
X83752380Y-166197619D01*
X83704761Y-166292857D01*
X83704761Y-166435714D01*
X83752380Y-166530952D01*
X83800000Y-166578571D01*
X83895238Y-166626190D01*
X84276190Y-166626190D01*
X83133333Y-167102380D02*
X83228571Y-167054761D01*
X83276190Y-167007142D01*
X83323809Y-166911904D01*
X83323809Y-166626190D01*
X83276190Y-166530952D01*
X83228571Y-166483333D01*
X83133333Y-166435714D01*
X82990476Y-166435714D01*
X82895238Y-166483333D01*
X82847619Y-166530952D01*
X82800000Y-166626190D01*
X82800000Y-166911904D01*
X82847619Y-167007142D01*
X82895238Y-167054761D01*
X82990476Y-167102380D01*
X83133333Y-167102380D01*
X81942857Y-167102380D02*
X81942857Y-166102380D01*
X81942857Y-167054761D02*
X82038095Y-167102380D01*
X82228571Y-167102380D01*
X82323809Y-167054761D01*
X82371428Y-167007142D01*
X82419047Y-166911904D01*
X82419047Y-166626190D01*
X82371428Y-166530952D01*
X82323809Y-166483333D01*
X82228571Y-166435714D01*
X82038095Y-166435714D01*
X81942857Y-166483333D01*
X81466666Y-167102380D02*
X81466666Y-166435714D01*
X81466666Y-166626190D02*
X81419047Y-166530952D01*
X81371428Y-166483333D01*
X81276190Y-166435714D01*
X81180952Y-166435714D01*
X80847619Y-167102380D02*
X80847619Y-166435714D01*
X80847619Y-166102380D02*
X80895238Y-166150000D01*
X80847619Y-166197619D01*
X80800000Y-166150000D01*
X80847619Y-166102380D01*
X80847619Y-166197619D01*
X79942857Y-166435714D02*
X79942857Y-167435714D01*
X79942857Y-167054761D02*
X80038095Y-167102380D01*
X80228571Y-167102380D01*
X80323809Y-167054761D01*
X80371428Y-167007142D01*
X80419047Y-166911904D01*
X80419047Y-166626190D01*
X80371428Y-166530952D01*
X80323809Y-166483333D01*
X80228571Y-166435714D01*
X80038095Y-166435714D01*
X79942857Y-166483333D01*
X79038095Y-166435714D02*
X79038095Y-167102380D01*
X79466666Y-166435714D02*
X79466666Y-166959523D01*
X79419047Y-167054761D01*
X79323809Y-167102380D01*
X79180952Y-167102380D01*
X79085714Y-167054761D01*
X79038095Y-167007142D01*
X78180952Y-167054761D02*
X78276190Y-167102380D01*
X78466666Y-167102380D01*
X78561904Y-167054761D01*
X78609523Y-166959523D01*
X78609523Y-166578571D01*
X78561904Y-166483333D01*
X78466666Y-166435714D01*
X78276190Y-166435714D01*
X78180952Y-166483333D01*
X78133333Y-166578571D01*
X78133333Y-166673809D01*
X78609523Y-166769047D01*
X77800000Y-166435714D02*
X77276190Y-166435714D01*
X77800000Y-167102380D01*
X77276190Y-167102380D01*
D11*
%TO.C,C1*%
X118020000Y-145200000D02*
G75*
G03*
X118020000Y-145200000I-2620000J0D01*
G01*
X115400000Y-144160000D02*
X115400000Y-142620000D01*
X115400000Y-147780000D02*
X115400000Y-146240000D01*
X115440000Y-144160000D02*
X115440000Y-142620000D01*
X115440000Y-147780000D02*
X115440000Y-146240000D01*
X115480000Y-147779000D02*
X115480000Y-146240000D01*
X115480000Y-144160000D02*
X115480000Y-142621000D01*
X115520000Y-147778000D02*
X115520000Y-146240000D01*
X115520000Y-144160000D02*
X115520000Y-142622000D01*
X115560000Y-147776000D02*
X115560000Y-146240000D01*
X115560000Y-144160000D02*
X115560000Y-142624000D01*
X115600000Y-147773000D02*
X115600000Y-146240000D01*
X115600000Y-144160000D02*
X115600000Y-142627000D01*
X115640000Y-147769000D02*
X115640000Y-146240000D01*
X115640000Y-144160000D02*
X115640000Y-142631000D01*
X115680000Y-147765000D02*
X115680000Y-146240000D01*
X115680000Y-144160000D02*
X115680000Y-142635000D01*
X115720000Y-147761000D02*
X115720000Y-146240000D01*
X115720000Y-144160000D02*
X115720000Y-142639000D01*
X115760000Y-147756000D02*
X115760000Y-146240000D01*
X115760000Y-144160000D02*
X115760000Y-142644000D01*
X115800000Y-147750000D02*
X115800000Y-146240000D01*
X115800000Y-144160000D02*
X115800000Y-142650000D01*
X115840000Y-147743000D02*
X115840000Y-146240000D01*
X115840000Y-144160000D02*
X115840000Y-142657000D01*
X115880000Y-147736000D02*
X115880000Y-146240000D01*
X115880000Y-144160000D02*
X115880000Y-142664000D01*
X115920000Y-147728000D02*
X115920000Y-146240000D01*
X115920000Y-144160000D02*
X115920000Y-142672000D01*
X115960000Y-147720000D02*
X115960000Y-146240000D01*
X115960000Y-144160000D02*
X115960000Y-142680000D01*
X116000000Y-147711000D02*
X116000000Y-146240000D01*
X116000000Y-144160000D02*
X116000000Y-142689000D01*
X116040000Y-147701000D02*
X116040000Y-146240000D01*
X116040000Y-144160000D02*
X116040000Y-142699000D01*
X116080000Y-147691000D02*
X116080000Y-146240000D01*
X116080000Y-144160000D02*
X116080000Y-142709000D01*
X116121000Y-147680000D02*
X116121000Y-146240000D01*
X116121000Y-144160000D02*
X116121000Y-142720000D01*
X116161000Y-147668000D02*
X116161000Y-146240000D01*
X116161000Y-144160000D02*
X116161000Y-142732000D01*
X116201000Y-147655000D02*
X116201000Y-146240000D01*
X116201000Y-144160000D02*
X116201000Y-142745000D01*
X116241000Y-147642000D02*
X116241000Y-146240000D01*
X116241000Y-144160000D02*
X116241000Y-142758000D01*
X116281000Y-147628000D02*
X116281000Y-146240000D01*
X116281000Y-144160000D02*
X116281000Y-142772000D01*
X116321000Y-147614000D02*
X116321000Y-146240000D01*
X116321000Y-144160000D02*
X116321000Y-142786000D01*
X116361000Y-147598000D02*
X116361000Y-146240000D01*
X116361000Y-144160000D02*
X116361000Y-142802000D01*
X116401000Y-147582000D02*
X116401000Y-146240000D01*
X116401000Y-144160000D02*
X116401000Y-142818000D01*
X116441000Y-147565000D02*
X116441000Y-146240000D01*
X116441000Y-144160000D02*
X116441000Y-142835000D01*
X116481000Y-147548000D02*
X116481000Y-146240000D01*
X116481000Y-144160000D02*
X116481000Y-142852000D01*
X116521000Y-147529000D02*
X116521000Y-146240000D01*
X116521000Y-144160000D02*
X116521000Y-142871000D01*
X116561000Y-147510000D02*
X116561000Y-146240000D01*
X116561000Y-144160000D02*
X116561000Y-142890000D01*
X116601000Y-147490000D02*
X116601000Y-146240000D01*
X116601000Y-144160000D02*
X116601000Y-142910000D01*
X116641000Y-147468000D02*
X116641000Y-146240000D01*
X116641000Y-144160000D02*
X116641000Y-142932000D01*
X116681000Y-147447000D02*
X116681000Y-146240000D01*
X116681000Y-144160000D02*
X116681000Y-142953000D01*
X116721000Y-147424000D02*
X116721000Y-146240000D01*
X116721000Y-144160000D02*
X116721000Y-142976000D01*
X116761000Y-147400000D02*
X116761000Y-146240000D01*
X116761000Y-144160000D02*
X116761000Y-143000000D01*
X116801000Y-147375000D02*
X116801000Y-146240000D01*
X116801000Y-144160000D02*
X116801000Y-143025000D01*
X116841000Y-147349000D02*
X116841000Y-146240000D01*
X116841000Y-144160000D02*
X116841000Y-143051000D01*
X116881000Y-147322000D02*
X116881000Y-146240000D01*
X116881000Y-144160000D02*
X116881000Y-143078000D01*
X116921000Y-147295000D02*
X116921000Y-146240000D01*
X116921000Y-144160000D02*
X116921000Y-143105000D01*
X116961000Y-147265000D02*
X116961000Y-146240000D01*
X116961000Y-144160000D02*
X116961000Y-143135000D01*
X117001000Y-147235000D02*
X117001000Y-146240000D01*
X117001000Y-144160000D02*
X117001000Y-143165000D01*
X117041000Y-147204000D02*
X117041000Y-146240000D01*
X117041000Y-144160000D02*
X117041000Y-143196000D01*
X117081000Y-147171000D02*
X117081000Y-146240000D01*
X117081000Y-144160000D02*
X117081000Y-143229000D01*
X117121000Y-147137000D02*
X117121000Y-146240000D01*
X117121000Y-144160000D02*
X117121000Y-143263000D01*
X117161000Y-147101000D02*
X117161000Y-146240000D01*
X117161000Y-144160000D02*
X117161000Y-143299000D01*
X117201000Y-147064000D02*
X117201000Y-146240000D01*
X117201000Y-144160000D02*
X117201000Y-143336000D01*
X117241000Y-147026000D02*
X117241000Y-146240000D01*
X117241000Y-144160000D02*
X117241000Y-143374000D01*
X117281000Y-146985000D02*
X117281000Y-146240000D01*
X117281000Y-144160000D02*
X117281000Y-143415000D01*
X117321000Y-146943000D02*
X117321000Y-146240000D01*
X117321000Y-144160000D02*
X117321000Y-143457000D01*
X117361000Y-146899000D02*
X117361000Y-146240000D01*
X117361000Y-144160000D02*
X117361000Y-143501000D01*
X117401000Y-146853000D02*
X117401000Y-146240000D01*
X117401000Y-144160000D02*
X117401000Y-143547000D01*
X117441000Y-146805000D02*
X117441000Y-143595000D01*
X117481000Y-146754000D02*
X117481000Y-143646000D01*
X117521000Y-146700000D02*
X117521000Y-143700000D01*
X117561000Y-146643000D02*
X117561000Y-143757000D01*
X117601000Y-146583000D02*
X117601000Y-143817000D01*
X117641000Y-146519000D02*
X117641000Y-143881000D01*
X117681000Y-146451000D02*
X117681000Y-143949000D01*
X117721000Y-146378000D02*
X117721000Y-144022000D01*
X117761000Y-146298000D02*
X117761000Y-144102000D01*
X117801000Y-146211000D02*
X117801000Y-144189000D01*
X117841000Y-146115000D02*
X117841000Y-144285000D01*
X117881000Y-146005000D02*
X117881000Y-144395000D01*
X117921000Y-145877000D02*
X117921000Y-144523000D01*
X117961000Y-145718000D02*
X117961000Y-144682000D01*
X118001000Y-145484000D02*
X118001000Y-144916000D01*
X112595225Y-146675000D02*
X113095225Y-146675000D01*
X112845225Y-146925000D02*
X112845225Y-146425000D01*
%TO.C,C2*%
X121845225Y-146925000D02*
X121845225Y-146425000D01*
X121595225Y-146675000D02*
X122095225Y-146675000D01*
X127001000Y-145484000D02*
X127001000Y-144916000D01*
X126961000Y-145718000D02*
X126961000Y-144682000D01*
X126921000Y-145877000D02*
X126921000Y-144523000D01*
X126881000Y-146005000D02*
X126881000Y-144395000D01*
X126841000Y-146115000D02*
X126841000Y-144285000D01*
X126801000Y-146211000D02*
X126801000Y-144189000D01*
X126761000Y-146298000D02*
X126761000Y-144102000D01*
X126721000Y-146378000D02*
X126721000Y-144022000D01*
X126681000Y-146451000D02*
X126681000Y-143949000D01*
X126641000Y-146519000D02*
X126641000Y-143881000D01*
X126601000Y-146583000D02*
X126601000Y-143817000D01*
X126561000Y-146643000D02*
X126561000Y-143757000D01*
X126521000Y-146700000D02*
X126521000Y-143700000D01*
X126481000Y-146754000D02*
X126481000Y-143646000D01*
X126441000Y-146805000D02*
X126441000Y-143595000D01*
X126401000Y-144160000D02*
X126401000Y-143547000D01*
X126401000Y-146853000D02*
X126401000Y-146240000D01*
X126361000Y-144160000D02*
X126361000Y-143501000D01*
X126361000Y-146899000D02*
X126361000Y-146240000D01*
X126321000Y-144160000D02*
X126321000Y-143457000D01*
X126321000Y-146943000D02*
X126321000Y-146240000D01*
X126281000Y-144160000D02*
X126281000Y-143415000D01*
X126281000Y-146985000D02*
X126281000Y-146240000D01*
X126241000Y-144160000D02*
X126241000Y-143374000D01*
X126241000Y-147026000D02*
X126241000Y-146240000D01*
X126201000Y-144160000D02*
X126201000Y-143336000D01*
X126201000Y-147064000D02*
X126201000Y-146240000D01*
X126161000Y-144160000D02*
X126161000Y-143299000D01*
X126161000Y-147101000D02*
X126161000Y-146240000D01*
X126121000Y-144160000D02*
X126121000Y-143263000D01*
X126121000Y-147137000D02*
X126121000Y-146240000D01*
X126081000Y-144160000D02*
X126081000Y-143229000D01*
X126081000Y-147171000D02*
X126081000Y-146240000D01*
X126041000Y-144160000D02*
X126041000Y-143196000D01*
X126041000Y-147204000D02*
X126041000Y-146240000D01*
X126001000Y-144160000D02*
X126001000Y-143165000D01*
X126001000Y-147235000D02*
X126001000Y-146240000D01*
X125961000Y-144160000D02*
X125961000Y-143135000D01*
X125961000Y-147265000D02*
X125961000Y-146240000D01*
X125921000Y-144160000D02*
X125921000Y-143105000D01*
X125921000Y-147295000D02*
X125921000Y-146240000D01*
X125881000Y-144160000D02*
X125881000Y-143078000D01*
X125881000Y-147322000D02*
X125881000Y-146240000D01*
X125841000Y-144160000D02*
X125841000Y-143051000D01*
X125841000Y-147349000D02*
X125841000Y-146240000D01*
X125801000Y-144160000D02*
X125801000Y-143025000D01*
X125801000Y-147375000D02*
X125801000Y-146240000D01*
X125761000Y-144160000D02*
X125761000Y-143000000D01*
X125761000Y-147400000D02*
X125761000Y-146240000D01*
X125721000Y-144160000D02*
X125721000Y-142976000D01*
X125721000Y-147424000D02*
X125721000Y-146240000D01*
X125681000Y-144160000D02*
X125681000Y-142953000D01*
X125681000Y-147447000D02*
X125681000Y-146240000D01*
X125641000Y-144160000D02*
X125641000Y-142932000D01*
X125641000Y-147468000D02*
X125641000Y-146240000D01*
X125601000Y-144160000D02*
X125601000Y-142910000D01*
X125601000Y-147490000D02*
X125601000Y-146240000D01*
X125561000Y-144160000D02*
X125561000Y-142890000D01*
X125561000Y-147510000D02*
X125561000Y-146240000D01*
X125521000Y-144160000D02*
X125521000Y-142871000D01*
X125521000Y-147529000D02*
X125521000Y-146240000D01*
X125481000Y-144160000D02*
X125481000Y-142852000D01*
X125481000Y-147548000D02*
X125481000Y-146240000D01*
X125441000Y-144160000D02*
X125441000Y-142835000D01*
X125441000Y-147565000D02*
X125441000Y-146240000D01*
X125401000Y-144160000D02*
X125401000Y-142818000D01*
X125401000Y-147582000D02*
X125401000Y-146240000D01*
X125361000Y-144160000D02*
X125361000Y-142802000D01*
X125361000Y-147598000D02*
X125361000Y-146240000D01*
X125321000Y-144160000D02*
X125321000Y-142786000D01*
X125321000Y-147614000D02*
X125321000Y-146240000D01*
X125281000Y-144160000D02*
X125281000Y-142772000D01*
X125281000Y-147628000D02*
X125281000Y-146240000D01*
X125241000Y-144160000D02*
X125241000Y-142758000D01*
X125241000Y-147642000D02*
X125241000Y-146240000D01*
X125201000Y-144160000D02*
X125201000Y-142745000D01*
X125201000Y-147655000D02*
X125201000Y-146240000D01*
X125161000Y-144160000D02*
X125161000Y-142732000D01*
X125161000Y-147668000D02*
X125161000Y-146240000D01*
X125121000Y-144160000D02*
X125121000Y-142720000D01*
X125121000Y-147680000D02*
X125121000Y-146240000D01*
X125080000Y-144160000D02*
X125080000Y-142709000D01*
X125080000Y-147691000D02*
X125080000Y-146240000D01*
X125040000Y-144160000D02*
X125040000Y-142699000D01*
X125040000Y-147701000D02*
X125040000Y-146240000D01*
X125000000Y-144160000D02*
X125000000Y-142689000D01*
X125000000Y-147711000D02*
X125000000Y-146240000D01*
X124960000Y-144160000D02*
X124960000Y-142680000D01*
X124960000Y-147720000D02*
X124960000Y-146240000D01*
X124920000Y-144160000D02*
X124920000Y-142672000D01*
X124920000Y-147728000D02*
X124920000Y-146240000D01*
X124880000Y-144160000D02*
X124880000Y-142664000D01*
X124880000Y-147736000D02*
X124880000Y-146240000D01*
X124840000Y-144160000D02*
X124840000Y-142657000D01*
X124840000Y-147743000D02*
X124840000Y-146240000D01*
X124800000Y-144160000D02*
X124800000Y-142650000D01*
X124800000Y-147750000D02*
X124800000Y-146240000D01*
X124760000Y-144160000D02*
X124760000Y-142644000D01*
X124760000Y-147756000D02*
X124760000Y-146240000D01*
X124720000Y-144160000D02*
X124720000Y-142639000D01*
X124720000Y-147761000D02*
X124720000Y-146240000D01*
X124680000Y-144160000D02*
X124680000Y-142635000D01*
X124680000Y-147765000D02*
X124680000Y-146240000D01*
X124640000Y-144160000D02*
X124640000Y-142631000D01*
X124640000Y-147769000D02*
X124640000Y-146240000D01*
X124600000Y-144160000D02*
X124600000Y-142627000D01*
X124600000Y-147773000D02*
X124600000Y-146240000D01*
X124560000Y-144160000D02*
X124560000Y-142624000D01*
X124560000Y-147776000D02*
X124560000Y-146240000D01*
X124520000Y-144160000D02*
X124520000Y-142622000D01*
X124520000Y-147778000D02*
X124520000Y-146240000D01*
X124480000Y-144160000D02*
X124480000Y-142621000D01*
X124480000Y-147779000D02*
X124480000Y-146240000D01*
X124440000Y-147780000D02*
X124440000Y-146240000D01*
X124440000Y-144160000D02*
X124440000Y-142620000D01*
X124400000Y-147780000D02*
X124400000Y-146240000D01*
X124400000Y-144160000D02*
X124400000Y-142620000D01*
X127020000Y-145200000D02*
G75*
G03*
X127020000Y-145200000I-2620000J0D01*
G01*
%TO.C,C3*%
X124270000Y-36080000D02*
X117030000Y-36080000D01*
X124270000Y-38820000D02*
X117030000Y-38820000D01*
X124270000Y-36080000D02*
X124270000Y-38820000D01*
X117030000Y-36080000D02*
X117030000Y-38820000D01*
%TO.C,C4*%
X117860000Y-137200000D02*
X117170000Y-137200000D01*
X112440000Y-137200000D02*
X113130000Y-137200000D01*
X117170000Y-138620000D02*
X113130000Y-138620000D01*
X117170000Y-135780000D02*
X117170000Y-138620000D01*
X113130000Y-135780000D02*
X117170000Y-135780000D01*
X113130000Y-138620000D02*
X113130000Y-135780000D01*
%TO.C,C5*%
X123130000Y-138620000D02*
X123130000Y-135780000D01*
X123130000Y-135780000D02*
X127170000Y-135780000D01*
X127170000Y-135780000D02*
X127170000Y-138620000D01*
X127170000Y-138620000D02*
X123130000Y-138620000D01*
X122440000Y-137200000D02*
X123130000Y-137200000D01*
X127860000Y-137200000D02*
X127170000Y-137200000D01*
%TO.C,C6*%
X127780000Y-68830000D02*
X127780000Y-71570000D01*
X135020000Y-68830000D02*
X135020000Y-71570000D01*
X135020000Y-71570000D02*
X127780000Y-71570000D01*
X135020000Y-68830000D02*
X127780000Y-68830000D01*
%TO.C,C7*%
X127780000Y-76830000D02*
X127780000Y-79570000D01*
X135020000Y-76830000D02*
X135020000Y-79570000D01*
X135020000Y-79570000D02*
X127780000Y-79570000D01*
X135020000Y-76830000D02*
X127780000Y-76830000D01*
%TO.C,C8*%
X106530000Y-31330000D02*
X106530000Y-34070000D01*
X113770000Y-31330000D02*
X113770000Y-34070000D01*
X113770000Y-34070000D02*
X106530000Y-34070000D01*
X113770000Y-31330000D02*
X106530000Y-31330000D01*
%TO.C,C9*%
X113130000Y-134620000D02*
X113130000Y-131780000D01*
X113130000Y-131780000D02*
X117170000Y-131780000D01*
X117170000Y-131780000D02*
X117170000Y-134620000D01*
X117170000Y-134620000D02*
X113130000Y-134620000D01*
X112440000Y-133200000D02*
X113130000Y-133200000D01*
X117860000Y-133200000D02*
X117170000Y-133200000D01*
%TO.C,C10*%
X127860000Y-133200000D02*
X127170000Y-133200000D01*
X122440000Y-133200000D02*
X123130000Y-133200000D01*
X127170000Y-134620000D02*
X123130000Y-134620000D01*
X127170000Y-131780000D02*
X127170000Y-134620000D01*
X123130000Y-131780000D02*
X127170000Y-131780000D01*
X123130000Y-134620000D02*
X123130000Y-131780000D01*
%TO.C,C11*%
X118030000Y-60330000D02*
X118030000Y-67570000D01*
X120770000Y-60330000D02*
X120770000Y-67570000D01*
X118030000Y-60330000D02*
X120770000Y-60330000D01*
X118030000Y-67570000D02*
X120770000Y-67570000D01*
%TO.C,C12*%
X109520000Y-48080000D02*
X102280000Y-48080000D01*
X109520000Y-50820000D02*
X102280000Y-50820000D01*
X109520000Y-48080000D02*
X109520000Y-50820000D01*
X102280000Y-48080000D02*
X102280000Y-50820000D01*
%TO.C,Q1*%
X97050000Y-111480000D02*
X97050000Y-107880000D01*
X97061522Y-111518478D02*
G75*
G03*
X101500000Y-109680000I1838478J1838478D01*
G01*
X97061522Y-107841522D02*
G75*
G02*
X101500000Y-109680000I1838478J-1838478D01*
G01*
%TO.C,Q2*%
X113550000Y-117230000D02*
X113550000Y-113630000D01*
X113561522Y-117268478D02*
G75*
G03*
X118000000Y-115430000I1838478J1838478D01*
G01*
X113561522Y-113591522D02*
G75*
G02*
X118000000Y-115430000I1838478J-1838478D01*
G01*
%TO.C,R7*%
X128190000Y-75240000D02*
X128190000Y-75570000D01*
X128190000Y-75570000D02*
X134730000Y-75570000D01*
X134730000Y-75570000D02*
X134730000Y-75240000D01*
X128190000Y-73160000D02*
X128190000Y-72830000D01*
X128190000Y-72830000D02*
X134730000Y-72830000D01*
X134730000Y-72830000D02*
X134730000Y-73160000D01*
%TO.C,R4*%
X136230000Y-44830000D02*
X136230000Y-45160000D01*
X129690000Y-44830000D02*
X136230000Y-44830000D01*
X129690000Y-45160000D02*
X129690000Y-44830000D01*
X136230000Y-47570000D02*
X136230000Y-47240000D01*
X129690000Y-47570000D02*
X136230000Y-47570000D01*
X129690000Y-47240000D02*
X129690000Y-47570000D01*
%TO.C,R12*%
X106860000Y-68240000D02*
X106530000Y-68240000D01*
X106530000Y-68240000D02*
X106530000Y-74780000D01*
X106530000Y-74780000D02*
X106860000Y-74780000D01*
X108940000Y-68240000D02*
X109270000Y-68240000D01*
X109270000Y-68240000D02*
X109270000Y-74780000D01*
X109270000Y-74780000D02*
X108940000Y-74780000D01*
%TO.C,R21*%
X116190000Y-91240000D02*
X116190000Y-91570000D01*
X116190000Y-91570000D02*
X122730000Y-91570000D01*
X122730000Y-91570000D02*
X122730000Y-91240000D01*
X116190000Y-89160000D02*
X116190000Y-88830000D01*
X116190000Y-88830000D02*
X122730000Y-88830000D01*
X122730000Y-88830000D02*
X122730000Y-89160000D01*
%TO.C,R23*%
X128320000Y-107070000D02*
X128320000Y-106740000D01*
X134860000Y-107070000D02*
X128320000Y-107070000D01*
X134860000Y-106740000D02*
X134860000Y-107070000D01*
X128320000Y-104330000D02*
X128320000Y-104660000D01*
X134860000Y-104330000D02*
X128320000Y-104330000D01*
X134860000Y-104660000D02*
X134860000Y-104330000D01*
%TO.C,D2*%
X137530000Y-92740000D02*
X139770000Y-92740000D01*
X137530000Y-92980000D02*
X139770000Y-92980000D01*
X137530000Y-92860000D02*
X139770000Y-92860000D01*
X138650000Y-97030000D02*
X138650000Y-96380000D01*
X138650000Y-91490000D02*
X138650000Y-92140000D01*
X137530000Y-96380000D02*
X137530000Y-92140000D01*
X139770000Y-96380000D02*
X137530000Y-96380000D01*
X139770000Y-92140000D02*
X139770000Y-96380000D01*
X137530000Y-92140000D02*
X139770000Y-92140000D01*
%TO.C,R1*%
X105360000Y-150740000D02*
X105030000Y-150740000D01*
X105030000Y-150740000D02*
X105030000Y-157280000D01*
X105030000Y-157280000D02*
X105360000Y-157280000D01*
X107440000Y-150740000D02*
X107770000Y-150740000D01*
X107770000Y-150740000D02*
X107770000Y-157280000D01*
X107770000Y-157280000D02*
X107440000Y-157280000D01*
%TO.C,R13*%
X107860000Y-52410000D02*
X107860000Y-52080000D01*
X107860000Y-52080000D02*
X101320000Y-52080000D01*
X101320000Y-52080000D02*
X101320000Y-52410000D01*
X107860000Y-54490000D02*
X107860000Y-54820000D01*
X107860000Y-54820000D02*
X101320000Y-54820000D01*
X101320000Y-54820000D02*
X101320000Y-54490000D01*
%TO.C,C13*%
X134020000Y-95570000D02*
X134020000Y-92830000D01*
X126780000Y-95570000D02*
X126780000Y-92830000D01*
X126780000Y-92830000D02*
X134020000Y-92830000D01*
X126780000Y-95570000D02*
X134020000Y-95570000D01*
%TO.C,R15*%
X129690000Y-43240000D02*
X129690000Y-43570000D01*
X129690000Y-43570000D02*
X136230000Y-43570000D01*
X136230000Y-43570000D02*
X136230000Y-43240000D01*
X129690000Y-41160000D02*
X129690000Y-40830000D01*
X129690000Y-40830000D02*
X136230000Y-40830000D01*
X136230000Y-40830000D02*
X136230000Y-41160000D01*
%TO.C,R17*%
X122980000Y-27330000D02*
X122980000Y-27660000D01*
X116440000Y-27330000D02*
X122980000Y-27330000D01*
X116440000Y-27660000D02*
X116440000Y-27330000D01*
X122980000Y-30070000D02*
X122980000Y-29740000D01*
X116440000Y-30070000D02*
X122980000Y-30070000D01*
X116440000Y-29740000D02*
X116440000Y-30070000D01*
%TO.C,R18*%
X99110000Y-37740000D02*
X98780000Y-37740000D01*
X98780000Y-37740000D02*
X98780000Y-44280000D01*
X98780000Y-44280000D02*
X99110000Y-44280000D01*
X101190000Y-37740000D02*
X101520000Y-37740000D01*
X101520000Y-37740000D02*
X101520000Y-44280000D01*
X101520000Y-44280000D02*
X101190000Y-44280000D01*
%TO.C,R19*%
X98530000Y-68120000D02*
X98860000Y-68120000D01*
X98530000Y-74660000D02*
X98530000Y-68120000D01*
X98860000Y-74660000D02*
X98530000Y-74660000D01*
X101270000Y-68120000D02*
X100940000Y-68120000D01*
X101270000Y-74660000D02*
X101270000Y-68120000D01*
X100940000Y-74660000D02*
X101270000Y-74660000D01*
%TO.C,R35*%
X107360000Y-98160000D02*
X107360000Y-97830000D01*
X107360000Y-97830000D02*
X100820000Y-97830000D01*
X100820000Y-97830000D02*
X100820000Y-98160000D01*
X107360000Y-100240000D02*
X107360000Y-100570000D01*
X107360000Y-100570000D02*
X100820000Y-100570000D01*
X100820000Y-100570000D02*
X100820000Y-100240000D01*
%TO.C,J1*%
X126170000Y-159030000D02*
X126170000Y-157700000D01*
X124840000Y-159030000D02*
X126170000Y-159030000D01*
X126170000Y-156430000D02*
X126170000Y-153830000D01*
X123570000Y-156430000D02*
X126170000Y-156430000D01*
X123570000Y-159030000D02*
X123570000Y-156430000D01*
X126170000Y-153830000D02*
X113350000Y-153830000D01*
X123570000Y-159030000D02*
X113350000Y-159030000D01*
X113350000Y-159030000D02*
X113350000Y-153830000D01*
%TO.C,RV1*%
X138020000Y-38375000D02*
X138020000Y-28605000D01*
X128250000Y-38375000D02*
X128250000Y-28605000D01*
X128250000Y-28605000D02*
X138020000Y-28605000D01*
X128250000Y-38375000D02*
X138020000Y-38375000D01*
%TO.C,Q3*%
X108000000Y-107920000D02*
X108000000Y-111520000D01*
X107988478Y-111558478D02*
G75*
G02*
X103550000Y-109720000I-1838478J1838478D01*
G01*
X107988478Y-107881522D02*
G75*
G03*
X103550000Y-109720000I-1838478J-1838478D01*
G01*
%TO.C,R20*%
X102530000Y-68120000D02*
X102860000Y-68120000D01*
X102530000Y-74660000D02*
X102530000Y-68120000D01*
X102860000Y-74660000D02*
X102530000Y-74660000D01*
X105270000Y-68120000D02*
X104940000Y-68120000D01*
X105270000Y-74660000D02*
X105270000Y-68120000D01*
X104940000Y-74660000D02*
X105270000Y-74660000D01*
%TO.C,D1*%
X117940000Y-86820000D02*
X117940000Y-84580000D01*
X118180000Y-86820000D02*
X118180000Y-84580000D01*
X118060000Y-86820000D02*
X118060000Y-84580000D01*
X122230000Y-85700000D02*
X121580000Y-85700000D01*
X116690000Y-85700000D02*
X117340000Y-85700000D01*
X121580000Y-86820000D02*
X117340000Y-86820000D01*
X121580000Y-84580000D02*
X121580000Y-86820000D01*
X117340000Y-84580000D02*
X121580000Y-84580000D01*
X117340000Y-86820000D02*
X117340000Y-84580000D01*
%TO.C,R6*%
X129690000Y-51240000D02*
X129690000Y-51570000D01*
X129690000Y-51570000D02*
X136230000Y-51570000D01*
X136230000Y-51570000D02*
X136230000Y-51240000D01*
X129690000Y-49160000D02*
X129690000Y-48830000D01*
X129690000Y-48830000D02*
X136230000Y-48830000D01*
X136230000Y-48830000D02*
X136230000Y-49160000D01*
%TO.C,R8*%
X109190000Y-44280000D02*
X109520000Y-44280000D01*
X109520000Y-44280000D02*
X109520000Y-37740000D01*
X109520000Y-37740000D02*
X109190000Y-37740000D01*
X107110000Y-44280000D02*
X106780000Y-44280000D01*
X106780000Y-44280000D02*
X106780000Y-37740000D01*
X106780000Y-37740000D02*
X107110000Y-37740000D01*
%TO.C,C14*%
X118480000Y-116570000D02*
X125720000Y-116570000D01*
X118480000Y-113830000D02*
X125720000Y-113830000D01*
X118480000Y-116570000D02*
X118480000Y-113830000D01*
X125720000Y-116570000D02*
X125720000Y-113830000D01*
%TO.C,R2*%
X132360000Y-150740000D02*
X132030000Y-150740000D01*
X132030000Y-150740000D02*
X132030000Y-157280000D01*
X132030000Y-157280000D02*
X132360000Y-157280000D01*
X134440000Y-150740000D02*
X134770000Y-150740000D01*
X134770000Y-150740000D02*
X134770000Y-157280000D01*
X134770000Y-157280000D02*
X134440000Y-157280000D01*
%TO.C,R9*%
X134860000Y-81160000D02*
X134860000Y-80830000D01*
X134860000Y-80830000D02*
X128320000Y-80830000D01*
X128320000Y-80830000D02*
X128320000Y-81160000D01*
X134860000Y-83240000D02*
X134860000Y-83570000D01*
X134860000Y-83570000D02*
X128320000Y-83570000D01*
X128320000Y-83570000D02*
X128320000Y-83240000D01*
%TO.C,R14*%
X101320000Y-59820000D02*
X101320000Y-59490000D01*
X107860000Y-59820000D02*
X101320000Y-59820000D01*
X107860000Y-59490000D02*
X107860000Y-59820000D01*
X101320000Y-57080000D02*
X101320000Y-57410000D01*
X107860000Y-57080000D02*
X101320000Y-57080000D01*
X107860000Y-57410000D02*
X107860000Y-57080000D01*
%TO.C,D3*%
X126780000Y-111890000D02*
X129020000Y-111890000D01*
X129020000Y-111890000D02*
X129020000Y-116130000D01*
X129020000Y-116130000D02*
X126780000Y-116130000D01*
X126780000Y-116130000D02*
X126780000Y-111890000D01*
X127900000Y-111240000D02*
X127900000Y-111890000D01*
X127900000Y-116780000D02*
X127900000Y-116130000D01*
X126780000Y-112610000D02*
X129020000Y-112610000D01*
X126780000Y-112730000D02*
X129020000Y-112730000D01*
X126780000Y-112490000D02*
X129020000Y-112490000D01*
%TO.C,R5*%
X122980000Y-31330000D02*
X122980000Y-31660000D01*
X116440000Y-31330000D02*
X122980000Y-31330000D01*
X116440000Y-31660000D02*
X116440000Y-31330000D01*
X122980000Y-34070000D02*
X122980000Y-33740000D01*
X116440000Y-34070000D02*
X122980000Y-34070000D01*
X116440000Y-33740000D02*
X116440000Y-34070000D01*
%TO.C,R3*%
X122730000Y-80080000D02*
X122730000Y-80410000D01*
X116190000Y-80080000D02*
X122730000Y-80080000D01*
X116190000Y-80410000D02*
X116190000Y-80080000D01*
X122730000Y-82820000D02*
X122730000Y-82490000D01*
X116190000Y-82820000D02*
X122730000Y-82820000D01*
X116190000Y-82490000D02*
X116190000Y-82820000D01*
%TO.C,R10*%
X103110000Y-37740000D02*
X102780000Y-37740000D01*
X102780000Y-37740000D02*
X102780000Y-44280000D01*
X102780000Y-44280000D02*
X103110000Y-44280000D01*
X105190000Y-37740000D02*
X105520000Y-37740000D01*
X105520000Y-37740000D02*
X105520000Y-44280000D01*
X105520000Y-44280000D02*
X105190000Y-44280000D01*
%TO.C,R11*%
X136230000Y-52830000D02*
X136230000Y-53160000D01*
X129690000Y-52830000D02*
X136230000Y-52830000D01*
X129690000Y-53160000D02*
X129690000Y-52830000D01*
X136230000Y-55570000D02*
X136230000Y-55240000D01*
X129690000Y-55570000D02*
X136230000Y-55570000D01*
X129690000Y-55240000D02*
X129690000Y-55570000D01*
%TO.C,R16*%
X107860000Y-62410000D02*
X107860000Y-62080000D01*
X107860000Y-62080000D02*
X101320000Y-62080000D01*
X101320000Y-62080000D02*
X101320000Y-62410000D01*
X107860000Y-64490000D02*
X107860000Y-64820000D01*
X107860000Y-64820000D02*
X101320000Y-64820000D01*
X101320000Y-64820000D02*
X101320000Y-64490000D01*
%TO.C,R22*%
X127070000Y-91570000D02*
X127070000Y-91240000D01*
X133610000Y-91570000D02*
X127070000Y-91570000D01*
X133610000Y-91240000D02*
X133610000Y-91570000D01*
X127070000Y-88830000D02*
X127070000Y-89160000D01*
X133610000Y-88830000D02*
X127070000Y-88830000D01*
X133610000Y-89160000D02*
X133610000Y-88830000D01*
%TO.C,R24*%
X134860000Y-101160000D02*
X134860000Y-100830000D01*
X134860000Y-100830000D02*
X128320000Y-100830000D01*
X128320000Y-100830000D02*
X128320000Y-101160000D01*
X134860000Y-103240000D02*
X134860000Y-103570000D01*
X134860000Y-103570000D02*
X128320000Y-103570000D01*
X128320000Y-103570000D02*
X128320000Y-103240000D01*
%TO.C,R25*%
X134730000Y-96580000D02*
X134730000Y-96910000D01*
X128190000Y-96580000D02*
X134730000Y-96580000D01*
X128190000Y-96910000D02*
X128190000Y-96580000D01*
X134730000Y-99320000D02*
X134730000Y-98990000D01*
X128190000Y-99320000D02*
X134730000Y-99320000D01*
X128190000Y-98990000D02*
X128190000Y-99320000D01*
%TO.C,R26*%
X100940000Y-84990000D02*
X100940000Y-85320000D01*
X100940000Y-85320000D02*
X107480000Y-85320000D01*
X107480000Y-85320000D02*
X107480000Y-84990000D01*
X100940000Y-82910000D02*
X100940000Y-82580000D01*
X100940000Y-82580000D02*
X107480000Y-82580000D01*
X107480000Y-82580000D02*
X107480000Y-82910000D01*
%TO.C,R27*%
X101070000Y-81820000D02*
X101070000Y-81490000D01*
X107610000Y-81820000D02*
X101070000Y-81820000D01*
X107610000Y-81490000D02*
X107610000Y-81820000D01*
X101070000Y-79080000D02*
X101070000Y-79410000D01*
X107610000Y-79080000D02*
X101070000Y-79080000D01*
X107610000Y-79410000D02*
X107610000Y-79080000D01*
%TO.C,R29*%
X94280000Y-115370000D02*
X94610000Y-115370000D01*
X94280000Y-121910000D02*
X94280000Y-115370000D01*
X94610000Y-121910000D02*
X94280000Y-121910000D01*
X97020000Y-115370000D02*
X96690000Y-115370000D01*
X97020000Y-121910000D02*
X97020000Y-115370000D01*
X96690000Y-121910000D02*
X97020000Y-121910000D01*
%TO.C,R30*%
X100690000Y-124490000D02*
X100690000Y-124820000D01*
X100690000Y-124820000D02*
X107230000Y-124820000D01*
X107230000Y-124820000D02*
X107230000Y-124490000D01*
X100690000Y-122410000D02*
X100690000Y-122080000D01*
X100690000Y-122080000D02*
X107230000Y-122080000D01*
X107230000Y-122080000D02*
X107230000Y-122410000D01*
%TO.C,R31*%
X100820000Y-96570000D02*
X100820000Y-96240000D01*
X107360000Y-96570000D02*
X100820000Y-96570000D01*
X107360000Y-96240000D02*
X107360000Y-96570000D01*
X100820000Y-93830000D02*
X100820000Y-94160000D01*
X107360000Y-93830000D02*
X100820000Y-93830000D01*
X107360000Y-94160000D02*
X107360000Y-93830000D01*
%TO.C,R28*%
X100940000Y-92490000D02*
X100940000Y-92820000D01*
X100940000Y-92820000D02*
X107480000Y-92820000D01*
X107480000Y-92820000D02*
X107480000Y-92490000D01*
X100940000Y-90410000D02*
X100940000Y-90080000D01*
X100940000Y-90080000D02*
X107480000Y-90080000D01*
X107480000Y-90080000D02*
X107480000Y-90410000D01*
%TO.C,R32*%
X100570000Y-120320000D02*
X100570000Y-119990000D01*
X107110000Y-120320000D02*
X100570000Y-120320000D01*
X107110000Y-119990000D02*
X107110000Y-120320000D01*
X100570000Y-117580000D02*
X100570000Y-117910000D01*
X107110000Y-117580000D02*
X100570000Y-117580000D01*
X107110000Y-117910000D02*
X107110000Y-117580000D01*
%TO.C,R33*%
X107730000Y-132830000D02*
X107730000Y-133160000D01*
X101190000Y-132830000D02*
X107730000Y-132830000D01*
X101190000Y-133160000D02*
X101190000Y-132830000D01*
X107730000Y-135570000D02*
X107730000Y-135240000D01*
X101190000Y-135570000D02*
X107730000Y-135570000D01*
X101190000Y-135240000D02*
X101190000Y-135570000D01*
%TO.C,R34*%
X100690000Y-116240000D02*
X100690000Y-116570000D01*
X100690000Y-116570000D02*
X107230000Y-116570000D01*
X107230000Y-116570000D02*
X107230000Y-116240000D01*
X100690000Y-114160000D02*
X100690000Y-113830000D01*
X100690000Y-113830000D02*
X107230000Y-113830000D01*
X107230000Y-113830000D02*
X107230000Y-114160000D01*
%TO.C,R36*%
X107480000Y-86330000D02*
X107480000Y-86660000D01*
X100940000Y-86330000D02*
X107480000Y-86330000D01*
X100940000Y-86660000D02*
X100940000Y-86330000D01*
X107480000Y-89070000D02*
X107480000Y-88740000D01*
X100940000Y-89070000D02*
X107480000Y-89070000D01*
X100940000Y-88740000D02*
X100940000Y-89070000D01*
%TO.C,R37*%
X93430000Y-121125000D02*
X93430000Y-111355000D01*
X88360000Y-121125000D02*
X88360000Y-111355000D01*
X93430000Y-121125000D02*
X88360000Y-121125000D01*
X93430000Y-111355000D02*
X88360000Y-111355000D01*
%TO.C,C1*%
D10*
X115566666Y-149307142D02*
X115614285Y-149354761D01*
X115757142Y-149402380D01*
X115852380Y-149402380D01*
X115995238Y-149354761D01*
X116090476Y-149259523D01*
X116138095Y-149164285D01*
X116185714Y-148973809D01*
X116185714Y-148830952D01*
X116138095Y-148640476D01*
X116090476Y-148545238D01*
X115995238Y-148450000D01*
X115852380Y-148402380D01*
X115757142Y-148402380D01*
X115614285Y-148450000D01*
X115566666Y-148497619D01*
X114614285Y-149402380D02*
X115185714Y-149402380D01*
X114900000Y-149402380D02*
X114900000Y-148402380D01*
X114995238Y-148545238D01*
X115090476Y-148640476D01*
X115185714Y-148688095D01*
%TO.C,C2*%
X124566666Y-149307142D02*
X124614285Y-149354761D01*
X124757142Y-149402380D01*
X124852380Y-149402380D01*
X124995238Y-149354761D01*
X125090476Y-149259523D01*
X125138095Y-149164285D01*
X125185714Y-148973809D01*
X125185714Y-148830952D01*
X125138095Y-148640476D01*
X125090476Y-148545238D01*
X124995238Y-148450000D01*
X124852380Y-148402380D01*
X124757142Y-148402380D01*
X124614285Y-148450000D01*
X124566666Y-148497619D01*
X124185714Y-148497619D02*
X124138095Y-148450000D01*
X124042857Y-148402380D01*
X123804761Y-148402380D01*
X123709523Y-148450000D01*
X123661904Y-148497619D01*
X123614285Y-148592857D01*
X123614285Y-148688095D01*
X123661904Y-148830952D01*
X124233333Y-149402380D01*
X123614285Y-149402380D01*
%TO.C,C3*%
X120816666Y-37807142D02*
X120864285Y-37854761D01*
X121007142Y-37902380D01*
X121102380Y-37902380D01*
X121245238Y-37854761D01*
X121340476Y-37759523D01*
X121388095Y-37664285D01*
X121435714Y-37473809D01*
X121435714Y-37330952D01*
X121388095Y-37140476D01*
X121340476Y-37045238D01*
X121245238Y-36950000D01*
X121102380Y-36902380D01*
X121007142Y-36902380D01*
X120864285Y-36950000D01*
X120816666Y-36997619D01*
X120483333Y-36902380D02*
X119864285Y-36902380D01*
X120197619Y-37283333D01*
X120054761Y-37283333D01*
X119959523Y-37330952D01*
X119911904Y-37378571D01*
X119864285Y-37473809D01*
X119864285Y-37711904D01*
X119911904Y-37807142D01*
X119959523Y-37854761D01*
X120054761Y-37902380D01*
X120340476Y-37902380D01*
X120435714Y-37854761D01*
X120483333Y-37807142D01*
%TO.C,C4*%
X115336666Y-137547142D02*
X115384285Y-137594761D01*
X115527142Y-137642380D01*
X115622380Y-137642380D01*
X115765238Y-137594761D01*
X115860476Y-137499523D01*
X115908095Y-137404285D01*
X115955714Y-137213809D01*
X115955714Y-137070952D01*
X115908095Y-136880476D01*
X115860476Y-136785238D01*
X115765238Y-136690000D01*
X115622380Y-136642380D01*
X115527142Y-136642380D01*
X115384285Y-136690000D01*
X115336666Y-136737619D01*
X114479523Y-136975714D02*
X114479523Y-137642380D01*
X114717619Y-136594761D02*
X114955714Y-137309047D01*
X114336666Y-137309047D01*
%TO.C,C5*%
X125296666Y-137597142D02*
X125344285Y-137644761D01*
X125487142Y-137692380D01*
X125582380Y-137692380D01*
X125725238Y-137644761D01*
X125820476Y-137549523D01*
X125868095Y-137454285D01*
X125915714Y-137263809D01*
X125915714Y-137120952D01*
X125868095Y-136930476D01*
X125820476Y-136835238D01*
X125725238Y-136740000D01*
X125582380Y-136692380D01*
X125487142Y-136692380D01*
X125344285Y-136740000D01*
X125296666Y-136787619D01*
X124391904Y-136692380D02*
X124868095Y-136692380D01*
X124915714Y-137168571D01*
X124868095Y-137120952D01*
X124772857Y-137073333D01*
X124534761Y-137073333D01*
X124439523Y-137120952D01*
X124391904Y-137168571D01*
X124344285Y-137263809D01*
X124344285Y-137501904D01*
X124391904Y-137597142D01*
X124439523Y-137644761D01*
X124534761Y-137692380D01*
X124772857Y-137692380D01*
X124868095Y-137644761D01*
X124915714Y-137597142D01*
%TO.C,C6*%
X131596666Y-70547142D02*
X131644285Y-70594761D01*
X131787142Y-70642380D01*
X131882380Y-70642380D01*
X132025238Y-70594761D01*
X132120476Y-70499523D01*
X132168095Y-70404285D01*
X132215714Y-70213809D01*
X132215714Y-70070952D01*
X132168095Y-69880476D01*
X132120476Y-69785238D01*
X132025238Y-69690000D01*
X131882380Y-69642380D01*
X131787142Y-69642380D01*
X131644285Y-69690000D01*
X131596666Y-69737619D01*
X130739523Y-69642380D02*
X130930000Y-69642380D01*
X131025238Y-69690000D01*
X131072857Y-69737619D01*
X131168095Y-69880476D01*
X131215714Y-70070952D01*
X131215714Y-70451904D01*
X131168095Y-70547142D01*
X131120476Y-70594761D01*
X131025238Y-70642380D01*
X130834761Y-70642380D01*
X130739523Y-70594761D01*
X130691904Y-70547142D01*
X130644285Y-70451904D01*
X130644285Y-70213809D01*
X130691904Y-70118571D01*
X130739523Y-70070952D01*
X130834761Y-70023333D01*
X131025238Y-70023333D01*
X131120476Y-70070952D01*
X131168095Y-70118571D01*
X131215714Y-70213809D01*
%TO.C,C7*%
X131566666Y-78557142D02*
X131614285Y-78604761D01*
X131757142Y-78652380D01*
X131852380Y-78652380D01*
X131995238Y-78604761D01*
X132090476Y-78509523D01*
X132138095Y-78414285D01*
X132185714Y-78223809D01*
X132185714Y-78080952D01*
X132138095Y-77890476D01*
X132090476Y-77795238D01*
X131995238Y-77700000D01*
X131852380Y-77652380D01*
X131757142Y-77652380D01*
X131614285Y-77700000D01*
X131566666Y-77747619D01*
X131233333Y-77652380D02*
X130566666Y-77652380D01*
X130995238Y-78652380D01*
%TO.C,C8*%
X110316666Y-33057142D02*
X110364285Y-33104761D01*
X110507142Y-33152380D01*
X110602380Y-33152380D01*
X110745238Y-33104761D01*
X110840476Y-33009523D01*
X110888095Y-32914285D01*
X110935714Y-32723809D01*
X110935714Y-32580952D01*
X110888095Y-32390476D01*
X110840476Y-32295238D01*
X110745238Y-32200000D01*
X110602380Y-32152380D01*
X110507142Y-32152380D01*
X110364285Y-32200000D01*
X110316666Y-32247619D01*
X109745238Y-32580952D02*
X109840476Y-32533333D01*
X109888095Y-32485714D01*
X109935714Y-32390476D01*
X109935714Y-32342857D01*
X109888095Y-32247619D01*
X109840476Y-32200000D01*
X109745238Y-32152380D01*
X109554761Y-32152380D01*
X109459523Y-32200000D01*
X109411904Y-32247619D01*
X109364285Y-32342857D01*
X109364285Y-32390476D01*
X109411904Y-32485714D01*
X109459523Y-32533333D01*
X109554761Y-32580952D01*
X109745238Y-32580952D01*
X109840476Y-32628571D01*
X109888095Y-32676190D01*
X109935714Y-32771428D01*
X109935714Y-32961904D01*
X109888095Y-33057142D01*
X109840476Y-33104761D01*
X109745238Y-33152380D01*
X109554761Y-33152380D01*
X109459523Y-33104761D01*
X109411904Y-33057142D01*
X109364285Y-32961904D01*
X109364285Y-32771428D01*
X109411904Y-32676190D01*
X109459523Y-32628571D01*
X109554761Y-32580952D01*
%TO.C,C9*%
X115386666Y-133597142D02*
X115434285Y-133644761D01*
X115577142Y-133692380D01*
X115672380Y-133692380D01*
X115815238Y-133644761D01*
X115910476Y-133549523D01*
X115958095Y-133454285D01*
X116005714Y-133263809D01*
X116005714Y-133120952D01*
X115958095Y-132930476D01*
X115910476Y-132835238D01*
X115815238Y-132740000D01*
X115672380Y-132692380D01*
X115577142Y-132692380D01*
X115434285Y-132740000D01*
X115386666Y-132787619D01*
X114910476Y-133692380D02*
X114720000Y-133692380D01*
X114624761Y-133644761D01*
X114577142Y-133597142D01*
X114481904Y-133454285D01*
X114434285Y-133263809D01*
X114434285Y-132882857D01*
X114481904Y-132787619D01*
X114529523Y-132740000D01*
X114624761Y-132692380D01*
X114815238Y-132692380D01*
X114910476Y-132740000D01*
X114958095Y-132787619D01*
X115005714Y-132882857D01*
X115005714Y-133120952D01*
X114958095Y-133216190D01*
X114910476Y-133263809D01*
X114815238Y-133311428D01*
X114624761Y-133311428D01*
X114529523Y-133263809D01*
X114481904Y-133216190D01*
X114434285Y-133120952D01*
%TO.C,C10*%
X125742857Y-133527142D02*
X125790476Y-133574761D01*
X125933333Y-133622380D01*
X126028571Y-133622380D01*
X126171428Y-133574761D01*
X126266666Y-133479523D01*
X126314285Y-133384285D01*
X126361904Y-133193809D01*
X126361904Y-133050952D01*
X126314285Y-132860476D01*
X126266666Y-132765238D01*
X126171428Y-132670000D01*
X126028571Y-132622380D01*
X125933333Y-132622380D01*
X125790476Y-132670000D01*
X125742857Y-132717619D01*
X124790476Y-133622380D02*
X125361904Y-133622380D01*
X125076190Y-133622380D02*
X125076190Y-132622380D01*
X125171428Y-132765238D01*
X125266666Y-132860476D01*
X125361904Y-132908095D01*
X124171428Y-132622380D02*
X124076190Y-132622380D01*
X123980952Y-132670000D01*
X123933333Y-132717619D01*
X123885714Y-132812857D01*
X123838095Y-133003333D01*
X123838095Y-133241428D01*
X123885714Y-133431904D01*
X123933333Y-133527142D01*
X123980952Y-133574761D01*
X124076190Y-133622380D01*
X124171428Y-133622380D01*
X124266666Y-133574761D01*
X124314285Y-133527142D01*
X124361904Y-133431904D01*
X124409523Y-133241428D01*
X124409523Y-133003333D01*
X124361904Y-132812857D01*
X124314285Y-132717619D01*
X124266666Y-132670000D01*
X124171428Y-132622380D01*
%TO.C,C11*%
X119757142Y-63307142D02*
X119804761Y-63259523D01*
X119852380Y-63116666D01*
X119852380Y-63021428D01*
X119804761Y-62878571D01*
X119709523Y-62783333D01*
X119614285Y-62735714D01*
X119423809Y-62688095D01*
X119280952Y-62688095D01*
X119090476Y-62735714D01*
X118995238Y-62783333D01*
X118900000Y-62878571D01*
X118852380Y-63021428D01*
X118852380Y-63116666D01*
X118900000Y-63259523D01*
X118947619Y-63307142D01*
X119852380Y-64259523D02*
X119852380Y-63688095D01*
X119852380Y-63973809D02*
X118852380Y-63973809D01*
X118995238Y-63878571D01*
X119090476Y-63783333D01*
X119138095Y-63688095D01*
X119852380Y-65211904D02*
X119852380Y-64640476D01*
X119852380Y-64926190D02*
X118852380Y-64926190D01*
X118995238Y-64830952D01*
X119090476Y-64735714D01*
X119138095Y-64640476D01*
%TO.C,C12*%
X106492857Y-49857142D02*
X106540476Y-49904761D01*
X106683333Y-49952380D01*
X106778571Y-49952380D01*
X106921428Y-49904761D01*
X107016666Y-49809523D01*
X107064285Y-49714285D01*
X107111904Y-49523809D01*
X107111904Y-49380952D01*
X107064285Y-49190476D01*
X107016666Y-49095238D01*
X106921428Y-49000000D01*
X106778571Y-48952380D01*
X106683333Y-48952380D01*
X106540476Y-49000000D01*
X106492857Y-49047619D01*
X105540476Y-49952380D02*
X106111904Y-49952380D01*
X105826190Y-49952380D02*
X105826190Y-48952380D01*
X105921428Y-49095238D01*
X106016666Y-49190476D01*
X106111904Y-49238095D01*
X105159523Y-49047619D02*
X105111904Y-49000000D01*
X105016666Y-48952380D01*
X104778571Y-48952380D01*
X104683333Y-49000000D01*
X104635714Y-49047619D01*
X104588095Y-49142857D01*
X104588095Y-49238095D01*
X104635714Y-49380952D01*
X105207142Y-49952380D01*
X104588095Y-49952380D01*
%TO.C,Q1*%
X95197619Y-109604761D02*
X95150000Y-109509523D01*
X95054761Y-109414285D01*
X94911904Y-109271428D01*
X94864285Y-109176190D01*
X94864285Y-109080952D01*
X95102380Y-109128571D02*
X95054761Y-109033333D01*
X94959523Y-108938095D01*
X94769047Y-108890476D01*
X94435714Y-108890476D01*
X94245238Y-108938095D01*
X94150000Y-109033333D01*
X94102380Y-109128571D01*
X94102380Y-109319047D01*
X94150000Y-109414285D01*
X94245238Y-109509523D01*
X94435714Y-109557142D01*
X94769047Y-109557142D01*
X94959523Y-109509523D01*
X95054761Y-109414285D01*
X95102380Y-109319047D01*
X95102380Y-109128571D01*
X95102380Y-110509523D02*
X95102380Y-109938095D01*
X95102380Y-110223809D02*
X94102380Y-110223809D01*
X94245238Y-110128571D01*
X94340476Y-110033333D01*
X94388095Y-109938095D01*
%TO.C,Q2*%
X119507619Y-115334761D02*
X119460000Y-115239523D01*
X119364761Y-115144285D01*
X119221904Y-115001428D01*
X119174285Y-114906190D01*
X119174285Y-114810952D01*
X119412380Y-114858571D02*
X119364761Y-114763333D01*
X119269523Y-114668095D01*
X119079047Y-114620476D01*
X118745714Y-114620476D01*
X118555238Y-114668095D01*
X118460000Y-114763333D01*
X118412380Y-114858571D01*
X118412380Y-115049047D01*
X118460000Y-115144285D01*
X118555238Y-115239523D01*
X118745714Y-115287142D01*
X119079047Y-115287142D01*
X119269523Y-115239523D01*
X119364761Y-115144285D01*
X119412380Y-115049047D01*
X119412380Y-114858571D01*
X118507619Y-115668095D02*
X118460000Y-115715714D01*
X118412380Y-115810952D01*
X118412380Y-116049047D01*
X118460000Y-116144285D01*
X118507619Y-116191904D01*
X118602857Y-116239523D01*
X118698095Y-116239523D01*
X118840952Y-116191904D01*
X119412380Y-115620476D01*
X119412380Y-116239523D01*
%TO.C,R7*%
X131616666Y-74652380D02*
X131950000Y-74176190D01*
X132188095Y-74652380D02*
X132188095Y-73652380D01*
X131807142Y-73652380D01*
X131711904Y-73700000D01*
X131664285Y-73747619D01*
X131616666Y-73842857D01*
X131616666Y-73985714D01*
X131664285Y-74080952D01*
X131711904Y-74128571D01*
X131807142Y-74176190D01*
X132188095Y-74176190D01*
X131283333Y-73652380D02*
X130616666Y-73652380D01*
X131045238Y-74652380D01*
%TO.C,R4*%
X133116666Y-46652380D02*
X133450000Y-46176190D01*
X133688095Y-46652380D02*
X133688095Y-45652380D01*
X133307142Y-45652380D01*
X133211904Y-45700000D01*
X133164285Y-45747619D01*
X133116666Y-45842857D01*
X133116666Y-45985714D01*
X133164285Y-46080952D01*
X133211904Y-46128571D01*
X133307142Y-46176190D01*
X133688095Y-46176190D01*
X132259523Y-45985714D02*
X132259523Y-46652380D01*
X132497619Y-45604761D02*
X132735714Y-46319047D01*
X132116666Y-46319047D01*
%TO.C,R12*%
X108402380Y-70857142D02*
X107926190Y-70523809D01*
X108402380Y-70285714D02*
X107402380Y-70285714D01*
X107402380Y-70666666D01*
X107450000Y-70761904D01*
X107497619Y-70809523D01*
X107592857Y-70857142D01*
X107735714Y-70857142D01*
X107830952Y-70809523D01*
X107878571Y-70761904D01*
X107926190Y-70666666D01*
X107926190Y-70285714D01*
X108402380Y-71809523D02*
X108402380Y-71238095D01*
X108402380Y-71523809D02*
X107402380Y-71523809D01*
X107545238Y-71428571D01*
X107640476Y-71333333D01*
X107688095Y-71238095D01*
X107497619Y-72190476D02*
X107450000Y-72238095D01*
X107402380Y-72333333D01*
X107402380Y-72571428D01*
X107450000Y-72666666D01*
X107497619Y-72714285D01*
X107592857Y-72761904D01*
X107688095Y-72761904D01*
X107830952Y-72714285D01*
X108402380Y-72142857D01*
X108402380Y-72761904D01*
%TO.C,R21*%
X120102857Y-90652380D02*
X120436190Y-90176190D01*
X120674285Y-90652380D02*
X120674285Y-89652380D01*
X120293333Y-89652380D01*
X120198095Y-89700000D01*
X120150476Y-89747619D01*
X120102857Y-89842857D01*
X120102857Y-89985714D01*
X120150476Y-90080952D01*
X120198095Y-90128571D01*
X120293333Y-90176190D01*
X120674285Y-90176190D01*
X119721904Y-89747619D02*
X119674285Y-89700000D01*
X119579047Y-89652380D01*
X119340952Y-89652380D01*
X119245714Y-89700000D01*
X119198095Y-89747619D01*
X119150476Y-89842857D01*
X119150476Y-89938095D01*
X119198095Y-90080952D01*
X119769523Y-90652380D01*
X119150476Y-90652380D01*
X118198095Y-90652380D02*
X118769523Y-90652380D01*
X118483809Y-90652380D02*
X118483809Y-89652380D01*
X118579047Y-89795238D01*
X118674285Y-89890476D01*
X118769523Y-89938095D01*
%TO.C,R23*%
X132242857Y-106152380D02*
X132576190Y-105676190D01*
X132814285Y-106152380D02*
X132814285Y-105152380D01*
X132433333Y-105152380D01*
X132338095Y-105200000D01*
X132290476Y-105247619D01*
X132242857Y-105342857D01*
X132242857Y-105485714D01*
X132290476Y-105580952D01*
X132338095Y-105628571D01*
X132433333Y-105676190D01*
X132814285Y-105676190D01*
X131861904Y-105247619D02*
X131814285Y-105200000D01*
X131719047Y-105152380D01*
X131480952Y-105152380D01*
X131385714Y-105200000D01*
X131338095Y-105247619D01*
X131290476Y-105342857D01*
X131290476Y-105438095D01*
X131338095Y-105580952D01*
X131909523Y-106152380D01*
X131290476Y-106152380D01*
X130957142Y-105152380D02*
X130338095Y-105152380D01*
X130671428Y-105533333D01*
X130528571Y-105533333D01*
X130433333Y-105580952D01*
X130385714Y-105628571D01*
X130338095Y-105723809D01*
X130338095Y-105961904D01*
X130385714Y-106057142D01*
X130433333Y-106104761D01*
X130528571Y-106152380D01*
X130814285Y-106152380D01*
X130909523Y-106104761D01*
X130957142Y-106057142D01*
%TO.C,D2*%
X136982380Y-93521904D02*
X135982380Y-93521904D01*
X135982380Y-93760000D01*
X136030000Y-93902857D01*
X136125238Y-93998095D01*
X136220476Y-94045714D01*
X136410952Y-94093333D01*
X136553809Y-94093333D01*
X136744285Y-94045714D01*
X136839523Y-93998095D01*
X136934761Y-93902857D01*
X136982380Y-93760000D01*
X136982380Y-93521904D01*
X136077619Y-94474285D02*
X136030000Y-94521904D01*
X135982380Y-94617142D01*
X135982380Y-94855238D01*
X136030000Y-94950476D01*
X136077619Y-94998095D01*
X136172857Y-95045714D01*
X136268095Y-95045714D01*
X136410952Y-94998095D01*
X136982380Y-94426666D01*
X136982380Y-95045714D01*
X137302380Y-90188095D02*
X136302380Y-90188095D01*
X137302380Y-90759523D02*
X136730952Y-90330952D01*
X136302380Y-90759523D02*
X136873809Y-90188095D01*
%TO.C,R1*%
X104482380Y-153843333D02*
X104006190Y-153510000D01*
X104482380Y-153271904D02*
X103482380Y-153271904D01*
X103482380Y-153652857D01*
X103530000Y-153748095D01*
X103577619Y-153795714D01*
X103672857Y-153843333D01*
X103815714Y-153843333D01*
X103910952Y-153795714D01*
X103958571Y-153748095D01*
X104006190Y-153652857D01*
X104006190Y-153271904D01*
X104482380Y-154795714D02*
X104482380Y-154224285D01*
X104482380Y-154510000D02*
X103482380Y-154510000D01*
X103625238Y-154414761D01*
X103720476Y-154319523D01*
X103768095Y-154224285D01*
%TO.C,R13*%
X105292857Y-53852380D02*
X105626190Y-53376190D01*
X105864285Y-53852380D02*
X105864285Y-52852380D01*
X105483333Y-52852380D01*
X105388095Y-52900000D01*
X105340476Y-52947619D01*
X105292857Y-53042857D01*
X105292857Y-53185714D01*
X105340476Y-53280952D01*
X105388095Y-53328571D01*
X105483333Y-53376190D01*
X105864285Y-53376190D01*
X104340476Y-53852380D02*
X104911904Y-53852380D01*
X104626190Y-53852380D02*
X104626190Y-52852380D01*
X104721428Y-52995238D01*
X104816666Y-53090476D01*
X104911904Y-53138095D01*
X104007142Y-52852380D02*
X103388095Y-52852380D01*
X103721428Y-53233333D01*
X103578571Y-53233333D01*
X103483333Y-53280952D01*
X103435714Y-53328571D01*
X103388095Y-53423809D01*
X103388095Y-53661904D01*
X103435714Y-53757142D01*
X103483333Y-53804761D01*
X103578571Y-53852380D01*
X103864285Y-53852380D01*
X103959523Y-53804761D01*
X104007142Y-53757142D01*
%TO.C,C13*%
X131042857Y-94557142D02*
X131090476Y-94604761D01*
X131233333Y-94652380D01*
X131328571Y-94652380D01*
X131471428Y-94604761D01*
X131566666Y-94509523D01*
X131614285Y-94414285D01*
X131661904Y-94223809D01*
X131661904Y-94080952D01*
X131614285Y-93890476D01*
X131566666Y-93795238D01*
X131471428Y-93700000D01*
X131328571Y-93652380D01*
X131233333Y-93652380D01*
X131090476Y-93700000D01*
X131042857Y-93747619D01*
X130090476Y-94652380D02*
X130661904Y-94652380D01*
X130376190Y-94652380D02*
X130376190Y-93652380D01*
X130471428Y-93795238D01*
X130566666Y-93890476D01*
X130661904Y-93938095D01*
X129757142Y-93652380D02*
X129138095Y-93652380D01*
X129471428Y-94033333D01*
X129328571Y-94033333D01*
X129233333Y-94080952D01*
X129185714Y-94128571D01*
X129138095Y-94223809D01*
X129138095Y-94461904D01*
X129185714Y-94557142D01*
X129233333Y-94604761D01*
X129328571Y-94652380D01*
X129614285Y-94652380D01*
X129709523Y-94604761D01*
X129757142Y-94557142D01*
%TO.C,R15*%
X133572857Y-42652380D02*
X133906190Y-42176190D01*
X134144285Y-42652380D02*
X134144285Y-41652380D01*
X133763333Y-41652380D01*
X133668095Y-41700000D01*
X133620476Y-41747619D01*
X133572857Y-41842857D01*
X133572857Y-41985714D01*
X133620476Y-42080952D01*
X133668095Y-42128571D01*
X133763333Y-42176190D01*
X134144285Y-42176190D01*
X132620476Y-42652380D02*
X133191904Y-42652380D01*
X132906190Y-42652380D02*
X132906190Y-41652380D01*
X133001428Y-41795238D01*
X133096666Y-41890476D01*
X133191904Y-41938095D01*
X131715714Y-41652380D02*
X132191904Y-41652380D01*
X132239523Y-42128571D01*
X132191904Y-42080952D01*
X132096666Y-42033333D01*
X131858571Y-42033333D01*
X131763333Y-42080952D01*
X131715714Y-42128571D01*
X131668095Y-42223809D01*
X131668095Y-42461904D01*
X131715714Y-42557142D01*
X131763333Y-42604761D01*
X131858571Y-42652380D01*
X132096666Y-42652380D01*
X132191904Y-42604761D01*
X132239523Y-42557142D01*
%TO.C,R17*%
X120392857Y-29152380D02*
X120726190Y-28676190D01*
X120964285Y-29152380D02*
X120964285Y-28152380D01*
X120583333Y-28152380D01*
X120488095Y-28200000D01*
X120440476Y-28247619D01*
X120392857Y-28342857D01*
X120392857Y-28485714D01*
X120440476Y-28580952D01*
X120488095Y-28628571D01*
X120583333Y-28676190D01*
X120964285Y-28676190D01*
X119440476Y-29152380D02*
X120011904Y-29152380D01*
X119726190Y-29152380D02*
X119726190Y-28152380D01*
X119821428Y-28295238D01*
X119916666Y-28390476D01*
X120011904Y-28438095D01*
X119107142Y-28152380D02*
X118440476Y-28152380D01*
X118869047Y-29152380D01*
%TO.C,R18*%
X100602380Y-40357142D02*
X100126190Y-40023809D01*
X100602380Y-39785714D02*
X99602380Y-39785714D01*
X99602380Y-40166666D01*
X99650000Y-40261904D01*
X99697619Y-40309523D01*
X99792857Y-40357142D01*
X99935714Y-40357142D01*
X100030952Y-40309523D01*
X100078571Y-40261904D01*
X100126190Y-40166666D01*
X100126190Y-39785714D01*
X100602380Y-41309523D02*
X100602380Y-40738095D01*
X100602380Y-41023809D02*
X99602380Y-41023809D01*
X99745238Y-40928571D01*
X99840476Y-40833333D01*
X99888095Y-40738095D01*
X100030952Y-41880952D02*
X99983333Y-41785714D01*
X99935714Y-41738095D01*
X99840476Y-41690476D01*
X99792857Y-41690476D01*
X99697619Y-41738095D01*
X99650000Y-41785714D01*
X99602380Y-41880952D01*
X99602380Y-42071428D01*
X99650000Y-42166666D01*
X99697619Y-42214285D01*
X99792857Y-42261904D01*
X99840476Y-42261904D01*
X99935714Y-42214285D01*
X99983333Y-42166666D01*
X100030952Y-42071428D01*
X100030952Y-41880952D01*
X100078571Y-41785714D01*
X100126190Y-41738095D01*
X100221428Y-41690476D01*
X100411904Y-41690476D01*
X100507142Y-41738095D01*
X100554761Y-41785714D01*
X100602380Y-41880952D01*
X100602380Y-42071428D01*
X100554761Y-42166666D01*
X100507142Y-42214285D01*
X100411904Y-42261904D01*
X100221428Y-42261904D01*
X100126190Y-42214285D01*
X100078571Y-42166666D01*
X100030952Y-42071428D01*
%TO.C,R19*%
X100402380Y-70757142D02*
X99926190Y-70423809D01*
X100402380Y-70185714D02*
X99402380Y-70185714D01*
X99402380Y-70566666D01*
X99450000Y-70661904D01*
X99497619Y-70709523D01*
X99592857Y-70757142D01*
X99735714Y-70757142D01*
X99830952Y-70709523D01*
X99878571Y-70661904D01*
X99926190Y-70566666D01*
X99926190Y-70185714D01*
X100402380Y-71709523D02*
X100402380Y-71138095D01*
X100402380Y-71423809D02*
X99402380Y-71423809D01*
X99545238Y-71328571D01*
X99640476Y-71233333D01*
X99688095Y-71138095D01*
X100402380Y-72185714D02*
X100402380Y-72376190D01*
X100354761Y-72471428D01*
X100307142Y-72519047D01*
X100164285Y-72614285D01*
X99973809Y-72661904D01*
X99592857Y-72661904D01*
X99497619Y-72614285D01*
X99450000Y-72566666D01*
X99402380Y-72471428D01*
X99402380Y-72280952D01*
X99450000Y-72185714D01*
X99497619Y-72138095D01*
X99592857Y-72090476D01*
X99830952Y-72090476D01*
X99926190Y-72138095D01*
X99973809Y-72185714D01*
X100021428Y-72280952D01*
X100021428Y-72471428D01*
X99973809Y-72566666D01*
X99926190Y-72614285D01*
X99830952Y-72661904D01*
%TO.C,R35*%
X104732857Y-99652380D02*
X105066190Y-99176190D01*
X105304285Y-99652380D02*
X105304285Y-98652380D01*
X104923333Y-98652380D01*
X104828095Y-98700000D01*
X104780476Y-98747619D01*
X104732857Y-98842857D01*
X104732857Y-98985714D01*
X104780476Y-99080952D01*
X104828095Y-99128571D01*
X104923333Y-99176190D01*
X105304285Y-99176190D01*
X104399523Y-98652380D02*
X103780476Y-98652380D01*
X104113809Y-99033333D01*
X103970952Y-99033333D01*
X103875714Y-99080952D01*
X103828095Y-99128571D01*
X103780476Y-99223809D01*
X103780476Y-99461904D01*
X103828095Y-99557142D01*
X103875714Y-99604761D01*
X103970952Y-99652380D01*
X104256666Y-99652380D01*
X104351904Y-99604761D01*
X104399523Y-99557142D01*
X102875714Y-98652380D02*
X103351904Y-98652380D01*
X103399523Y-99128571D01*
X103351904Y-99080952D01*
X103256666Y-99033333D01*
X103018571Y-99033333D01*
X102923333Y-99080952D01*
X102875714Y-99128571D01*
X102828095Y-99223809D01*
X102828095Y-99461904D01*
X102875714Y-99557142D01*
X102923333Y-99604761D01*
X103018571Y-99652380D01*
X103256666Y-99652380D01*
X103351904Y-99604761D01*
X103399523Y-99557142D01*
%TO.C,J1*%
X126622380Y-156096666D02*
X127336666Y-156096666D01*
X127479523Y-156049047D01*
X127574761Y-155953809D01*
X127622380Y-155810952D01*
X127622380Y-155715714D01*
X127622380Y-157096666D02*
X127622380Y-156525238D01*
X127622380Y-156810952D02*
X126622380Y-156810952D01*
X126765238Y-156715714D01*
X126860476Y-156620476D01*
X126908095Y-156525238D01*
%TO.C,RV1*%
X129802380Y-32904761D02*
X129326190Y-32571428D01*
X129802380Y-32333333D02*
X128802380Y-32333333D01*
X128802380Y-32714285D01*
X128850000Y-32809523D01*
X128897619Y-32857142D01*
X128992857Y-32904761D01*
X129135714Y-32904761D01*
X129230952Y-32857142D01*
X129278571Y-32809523D01*
X129326190Y-32714285D01*
X129326190Y-32333333D01*
X128802380Y-33190476D02*
X129802380Y-33523809D01*
X128802380Y-33857142D01*
X129802380Y-34714285D02*
X129802380Y-34142857D01*
X129802380Y-34428571D02*
X128802380Y-34428571D01*
X128945238Y-34333333D01*
X129040476Y-34238095D01*
X129088095Y-34142857D01*
%TO.C,Q3*%
X103137619Y-109624761D02*
X103090000Y-109529523D01*
X102994761Y-109434285D01*
X102851904Y-109291428D01*
X102804285Y-109196190D01*
X102804285Y-109100952D01*
X103042380Y-109148571D02*
X102994761Y-109053333D01*
X102899523Y-108958095D01*
X102709047Y-108910476D01*
X102375714Y-108910476D01*
X102185238Y-108958095D01*
X102090000Y-109053333D01*
X102042380Y-109148571D01*
X102042380Y-109339047D01*
X102090000Y-109434285D01*
X102185238Y-109529523D01*
X102375714Y-109577142D01*
X102709047Y-109577142D01*
X102899523Y-109529523D01*
X102994761Y-109434285D01*
X103042380Y-109339047D01*
X103042380Y-109148571D01*
X102042380Y-109910476D02*
X102042380Y-110529523D01*
X102423333Y-110196190D01*
X102423333Y-110339047D01*
X102470952Y-110434285D01*
X102518571Y-110481904D01*
X102613809Y-110529523D01*
X102851904Y-110529523D01*
X102947142Y-110481904D01*
X102994761Y-110434285D01*
X103042380Y-110339047D01*
X103042380Y-110053333D01*
X102994761Y-109958095D01*
X102947142Y-109910476D01*
%TO.C,R20*%
X104302380Y-70757142D02*
X103826190Y-70423809D01*
X104302380Y-70185714D02*
X103302380Y-70185714D01*
X103302380Y-70566666D01*
X103350000Y-70661904D01*
X103397619Y-70709523D01*
X103492857Y-70757142D01*
X103635714Y-70757142D01*
X103730952Y-70709523D01*
X103778571Y-70661904D01*
X103826190Y-70566666D01*
X103826190Y-70185714D01*
X103397619Y-71138095D02*
X103350000Y-71185714D01*
X103302380Y-71280952D01*
X103302380Y-71519047D01*
X103350000Y-71614285D01*
X103397619Y-71661904D01*
X103492857Y-71709523D01*
X103588095Y-71709523D01*
X103730952Y-71661904D01*
X104302380Y-71090476D01*
X104302380Y-71709523D01*
X103302380Y-72328571D02*
X103302380Y-72423809D01*
X103350000Y-72519047D01*
X103397619Y-72566666D01*
X103492857Y-72614285D01*
X103683333Y-72661904D01*
X103921428Y-72661904D01*
X104111904Y-72614285D01*
X104207142Y-72566666D01*
X104254761Y-72519047D01*
X104302380Y-72423809D01*
X104302380Y-72328571D01*
X104254761Y-72233333D01*
X104207142Y-72185714D01*
X104111904Y-72138095D01*
X103921428Y-72090476D01*
X103683333Y-72090476D01*
X103492857Y-72138095D01*
X103397619Y-72185714D01*
X103350000Y-72233333D01*
X103302380Y-72328571D01*
%TO.C,D1*%
X120388095Y-86202380D02*
X120388095Y-85202380D01*
X120150000Y-85202380D01*
X120007142Y-85250000D01*
X119911904Y-85345238D01*
X119864285Y-85440476D01*
X119816666Y-85630952D01*
X119816666Y-85773809D01*
X119864285Y-85964285D01*
X119911904Y-86059523D01*
X120007142Y-86154761D01*
X120150000Y-86202380D01*
X120388095Y-86202380D01*
X118864285Y-86202380D02*
X119435714Y-86202380D01*
X119150000Y-86202380D02*
X119150000Y-85202380D01*
X119245238Y-85345238D01*
X119340476Y-85440476D01*
X119435714Y-85488095D01*
X115911904Y-87952380D02*
X115911904Y-86952380D01*
X115340476Y-87952380D02*
X115769047Y-87380952D01*
X115340476Y-86952380D02*
X115911904Y-87523809D01*
%TO.C,R6*%
X133116666Y-50652380D02*
X133450000Y-50176190D01*
X133688095Y-50652380D02*
X133688095Y-49652380D01*
X133307142Y-49652380D01*
X133211904Y-49700000D01*
X133164285Y-49747619D01*
X133116666Y-49842857D01*
X133116666Y-49985714D01*
X133164285Y-50080952D01*
X133211904Y-50128571D01*
X133307142Y-50176190D01*
X133688095Y-50176190D01*
X132259523Y-49652380D02*
X132450000Y-49652380D01*
X132545238Y-49700000D01*
X132592857Y-49747619D01*
X132688095Y-49890476D01*
X132735714Y-50080952D01*
X132735714Y-50461904D01*
X132688095Y-50557142D01*
X132640476Y-50604761D01*
X132545238Y-50652380D01*
X132354761Y-50652380D01*
X132259523Y-50604761D01*
X132211904Y-50557142D01*
X132164285Y-50461904D01*
X132164285Y-50223809D01*
X132211904Y-50128571D01*
X132259523Y-50080952D01*
X132354761Y-50033333D01*
X132545238Y-50033333D01*
X132640476Y-50080952D01*
X132688095Y-50128571D01*
X132735714Y-50223809D01*
%TO.C,R8*%
X108602380Y-40833333D02*
X108126190Y-40500000D01*
X108602380Y-40261904D02*
X107602380Y-40261904D01*
X107602380Y-40642857D01*
X107650000Y-40738095D01*
X107697619Y-40785714D01*
X107792857Y-40833333D01*
X107935714Y-40833333D01*
X108030952Y-40785714D01*
X108078571Y-40738095D01*
X108126190Y-40642857D01*
X108126190Y-40261904D01*
X108030952Y-41404761D02*
X107983333Y-41309523D01*
X107935714Y-41261904D01*
X107840476Y-41214285D01*
X107792857Y-41214285D01*
X107697619Y-41261904D01*
X107650000Y-41309523D01*
X107602380Y-41404761D01*
X107602380Y-41595238D01*
X107650000Y-41690476D01*
X107697619Y-41738095D01*
X107792857Y-41785714D01*
X107840476Y-41785714D01*
X107935714Y-41738095D01*
X107983333Y-41690476D01*
X108030952Y-41595238D01*
X108030952Y-41404761D01*
X108078571Y-41309523D01*
X108126190Y-41261904D01*
X108221428Y-41214285D01*
X108411904Y-41214285D01*
X108507142Y-41261904D01*
X108554761Y-41309523D01*
X108602380Y-41404761D01*
X108602380Y-41595238D01*
X108554761Y-41690476D01*
X108507142Y-41738095D01*
X108411904Y-41785714D01*
X108221428Y-41785714D01*
X108126190Y-41738095D01*
X108078571Y-41690476D01*
X108030952Y-41595238D01*
%TO.C,C14*%
X122742857Y-115557142D02*
X122790476Y-115604761D01*
X122933333Y-115652380D01*
X123028571Y-115652380D01*
X123171428Y-115604761D01*
X123266666Y-115509523D01*
X123314285Y-115414285D01*
X123361904Y-115223809D01*
X123361904Y-115080952D01*
X123314285Y-114890476D01*
X123266666Y-114795238D01*
X123171428Y-114700000D01*
X123028571Y-114652380D01*
X122933333Y-114652380D01*
X122790476Y-114700000D01*
X122742857Y-114747619D01*
X121790476Y-115652380D02*
X122361904Y-115652380D01*
X122076190Y-115652380D02*
X122076190Y-114652380D01*
X122171428Y-114795238D01*
X122266666Y-114890476D01*
X122361904Y-114938095D01*
X120933333Y-114985714D02*
X120933333Y-115652380D01*
X121171428Y-114604761D02*
X121409523Y-115319047D01*
X120790476Y-115319047D01*
%TO.C,R2*%
X131482380Y-153843333D02*
X131006190Y-153510000D01*
X131482380Y-153271904D02*
X130482380Y-153271904D01*
X130482380Y-153652857D01*
X130530000Y-153748095D01*
X130577619Y-153795714D01*
X130672857Y-153843333D01*
X130815714Y-153843333D01*
X130910952Y-153795714D01*
X130958571Y-153748095D01*
X131006190Y-153652857D01*
X131006190Y-153271904D01*
X130577619Y-154224285D02*
X130530000Y-154271904D01*
X130482380Y-154367142D01*
X130482380Y-154605238D01*
X130530000Y-154700476D01*
X130577619Y-154748095D01*
X130672857Y-154795714D01*
X130768095Y-154795714D01*
X130910952Y-154748095D01*
X131482380Y-154176666D01*
X131482380Y-154795714D01*
%TO.C,R9*%
X131766666Y-82652380D02*
X132100000Y-82176190D01*
X132338095Y-82652380D02*
X132338095Y-81652380D01*
X131957142Y-81652380D01*
X131861904Y-81700000D01*
X131814285Y-81747619D01*
X131766666Y-81842857D01*
X131766666Y-81985714D01*
X131814285Y-82080952D01*
X131861904Y-82128571D01*
X131957142Y-82176190D01*
X132338095Y-82176190D01*
X131290476Y-82652380D02*
X131100000Y-82652380D01*
X131004761Y-82604761D01*
X130957142Y-82557142D01*
X130861904Y-82414285D01*
X130814285Y-82223809D01*
X130814285Y-81842857D01*
X130861904Y-81747619D01*
X130909523Y-81700000D01*
X131004761Y-81652380D01*
X131195238Y-81652380D01*
X131290476Y-81700000D01*
X131338095Y-81747619D01*
X131385714Y-81842857D01*
X131385714Y-82080952D01*
X131338095Y-82176190D01*
X131290476Y-82223809D01*
X131195238Y-82271428D01*
X131004761Y-82271428D01*
X130909523Y-82223809D01*
X130861904Y-82176190D01*
X130814285Y-82080952D01*
%TO.C,R14*%
X105192857Y-58852380D02*
X105526190Y-58376190D01*
X105764285Y-58852380D02*
X105764285Y-57852380D01*
X105383333Y-57852380D01*
X105288095Y-57900000D01*
X105240476Y-57947619D01*
X105192857Y-58042857D01*
X105192857Y-58185714D01*
X105240476Y-58280952D01*
X105288095Y-58328571D01*
X105383333Y-58376190D01*
X105764285Y-58376190D01*
X104240476Y-58852380D02*
X104811904Y-58852380D01*
X104526190Y-58852380D02*
X104526190Y-57852380D01*
X104621428Y-57995238D01*
X104716666Y-58090476D01*
X104811904Y-58138095D01*
X103383333Y-58185714D02*
X103383333Y-58852380D01*
X103621428Y-57804761D02*
X103859523Y-58519047D01*
X103240476Y-58519047D01*
%TO.C,D3*%
X128302380Y-113561904D02*
X127302380Y-113561904D01*
X127302380Y-113800000D01*
X127350000Y-113942857D01*
X127445238Y-114038095D01*
X127540476Y-114085714D01*
X127730952Y-114133333D01*
X127873809Y-114133333D01*
X128064285Y-114085714D01*
X128159523Y-114038095D01*
X128254761Y-113942857D01*
X128302380Y-113800000D01*
X128302380Y-113561904D01*
X127302380Y-114466666D02*
X127302380Y-115085714D01*
X127683333Y-114752380D01*
X127683333Y-114895238D01*
X127730952Y-114990476D01*
X127778571Y-115038095D01*
X127873809Y-115085714D01*
X128111904Y-115085714D01*
X128207142Y-115038095D01*
X128254761Y-114990476D01*
X128302380Y-114895238D01*
X128302380Y-114609523D01*
X128254761Y-114514285D01*
X128207142Y-114466666D01*
X126552380Y-109938095D02*
X125552380Y-109938095D01*
X126552380Y-110509523D02*
X125980952Y-110080952D01*
X125552380Y-110509523D02*
X126123809Y-109938095D01*
%TO.C,R5*%
X119866666Y-33152380D02*
X120200000Y-32676190D01*
X120438095Y-33152380D02*
X120438095Y-32152380D01*
X120057142Y-32152380D01*
X119961904Y-32200000D01*
X119914285Y-32247619D01*
X119866666Y-32342857D01*
X119866666Y-32485714D01*
X119914285Y-32580952D01*
X119961904Y-32628571D01*
X120057142Y-32676190D01*
X120438095Y-32676190D01*
X118961904Y-32152380D02*
X119438095Y-32152380D01*
X119485714Y-32628571D01*
X119438095Y-32580952D01*
X119342857Y-32533333D01*
X119104761Y-32533333D01*
X119009523Y-32580952D01*
X118961904Y-32628571D01*
X118914285Y-32723809D01*
X118914285Y-32961904D01*
X118961904Y-33057142D01*
X119009523Y-33104761D01*
X119104761Y-33152380D01*
X119342857Y-33152380D01*
X119438095Y-33104761D01*
X119485714Y-33057142D01*
%TO.C,R3*%
X119616666Y-81902380D02*
X119950000Y-81426190D01*
X120188095Y-81902380D02*
X120188095Y-80902380D01*
X119807142Y-80902380D01*
X119711904Y-80950000D01*
X119664285Y-80997619D01*
X119616666Y-81092857D01*
X119616666Y-81235714D01*
X119664285Y-81330952D01*
X119711904Y-81378571D01*
X119807142Y-81426190D01*
X120188095Y-81426190D01*
X119283333Y-80902380D02*
X118664285Y-80902380D01*
X118997619Y-81283333D01*
X118854761Y-81283333D01*
X118759523Y-81330952D01*
X118711904Y-81378571D01*
X118664285Y-81473809D01*
X118664285Y-81711904D01*
X118711904Y-81807142D01*
X118759523Y-81854761D01*
X118854761Y-81902380D01*
X119140476Y-81902380D01*
X119235714Y-81854761D01*
X119283333Y-81807142D01*
%TO.C,R10*%
X104602380Y-40357142D02*
X104126190Y-40023809D01*
X104602380Y-39785714D02*
X103602380Y-39785714D01*
X103602380Y-40166666D01*
X103650000Y-40261904D01*
X103697619Y-40309523D01*
X103792857Y-40357142D01*
X103935714Y-40357142D01*
X104030952Y-40309523D01*
X104078571Y-40261904D01*
X104126190Y-40166666D01*
X104126190Y-39785714D01*
X104602380Y-41309523D02*
X104602380Y-40738095D01*
X104602380Y-41023809D02*
X103602380Y-41023809D01*
X103745238Y-40928571D01*
X103840476Y-40833333D01*
X103888095Y-40738095D01*
X103602380Y-41928571D02*
X103602380Y-42023809D01*
X103650000Y-42119047D01*
X103697619Y-42166666D01*
X103792857Y-42214285D01*
X103983333Y-42261904D01*
X104221428Y-42261904D01*
X104411904Y-42214285D01*
X104507142Y-42166666D01*
X104554761Y-42119047D01*
X104602380Y-42023809D01*
X104602380Y-41928571D01*
X104554761Y-41833333D01*
X104507142Y-41785714D01*
X104411904Y-41738095D01*
X104221428Y-41690476D01*
X103983333Y-41690476D01*
X103792857Y-41738095D01*
X103697619Y-41785714D01*
X103650000Y-41833333D01*
X103602380Y-41928571D01*
%TO.C,R11*%
X133592857Y-54652380D02*
X133926190Y-54176190D01*
X134164285Y-54652380D02*
X134164285Y-53652380D01*
X133783333Y-53652380D01*
X133688095Y-53700000D01*
X133640476Y-53747619D01*
X133592857Y-53842857D01*
X133592857Y-53985714D01*
X133640476Y-54080952D01*
X133688095Y-54128571D01*
X133783333Y-54176190D01*
X134164285Y-54176190D01*
X132640476Y-54652380D02*
X133211904Y-54652380D01*
X132926190Y-54652380D02*
X132926190Y-53652380D01*
X133021428Y-53795238D01*
X133116666Y-53890476D01*
X133211904Y-53938095D01*
X131688095Y-54652380D02*
X132259523Y-54652380D01*
X131973809Y-54652380D02*
X131973809Y-53652380D01*
X132069047Y-53795238D01*
X132164285Y-53890476D01*
X132259523Y-53938095D01*
%TO.C,R16*%
X105292857Y-63952380D02*
X105626190Y-63476190D01*
X105864285Y-63952380D02*
X105864285Y-62952380D01*
X105483333Y-62952380D01*
X105388095Y-63000000D01*
X105340476Y-63047619D01*
X105292857Y-63142857D01*
X105292857Y-63285714D01*
X105340476Y-63380952D01*
X105388095Y-63428571D01*
X105483333Y-63476190D01*
X105864285Y-63476190D01*
X104340476Y-63952380D02*
X104911904Y-63952380D01*
X104626190Y-63952380D02*
X104626190Y-62952380D01*
X104721428Y-63095238D01*
X104816666Y-63190476D01*
X104911904Y-63238095D01*
X103483333Y-62952380D02*
X103673809Y-62952380D01*
X103769047Y-63000000D01*
X103816666Y-63047619D01*
X103911904Y-63190476D01*
X103959523Y-63380952D01*
X103959523Y-63761904D01*
X103911904Y-63857142D01*
X103864285Y-63904761D01*
X103769047Y-63952380D01*
X103578571Y-63952380D01*
X103483333Y-63904761D01*
X103435714Y-63857142D01*
X103388095Y-63761904D01*
X103388095Y-63523809D01*
X103435714Y-63428571D01*
X103483333Y-63380952D01*
X103578571Y-63333333D01*
X103769047Y-63333333D01*
X103864285Y-63380952D01*
X103911904Y-63428571D01*
X103959523Y-63523809D01*
%TO.C,R22*%
X130942857Y-90602380D02*
X131276190Y-90126190D01*
X131514285Y-90602380D02*
X131514285Y-89602380D01*
X131133333Y-89602380D01*
X131038095Y-89650000D01*
X130990476Y-89697619D01*
X130942857Y-89792857D01*
X130942857Y-89935714D01*
X130990476Y-90030952D01*
X131038095Y-90078571D01*
X131133333Y-90126190D01*
X131514285Y-90126190D01*
X130561904Y-89697619D02*
X130514285Y-89650000D01*
X130419047Y-89602380D01*
X130180952Y-89602380D01*
X130085714Y-89650000D01*
X130038095Y-89697619D01*
X129990476Y-89792857D01*
X129990476Y-89888095D01*
X130038095Y-90030952D01*
X130609523Y-90602380D01*
X129990476Y-90602380D01*
X129609523Y-89697619D02*
X129561904Y-89650000D01*
X129466666Y-89602380D01*
X129228571Y-89602380D01*
X129133333Y-89650000D01*
X129085714Y-89697619D01*
X129038095Y-89792857D01*
X129038095Y-89888095D01*
X129085714Y-90030952D01*
X129657142Y-90602380D01*
X129038095Y-90602380D01*
%TO.C,R24*%
X132232857Y-102652380D02*
X132566190Y-102176190D01*
X132804285Y-102652380D02*
X132804285Y-101652380D01*
X132423333Y-101652380D01*
X132328095Y-101700000D01*
X132280476Y-101747619D01*
X132232857Y-101842857D01*
X132232857Y-101985714D01*
X132280476Y-102080952D01*
X132328095Y-102128571D01*
X132423333Y-102176190D01*
X132804285Y-102176190D01*
X131851904Y-101747619D02*
X131804285Y-101700000D01*
X131709047Y-101652380D01*
X131470952Y-101652380D01*
X131375714Y-101700000D01*
X131328095Y-101747619D01*
X131280476Y-101842857D01*
X131280476Y-101938095D01*
X131328095Y-102080952D01*
X131899523Y-102652380D01*
X131280476Y-102652380D01*
X130423333Y-101985714D02*
X130423333Y-102652380D01*
X130661428Y-101604761D02*
X130899523Y-102319047D01*
X130280476Y-102319047D01*
%TO.C,R25*%
X132092857Y-98402380D02*
X132426190Y-97926190D01*
X132664285Y-98402380D02*
X132664285Y-97402380D01*
X132283333Y-97402380D01*
X132188095Y-97450000D01*
X132140476Y-97497619D01*
X132092857Y-97592857D01*
X132092857Y-97735714D01*
X132140476Y-97830952D01*
X132188095Y-97878571D01*
X132283333Y-97926190D01*
X132664285Y-97926190D01*
X131711904Y-97497619D02*
X131664285Y-97450000D01*
X131569047Y-97402380D01*
X131330952Y-97402380D01*
X131235714Y-97450000D01*
X131188095Y-97497619D01*
X131140476Y-97592857D01*
X131140476Y-97688095D01*
X131188095Y-97830952D01*
X131759523Y-98402380D01*
X131140476Y-98402380D01*
X130235714Y-97402380D02*
X130711904Y-97402380D01*
X130759523Y-97878571D01*
X130711904Y-97830952D01*
X130616666Y-97783333D01*
X130378571Y-97783333D01*
X130283333Y-97830952D01*
X130235714Y-97878571D01*
X130188095Y-97973809D01*
X130188095Y-98211904D01*
X130235714Y-98307142D01*
X130283333Y-98354761D01*
X130378571Y-98402380D01*
X130616666Y-98402380D01*
X130711904Y-98354761D01*
X130759523Y-98307142D01*
%TO.C,R26*%
X104852857Y-84402380D02*
X105186190Y-83926190D01*
X105424285Y-84402380D02*
X105424285Y-83402380D01*
X105043333Y-83402380D01*
X104948095Y-83450000D01*
X104900476Y-83497619D01*
X104852857Y-83592857D01*
X104852857Y-83735714D01*
X104900476Y-83830952D01*
X104948095Y-83878571D01*
X105043333Y-83926190D01*
X105424285Y-83926190D01*
X104471904Y-83497619D02*
X104424285Y-83450000D01*
X104329047Y-83402380D01*
X104090952Y-83402380D01*
X103995714Y-83450000D01*
X103948095Y-83497619D01*
X103900476Y-83592857D01*
X103900476Y-83688095D01*
X103948095Y-83830952D01*
X104519523Y-84402380D01*
X103900476Y-84402380D01*
X103043333Y-83402380D02*
X103233809Y-83402380D01*
X103329047Y-83450000D01*
X103376666Y-83497619D01*
X103471904Y-83640476D01*
X103519523Y-83830952D01*
X103519523Y-84211904D01*
X103471904Y-84307142D01*
X103424285Y-84354761D01*
X103329047Y-84402380D01*
X103138571Y-84402380D01*
X103043333Y-84354761D01*
X102995714Y-84307142D01*
X102948095Y-84211904D01*
X102948095Y-83973809D01*
X102995714Y-83878571D01*
X103043333Y-83830952D01*
X103138571Y-83783333D01*
X103329047Y-83783333D01*
X103424285Y-83830952D01*
X103471904Y-83878571D01*
X103519523Y-83973809D01*
%TO.C,R27*%
X104982857Y-80902380D02*
X105316190Y-80426190D01*
X105554285Y-80902380D02*
X105554285Y-79902380D01*
X105173333Y-79902380D01*
X105078095Y-79950000D01*
X105030476Y-79997619D01*
X104982857Y-80092857D01*
X104982857Y-80235714D01*
X105030476Y-80330952D01*
X105078095Y-80378571D01*
X105173333Y-80426190D01*
X105554285Y-80426190D01*
X104601904Y-79997619D02*
X104554285Y-79950000D01*
X104459047Y-79902380D01*
X104220952Y-79902380D01*
X104125714Y-79950000D01*
X104078095Y-79997619D01*
X104030476Y-80092857D01*
X104030476Y-80188095D01*
X104078095Y-80330952D01*
X104649523Y-80902380D01*
X104030476Y-80902380D01*
X103697142Y-79902380D02*
X103030476Y-79902380D01*
X103459047Y-80902380D01*
%TO.C,R29*%
X96102380Y-117997142D02*
X95626190Y-117663809D01*
X96102380Y-117425714D02*
X95102380Y-117425714D01*
X95102380Y-117806666D01*
X95150000Y-117901904D01*
X95197619Y-117949523D01*
X95292857Y-117997142D01*
X95435714Y-117997142D01*
X95530952Y-117949523D01*
X95578571Y-117901904D01*
X95626190Y-117806666D01*
X95626190Y-117425714D01*
X95197619Y-118378095D02*
X95150000Y-118425714D01*
X95102380Y-118520952D01*
X95102380Y-118759047D01*
X95150000Y-118854285D01*
X95197619Y-118901904D01*
X95292857Y-118949523D01*
X95388095Y-118949523D01*
X95530952Y-118901904D01*
X96102380Y-118330476D01*
X96102380Y-118949523D01*
X96102380Y-119425714D02*
X96102380Y-119616190D01*
X96054761Y-119711428D01*
X96007142Y-119759047D01*
X95864285Y-119854285D01*
X95673809Y-119901904D01*
X95292857Y-119901904D01*
X95197619Y-119854285D01*
X95150000Y-119806666D01*
X95102380Y-119711428D01*
X95102380Y-119520952D01*
X95150000Y-119425714D01*
X95197619Y-119378095D01*
X95292857Y-119330476D01*
X95530952Y-119330476D01*
X95626190Y-119378095D01*
X95673809Y-119425714D01*
X95721428Y-119520952D01*
X95721428Y-119711428D01*
X95673809Y-119806666D01*
X95626190Y-119854285D01*
X95530952Y-119901904D01*
%TO.C,R30*%
X104592857Y-123952380D02*
X104926190Y-123476190D01*
X105164285Y-123952380D02*
X105164285Y-122952380D01*
X104783333Y-122952380D01*
X104688095Y-123000000D01*
X104640476Y-123047619D01*
X104592857Y-123142857D01*
X104592857Y-123285714D01*
X104640476Y-123380952D01*
X104688095Y-123428571D01*
X104783333Y-123476190D01*
X105164285Y-123476190D01*
X104259523Y-122952380D02*
X103640476Y-122952380D01*
X103973809Y-123333333D01*
X103830952Y-123333333D01*
X103735714Y-123380952D01*
X103688095Y-123428571D01*
X103640476Y-123523809D01*
X103640476Y-123761904D01*
X103688095Y-123857142D01*
X103735714Y-123904761D01*
X103830952Y-123952380D01*
X104116666Y-123952380D01*
X104211904Y-123904761D01*
X104259523Y-123857142D01*
X103021428Y-122952380D02*
X102926190Y-122952380D01*
X102830952Y-123000000D01*
X102783333Y-123047619D01*
X102735714Y-123142857D01*
X102688095Y-123333333D01*
X102688095Y-123571428D01*
X102735714Y-123761904D01*
X102783333Y-123857142D01*
X102830952Y-123904761D01*
X102926190Y-123952380D01*
X103021428Y-123952380D01*
X103116666Y-123904761D01*
X103164285Y-123857142D01*
X103211904Y-123761904D01*
X103259523Y-123571428D01*
X103259523Y-123333333D01*
X103211904Y-123142857D01*
X103164285Y-123047619D01*
X103116666Y-123000000D01*
X103021428Y-122952380D01*
%TO.C,R31*%
X104732857Y-95652380D02*
X105066190Y-95176190D01*
X105304285Y-95652380D02*
X105304285Y-94652380D01*
X104923333Y-94652380D01*
X104828095Y-94700000D01*
X104780476Y-94747619D01*
X104732857Y-94842857D01*
X104732857Y-94985714D01*
X104780476Y-95080952D01*
X104828095Y-95128571D01*
X104923333Y-95176190D01*
X105304285Y-95176190D01*
X104399523Y-94652380D02*
X103780476Y-94652380D01*
X104113809Y-95033333D01*
X103970952Y-95033333D01*
X103875714Y-95080952D01*
X103828095Y-95128571D01*
X103780476Y-95223809D01*
X103780476Y-95461904D01*
X103828095Y-95557142D01*
X103875714Y-95604761D01*
X103970952Y-95652380D01*
X104256666Y-95652380D01*
X104351904Y-95604761D01*
X104399523Y-95557142D01*
X102828095Y-95652380D02*
X103399523Y-95652380D01*
X103113809Y-95652380D02*
X103113809Y-94652380D01*
X103209047Y-94795238D01*
X103304285Y-94890476D01*
X103399523Y-94938095D01*
%TO.C,R28*%
X104842857Y-91902380D02*
X105176190Y-91426190D01*
X105414285Y-91902380D02*
X105414285Y-90902380D01*
X105033333Y-90902380D01*
X104938095Y-90950000D01*
X104890476Y-90997619D01*
X104842857Y-91092857D01*
X104842857Y-91235714D01*
X104890476Y-91330952D01*
X104938095Y-91378571D01*
X105033333Y-91426190D01*
X105414285Y-91426190D01*
X104461904Y-90997619D02*
X104414285Y-90950000D01*
X104319047Y-90902380D01*
X104080952Y-90902380D01*
X103985714Y-90950000D01*
X103938095Y-90997619D01*
X103890476Y-91092857D01*
X103890476Y-91188095D01*
X103938095Y-91330952D01*
X104509523Y-91902380D01*
X103890476Y-91902380D01*
X103319047Y-91330952D02*
X103414285Y-91283333D01*
X103461904Y-91235714D01*
X103509523Y-91140476D01*
X103509523Y-91092857D01*
X103461904Y-90997619D01*
X103414285Y-90950000D01*
X103319047Y-90902380D01*
X103128571Y-90902380D01*
X103033333Y-90950000D01*
X102985714Y-90997619D01*
X102938095Y-91092857D01*
X102938095Y-91140476D01*
X102985714Y-91235714D01*
X103033333Y-91283333D01*
X103128571Y-91330952D01*
X103319047Y-91330952D01*
X103414285Y-91378571D01*
X103461904Y-91426190D01*
X103509523Y-91521428D01*
X103509523Y-91711904D01*
X103461904Y-91807142D01*
X103414285Y-91854761D01*
X103319047Y-91902380D01*
X103128571Y-91902380D01*
X103033333Y-91854761D01*
X102985714Y-91807142D01*
X102938095Y-91711904D01*
X102938095Y-91521428D01*
X102985714Y-91426190D01*
X103033333Y-91378571D01*
X103128571Y-91330952D01*
%TO.C,R32*%
X104482857Y-119402380D02*
X104816190Y-118926190D01*
X105054285Y-119402380D02*
X105054285Y-118402380D01*
X104673333Y-118402380D01*
X104578095Y-118450000D01*
X104530476Y-118497619D01*
X104482857Y-118592857D01*
X104482857Y-118735714D01*
X104530476Y-118830952D01*
X104578095Y-118878571D01*
X104673333Y-118926190D01*
X105054285Y-118926190D01*
X104149523Y-118402380D02*
X103530476Y-118402380D01*
X103863809Y-118783333D01*
X103720952Y-118783333D01*
X103625714Y-118830952D01*
X103578095Y-118878571D01*
X103530476Y-118973809D01*
X103530476Y-119211904D01*
X103578095Y-119307142D01*
X103625714Y-119354761D01*
X103720952Y-119402380D01*
X104006666Y-119402380D01*
X104101904Y-119354761D01*
X104149523Y-119307142D01*
X103149523Y-118497619D02*
X103101904Y-118450000D01*
X103006666Y-118402380D01*
X102768571Y-118402380D01*
X102673333Y-118450000D01*
X102625714Y-118497619D01*
X102578095Y-118592857D01*
X102578095Y-118688095D01*
X102625714Y-118830952D01*
X103197142Y-119402380D01*
X102578095Y-119402380D01*
%TO.C,R33*%
X105102857Y-134642380D02*
X105436190Y-134166190D01*
X105674285Y-134642380D02*
X105674285Y-133642380D01*
X105293333Y-133642380D01*
X105198095Y-133690000D01*
X105150476Y-133737619D01*
X105102857Y-133832857D01*
X105102857Y-133975714D01*
X105150476Y-134070952D01*
X105198095Y-134118571D01*
X105293333Y-134166190D01*
X105674285Y-134166190D01*
X104769523Y-133642380D02*
X104150476Y-133642380D01*
X104483809Y-134023333D01*
X104340952Y-134023333D01*
X104245714Y-134070952D01*
X104198095Y-134118571D01*
X104150476Y-134213809D01*
X104150476Y-134451904D01*
X104198095Y-134547142D01*
X104245714Y-134594761D01*
X104340952Y-134642380D01*
X104626666Y-134642380D01*
X104721904Y-134594761D01*
X104769523Y-134547142D01*
X103817142Y-133642380D02*
X103198095Y-133642380D01*
X103531428Y-134023333D01*
X103388571Y-134023333D01*
X103293333Y-134070952D01*
X103245714Y-134118571D01*
X103198095Y-134213809D01*
X103198095Y-134451904D01*
X103245714Y-134547142D01*
X103293333Y-134594761D01*
X103388571Y-134642380D01*
X103674285Y-134642380D01*
X103769523Y-134594761D01*
X103817142Y-134547142D01*
%TO.C,R34*%
X104602857Y-115702380D02*
X104936190Y-115226190D01*
X105174285Y-115702380D02*
X105174285Y-114702380D01*
X104793333Y-114702380D01*
X104698095Y-114750000D01*
X104650476Y-114797619D01*
X104602857Y-114892857D01*
X104602857Y-115035714D01*
X104650476Y-115130952D01*
X104698095Y-115178571D01*
X104793333Y-115226190D01*
X105174285Y-115226190D01*
X104269523Y-114702380D02*
X103650476Y-114702380D01*
X103983809Y-115083333D01*
X103840952Y-115083333D01*
X103745714Y-115130952D01*
X103698095Y-115178571D01*
X103650476Y-115273809D01*
X103650476Y-115511904D01*
X103698095Y-115607142D01*
X103745714Y-115654761D01*
X103840952Y-115702380D01*
X104126666Y-115702380D01*
X104221904Y-115654761D01*
X104269523Y-115607142D01*
X102793333Y-115035714D02*
X102793333Y-115702380D01*
X103031428Y-114654761D02*
X103269523Y-115369047D01*
X102650476Y-115369047D01*
%TO.C,R36*%
X104852857Y-88152380D02*
X105186190Y-87676190D01*
X105424285Y-88152380D02*
X105424285Y-87152380D01*
X105043333Y-87152380D01*
X104948095Y-87200000D01*
X104900476Y-87247619D01*
X104852857Y-87342857D01*
X104852857Y-87485714D01*
X104900476Y-87580952D01*
X104948095Y-87628571D01*
X105043333Y-87676190D01*
X105424285Y-87676190D01*
X104519523Y-87152380D02*
X103900476Y-87152380D01*
X104233809Y-87533333D01*
X104090952Y-87533333D01*
X103995714Y-87580952D01*
X103948095Y-87628571D01*
X103900476Y-87723809D01*
X103900476Y-87961904D01*
X103948095Y-88057142D01*
X103995714Y-88104761D01*
X104090952Y-88152380D01*
X104376666Y-88152380D01*
X104471904Y-88104761D01*
X104519523Y-88057142D01*
X103043333Y-87152380D02*
X103233809Y-87152380D01*
X103329047Y-87200000D01*
X103376666Y-87247619D01*
X103471904Y-87390476D01*
X103519523Y-87580952D01*
X103519523Y-87961904D01*
X103471904Y-88057142D01*
X103424285Y-88104761D01*
X103329047Y-88152380D01*
X103138571Y-88152380D01*
X103043333Y-88104761D01*
X102995714Y-88057142D01*
X102948095Y-87961904D01*
X102948095Y-87723809D01*
X102995714Y-87628571D01*
X103043333Y-87580952D01*
X103138571Y-87533333D01*
X103329047Y-87533333D01*
X103424285Y-87580952D01*
X103471904Y-87628571D01*
X103519523Y-87723809D01*
%TO.C,R37*%
X93002380Y-113307142D02*
X92526190Y-112973809D01*
X93002380Y-112735714D02*
X92002380Y-112735714D01*
X92002380Y-113116666D01*
X92050000Y-113211904D01*
X92097619Y-113259523D01*
X92192857Y-113307142D01*
X92335714Y-113307142D01*
X92430952Y-113259523D01*
X92478571Y-113211904D01*
X92526190Y-113116666D01*
X92526190Y-112735714D01*
X92002380Y-113640476D02*
X92002380Y-114259523D01*
X92383333Y-113926190D01*
X92383333Y-114069047D01*
X92430952Y-114164285D01*
X92478571Y-114211904D01*
X92573809Y-114259523D01*
X92811904Y-114259523D01*
X92907142Y-114211904D01*
X92954761Y-114164285D01*
X93002380Y-114069047D01*
X93002380Y-113783333D01*
X92954761Y-113688095D01*
X92907142Y-113640476D01*
X92002380Y-114592857D02*
X92002380Y-115259523D01*
X93002380Y-114830952D01*
%TD*%
M02*
