%TF.GenerationSoftware,KiCad,Pcbnew,(5.1.6)-1*%
%TF.CreationDate,2020-06-22T20:03:53-05:00*%
%TF.ProjectId,NOISE_x_S_and_H,4e4f4953-455f-4785-9f53-5f616e645f48,rev?*%
%TF.SameCoordinates,Original*%
%TF.FileFunction,Legend,Top*%
%TF.FilePolarity,Positive*%
%FSLAX46Y46*%
G04 Gerber Fmt 4.6, Leading zero omitted, Abs format (unit mm)*
G04 Created by KiCad (PCBNEW (5.1.6)-1) date 2020-06-22 20:03:53*
%MOMM*%
%LPD*%
G01*
G04 APERTURE LIST*
%ADD10C,0.150000*%
%ADD11C,0.120000*%
G04 APERTURE END LIST*
D10*
X113130952Y-88302380D02*
X113130952Y-87302380D01*
X114178571Y-88207142D02*
X114130952Y-88254761D01*
X113988095Y-88302380D01*
X113892857Y-88302380D01*
X113750000Y-88254761D01*
X113654761Y-88159523D01*
X113607142Y-88064285D01*
X113559523Y-87873809D01*
X113559523Y-87730952D01*
X113607142Y-87540476D01*
X113654761Y-87445238D01*
X113750000Y-87350000D01*
X113892857Y-87302380D01*
X113988095Y-87302380D01*
X114130952Y-87350000D01*
X114178571Y-87397619D01*
X114654761Y-87302380D02*
X114559523Y-87492857D01*
X115035714Y-88254761D02*
X115130952Y-88302380D01*
X115321428Y-88302380D01*
X115416666Y-88254761D01*
X115464285Y-88159523D01*
X115464285Y-88111904D01*
X115416666Y-88016666D01*
X115321428Y-87969047D01*
X115178571Y-87969047D01*
X115083333Y-87921428D01*
X115035714Y-87826190D01*
X115035714Y-87778571D01*
X115083333Y-87683333D01*
X115178571Y-87635714D01*
X115321428Y-87635714D01*
X115416666Y-87683333D01*
X116845238Y-87302380D02*
X117035714Y-87302380D01*
X117130952Y-87350000D01*
X117226190Y-87445238D01*
X117273809Y-87635714D01*
X117273809Y-87969047D01*
X117226190Y-88159523D01*
X117130952Y-88254761D01*
X117035714Y-88302380D01*
X116845238Y-88302380D01*
X116750000Y-88254761D01*
X116654761Y-88159523D01*
X116607142Y-87969047D01*
X116607142Y-87635714D01*
X116654761Y-87445238D01*
X116750000Y-87350000D01*
X116845238Y-87302380D01*
X117702380Y-88302380D02*
X117702380Y-87302380D01*
X118273809Y-88302380D01*
X118273809Y-87302380D01*
X119369047Y-87302380D02*
X119940476Y-87302380D01*
X119654761Y-88302380D02*
X119654761Y-87302380D01*
X120273809Y-88302380D02*
X120273809Y-87302380D01*
X120273809Y-87778571D02*
X120845238Y-87778571D01*
X120845238Y-88302380D02*
X120845238Y-87302380D01*
X121321428Y-88302380D02*
X121321428Y-87302380D01*
X121750000Y-88254761D02*
X121892857Y-88302380D01*
X122130952Y-88302380D01*
X122226190Y-88254761D01*
X122273809Y-88207142D01*
X122321428Y-88111904D01*
X122321428Y-88016666D01*
X122273809Y-87921428D01*
X122226190Y-87873809D01*
X122130952Y-87826190D01*
X121940476Y-87778571D01*
X121845238Y-87730952D01*
X121797619Y-87683333D01*
X121750000Y-87588095D01*
X121750000Y-87492857D01*
X121797619Y-87397619D01*
X121845238Y-87350000D01*
X121940476Y-87302380D01*
X122178571Y-87302380D01*
X122321428Y-87350000D01*
X123464285Y-88254761D02*
X123607142Y-88302380D01*
X123845238Y-88302380D01*
X123940476Y-88254761D01*
X123988095Y-88207142D01*
X124035714Y-88111904D01*
X124035714Y-88016666D01*
X123988095Y-87921428D01*
X123940476Y-87873809D01*
X123845238Y-87826190D01*
X123654761Y-87778571D01*
X123559523Y-87730952D01*
X123511904Y-87683333D01*
X123464285Y-87588095D01*
X123464285Y-87492857D01*
X123511904Y-87397619D01*
X123559523Y-87350000D01*
X123654761Y-87302380D01*
X123892857Y-87302380D01*
X124035714Y-87350000D01*
X124464285Y-88302380D02*
X124464285Y-87302380D01*
X124940476Y-88302380D02*
X124940476Y-87302380D01*
X125178571Y-87302380D01*
X125321428Y-87350000D01*
X125416666Y-87445238D01*
X125464285Y-87540476D01*
X125511904Y-87730952D01*
X125511904Y-87873809D01*
X125464285Y-88064285D01*
X125416666Y-88159523D01*
X125321428Y-88254761D01*
X125178571Y-88302380D01*
X124940476Y-88302380D01*
X125940476Y-87778571D02*
X126273809Y-87778571D01*
X126416666Y-88302380D02*
X125940476Y-88302380D01*
X125940476Y-87302380D01*
X126416666Y-87302380D01*
X95636717Y-148066480D02*
X96343824Y-147359374D01*
X96175465Y-147191015D01*
X96040778Y-147123671D01*
X95906091Y-147123671D01*
X95805076Y-147157343D01*
X95636717Y-147258358D01*
X95535702Y-147359374D01*
X95434687Y-147527732D01*
X95401015Y-147628748D01*
X95401015Y-147763435D01*
X95468358Y-147898122D01*
X95636717Y-148066480D01*
X94929610Y-147359374D02*
X95636717Y-146652267D01*
X94794923Y-146551251D02*
X94458206Y-146887969D01*
X95401015Y-146416564D02*
X94794923Y-146551251D01*
X94929610Y-145945160D01*
X102771428Y-190657142D02*
X102723809Y-190704761D01*
X102580952Y-190752380D01*
X102485714Y-190752380D01*
X102342857Y-190704761D01*
X102247619Y-190609523D01*
X102200000Y-190514285D01*
X102152380Y-190323809D01*
X102152380Y-190180952D01*
X102200000Y-189990476D01*
X102247619Y-189895238D01*
X102342857Y-189800000D01*
X102485714Y-189752380D01*
X102580952Y-189752380D01*
X102723809Y-189800000D01*
X102771428Y-189847619D01*
X103057142Y-189752380D02*
X103390476Y-190752380D01*
X103723809Y-189752380D01*
X105009523Y-189752380D02*
X105200000Y-189752380D01*
X105295238Y-189800000D01*
X105390476Y-189895238D01*
X105438095Y-190085714D01*
X105438095Y-190419047D01*
X105390476Y-190609523D01*
X105295238Y-190704761D01*
X105200000Y-190752380D01*
X105009523Y-190752380D01*
X104914285Y-190704761D01*
X104819047Y-190609523D01*
X104771428Y-190419047D01*
X104771428Y-190085714D01*
X104819047Y-189895238D01*
X104914285Y-189800000D01*
X105009523Y-189752380D01*
X105866666Y-189752380D02*
X105866666Y-190561904D01*
X105914285Y-190657142D01*
X105961904Y-190704761D01*
X106057142Y-190752380D01*
X106247619Y-190752380D01*
X106342857Y-190704761D01*
X106390476Y-190657142D01*
X106438095Y-190561904D01*
X106438095Y-189752380D01*
X106771428Y-189752380D02*
X107342857Y-189752380D01*
X107057142Y-190752380D02*
X107057142Y-189752380D01*
X129490476Y-189740000D02*
X129395238Y-189692380D01*
X129252380Y-189692380D01*
X129109523Y-189740000D01*
X129014285Y-189835238D01*
X128966666Y-189930476D01*
X128919047Y-190120952D01*
X128919047Y-190263809D01*
X128966666Y-190454285D01*
X129014285Y-190549523D01*
X129109523Y-190644761D01*
X129252380Y-190692380D01*
X129347619Y-190692380D01*
X129490476Y-190644761D01*
X129538095Y-190597142D01*
X129538095Y-190263809D01*
X129347619Y-190263809D01*
X129919047Y-190406666D02*
X130395238Y-190406666D01*
X129823809Y-190692380D02*
X130157142Y-189692380D01*
X130490476Y-190692380D01*
X130680952Y-189692380D02*
X131252380Y-189692380D01*
X130966666Y-190692380D02*
X130966666Y-189692380D01*
X131585714Y-190168571D02*
X131919047Y-190168571D01*
X132061904Y-190692380D02*
X131585714Y-190692380D01*
X131585714Y-189692380D01*
X132061904Y-189692380D01*
X133442857Y-189692380D02*
X133633333Y-189692380D01*
X133728571Y-189740000D01*
X133823809Y-189835238D01*
X133871428Y-190025714D01*
X133871428Y-190359047D01*
X133823809Y-190549523D01*
X133728571Y-190644761D01*
X133633333Y-190692380D01*
X133442857Y-190692380D01*
X133347619Y-190644761D01*
X133252380Y-190549523D01*
X133204761Y-190359047D01*
X133204761Y-190025714D01*
X133252380Y-189835238D01*
X133347619Y-189740000D01*
X133442857Y-189692380D01*
X134300000Y-189692380D02*
X134300000Y-190501904D01*
X134347619Y-190597142D01*
X134395238Y-190644761D01*
X134490476Y-190692380D01*
X134680952Y-190692380D01*
X134776190Y-190644761D01*
X134823809Y-190597142D01*
X134871428Y-190501904D01*
X134871428Y-189692380D01*
X135204761Y-189692380D02*
X135776190Y-189692380D01*
X135490476Y-190692380D02*
X135490476Y-189692380D01*
X74029047Y-118122380D02*
X73695714Y-117646190D01*
X73457619Y-118122380D02*
X73457619Y-117122380D01*
X73838571Y-117122380D01*
X73933809Y-117170000D01*
X73981428Y-117217619D01*
X74029047Y-117312857D01*
X74029047Y-117455714D01*
X73981428Y-117550952D01*
X73933809Y-117598571D01*
X73838571Y-117646190D01*
X73457619Y-117646190D01*
X74457619Y-117598571D02*
X74790952Y-117598571D01*
X74933809Y-118122380D02*
X74457619Y-118122380D01*
X74457619Y-117122380D01*
X74933809Y-117122380D01*
X75362380Y-118122380D02*
X75362380Y-117122380D01*
X75600476Y-117122380D01*
X75743333Y-117170000D01*
X75838571Y-117265238D01*
X75886190Y-117360476D01*
X75933809Y-117550952D01*
X75933809Y-117693809D01*
X75886190Y-117884285D01*
X75838571Y-117979523D01*
X75743333Y-118074761D01*
X75600476Y-118122380D01*
X75362380Y-118122380D01*
X76362380Y-118122380D02*
X76362380Y-117122380D01*
X76790952Y-118074761D02*
X76933809Y-118122380D01*
X77171904Y-118122380D01*
X77267142Y-118074761D01*
X77314761Y-118027142D01*
X77362380Y-117931904D01*
X77362380Y-117836666D01*
X77314761Y-117741428D01*
X77267142Y-117693809D01*
X77171904Y-117646190D01*
X76981428Y-117598571D01*
X76886190Y-117550952D01*
X76838571Y-117503333D01*
X76790952Y-117408095D01*
X76790952Y-117312857D01*
X76838571Y-117217619D01*
X76886190Y-117170000D01*
X76981428Y-117122380D01*
X77219523Y-117122380D01*
X77362380Y-117170000D01*
X77790952Y-118122380D02*
X77790952Y-117122380D01*
X77790952Y-117598571D02*
X78362380Y-117598571D01*
X78362380Y-118122380D02*
X78362380Y-117122380D01*
X73962380Y-154048571D02*
X74105238Y-154096190D01*
X74152857Y-154143809D01*
X74200476Y-154239047D01*
X74200476Y-154381904D01*
X74152857Y-154477142D01*
X74105238Y-154524761D01*
X74010000Y-154572380D01*
X73629047Y-154572380D01*
X73629047Y-153572380D01*
X73962380Y-153572380D01*
X74057619Y-153620000D01*
X74105238Y-153667619D01*
X74152857Y-153762857D01*
X74152857Y-153858095D01*
X74105238Y-153953333D01*
X74057619Y-154000952D01*
X73962380Y-154048571D01*
X73629047Y-154048571D01*
X75105238Y-154572380D02*
X74629047Y-154572380D01*
X74629047Y-153572380D01*
X75438571Y-153572380D02*
X75438571Y-154381904D01*
X75486190Y-154477142D01*
X75533809Y-154524761D01*
X75629047Y-154572380D01*
X75819523Y-154572380D01*
X75914761Y-154524761D01*
X75962380Y-154477142D01*
X76010000Y-154381904D01*
X76010000Y-153572380D01*
X76486190Y-154048571D02*
X76819523Y-154048571D01*
X76962380Y-154572380D02*
X76486190Y-154572380D01*
X76486190Y-153572380D01*
X76962380Y-153572380D01*
X77390952Y-154572380D02*
X77390952Y-153572380D01*
X77819523Y-154524761D02*
X77962380Y-154572380D01*
X78200476Y-154572380D01*
X78295714Y-154524761D01*
X78343333Y-154477142D01*
X78390952Y-154381904D01*
X78390952Y-154286666D01*
X78343333Y-154191428D01*
X78295714Y-154143809D01*
X78200476Y-154096190D01*
X78010000Y-154048571D01*
X77914761Y-154000952D01*
X77867142Y-153953333D01*
X77819523Y-153858095D01*
X77819523Y-153762857D01*
X77867142Y-153667619D01*
X77914761Y-153620000D01*
X78010000Y-153572380D01*
X78248095Y-153572380D01*
X78390952Y-153620000D01*
X78819523Y-154572380D02*
X78819523Y-153572380D01*
X78819523Y-154048571D02*
X79390952Y-154048571D01*
X79390952Y-154572380D02*
X79390952Y-153572380D01*
X73698095Y-81852380D02*
X73698095Y-80852380D01*
X74079047Y-80852380D01*
X74174285Y-80900000D01*
X74221904Y-80947619D01*
X74269523Y-81042857D01*
X74269523Y-81185714D01*
X74221904Y-81280952D01*
X74174285Y-81328571D01*
X74079047Y-81376190D01*
X73698095Y-81376190D01*
X74698095Y-81852380D02*
X74698095Y-80852380D01*
X75174285Y-81852380D02*
X75174285Y-80852380D01*
X75745714Y-81852380D01*
X75745714Y-80852380D01*
X76221904Y-81852380D02*
X76221904Y-80852380D01*
X76793333Y-81852380D02*
X76364761Y-81280952D01*
X76793333Y-80852380D02*
X76221904Y-81423809D01*
X77221904Y-81852380D02*
X77221904Y-80852380D01*
X77650476Y-81804761D02*
X77793333Y-81852380D01*
X78031428Y-81852380D01*
X78126666Y-81804761D01*
X78174285Y-81757142D01*
X78221904Y-81661904D01*
X78221904Y-81566666D01*
X78174285Y-81471428D01*
X78126666Y-81423809D01*
X78031428Y-81376190D01*
X77840952Y-81328571D01*
X77745714Y-81280952D01*
X77698095Y-81233333D01*
X77650476Y-81138095D01*
X77650476Y-81042857D01*
X77698095Y-80947619D01*
X77745714Y-80900000D01*
X77840952Y-80852380D01*
X78079047Y-80852380D01*
X78221904Y-80900000D01*
X78650476Y-81852380D02*
X78650476Y-80852380D01*
X78650476Y-81328571D02*
X79221904Y-81328571D01*
X79221904Y-81852380D02*
X79221904Y-80852380D01*
X74926190Y-44222380D02*
X75164285Y-45222380D01*
X75354761Y-44508095D01*
X75545238Y-45222380D01*
X75783333Y-44222380D01*
X76164285Y-45222380D02*
X76164285Y-44222380D01*
X76164285Y-44698571D02*
X76735714Y-44698571D01*
X76735714Y-45222380D02*
X76735714Y-44222380D01*
X77211904Y-45222380D02*
X77211904Y-44222380D01*
X77545238Y-44222380D02*
X78116666Y-44222380D01*
X77830952Y-45222380D02*
X77830952Y-44222380D01*
X78450000Y-44698571D02*
X78783333Y-44698571D01*
X78926190Y-45222380D02*
X78450000Y-45222380D01*
X78450000Y-44222380D01*
X78926190Y-44222380D01*
X71786190Y-190228571D02*
X72119523Y-190228571D01*
X72262380Y-190752380D02*
X71786190Y-190752380D01*
X71786190Y-189752380D01*
X72262380Y-189752380D01*
X72595714Y-189752380D02*
X73262380Y-190752380D01*
X73262380Y-189752380D02*
X72595714Y-190752380D01*
X73500476Y-189752380D02*
X74071904Y-189752380D01*
X73786190Y-190752380D02*
X73786190Y-189752380D01*
X74405238Y-190657142D02*
X74452857Y-190704761D01*
X74405238Y-190752380D01*
X74357619Y-190704761D01*
X74405238Y-190657142D01*
X74405238Y-190752380D01*
X75595714Y-190704761D02*
X75738571Y-190752380D01*
X75976666Y-190752380D01*
X76071904Y-190704761D01*
X76119523Y-190657142D01*
X76167142Y-190561904D01*
X76167142Y-190466666D01*
X76119523Y-190371428D01*
X76071904Y-190323809D01*
X75976666Y-190276190D01*
X75786190Y-190228571D01*
X75690952Y-190180952D01*
X75643333Y-190133333D01*
X75595714Y-190038095D01*
X75595714Y-189942857D01*
X75643333Y-189847619D01*
X75690952Y-189800000D01*
X75786190Y-189752380D01*
X76024285Y-189752380D01*
X76167142Y-189800000D01*
X76548095Y-190466666D02*
X77024285Y-190466666D01*
X76452857Y-190752380D02*
X76786190Y-189752380D01*
X77119523Y-190752380D01*
X77452857Y-190752380D02*
X77452857Y-189752380D01*
X77786190Y-190466666D01*
X78119523Y-189752380D01*
X78119523Y-190752380D01*
X78595714Y-190752380D02*
X78595714Y-189752380D01*
X78976666Y-189752380D01*
X79071904Y-189800000D01*
X79119523Y-189847619D01*
X79167142Y-189942857D01*
X79167142Y-190085714D01*
X79119523Y-190180952D01*
X79071904Y-190228571D01*
X78976666Y-190276190D01*
X78595714Y-190276190D01*
X80071904Y-190752380D02*
X79595714Y-190752380D01*
X79595714Y-189752380D01*
X80405238Y-190228571D02*
X80738571Y-190228571D01*
X80881428Y-190752380D02*
X80405238Y-190752380D01*
X80405238Y-189752380D01*
X80881428Y-189752380D01*
X94345160Y-143520710D02*
X94479847Y-143655397D01*
X94513519Y-143756412D01*
X94513519Y-143891099D01*
X94412503Y-144059458D01*
X94176801Y-144295160D01*
X94008442Y-144396175D01*
X93873755Y-144396175D01*
X93772740Y-144362503D01*
X93638053Y-144227816D01*
X93604381Y-144126801D01*
X93604381Y-143992114D01*
X93705397Y-143823755D01*
X93941099Y-143588053D01*
X94109458Y-143487038D01*
X94244145Y-143487038D01*
X94345160Y-143520710D01*
X94648206Y-145237969D02*
X94749221Y-144665549D01*
X94244145Y-144833908D02*
X94951251Y-144126801D01*
X95220625Y-144396175D01*
X95254297Y-144497190D01*
X95254297Y-144564534D01*
X95220625Y-144665549D01*
X95119610Y-144766564D01*
X95018595Y-144800236D01*
X94951251Y-144800236D01*
X94850236Y-144766564D01*
X94580862Y-144497190D01*
X95490000Y-146079763D02*
X96197106Y-145372656D01*
X96365465Y-145541015D01*
X96432809Y-145675702D01*
X96432809Y-145810389D01*
X96399137Y-145911404D01*
X96298122Y-146079763D01*
X96197106Y-146180778D01*
X96028748Y-146281793D01*
X95927732Y-146315465D01*
X95793045Y-146315465D01*
X95658358Y-146248122D01*
X95490000Y-146079763D01*
X96197106Y-146786870D02*
X96904213Y-146079763D01*
X96904213Y-146753198D02*
X97139915Y-146988900D01*
X96870541Y-147460305D02*
X96533824Y-147123587D01*
X97240931Y-146416480D01*
X97577648Y-146753198D01*
X94653519Y-143473282D02*
X95360625Y-142766175D01*
X95528984Y-142934534D01*
X95596328Y-143069221D01*
X95596328Y-143203908D01*
X95562656Y-143304923D01*
X95461641Y-143473282D01*
X95360625Y-143574297D01*
X95192267Y-143675312D01*
X95091251Y-143708984D01*
X94956564Y-143708984D01*
X94821877Y-143641641D01*
X94653519Y-143473282D01*
X95360625Y-144180389D02*
X96067732Y-143473282D01*
X96168748Y-144315076D02*
X95832030Y-144651793D01*
X96303435Y-143708984D02*
X96168748Y-144315076D01*
X96774839Y-144180389D01*
X93563282Y-144533519D02*
X92856175Y-145240625D01*
X93024534Y-145408984D01*
X93159221Y-145476328D01*
X93293908Y-145476328D01*
X93394923Y-145442656D01*
X93563282Y-145341641D01*
X93664297Y-145240625D01*
X93765312Y-145072267D01*
X93798984Y-144971251D01*
X93798984Y-144836564D01*
X93731641Y-144701877D01*
X93563282Y-144533519D01*
X94270389Y-145240625D02*
X93563282Y-145947732D01*
X94405076Y-146048748D02*
X94741793Y-145712030D01*
X93798984Y-146183435D02*
X94405076Y-146048748D01*
X94270389Y-146654839D01*
X98146480Y-145586717D02*
X97439374Y-146293824D01*
X97271015Y-146125465D01*
X97203671Y-145990778D01*
X97203671Y-145856091D01*
X97237343Y-145755076D01*
X97338358Y-145586717D01*
X97439374Y-145485702D01*
X97607732Y-145384687D01*
X97708748Y-145351015D01*
X97843435Y-145351015D01*
X97978122Y-145418358D01*
X98146480Y-145586717D01*
X97439374Y-144879610D02*
X96732267Y-145586717D01*
X96631251Y-144744923D02*
X96967969Y-144408206D01*
X96496564Y-145351015D02*
X96631251Y-144744923D01*
X96025160Y-144879610D01*
D11*
%TO.C,REF\u002A\u002A*%
X106320000Y-24030000D02*
X106320000Y-22700000D01*
X107650000Y-24030000D02*
X106320000Y-24030000D01*
X108920000Y-24030000D02*
X108920000Y-21370000D01*
X108920000Y-21370000D02*
X121680000Y-21370000D01*
X108920000Y-24030000D02*
X121680000Y-24030000D01*
X121680000Y-24030000D02*
X121680000Y-21370000D01*
X106320000Y-168030000D02*
X106320000Y-166700000D01*
X107650000Y-168030000D02*
X106320000Y-168030000D01*
X108920000Y-168030000D02*
X108920000Y-165370000D01*
X108920000Y-165370000D02*
X121680000Y-165370000D01*
X108920000Y-168030000D02*
X121680000Y-168030000D01*
X121680000Y-168030000D02*
X121680000Y-165370000D01*
%TO.C,D4*%
X90055000Y-133390000D02*
X93145000Y-133390000D01*
X94100000Y-130830000D02*
G75*
G03*
X94100000Y-130830000I-2500000J0D01*
G01*
X91600462Y-127840000D02*
G75*
G03*
X90055170Y-133390000I-462J-2990000D01*
G01*
X91599538Y-127840000D02*
G75*
G02*
X93144830Y-133390000I462J-2990000D01*
G01*
%TO.C,U1*%
X121460000Y-41120000D02*
X120210000Y-41120000D01*
X121460000Y-59020000D02*
X121460000Y-41120000D01*
X116960000Y-59020000D02*
X121460000Y-59020000D01*
X116960000Y-41120000D02*
X116960000Y-59020000D01*
X118210000Y-41120000D02*
X116960000Y-41120000D01*
X120210000Y-41120000D02*
G75*
G02*
X118210000Y-41120000I-1000000J0D01*
G01*
%TO.C,U2*%
X120340000Y-78780000D02*
X121590000Y-78780000D01*
X121590000Y-78780000D02*
X121590000Y-68500000D01*
X121590000Y-68500000D02*
X117090000Y-68500000D01*
X117090000Y-68500000D02*
X117090000Y-78780000D01*
X117090000Y-78780000D02*
X118340000Y-78780000D01*
X118340000Y-78780000D02*
G75*
G02*
X120340000Y-78780000I1000000J0D01*
G01*
%TO.C,U3*%
X118210000Y-93870000D02*
X116960000Y-93870000D01*
X116960000Y-93870000D02*
X116960000Y-111770000D01*
X116960000Y-111770000D02*
X121460000Y-111770000D01*
X121460000Y-111770000D02*
X121460000Y-93870000D01*
X121460000Y-93870000D02*
X120210000Y-93870000D01*
X120210000Y-93870000D02*
G75*
G02*
X118210000Y-93870000I-1000000J0D01*
G01*
%TO.C,U4*%
X117090000Y-129280000D02*
X118340000Y-129280000D01*
X117090000Y-119000000D02*
X117090000Y-129280000D01*
X121590000Y-119000000D02*
X117090000Y-119000000D01*
X121590000Y-129280000D02*
X121590000Y-119000000D01*
X120340000Y-129280000D02*
X121590000Y-129280000D01*
X118340000Y-129280000D02*
G75*
G02*
X120340000Y-129280000I1000000J0D01*
G01*
%TO.C,J6*%
D10*
X104366666Y-179422380D02*
X104366666Y-180136666D01*
X104319047Y-180279523D01*
X104223809Y-180374761D01*
X104080952Y-180422380D01*
X103985714Y-180422380D01*
X105271428Y-179422380D02*
X105080952Y-179422380D01*
X104985714Y-179470000D01*
X104938095Y-179517619D01*
X104842857Y-179660476D01*
X104795238Y-179850952D01*
X104795238Y-180231904D01*
X104842857Y-180327142D01*
X104890476Y-180374761D01*
X104985714Y-180422380D01*
X105176190Y-180422380D01*
X105271428Y-180374761D01*
X105319047Y-180327142D01*
X105366666Y-180231904D01*
X105366666Y-179993809D01*
X105319047Y-179898571D01*
X105271428Y-179850952D01*
X105176190Y-179803333D01*
X104985714Y-179803333D01*
X104890476Y-179850952D01*
X104842857Y-179898571D01*
X104795238Y-179993809D01*
%TO.C,J7*%
X132166666Y-179562380D02*
X132166666Y-180276666D01*
X132119047Y-180419523D01*
X132023809Y-180514761D01*
X131880952Y-180562380D01*
X131785714Y-180562380D01*
X132547619Y-179562380D02*
X133214285Y-179562380D01*
X132785714Y-180562380D01*
%TO.C,J5*%
X76586666Y-143132380D02*
X76586666Y-143846666D01*
X76539047Y-143989523D01*
X76443809Y-144084761D01*
X76300952Y-144132380D01*
X76205714Y-144132380D01*
X77539047Y-143132380D02*
X77062857Y-143132380D01*
X77015238Y-143608571D01*
X77062857Y-143560952D01*
X77158095Y-143513333D01*
X77396190Y-143513333D01*
X77491428Y-143560952D01*
X77539047Y-143608571D01*
X77586666Y-143703809D01*
X77586666Y-143941904D01*
X77539047Y-144037142D01*
X77491428Y-144084761D01*
X77396190Y-144132380D01*
X77158095Y-144132380D01*
X77062857Y-144084761D01*
X77015238Y-144037142D01*
%TO.C,J4*%
X76646666Y-106542380D02*
X76646666Y-107256666D01*
X76599047Y-107399523D01*
X76503809Y-107494761D01*
X76360952Y-107542380D01*
X76265714Y-107542380D01*
X77551428Y-106875714D02*
X77551428Y-107542380D01*
X77313333Y-106494761D02*
X77075238Y-107209047D01*
X77694285Y-107209047D01*
%TO.C,J8*%
X76566666Y-179322380D02*
X76566666Y-180036666D01*
X76519047Y-180179523D01*
X76423809Y-180274761D01*
X76280952Y-180322380D01*
X76185714Y-180322380D01*
X77185714Y-179750952D02*
X77090476Y-179703333D01*
X77042857Y-179655714D01*
X76995238Y-179560476D01*
X76995238Y-179512857D01*
X77042857Y-179417619D01*
X77090476Y-179370000D01*
X77185714Y-179322380D01*
X77376190Y-179322380D01*
X77471428Y-179370000D01*
X77519047Y-179417619D01*
X77566666Y-179512857D01*
X77566666Y-179560476D01*
X77519047Y-179655714D01*
X77471428Y-179703333D01*
X77376190Y-179750952D01*
X77185714Y-179750952D01*
X77090476Y-179798571D01*
X77042857Y-179846190D01*
X76995238Y-179941428D01*
X76995238Y-180131904D01*
X77042857Y-180227142D01*
X77090476Y-180274761D01*
X77185714Y-180322380D01*
X77376190Y-180322380D01*
X77471428Y-180274761D01*
X77519047Y-180227142D01*
X77566666Y-180131904D01*
X77566666Y-179941428D01*
X77519047Y-179846190D01*
X77471428Y-179798571D01*
X77376190Y-179750952D01*
%TO.C,J3*%
X76456666Y-70062380D02*
X76456666Y-70776666D01*
X76409047Y-70919523D01*
X76313809Y-71014761D01*
X76170952Y-71062380D01*
X76075714Y-71062380D01*
X76837619Y-70062380D02*
X77456666Y-70062380D01*
X77123333Y-70443333D01*
X77266190Y-70443333D01*
X77361428Y-70490952D01*
X77409047Y-70538571D01*
X77456666Y-70633809D01*
X77456666Y-70871904D01*
X77409047Y-70967142D01*
X77361428Y-71014761D01*
X77266190Y-71062380D01*
X76980476Y-71062380D01*
X76885238Y-71014761D01*
X76837619Y-70967142D01*
%TO.C,J2*%
X76216666Y-33242380D02*
X76216666Y-33956666D01*
X76169047Y-34099523D01*
X76073809Y-34194761D01*
X75930952Y-34242380D01*
X75835714Y-34242380D01*
X76645238Y-33337619D02*
X76692857Y-33290000D01*
X76788095Y-33242380D01*
X77026190Y-33242380D01*
X77121428Y-33290000D01*
X77169047Y-33337619D01*
X77216666Y-33432857D01*
X77216666Y-33528095D01*
X77169047Y-33670952D01*
X76597619Y-34242380D01*
X77216666Y-34242380D01*
%TO.C,D4*%
X88092380Y-131568095D02*
X87092380Y-131568095D01*
X87092380Y-131330000D01*
X87140000Y-131187142D01*
X87235238Y-131091904D01*
X87330476Y-131044285D01*
X87520952Y-130996666D01*
X87663809Y-130996666D01*
X87854285Y-131044285D01*
X87949523Y-131091904D01*
X88044761Y-131187142D01*
X88092380Y-131330000D01*
X88092380Y-131568095D01*
X87425714Y-130139523D02*
X88092380Y-130139523D01*
X87044761Y-130377619D02*
X87759047Y-130615714D01*
X87759047Y-129996666D01*
%TO.C,U1*%
X118468095Y-49582380D02*
X118468095Y-50391904D01*
X118515714Y-50487142D01*
X118563333Y-50534761D01*
X118658571Y-50582380D01*
X118849047Y-50582380D01*
X118944285Y-50534761D01*
X118991904Y-50487142D01*
X119039523Y-50391904D01*
X119039523Y-49582380D01*
X120039523Y-50582380D02*
X119468095Y-50582380D01*
X119753809Y-50582380D02*
X119753809Y-49582380D01*
X119658571Y-49725238D01*
X119563333Y-49820476D01*
X119468095Y-49868095D01*
X119577619Y-52850952D02*
X119577619Y-53422380D01*
X118577619Y-53136666D02*
X119577619Y-53136666D01*
X118577619Y-54231904D02*
X118577619Y-53755714D01*
X119577619Y-53755714D01*
X119577619Y-54755714D02*
X119577619Y-54850952D01*
X119530000Y-54946190D01*
X119482380Y-54993809D01*
X119387142Y-55041428D01*
X119196666Y-55089047D01*
X118958571Y-55089047D01*
X118768095Y-55041428D01*
X118672857Y-54993809D01*
X118625238Y-54946190D01*
X118577619Y-54850952D01*
X118577619Y-54755714D01*
X118625238Y-54660476D01*
X118672857Y-54612857D01*
X118768095Y-54565238D01*
X118958571Y-54517619D01*
X119196666Y-54517619D01*
X119387142Y-54565238D01*
X119482380Y-54612857D01*
X119530000Y-54660476D01*
X119577619Y-54755714D01*
X119577619Y-55422380D02*
X119577619Y-56089047D01*
X118577619Y-55660476D01*
X119244285Y-56898571D02*
X118577619Y-56898571D01*
X119625238Y-56660476D02*
X118910952Y-56422380D01*
X118910952Y-57041428D01*
%TO.C,U2*%
X118448095Y-70062380D02*
X118448095Y-70871904D01*
X118495714Y-70967142D01*
X118543333Y-71014761D01*
X118638571Y-71062380D01*
X118829047Y-71062380D01*
X118924285Y-71014761D01*
X118971904Y-70967142D01*
X119019523Y-70871904D01*
X119019523Y-70062380D01*
X119448095Y-70157619D02*
X119495714Y-70110000D01*
X119590952Y-70062380D01*
X119829047Y-70062380D01*
X119924285Y-70110000D01*
X119971904Y-70157619D01*
X120019523Y-70252857D01*
X120019523Y-70348095D01*
X119971904Y-70490952D01*
X119400476Y-71062380D01*
X120019523Y-71062380D01*
X119707142Y-76803809D02*
X119754761Y-76851428D01*
X119802380Y-76994285D01*
X119802380Y-77089523D01*
X119754761Y-77232380D01*
X119659523Y-77327619D01*
X119564285Y-77375238D01*
X119373809Y-77422857D01*
X119230952Y-77422857D01*
X119040476Y-77375238D01*
X118945238Y-77327619D01*
X118850000Y-77232380D01*
X118802380Y-77089523D01*
X118802380Y-76994285D01*
X118850000Y-76851428D01*
X118897619Y-76803809D01*
X119516666Y-76422857D02*
X119516666Y-75946666D01*
X119802380Y-76518095D02*
X118802380Y-76184761D01*
X119802380Y-75851428D01*
X118802380Y-75613333D02*
X118802380Y-74994285D01*
X119183333Y-75327619D01*
X119183333Y-75184761D01*
X119230952Y-75089523D01*
X119278571Y-75041904D01*
X119373809Y-74994285D01*
X119611904Y-74994285D01*
X119707142Y-75041904D01*
X119754761Y-75089523D01*
X119802380Y-75184761D01*
X119802380Y-75470476D01*
X119754761Y-75565714D01*
X119707142Y-75613333D01*
X119802380Y-74041904D02*
X119802380Y-74613333D01*
X119802380Y-74327619D02*
X118802380Y-74327619D01*
X118945238Y-74422857D01*
X119040476Y-74518095D01*
X119088095Y-74613333D01*
X119135714Y-73184761D02*
X119802380Y-73184761D01*
X118754761Y-73422857D02*
X119469047Y-73660952D01*
X119469047Y-73041904D01*
X118802380Y-72470476D02*
X118802380Y-72375238D01*
X118850000Y-72280000D01*
X118897619Y-72232380D01*
X118992857Y-72184761D01*
X119183333Y-72137142D01*
X119421428Y-72137142D01*
X119611904Y-72184761D01*
X119707142Y-72232380D01*
X119754761Y-72280000D01*
X119802380Y-72375238D01*
X119802380Y-72470476D01*
X119754761Y-72565714D01*
X119707142Y-72613333D01*
X119611904Y-72660952D01*
X119421428Y-72708571D01*
X119183333Y-72708571D01*
X118992857Y-72660952D01*
X118897619Y-72613333D01*
X118850000Y-72565714D01*
X118802380Y-72470476D01*
%TO.C,U3*%
X118448095Y-102302380D02*
X118448095Y-103111904D01*
X118495714Y-103207142D01*
X118543333Y-103254761D01*
X118638571Y-103302380D01*
X118829047Y-103302380D01*
X118924285Y-103254761D01*
X118971904Y-103207142D01*
X119019523Y-103111904D01*
X119019523Y-102302380D01*
X119400476Y-102302380D02*
X120019523Y-102302380D01*
X119686190Y-102683333D01*
X119829047Y-102683333D01*
X119924285Y-102730952D01*
X119971904Y-102778571D01*
X120019523Y-102873809D01*
X120019523Y-103111904D01*
X119971904Y-103207142D01*
X119924285Y-103254761D01*
X119829047Y-103302380D01*
X119543333Y-103302380D01*
X119448095Y-103254761D01*
X119400476Y-103207142D01*
%TO.C,U4*%
X118688095Y-126752380D02*
X118688095Y-127561904D01*
X118735714Y-127657142D01*
X118783333Y-127704761D01*
X118878571Y-127752380D01*
X119069047Y-127752380D01*
X119164285Y-127704761D01*
X119211904Y-127657142D01*
X119259523Y-127561904D01*
X119259523Y-126752380D01*
X120164285Y-127085714D02*
X120164285Y-127752380D01*
X119926190Y-126704761D02*
X119688095Y-127419047D01*
X120307142Y-127419047D01*
%TD*%
M02*
