%TF.GenerationSoftware,KiCad,Pcbnew,(5.1.6)-1*%
%TF.CreationDate,2020-06-22T20:03:53-05:00*%
%TF.ProjectId,NOISE_x_S_and_H,4e4f4953-455f-4785-9f53-5f616e645f48,rev?*%
%TF.SameCoordinates,Original*%
%TF.FileFunction,Soldermask,Bot*%
%TF.FilePolarity,Negative*%
%FSLAX46Y46*%
G04 Gerber Fmt 4.6, Leading zero omitted, Abs format (unit mm)*
G04 Created by KiCad (PCBNEW (5.1.6)-1) date 2020-06-22 20:03:53*
%MOMM*%
%LPD*%
G01*
G04 APERTURE LIST*
%ADD10C,0.010000*%
%ADD11O,1.800000X1.800000*%
%ADD12R,1.800000X1.800000*%
%ADD13C,1.700000*%
%ADD14R,1.700000X1.700000*%
%ADD15O,1.700000X1.700000*%
%ADD16O,1.600000X1.150000*%
%ADD17R,1.600000X1.150000*%
%ADD18C,4.600000*%
%ADD19R,4.600000X4.600000*%
%ADD20C,1.540000*%
%ADD21R,1.900000X1.900000*%
%ADD22C,1.900000*%
%ADD23R,2.500000X1.700000*%
%ADD24O,2.500000X1.700000*%
G04 APERTURE END LIST*
D10*
%TO.C,G\u002A\u002A\u002A*%
G36*
X83946169Y-20592517D02*
G01*
X83947704Y-20594344D01*
X83980744Y-20669894D01*
X83992548Y-20779778D01*
X83984016Y-20912551D01*
X83956051Y-21056766D01*
X83909556Y-21200980D01*
X83897614Y-21229980D01*
X83863327Y-21301870D01*
X83832064Y-21337792D01*
X83790319Y-21349866D01*
X83763045Y-21350751D01*
X83695532Y-21339535D01*
X83648584Y-21312532D01*
X83648309Y-21312204D01*
X83629270Y-21260496D01*
X83629132Y-21170049D01*
X83632934Y-21132275D01*
X83649325Y-21028659D01*
X83674235Y-20912371D01*
X83703979Y-20796989D01*
X83734869Y-20696090D01*
X83763218Y-20623252D01*
X83778017Y-20597999D01*
X83829716Y-20568257D01*
X83894764Y-20566236D01*
X83946169Y-20592517D01*
G37*
X83946169Y-20592517D02*
X83947704Y-20594344D01*
X83980744Y-20669894D01*
X83992548Y-20779778D01*
X83984016Y-20912551D01*
X83956051Y-21056766D01*
X83909556Y-21200980D01*
X83897614Y-21229980D01*
X83863327Y-21301870D01*
X83832064Y-21337792D01*
X83790319Y-21349866D01*
X83763045Y-21350751D01*
X83695532Y-21339535D01*
X83648584Y-21312532D01*
X83648309Y-21312204D01*
X83629270Y-21260496D01*
X83629132Y-21170049D01*
X83632934Y-21132275D01*
X83649325Y-21028659D01*
X83674235Y-20912371D01*
X83703979Y-20796989D01*
X83734869Y-20696090D01*
X83763218Y-20623252D01*
X83778017Y-20597999D01*
X83829716Y-20568257D01*
X83894764Y-20566236D01*
X83946169Y-20592517D01*
G36*
X84483586Y-20682354D02*
G01*
X84531091Y-20735798D01*
X84557612Y-20823087D01*
X84562750Y-20937808D01*
X84546108Y-21073546D01*
X84507287Y-21223889D01*
X84458090Y-21354813D01*
X84416232Y-21433600D01*
X84368259Y-21471697D01*
X84299819Y-21475661D01*
X84227077Y-21460351D01*
X84195684Y-21426999D01*
X84182938Y-21351965D01*
X84188737Y-21240838D01*
X84212982Y-21099203D01*
X84235283Y-21005939D01*
X84272679Y-20870178D01*
X84304402Y-20776520D01*
X84334617Y-20717182D01*
X84367491Y-20684378D01*
X84407188Y-20670322D01*
X84415497Y-20669169D01*
X84483586Y-20682354D01*
G37*
X84483586Y-20682354D02*
X84531091Y-20735798D01*
X84557612Y-20823087D01*
X84562750Y-20937808D01*
X84546108Y-21073546D01*
X84507287Y-21223889D01*
X84458090Y-21354813D01*
X84416232Y-21433600D01*
X84368259Y-21471697D01*
X84299819Y-21475661D01*
X84227077Y-21460351D01*
X84195684Y-21426999D01*
X84182938Y-21351965D01*
X84188737Y-21240838D01*
X84212982Y-21099203D01*
X84235283Y-21005939D01*
X84272679Y-20870178D01*
X84304402Y-20776520D01*
X84334617Y-20717182D01*
X84367491Y-20684378D01*
X84407188Y-20670322D01*
X84415497Y-20669169D01*
X84483586Y-20682354D01*
G36*
X83557618Y-21486220D02*
G01*
X83580141Y-21514931D01*
X83660525Y-21615175D01*
X83749564Y-21713375D01*
X83836247Y-21798396D01*
X83909565Y-21859101D01*
X83938097Y-21877024D01*
X84044848Y-21905036D01*
X84171025Y-21893269D01*
X84306475Y-21843306D01*
X84365152Y-21810405D01*
X84447435Y-21762795D01*
X84493403Y-21743662D01*
X84501109Y-21752446D01*
X84468608Y-21788588D01*
X84424001Y-21827308D01*
X84287596Y-21913887D01*
X84147220Y-21955501D01*
X84009964Y-21951525D01*
X83882918Y-21901334D01*
X83848932Y-21877996D01*
X83771811Y-21811444D01*
X83692341Y-21730273D01*
X83619335Y-21645154D01*
X83561605Y-21566758D01*
X83527967Y-21505757D01*
X83522934Y-21483282D01*
X83531453Y-21464490D01*
X83557618Y-21486220D01*
G37*
X83557618Y-21486220D02*
X83580141Y-21514931D01*
X83660525Y-21615175D01*
X83749564Y-21713375D01*
X83836247Y-21798396D01*
X83909565Y-21859101D01*
X83938097Y-21877024D01*
X84044848Y-21905036D01*
X84171025Y-21893269D01*
X84306475Y-21843306D01*
X84365152Y-21810405D01*
X84447435Y-21762795D01*
X84493403Y-21743662D01*
X84501109Y-21752446D01*
X84468608Y-21788588D01*
X84424001Y-21827308D01*
X84287596Y-21913887D01*
X84147220Y-21955501D01*
X84009964Y-21951525D01*
X83882918Y-21901334D01*
X83848932Y-21877996D01*
X83771811Y-21811444D01*
X83692341Y-21730273D01*
X83619335Y-21645154D01*
X83561605Y-21566758D01*
X83527967Y-21505757D01*
X83522934Y-21483282D01*
X83531453Y-21464490D01*
X83557618Y-21486220D01*
G36*
X82928759Y-23630037D02*
G01*
X82924024Y-23639039D01*
X82900067Y-23663320D01*
X82895597Y-23664464D01*
X82893862Y-23648041D01*
X82898598Y-23639039D01*
X82922554Y-23614757D01*
X82927025Y-23613613D01*
X82928759Y-23630037D01*
G37*
X82928759Y-23630037D02*
X82924024Y-23639039D01*
X82900067Y-23663320D01*
X82895597Y-23664464D01*
X82893862Y-23648041D01*
X82898598Y-23639039D01*
X82922554Y-23614757D01*
X82927025Y-23613613D01*
X82928759Y-23630037D01*
G36*
X81652179Y-20813007D02*
G01*
X81485838Y-20845528D01*
X81356818Y-20876126D01*
X81251946Y-20908917D01*
X81158053Y-20948019D01*
X81061996Y-20997535D01*
X80979302Y-21042282D01*
X80931361Y-21064583D01*
X80908937Y-21067500D01*
X80902792Y-21054095D01*
X80902702Y-21050327D01*
X80925559Y-21022370D01*
X80988816Y-20982798D01*
X81084504Y-20935688D01*
X81204656Y-20885117D01*
X81284084Y-20855202D01*
X81485371Y-20799480D01*
X81690891Y-20776227D01*
X81907007Y-20766106D01*
X81652179Y-20813007D01*
G37*
X81652179Y-20813007D02*
X81485838Y-20845528D01*
X81356818Y-20876126D01*
X81251946Y-20908917D01*
X81158053Y-20948019D01*
X81061996Y-20997535D01*
X80979302Y-21042282D01*
X80931361Y-21064583D01*
X80908937Y-21067500D01*
X80902792Y-21054095D01*
X80902702Y-21050327D01*
X80925559Y-21022370D01*
X80988816Y-20982798D01*
X81084504Y-20935688D01*
X81204656Y-20885117D01*
X81284084Y-20855202D01*
X81485371Y-20799480D01*
X81690891Y-20776227D01*
X81907007Y-20766106D01*
X81652179Y-20813007D01*
G36*
X80810281Y-21166839D02*
G01*
X80800336Y-21212509D01*
X80780385Y-21265147D01*
X80756892Y-21305541D01*
X80747646Y-21314160D01*
X80726041Y-21310357D01*
X80724724Y-21302597D01*
X80735272Y-21256998D01*
X80759766Y-21202168D01*
X80787487Y-21159168D01*
X80803759Y-21147347D01*
X80810281Y-21166839D01*
G37*
X80810281Y-21166839D02*
X80800336Y-21212509D01*
X80780385Y-21265147D01*
X80756892Y-21305541D01*
X80747646Y-21314160D01*
X80726041Y-21310357D01*
X80724724Y-21302597D01*
X80735272Y-21256998D01*
X80759766Y-21202168D01*
X80787487Y-21159168D01*
X80803759Y-21147347D01*
X80810281Y-21166839D01*
G36*
X97123659Y-21208887D02*
G01*
X97233270Y-21246888D01*
X97238538Y-21248675D01*
X97314342Y-21277812D01*
X97353896Y-21306578D01*
X97370311Y-21346843D01*
X97373545Y-21370908D01*
X97370031Y-21446182D01*
X97352429Y-21504281D01*
X97300304Y-21557952D01*
X97216133Y-21601773D01*
X97118704Y-21627231D01*
X97074090Y-21630430D01*
X96996997Y-21630430D01*
X96996997Y-21427027D01*
X97149549Y-21427027D01*
X97158224Y-21451791D01*
X97160761Y-21452452D01*
X97182469Y-21434636D01*
X97187687Y-21427027D01*
X97185671Y-21403598D01*
X97176475Y-21401601D01*
X97150584Y-21420058D01*
X97149549Y-21427027D01*
X96996997Y-21427027D01*
X96996997Y-21399888D01*
X96996077Y-21292148D01*
X96999303Y-21224800D01*
X97015656Y-21192221D01*
X97054115Y-21188791D01*
X97123659Y-21208887D01*
G37*
X97123659Y-21208887D02*
X97233270Y-21246888D01*
X97238538Y-21248675D01*
X97314342Y-21277812D01*
X97353896Y-21306578D01*
X97370311Y-21346843D01*
X97373545Y-21370908D01*
X97370031Y-21446182D01*
X97352429Y-21504281D01*
X97300304Y-21557952D01*
X97216133Y-21601773D01*
X97118704Y-21627231D01*
X97074090Y-21630430D01*
X96996997Y-21630430D01*
X96996997Y-21427027D01*
X97149549Y-21427027D01*
X97158224Y-21451791D01*
X97160761Y-21452452D01*
X97182469Y-21434636D01*
X97187687Y-21427027D01*
X97185671Y-21403598D01*
X97176475Y-21401601D01*
X97150584Y-21420058D01*
X97149549Y-21427027D01*
X96996997Y-21427027D01*
X96996997Y-21399888D01*
X96996077Y-21292148D01*
X96999303Y-21224800D01*
X97015656Y-21192221D01*
X97054115Y-21188791D01*
X97123659Y-21208887D01*
G36*
X96681958Y-21230640D02*
G01*
X96682167Y-21258976D01*
X96672671Y-21324058D01*
X96655424Y-21413134D01*
X96650465Y-21436135D01*
X96607772Y-21630430D01*
X96508036Y-21630430D01*
X96418414Y-21616592D01*
X96345244Y-21567211D01*
X96337914Y-21560044D01*
X96297442Y-21504182D01*
X96263127Y-21431128D01*
X96261874Y-21427027D01*
X96437637Y-21427027D01*
X96456985Y-21451713D01*
X96463063Y-21452452D01*
X96487749Y-21433104D01*
X96488488Y-21427027D01*
X96469140Y-21402340D01*
X96463063Y-21401601D01*
X96438376Y-21420949D01*
X96437637Y-21427027D01*
X96261874Y-21427027D01*
X96240702Y-21357755D01*
X96235897Y-21300937D01*
X96243521Y-21282137D01*
X96273614Y-21272844D01*
X96338886Y-21261386D01*
X96424748Y-21249477D01*
X96516611Y-21238830D01*
X96599883Y-21231159D01*
X96659975Y-21228179D01*
X96681958Y-21230640D01*
G37*
X96681958Y-21230640D02*
X96682167Y-21258976D01*
X96672671Y-21324058D01*
X96655424Y-21413134D01*
X96650465Y-21436135D01*
X96607772Y-21630430D01*
X96508036Y-21630430D01*
X96418414Y-21616592D01*
X96345244Y-21567211D01*
X96337914Y-21560044D01*
X96297442Y-21504182D01*
X96263127Y-21431128D01*
X96261874Y-21427027D01*
X96437637Y-21427027D01*
X96456985Y-21451713D01*
X96463063Y-21452452D01*
X96487749Y-21433104D01*
X96488488Y-21427027D01*
X96469140Y-21402340D01*
X96463063Y-21401601D01*
X96438376Y-21420949D01*
X96437637Y-21427027D01*
X96261874Y-21427027D01*
X96240702Y-21357755D01*
X96235897Y-21300937D01*
X96243521Y-21282137D01*
X96273614Y-21272844D01*
X96338886Y-21261386D01*
X96424748Y-21249477D01*
X96516611Y-21238830D01*
X96599883Y-21231159D01*
X96659975Y-21228179D01*
X96681958Y-21230640D01*
G36*
X82243894Y-22150455D02*
G01*
X82301922Y-22205617D01*
X82341144Y-22245179D01*
X82351952Y-22258513D01*
X82345665Y-22264682D01*
X82322486Y-22247117D01*
X82275938Y-22200189D01*
X82236341Y-22158008D01*
X82135835Y-22049950D01*
X82243894Y-22150455D01*
G37*
X82243894Y-22150455D02*
X82301922Y-22205617D01*
X82341144Y-22245179D01*
X82351952Y-22258513D01*
X82345665Y-22264682D01*
X82322486Y-22247117D01*
X82275938Y-22200189D01*
X82236341Y-22158008D01*
X82135835Y-22049950D01*
X82243894Y-22150455D01*
G36*
X80709618Y-21565339D02*
G01*
X80721569Y-21605005D01*
X80805842Y-21851006D01*
X80920923Y-22071311D01*
X80978910Y-22158523D01*
X81056848Y-22258098D01*
X81163883Y-22379891D01*
X81289923Y-22513713D01*
X81424879Y-22649375D01*
X81558660Y-22776689D01*
X81681174Y-22885466D01*
X81767167Y-22954441D01*
X81858878Y-23023538D01*
X81914593Y-23068100D01*
X81939702Y-23093138D01*
X81939594Y-23103666D01*
X81929163Y-23105105D01*
X81895135Y-23092046D01*
X81834107Y-23058256D01*
X81777882Y-23023058D01*
X81686181Y-22953967D01*
X81571600Y-22854116D01*
X81442936Y-22732522D01*
X81308986Y-22598206D01*
X81178547Y-22460185D01*
X81060415Y-22327479D01*
X80963387Y-22209106D01*
X80905427Y-22128578D01*
X80836807Y-22011340D01*
X80775303Y-21884714D01*
X80725355Y-21760366D01*
X80691401Y-21649965D01*
X80677881Y-21565179D01*
X80680107Y-21536318D01*
X80691635Y-21527547D01*
X80709618Y-21565339D01*
G37*
X80709618Y-21565339D02*
X80721569Y-21605005D01*
X80805842Y-21851006D01*
X80920923Y-22071311D01*
X80978910Y-22158523D01*
X81056848Y-22258098D01*
X81163883Y-22379891D01*
X81289923Y-22513713D01*
X81424879Y-22649375D01*
X81558660Y-22776689D01*
X81681174Y-22885466D01*
X81767167Y-22954441D01*
X81858878Y-23023538D01*
X81914593Y-23068100D01*
X81939702Y-23093138D01*
X81939594Y-23103666D01*
X81929163Y-23105105D01*
X81895135Y-23092046D01*
X81834107Y-23058256D01*
X81777882Y-23023058D01*
X81686181Y-22953967D01*
X81571600Y-22854116D01*
X81442936Y-22732522D01*
X81308986Y-22598206D01*
X81178547Y-22460185D01*
X81060415Y-22327479D01*
X80963387Y-22209106D01*
X80905427Y-22128578D01*
X80836807Y-22011340D01*
X80775303Y-21884714D01*
X80725355Y-21760366D01*
X80691401Y-21649965D01*
X80677881Y-21565179D01*
X80680107Y-21536318D01*
X80691635Y-21527547D01*
X80709618Y-21565339D01*
G36*
X86393827Y-21435671D02*
G01*
X86479234Y-21464643D01*
X86588228Y-21507234D01*
X86713389Y-21560654D01*
X86847295Y-21622114D01*
X86890390Y-21642834D01*
X87175238Y-21795969D01*
X87426821Y-21964717D01*
X87662626Y-22161503D01*
X87782269Y-22276486D01*
X87896119Y-22393353D01*
X87980967Y-22488805D01*
X88046078Y-22574909D01*
X88100722Y-22663733D01*
X88145249Y-22749149D01*
X88209837Y-22896606D01*
X88257814Y-23039644D01*
X88278286Y-23130305D01*
X88289840Y-23248203D01*
X88289504Y-23368677D01*
X88278839Y-23481133D01*
X88259407Y-23574976D01*
X88232772Y-23639611D01*
X88200494Y-23664445D01*
X88199534Y-23664464D01*
X88188256Y-23646644D01*
X88204827Y-23607257D01*
X88226376Y-23536765D01*
X88237202Y-23430952D01*
X88237855Y-23304081D01*
X88228891Y-23170416D01*
X88210861Y-23044221D01*
X88184319Y-22939758D01*
X88178311Y-22923419D01*
X88057091Y-22681060D01*
X87889029Y-22447063D01*
X87677869Y-22224607D01*
X87427354Y-22016868D01*
X87141228Y-21827024D01*
X86823236Y-21658252D01*
X86549288Y-21540880D01*
X86452809Y-21501124D01*
X86376262Y-21464952D01*
X86330881Y-21437892D01*
X86323460Y-21429741D01*
X86339428Y-21423107D01*
X86393827Y-21435671D01*
G37*
X86393827Y-21435671D02*
X86479234Y-21464643D01*
X86588228Y-21507234D01*
X86713389Y-21560654D01*
X86847295Y-21622114D01*
X86890390Y-21642834D01*
X87175238Y-21795969D01*
X87426821Y-21964717D01*
X87662626Y-22161503D01*
X87782269Y-22276486D01*
X87896119Y-22393353D01*
X87980967Y-22488805D01*
X88046078Y-22574909D01*
X88100722Y-22663733D01*
X88145249Y-22749149D01*
X88209837Y-22896606D01*
X88257814Y-23039644D01*
X88278286Y-23130305D01*
X88289840Y-23248203D01*
X88289504Y-23368677D01*
X88278839Y-23481133D01*
X88259407Y-23574976D01*
X88232772Y-23639611D01*
X88200494Y-23664445D01*
X88199534Y-23664464D01*
X88188256Y-23646644D01*
X88204827Y-23607257D01*
X88226376Y-23536765D01*
X88237202Y-23430952D01*
X88237855Y-23304081D01*
X88228891Y-23170416D01*
X88210861Y-23044221D01*
X88184319Y-22939758D01*
X88178311Y-22923419D01*
X88057091Y-22681060D01*
X87889029Y-22447063D01*
X87677869Y-22224607D01*
X87427354Y-22016868D01*
X87141228Y-21827024D01*
X86823236Y-21658252D01*
X86549288Y-21540880D01*
X86452809Y-21501124D01*
X86376262Y-21464952D01*
X86330881Y-21437892D01*
X86323460Y-21429741D01*
X86339428Y-21423107D01*
X86393827Y-21435671D01*
G36*
X87144507Y-22744442D02*
G01*
X87340687Y-22787186D01*
X87530798Y-22863272D01*
X87706680Y-22971939D01*
X87795907Y-23046728D01*
X87904499Y-23168569D01*
X87988672Y-23303696D01*
X88045665Y-23442912D01*
X88072712Y-23577022D01*
X88067051Y-23696828D01*
X88025919Y-23793136D01*
X88021821Y-23798529D01*
X87980463Y-23887909D01*
X87970971Y-23968236D01*
X87946780Y-24110222D01*
X87878024Y-24237837D01*
X87770427Y-24344248D01*
X87629711Y-24422625D01*
X87573982Y-24442083D01*
X87443468Y-24466839D01*
X87285618Y-24475020D01*
X87121121Y-24466760D01*
X86970667Y-24442196D01*
X86953954Y-24438005D01*
X86789847Y-24383237D01*
X86625430Y-24307630D01*
X86471015Y-24217769D01*
X86336918Y-24120236D01*
X86233451Y-24021614D01*
X86177626Y-23942495D01*
X86154211Y-23870737D01*
X86143203Y-23780031D01*
X86143584Y-23683433D01*
X86154336Y-23593996D01*
X86174439Y-23524778D01*
X86202876Y-23488832D01*
X86213203Y-23486486D01*
X86219640Y-23508299D01*
X86211622Y-23564484D01*
X86198162Y-23617176D01*
X86176199Y-23750882D01*
X86196785Y-23869581D01*
X86262719Y-23982595D01*
X86329967Y-24056205D01*
X86435977Y-24141511D01*
X86574435Y-24228121D01*
X86728001Y-24307008D01*
X86879333Y-24369143D01*
X86994835Y-24402371D01*
X87155977Y-24423293D01*
X87326185Y-24424187D01*
X87488991Y-24406360D01*
X87627927Y-24371119D01*
X87682504Y-24347786D01*
X87799046Y-24263111D01*
X87879523Y-24151872D01*
X87917537Y-24023831D01*
X87919701Y-23985918D01*
X87916657Y-23923509D01*
X87902840Y-23901019D01*
X87875625Y-23906342D01*
X87651551Y-23972543D01*
X87418430Y-23988786D01*
X87176578Y-23955093D01*
X86926307Y-23871488D01*
X86833729Y-23828940D01*
X86650794Y-23722237D01*
X86506478Y-23603295D01*
X86402420Y-23476118D01*
X86340260Y-23344706D01*
X86332531Y-23290073D01*
X86372380Y-23290073D01*
X86392891Y-23367592D01*
X86456536Y-23475775D01*
X86560915Y-23585313D01*
X86696473Y-23690038D01*
X86853651Y-23783783D01*
X87022894Y-23860379D01*
X87194645Y-23913660D01*
X87259059Y-23926591D01*
X87390592Y-23938994D01*
X87535283Y-23937796D01*
X87666877Y-23923676D01*
X87708317Y-23914980D01*
X87825025Y-23865257D01*
X87922979Y-23791790D01*
X87984666Y-23725616D01*
X88014254Y-23668445D01*
X88021821Y-23601431D01*
X88006484Y-23465341D01*
X87965052Y-23337160D01*
X87918125Y-23256189D01*
X87884840Y-23215021D01*
X87872165Y-23212975D01*
X87869848Y-23248760D01*
X87869834Y-23250105D01*
X87845289Y-23356238D01*
X87774295Y-23442086D01*
X87698251Y-23489271D01*
X87560655Y-23530342D01*
X87402211Y-23536501D01*
X87233819Y-23511581D01*
X87066378Y-23459413D01*
X86910790Y-23383830D01*
X86777954Y-23288663D01*
X86678771Y-23177746D01*
X86645999Y-23119338D01*
X86621266Y-23054469D01*
X87347915Y-23054469D01*
X87355749Y-23079315D01*
X87393361Y-23102779D01*
X87440292Y-23115598D01*
X87472670Y-23110951D01*
X87473413Y-23088235D01*
X87448742Y-23063086D01*
X87394213Y-23032210D01*
X87359878Y-23039391D01*
X87347915Y-23054469D01*
X86621266Y-23054469D01*
X86616518Y-23042018D01*
X86599878Y-22974373D01*
X86598556Y-22958909D01*
X86597167Y-22951740D01*
X87335335Y-22951740D01*
X87356306Y-22980986D01*
X87404763Y-23012110D01*
X87459027Y-23034017D01*
X87497417Y-23035612D01*
X87498273Y-23035123D01*
X87497901Y-23011482D01*
X87464556Y-22974563D01*
X87463773Y-22973926D01*
X87405302Y-22937951D01*
X87358112Y-22928110D01*
X87335721Y-22946739D01*
X87335335Y-22951740D01*
X86597167Y-22951740D01*
X86589404Y-22911690D01*
X86559786Y-22908680D01*
X86521124Y-22934292D01*
X86426825Y-23038246D01*
X86376377Y-23159767D01*
X86372380Y-23290073D01*
X86332531Y-23290073D01*
X86321636Y-23213062D01*
X86348190Y-23085187D01*
X86421558Y-22965083D01*
X86462244Y-22922134D01*
X86601125Y-22823887D01*
X86766568Y-22762030D01*
X86950415Y-22735803D01*
X87144507Y-22744442D01*
G37*
X87144507Y-22744442D02*
X87340687Y-22787186D01*
X87530798Y-22863272D01*
X87706680Y-22971939D01*
X87795907Y-23046728D01*
X87904499Y-23168569D01*
X87988672Y-23303696D01*
X88045665Y-23442912D01*
X88072712Y-23577022D01*
X88067051Y-23696828D01*
X88025919Y-23793136D01*
X88021821Y-23798529D01*
X87980463Y-23887909D01*
X87970971Y-23968236D01*
X87946780Y-24110222D01*
X87878024Y-24237837D01*
X87770427Y-24344248D01*
X87629711Y-24422625D01*
X87573982Y-24442083D01*
X87443468Y-24466839D01*
X87285618Y-24475020D01*
X87121121Y-24466760D01*
X86970667Y-24442196D01*
X86953954Y-24438005D01*
X86789847Y-24383237D01*
X86625430Y-24307630D01*
X86471015Y-24217769D01*
X86336918Y-24120236D01*
X86233451Y-24021614D01*
X86177626Y-23942495D01*
X86154211Y-23870737D01*
X86143203Y-23780031D01*
X86143584Y-23683433D01*
X86154336Y-23593996D01*
X86174439Y-23524778D01*
X86202876Y-23488832D01*
X86213203Y-23486486D01*
X86219640Y-23508299D01*
X86211622Y-23564484D01*
X86198162Y-23617176D01*
X86176199Y-23750882D01*
X86196785Y-23869581D01*
X86262719Y-23982595D01*
X86329967Y-24056205D01*
X86435977Y-24141511D01*
X86574435Y-24228121D01*
X86728001Y-24307008D01*
X86879333Y-24369143D01*
X86994835Y-24402371D01*
X87155977Y-24423293D01*
X87326185Y-24424187D01*
X87488991Y-24406360D01*
X87627927Y-24371119D01*
X87682504Y-24347786D01*
X87799046Y-24263111D01*
X87879523Y-24151872D01*
X87917537Y-24023831D01*
X87919701Y-23985918D01*
X87916657Y-23923509D01*
X87902840Y-23901019D01*
X87875625Y-23906342D01*
X87651551Y-23972543D01*
X87418430Y-23988786D01*
X87176578Y-23955093D01*
X86926307Y-23871488D01*
X86833729Y-23828940D01*
X86650794Y-23722237D01*
X86506478Y-23603295D01*
X86402420Y-23476118D01*
X86340260Y-23344706D01*
X86332531Y-23290073D01*
X86372380Y-23290073D01*
X86392891Y-23367592D01*
X86456536Y-23475775D01*
X86560915Y-23585313D01*
X86696473Y-23690038D01*
X86853651Y-23783783D01*
X87022894Y-23860379D01*
X87194645Y-23913660D01*
X87259059Y-23926591D01*
X87390592Y-23938994D01*
X87535283Y-23937796D01*
X87666877Y-23923676D01*
X87708317Y-23914980D01*
X87825025Y-23865257D01*
X87922979Y-23791790D01*
X87984666Y-23725616D01*
X88014254Y-23668445D01*
X88021821Y-23601431D01*
X88006484Y-23465341D01*
X87965052Y-23337160D01*
X87918125Y-23256189D01*
X87884840Y-23215021D01*
X87872165Y-23212975D01*
X87869848Y-23248760D01*
X87869834Y-23250105D01*
X87845289Y-23356238D01*
X87774295Y-23442086D01*
X87698251Y-23489271D01*
X87560655Y-23530342D01*
X87402211Y-23536501D01*
X87233819Y-23511581D01*
X87066378Y-23459413D01*
X86910790Y-23383830D01*
X86777954Y-23288663D01*
X86678771Y-23177746D01*
X86645999Y-23119338D01*
X86621266Y-23054469D01*
X87347915Y-23054469D01*
X87355749Y-23079315D01*
X87393361Y-23102779D01*
X87440292Y-23115598D01*
X87472670Y-23110951D01*
X87473413Y-23088235D01*
X87448742Y-23063086D01*
X87394213Y-23032210D01*
X87359878Y-23039391D01*
X87347915Y-23054469D01*
X86621266Y-23054469D01*
X86616518Y-23042018D01*
X86599878Y-22974373D01*
X86598556Y-22958909D01*
X86597167Y-22951740D01*
X87335335Y-22951740D01*
X87356306Y-22980986D01*
X87404763Y-23012110D01*
X87459027Y-23034017D01*
X87497417Y-23035612D01*
X87498273Y-23035123D01*
X87497901Y-23011482D01*
X87464556Y-22974563D01*
X87463773Y-22973926D01*
X87405302Y-22937951D01*
X87358112Y-22928110D01*
X87335721Y-22946739D01*
X87335335Y-22951740D01*
X86597167Y-22951740D01*
X86589404Y-22911690D01*
X86559786Y-22908680D01*
X86521124Y-22934292D01*
X86426825Y-23038246D01*
X86376377Y-23159767D01*
X86372380Y-23290073D01*
X86332531Y-23290073D01*
X86321636Y-23213062D01*
X86348190Y-23085187D01*
X86421558Y-22965083D01*
X86462244Y-22922134D01*
X86601125Y-22823887D01*
X86766568Y-22762030D01*
X86950415Y-22735803D01*
X87144507Y-22744442D01*
G36*
X98589634Y-21795695D02*
G01*
X98666861Y-21875109D01*
X98731108Y-21935258D01*
X98775039Y-21969658D01*
X98790990Y-21973673D01*
X98820755Y-21961346D01*
X98888215Y-21955551D01*
X98967408Y-21956774D01*
X99056231Y-21962497D01*
X99105715Y-21971612D01*
X99127337Y-21989416D01*
X99132573Y-22021207D01*
X99132666Y-22033050D01*
X99130956Y-22072092D01*
X99126094Y-22156323D01*
X99118436Y-22280202D01*
X99108339Y-22438187D01*
X99096160Y-22624739D01*
X99082257Y-22834316D01*
X99066985Y-23061377D01*
X99056390Y-23217239D01*
X99040388Y-23453543D01*
X99025529Y-23676655D01*
X99012168Y-23880923D01*
X99000666Y-24060699D01*
X98991380Y-24210330D01*
X98984670Y-24324168D01*
X98980892Y-24396561D01*
X98980180Y-24418590D01*
X98975232Y-24474232D01*
X98963119Y-24498649D01*
X98961111Y-24498604D01*
X98927443Y-24494715D01*
X98858696Y-24489457D01*
X98780855Y-24484619D01*
X98619669Y-24475533D01*
X98635183Y-24241620D01*
X98640512Y-24155220D01*
X98647885Y-24026977D01*
X98656813Y-23865837D01*
X98666808Y-23680747D01*
X98677383Y-23480652D01*
X98688050Y-23274498D01*
X98689895Y-23238358D01*
X98729093Y-22469008D01*
X98558511Y-22279165D01*
X98387928Y-22089322D01*
X98034588Y-22423203D01*
X97920731Y-22528667D01*
X97820828Y-22617125D01*
X97740455Y-22683944D01*
X97685187Y-22724491D01*
X97660600Y-22734132D01*
X97660520Y-22734047D01*
X97632931Y-22703056D01*
X97584393Y-22648267D01*
X97547331Y-22606346D01*
X97454869Y-22501682D01*
X97702660Y-22262120D01*
X97822222Y-22146690D01*
X97955323Y-22018445D01*
X98084244Y-21894447D01*
X98174910Y-21807425D01*
X98399371Y-21592292D01*
X98589634Y-21795695D01*
G37*
X98589634Y-21795695D02*
X98666861Y-21875109D01*
X98731108Y-21935258D01*
X98775039Y-21969658D01*
X98790990Y-21973673D01*
X98820755Y-21961346D01*
X98888215Y-21955551D01*
X98967408Y-21956774D01*
X99056231Y-21962497D01*
X99105715Y-21971612D01*
X99127337Y-21989416D01*
X99132573Y-22021207D01*
X99132666Y-22033050D01*
X99130956Y-22072092D01*
X99126094Y-22156323D01*
X99118436Y-22280202D01*
X99108339Y-22438187D01*
X99096160Y-22624739D01*
X99082257Y-22834316D01*
X99066985Y-23061377D01*
X99056390Y-23217239D01*
X99040388Y-23453543D01*
X99025529Y-23676655D01*
X99012168Y-23880923D01*
X99000666Y-24060699D01*
X98991380Y-24210330D01*
X98984670Y-24324168D01*
X98980892Y-24396561D01*
X98980180Y-24418590D01*
X98975232Y-24474232D01*
X98963119Y-24498649D01*
X98961111Y-24498604D01*
X98927443Y-24494715D01*
X98858696Y-24489457D01*
X98780855Y-24484619D01*
X98619669Y-24475533D01*
X98635183Y-24241620D01*
X98640512Y-24155220D01*
X98647885Y-24026977D01*
X98656813Y-23865837D01*
X98666808Y-23680747D01*
X98677383Y-23480652D01*
X98688050Y-23274498D01*
X98689895Y-23238358D01*
X98729093Y-22469008D01*
X98558511Y-22279165D01*
X98387928Y-22089322D01*
X98034588Y-22423203D01*
X97920731Y-22528667D01*
X97820828Y-22617125D01*
X97740455Y-22683944D01*
X97685187Y-22724491D01*
X97660600Y-22734132D01*
X97660520Y-22734047D01*
X97632931Y-22703056D01*
X97584393Y-22648267D01*
X97547331Y-22606346D01*
X97454869Y-22501682D01*
X97702660Y-22262120D01*
X97822222Y-22146690D01*
X97955323Y-22018445D01*
X98084244Y-21894447D01*
X98174910Y-21807425D01*
X98399371Y-21592292D01*
X98589634Y-21795695D01*
G36*
X101004281Y-22345121D02*
G01*
X101161459Y-22503041D01*
X101306441Y-22650279D01*
X101435455Y-22782887D01*
X101544730Y-22896918D01*
X101630495Y-22988422D01*
X101688978Y-23053452D01*
X101716407Y-23088060D01*
X101717970Y-23092267D01*
X101697107Y-23114825D01*
X101642297Y-23165680D01*
X101558404Y-23240682D01*
X101450293Y-23335685D01*
X101322829Y-23446543D01*
X101180878Y-23569107D01*
X101029306Y-23699230D01*
X100872976Y-23832766D01*
X100716755Y-23965567D01*
X100565507Y-24093486D01*
X100424098Y-24212376D01*
X100297393Y-24318090D01*
X100190257Y-24406480D01*
X100107556Y-24473399D01*
X100054154Y-24514701D01*
X100035335Y-24526568D01*
X100008151Y-24510924D01*
X99948628Y-24468203D01*
X99863685Y-24403646D01*
X99760244Y-24322494D01*
X99666666Y-24247400D01*
X99554316Y-24155547D01*
X99456591Y-24074095D01*
X99380052Y-24008637D01*
X99331260Y-23964769D01*
X99316557Y-23948826D01*
X99327490Y-23920111D01*
X99361222Y-23867015D01*
X99407211Y-23803554D01*
X99454918Y-23743747D01*
X99493804Y-23701609D01*
X99511159Y-23690023D01*
X99535855Y-23705064D01*
X99592053Y-23746052D01*
X99671725Y-23806952D01*
X99766841Y-23881727D01*
X99779317Y-23891668D01*
X100031807Y-24093180D01*
X100275113Y-23885633D01*
X100380041Y-23795981D01*
X100510404Y-23684377D01*
X100653100Y-23562051D01*
X100795029Y-23440229D01*
X100870570Y-23375314D01*
X101222723Y-23072542D01*
X100719910Y-22569258D01*
X100572390Y-22421796D01*
X100456309Y-22306712D01*
X100367231Y-22220344D01*
X100300722Y-22159030D01*
X100252345Y-22119106D01*
X100217667Y-22096911D01*
X100192253Y-22088782D01*
X100171667Y-22091058D01*
X100151642Y-22099987D01*
X100106103Y-22124852D01*
X100026664Y-22169424D01*
X99923456Y-22227975D01*
X99806611Y-22294777D01*
X99772363Y-22314448D01*
X99659529Y-22378951D01*
X99563283Y-22433260D01*
X99491755Y-22472842D01*
X99453073Y-22493164D01*
X99448703Y-22494895D01*
X99431816Y-22474821D01*
X99399642Y-22424323D01*
X99360560Y-22357989D01*
X99322946Y-22290405D01*
X99295176Y-22236157D01*
X99285524Y-22210746D01*
X99306557Y-22193744D01*
X99365638Y-22155549D01*
X99456521Y-22099949D01*
X99572960Y-22030731D01*
X99708711Y-21951682D01*
X99783819Y-21908544D01*
X100282353Y-21623526D01*
X101004281Y-22345121D01*
G37*
X101004281Y-22345121D02*
X101161459Y-22503041D01*
X101306441Y-22650279D01*
X101435455Y-22782887D01*
X101544730Y-22896918D01*
X101630495Y-22988422D01*
X101688978Y-23053452D01*
X101716407Y-23088060D01*
X101717970Y-23092267D01*
X101697107Y-23114825D01*
X101642297Y-23165680D01*
X101558404Y-23240682D01*
X101450293Y-23335685D01*
X101322829Y-23446543D01*
X101180878Y-23569107D01*
X101029306Y-23699230D01*
X100872976Y-23832766D01*
X100716755Y-23965567D01*
X100565507Y-24093486D01*
X100424098Y-24212376D01*
X100297393Y-24318090D01*
X100190257Y-24406480D01*
X100107556Y-24473399D01*
X100054154Y-24514701D01*
X100035335Y-24526568D01*
X100008151Y-24510924D01*
X99948628Y-24468203D01*
X99863685Y-24403646D01*
X99760244Y-24322494D01*
X99666666Y-24247400D01*
X99554316Y-24155547D01*
X99456591Y-24074095D01*
X99380052Y-24008637D01*
X99331260Y-23964769D01*
X99316557Y-23948826D01*
X99327490Y-23920111D01*
X99361222Y-23867015D01*
X99407211Y-23803554D01*
X99454918Y-23743747D01*
X99493804Y-23701609D01*
X99511159Y-23690023D01*
X99535855Y-23705064D01*
X99592053Y-23746052D01*
X99671725Y-23806952D01*
X99766841Y-23881727D01*
X99779317Y-23891668D01*
X100031807Y-24093180D01*
X100275113Y-23885633D01*
X100380041Y-23795981D01*
X100510404Y-23684377D01*
X100653100Y-23562051D01*
X100795029Y-23440229D01*
X100870570Y-23375314D01*
X101222723Y-23072542D01*
X100719910Y-22569258D01*
X100572390Y-22421796D01*
X100456309Y-22306712D01*
X100367231Y-22220344D01*
X100300722Y-22159030D01*
X100252345Y-22119106D01*
X100217667Y-22096911D01*
X100192253Y-22088782D01*
X100171667Y-22091058D01*
X100151642Y-22099987D01*
X100106103Y-22124852D01*
X100026664Y-22169424D01*
X99923456Y-22227975D01*
X99806611Y-22294777D01*
X99772363Y-22314448D01*
X99659529Y-22378951D01*
X99563283Y-22433260D01*
X99491755Y-22472842D01*
X99453073Y-22493164D01*
X99448703Y-22494895D01*
X99431816Y-22474821D01*
X99399642Y-22424323D01*
X99360560Y-22357989D01*
X99322946Y-22290405D01*
X99295176Y-22236157D01*
X99285524Y-22210746D01*
X99306557Y-22193744D01*
X99365638Y-22155549D01*
X99456521Y-22099949D01*
X99572960Y-22030731D01*
X99708711Y-21951682D01*
X99783819Y-21908544D01*
X100282353Y-21623526D01*
X101004281Y-22345121D01*
G36*
X95079534Y-22522476D02*
G01*
X95236960Y-22680221D01*
X95382561Y-22826874D01*
X95512525Y-22958536D01*
X95623039Y-23071313D01*
X95710290Y-23161306D01*
X95770465Y-23224619D01*
X95799753Y-23257355D01*
X95802002Y-23260888D01*
X95783317Y-23280892D01*
X95730481Y-23329445D01*
X95648318Y-23402437D01*
X95541652Y-23495757D01*
X95415309Y-23605297D01*
X95274113Y-23726945D01*
X95122890Y-23856592D01*
X94966463Y-23990128D01*
X94809658Y-24123442D01*
X94657300Y-24252425D01*
X94514213Y-24372966D01*
X94385222Y-24480955D01*
X94275152Y-24572283D01*
X94188829Y-24642838D01*
X94131076Y-24688512D01*
X94106718Y-24705194D01*
X94106524Y-24705202D01*
X94080905Y-24689368D01*
X94022785Y-24646526D01*
X93938978Y-24581918D01*
X93836303Y-24500782D01*
X93742542Y-24425378D01*
X93630003Y-24333192D01*
X93531980Y-24250995D01*
X93455082Y-24184486D01*
X93405917Y-24139359D01*
X93390944Y-24122339D01*
X93401627Y-24091590D01*
X93436120Y-24037687D01*
X93483494Y-23974609D01*
X93532819Y-23916337D01*
X93573169Y-23876853D01*
X93589870Y-23867868D01*
X93616231Y-23882886D01*
X93673275Y-23923659D01*
X93752309Y-23983764D01*
X93834705Y-24048795D01*
X93927598Y-24122218D01*
X94007718Y-24183588D01*
X94065783Y-24225919D01*
X94091147Y-24241825D01*
X94117468Y-24228942D01*
X94177225Y-24186670D01*
X94265441Y-24118944D01*
X94377143Y-24029700D01*
X94507355Y-23922871D01*
X94651102Y-23802394D01*
X94710298Y-23752098D01*
X95298661Y-23250269D01*
X94792417Y-22744026D01*
X94286174Y-22237782D01*
X93969863Y-22419658D01*
X93817849Y-22507597D01*
X93704106Y-22572964D01*
X93622035Y-22617108D01*
X93565035Y-22641380D01*
X93526506Y-22647130D01*
X93499847Y-22635708D01*
X93478457Y-22608465D01*
X93455737Y-22566749D01*
X93435148Y-22529032D01*
X93406600Y-22481835D01*
X93385323Y-22444989D01*
X93375541Y-22414238D01*
X93381477Y-22385328D01*
X93407355Y-22354002D01*
X93457399Y-22316006D01*
X93535832Y-22267084D01*
X93646878Y-22202980D01*
X93794759Y-22119440D01*
X93901808Y-22058850D01*
X94357066Y-21800341D01*
X95079534Y-22522476D01*
G37*
X95079534Y-22522476D02*
X95236960Y-22680221D01*
X95382561Y-22826874D01*
X95512525Y-22958536D01*
X95623039Y-23071313D01*
X95710290Y-23161306D01*
X95770465Y-23224619D01*
X95799753Y-23257355D01*
X95802002Y-23260888D01*
X95783317Y-23280892D01*
X95730481Y-23329445D01*
X95648318Y-23402437D01*
X95541652Y-23495757D01*
X95415309Y-23605297D01*
X95274113Y-23726945D01*
X95122890Y-23856592D01*
X94966463Y-23990128D01*
X94809658Y-24123442D01*
X94657300Y-24252425D01*
X94514213Y-24372966D01*
X94385222Y-24480955D01*
X94275152Y-24572283D01*
X94188829Y-24642838D01*
X94131076Y-24688512D01*
X94106718Y-24705194D01*
X94106524Y-24705202D01*
X94080905Y-24689368D01*
X94022785Y-24646526D01*
X93938978Y-24581918D01*
X93836303Y-24500782D01*
X93742542Y-24425378D01*
X93630003Y-24333192D01*
X93531980Y-24250995D01*
X93455082Y-24184486D01*
X93405917Y-24139359D01*
X93390944Y-24122339D01*
X93401627Y-24091590D01*
X93436120Y-24037687D01*
X93483494Y-23974609D01*
X93532819Y-23916337D01*
X93573169Y-23876853D01*
X93589870Y-23867868D01*
X93616231Y-23882886D01*
X93673275Y-23923659D01*
X93752309Y-23983764D01*
X93834705Y-24048795D01*
X93927598Y-24122218D01*
X94007718Y-24183588D01*
X94065783Y-24225919D01*
X94091147Y-24241825D01*
X94117468Y-24228942D01*
X94177225Y-24186670D01*
X94265441Y-24118944D01*
X94377143Y-24029700D01*
X94507355Y-23922871D01*
X94651102Y-23802394D01*
X94710298Y-23752098D01*
X95298661Y-23250269D01*
X94792417Y-22744026D01*
X94286174Y-22237782D01*
X93969863Y-22419658D01*
X93817849Y-22507597D01*
X93704106Y-22572964D01*
X93622035Y-22617108D01*
X93565035Y-22641380D01*
X93526506Y-22647130D01*
X93499847Y-22635708D01*
X93478457Y-22608465D01*
X93455737Y-22566749D01*
X93435148Y-22529032D01*
X93406600Y-22481835D01*
X93385323Y-22444989D01*
X93375541Y-22414238D01*
X93381477Y-22385328D01*
X93407355Y-22354002D01*
X93457399Y-22316006D01*
X93535832Y-22267084D01*
X93646878Y-22202980D01*
X93794759Y-22119440D01*
X93901808Y-22058850D01*
X94357066Y-21800341D01*
X95079534Y-22522476D01*
G36*
X96334060Y-22030881D02*
G01*
X96331929Y-22129009D01*
X96327372Y-22262463D01*
X96320995Y-22415809D01*
X96313405Y-22573614D01*
X96310847Y-22622022D01*
X96289509Y-23016116D01*
X96471631Y-23416178D01*
X96531730Y-23546631D01*
X96585006Y-23659323D01*
X96627806Y-23746764D01*
X96656479Y-23801462D01*
X96666903Y-23816629D01*
X96675322Y-23792817D01*
X96693619Y-23724809D01*
X96720480Y-23618011D01*
X96754592Y-23477829D01*
X96794641Y-23309670D01*
X96839314Y-23118942D01*
X96887297Y-22911051D01*
X96893804Y-22882632D01*
X96941849Y-22672721D01*
X96986224Y-22479055D01*
X97025680Y-22307070D01*
X97058969Y-22162204D01*
X97084839Y-22049892D01*
X97102042Y-21975572D01*
X97109329Y-21944680D01*
X97109483Y-21944136D01*
X97133157Y-21947186D01*
X97193476Y-21959112D01*
X97277535Y-21977357D01*
X97280124Y-21977938D01*
X97372050Y-22001262D01*
X97422326Y-22022202D01*
X97439696Y-22045185D01*
X97438893Y-22058326D01*
X97431485Y-22090430D01*
X97413759Y-22167476D01*
X97386778Y-22284844D01*
X97351601Y-22437914D01*
X97309291Y-22622066D01*
X97260909Y-22832681D01*
X97207517Y-23065138D01*
X97150176Y-23314818D01*
X97110754Y-23486486D01*
X97051556Y-23744166D01*
X96995712Y-23987004D01*
X96944268Y-24210478D01*
X96898268Y-24410062D01*
X96858756Y-24581231D01*
X96826776Y-24719460D01*
X96803372Y-24820224D01*
X96789588Y-24878999D01*
X96786251Y-24892651D01*
X96774375Y-24876629D01*
X96744535Y-24820492D01*
X96699777Y-24730432D01*
X96643147Y-24612643D01*
X96577688Y-24473318D01*
X96539796Y-24391426D01*
X96456771Y-24213167D01*
X96391573Y-24079022D01*
X96342155Y-23986303D01*
X96306471Y-23932317D01*
X96282474Y-23914373D01*
X96268117Y-23929781D01*
X96261355Y-23975850D01*
X96260049Y-24023598D01*
X96255531Y-24109784D01*
X96245201Y-24188351D01*
X96245099Y-24188864D01*
X96235132Y-24228172D01*
X96216721Y-24249304D01*
X96177271Y-24256830D01*
X96104188Y-24255318D01*
X96067121Y-24253436D01*
X95903703Y-24244910D01*
X95903587Y-24113596D01*
X95904722Y-24046034D01*
X95907988Y-23935596D01*
X95913065Y-23789740D01*
X95919631Y-23615920D01*
X95927364Y-23421594D01*
X95935943Y-23214216D01*
X95945046Y-23001244D01*
X95954353Y-22790134D01*
X95963540Y-22588341D01*
X95972288Y-22403322D01*
X95980273Y-22242533D01*
X95987176Y-22113430D01*
X95992674Y-22023469D01*
X95995039Y-21992743D01*
X96009452Y-21833834D01*
X96335936Y-21833834D01*
X96334060Y-22030881D01*
G37*
X96334060Y-22030881D02*
X96331929Y-22129009D01*
X96327372Y-22262463D01*
X96320995Y-22415809D01*
X96313405Y-22573614D01*
X96310847Y-22622022D01*
X96289509Y-23016116D01*
X96471631Y-23416178D01*
X96531730Y-23546631D01*
X96585006Y-23659323D01*
X96627806Y-23746764D01*
X96656479Y-23801462D01*
X96666903Y-23816629D01*
X96675322Y-23792817D01*
X96693619Y-23724809D01*
X96720480Y-23618011D01*
X96754592Y-23477829D01*
X96794641Y-23309670D01*
X96839314Y-23118942D01*
X96887297Y-22911051D01*
X96893804Y-22882632D01*
X96941849Y-22672721D01*
X96986224Y-22479055D01*
X97025680Y-22307070D01*
X97058969Y-22162204D01*
X97084839Y-22049892D01*
X97102042Y-21975572D01*
X97109329Y-21944680D01*
X97109483Y-21944136D01*
X97133157Y-21947186D01*
X97193476Y-21959112D01*
X97277535Y-21977357D01*
X97280124Y-21977938D01*
X97372050Y-22001262D01*
X97422326Y-22022202D01*
X97439696Y-22045185D01*
X97438893Y-22058326D01*
X97431485Y-22090430D01*
X97413759Y-22167476D01*
X97386778Y-22284844D01*
X97351601Y-22437914D01*
X97309291Y-22622066D01*
X97260909Y-22832681D01*
X97207517Y-23065138D01*
X97150176Y-23314818D01*
X97110754Y-23486486D01*
X97051556Y-23744166D01*
X96995712Y-23987004D01*
X96944268Y-24210478D01*
X96898268Y-24410062D01*
X96858756Y-24581231D01*
X96826776Y-24719460D01*
X96803372Y-24820224D01*
X96789588Y-24878999D01*
X96786251Y-24892651D01*
X96774375Y-24876629D01*
X96744535Y-24820492D01*
X96699777Y-24730432D01*
X96643147Y-24612643D01*
X96577688Y-24473318D01*
X96539796Y-24391426D01*
X96456771Y-24213167D01*
X96391573Y-24079022D01*
X96342155Y-23986303D01*
X96306471Y-23932317D01*
X96282474Y-23914373D01*
X96268117Y-23929781D01*
X96261355Y-23975850D01*
X96260049Y-24023598D01*
X96255531Y-24109784D01*
X96245201Y-24188351D01*
X96245099Y-24188864D01*
X96235132Y-24228172D01*
X96216721Y-24249304D01*
X96177271Y-24256830D01*
X96104188Y-24255318D01*
X96067121Y-24253436D01*
X95903703Y-24244910D01*
X95903587Y-24113596D01*
X95904722Y-24046034D01*
X95907988Y-23935596D01*
X95913065Y-23789740D01*
X95919631Y-23615920D01*
X95927364Y-23421594D01*
X95935943Y-23214216D01*
X95945046Y-23001244D01*
X95954353Y-22790134D01*
X95963540Y-22588341D01*
X95972288Y-22403322D01*
X95980273Y-22242533D01*
X95987176Y-22113430D01*
X95992674Y-22023469D01*
X95995039Y-21992743D01*
X96009452Y-21833834D01*
X96335936Y-21833834D01*
X96334060Y-22030881D01*
G36*
X93153459Y-20703812D02*
G01*
X93151900Y-20780750D01*
X93146518Y-20902186D01*
X93137506Y-21065029D01*
X93125059Y-21266192D01*
X93109369Y-21502583D01*
X93090629Y-21771115D01*
X93069032Y-22068696D01*
X93044771Y-22392238D01*
X93038389Y-22475826D01*
X93023291Y-22672873D01*
X93338059Y-22672873D01*
X93330541Y-22844494D01*
X93323023Y-23016116D01*
X93158422Y-23028829D01*
X92993820Y-23041541D01*
X92939603Y-23613613D01*
X92910145Y-23912642D01*
X92882773Y-24166358D01*
X92857633Y-24373630D01*
X92834870Y-24533329D01*
X92814629Y-24644326D01*
X92799793Y-24698805D01*
X92778962Y-24754267D01*
X92631473Y-24675653D01*
X92555465Y-24634991D01*
X92499966Y-24605020D01*
X92477505Y-24592525D01*
X92478089Y-24567336D01*
X92486702Y-24507923D01*
X92494754Y-24462896D01*
X92504455Y-24399480D01*
X92517725Y-24295305D01*
X92533423Y-24160245D01*
X92550410Y-24004174D01*
X92567546Y-23836966D01*
X92570791Y-23804076D01*
X92587247Y-23637168D01*
X92602856Y-23480684D01*
X92616652Y-23344166D01*
X92627669Y-23237153D01*
X92634941Y-23169184D01*
X92635913Y-23160675D01*
X92648725Y-23050980D01*
X92257220Y-23068887D01*
X91865715Y-23086793D01*
X91857031Y-22917917D01*
X91854399Y-22832657D01*
X91855855Y-22771690D01*
X91861061Y-22748262D01*
X91889557Y-22746590D01*
X91959769Y-22742493D01*
X92062648Y-22736498D01*
X92189145Y-22729132D01*
X92263855Y-22724784D01*
X92399125Y-22716301D01*
X92515434Y-22707844D01*
X92603795Y-22700159D01*
X92655220Y-22693992D01*
X92664469Y-22691553D01*
X92668972Y-22664599D01*
X92676380Y-22594401D01*
X92686130Y-22488370D01*
X92697656Y-22353917D01*
X92710396Y-22198453D01*
X92723784Y-22029390D01*
X92737256Y-21854139D01*
X92750249Y-21680110D01*
X92762198Y-21514715D01*
X92772538Y-21365365D01*
X92780706Y-21239471D01*
X92786137Y-21144444D01*
X92788266Y-21087696D01*
X92787560Y-21074772D01*
X92761673Y-21076704D01*
X92692024Y-21086031D01*
X92585001Y-21101719D01*
X92446989Y-21122733D01*
X92284373Y-21148040D01*
X92103541Y-21176605D01*
X91910879Y-21207394D01*
X91712772Y-21239372D01*
X91515607Y-21271505D01*
X91325769Y-21302760D01*
X91149646Y-21332101D01*
X90993622Y-21358495D01*
X90864085Y-21380908D01*
X90767420Y-21398304D01*
X90710014Y-21409651D01*
X90696645Y-21413398D01*
X90709589Y-21432425D01*
X90754187Y-21470510D01*
X90803113Y-21506753D01*
X90867148Y-21555373D01*
X90909720Y-21594372D01*
X90920320Y-21610672D01*
X90905988Y-21633760D01*
X90865689Y-21692295D01*
X90803468Y-21780674D01*
X90723369Y-21893295D01*
X90629437Y-22024556D01*
X90525716Y-22168852D01*
X90416251Y-22320581D01*
X90305087Y-22474141D01*
X90196268Y-22623928D01*
X90093839Y-22764341D01*
X90001844Y-22889775D01*
X89924329Y-22994629D01*
X89865337Y-23073299D01*
X89849555Y-23093948D01*
X89860767Y-23119686D01*
X89904781Y-23180085D01*
X89979583Y-23272742D01*
X90083160Y-23395255D01*
X90213496Y-23545224D01*
X90368577Y-23720245D01*
X90463533Y-23826140D01*
X90606921Y-23985931D01*
X90738978Y-24134039D01*
X90855957Y-24266190D01*
X90954113Y-24378111D01*
X91029698Y-24465528D01*
X91078966Y-24524166D01*
X91098172Y-24549752D01*
X91098298Y-24550271D01*
X91081472Y-24576621D01*
X91037616Y-24626504D01*
X90983639Y-24681721D01*
X90868980Y-24794251D01*
X90809449Y-24731510D01*
X90778407Y-24697800D01*
X90717921Y-24631229D01*
X90632496Y-24536790D01*
X90526640Y-24419477D01*
X90404862Y-24284283D01*
X90271667Y-24136202D01*
X90183946Y-24038567D01*
X89617974Y-23408365D01*
X89397608Y-23708036D01*
X89319529Y-23814302D01*
X89218665Y-23951710D01*
X89102269Y-24110373D01*
X88977595Y-24280402D01*
X88851895Y-24451909D01*
X88772186Y-24560710D01*
X88664783Y-24706629D01*
X88567069Y-24838019D01*
X88483064Y-24949585D01*
X88416787Y-25036034D01*
X88372257Y-25092071D01*
X88353493Y-25112401D01*
X88353385Y-25112405D01*
X88327545Y-25097148D01*
X88275016Y-25059064D01*
X88225225Y-25020579D01*
X88163456Y-24966373D01*
X88123063Y-24920628D01*
X88113587Y-24899286D01*
X88128763Y-24872777D01*
X88170964Y-24809782D01*
X88237036Y-24714745D01*
X88323825Y-24592108D01*
X88428177Y-24446312D01*
X88546940Y-24281802D01*
X88676959Y-24103018D01*
X88742867Y-24012853D01*
X88876922Y-23829438D01*
X89001162Y-23658826D01*
X89112460Y-23505355D01*
X89207692Y-23373361D01*
X89283733Y-23267183D01*
X89337458Y-23191159D01*
X89365743Y-23149626D01*
X89369369Y-23143164D01*
X89352900Y-23121892D01*
X89305849Y-23066904D01*
X89231751Y-22982195D01*
X89134142Y-22871755D01*
X89016557Y-22739577D01*
X88882531Y-22589654D01*
X88735599Y-22425979D01*
X88657457Y-22339187D01*
X88505267Y-22169838D01*
X88364207Y-22011953D01*
X88237817Y-21869563D01*
X88129638Y-21746699D01*
X88043212Y-21647394D01*
X87982078Y-21575677D01*
X87949777Y-21535580D01*
X87945545Y-21528639D01*
X87963620Y-21502800D01*
X88010734Y-21455905D01*
X88068813Y-21404832D01*
X88192082Y-21301626D01*
X88812507Y-21991084D01*
X88958051Y-22152899D01*
X89095764Y-22306153D01*
X89221220Y-22445908D01*
X89329990Y-22567226D01*
X89417646Y-22665169D01*
X89479761Y-22734799D01*
X89510501Y-22769558D01*
X89588069Y-22858573D01*
X90643931Y-21420039D01*
X90508802Y-21437667D01*
X90421237Y-21450203D01*
X90347647Y-21462641D01*
X90320914Y-21468226D01*
X90292337Y-21470324D01*
X90273178Y-21452844D01*
X90258503Y-21405813D01*
X90243381Y-21319257D01*
X90241632Y-21307896D01*
X90228854Y-21221499D01*
X90220411Y-21158644D01*
X90218047Y-21132371D01*
X90218115Y-21132255D01*
X90245809Y-21125781D01*
X90318137Y-21112584D01*
X90429702Y-21093508D01*
X90575108Y-21069395D01*
X90748958Y-21041087D01*
X90945855Y-21009426D01*
X91160401Y-20975255D01*
X91387201Y-20939417D01*
X91620857Y-20902753D01*
X91855972Y-20866106D01*
X92087149Y-20830318D01*
X92308993Y-20796233D01*
X92516104Y-20764692D01*
X92703088Y-20736537D01*
X92864547Y-20712612D01*
X92995084Y-20693758D01*
X93089302Y-20680817D01*
X93141805Y-20674633D01*
X93151003Y-20674460D01*
X93153459Y-20703812D01*
G37*
X93153459Y-20703812D02*
X93151900Y-20780750D01*
X93146518Y-20902186D01*
X93137506Y-21065029D01*
X93125059Y-21266192D01*
X93109369Y-21502583D01*
X93090629Y-21771115D01*
X93069032Y-22068696D01*
X93044771Y-22392238D01*
X93038389Y-22475826D01*
X93023291Y-22672873D01*
X93338059Y-22672873D01*
X93330541Y-22844494D01*
X93323023Y-23016116D01*
X93158422Y-23028829D01*
X92993820Y-23041541D01*
X92939603Y-23613613D01*
X92910145Y-23912642D01*
X92882773Y-24166358D01*
X92857633Y-24373630D01*
X92834870Y-24533329D01*
X92814629Y-24644326D01*
X92799793Y-24698805D01*
X92778962Y-24754267D01*
X92631473Y-24675653D01*
X92555465Y-24634991D01*
X92499966Y-24605020D01*
X92477505Y-24592525D01*
X92478089Y-24567336D01*
X92486702Y-24507923D01*
X92494754Y-24462896D01*
X92504455Y-24399480D01*
X92517725Y-24295305D01*
X92533423Y-24160245D01*
X92550410Y-24004174D01*
X92567546Y-23836966D01*
X92570791Y-23804076D01*
X92587247Y-23637168D01*
X92602856Y-23480684D01*
X92616652Y-23344166D01*
X92627669Y-23237153D01*
X92634941Y-23169184D01*
X92635913Y-23160675D01*
X92648725Y-23050980D01*
X92257220Y-23068887D01*
X91865715Y-23086793D01*
X91857031Y-22917917D01*
X91854399Y-22832657D01*
X91855855Y-22771690D01*
X91861061Y-22748262D01*
X91889557Y-22746590D01*
X91959769Y-22742493D01*
X92062648Y-22736498D01*
X92189145Y-22729132D01*
X92263855Y-22724784D01*
X92399125Y-22716301D01*
X92515434Y-22707844D01*
X92603795Y-22700159D01*
X92655220Y-22693992D01*
X92664469Y-22691553D01*
X92668972Y-22664599D01*
X92676380Y-22594401D01*
X92686130Y-22488370D01*
X92697656Y-22353917D01*
X92710396Y-22198453D01*
X92723784Y-22029390D01*
X92737256Y-21854139D01*
X92750249Y-21680110D01*
X92762198Y-21514715D01*
X92772538Y-21365365D01*
X92780706Y-21239471D01*
X92786137Y-21144444D01*
X92788266Y-21087696D01*
X92787560Y-21074772D01*
X92761673Y-21076704D01*
X92692024Y-21086031D01*
X92585001Y-21101719D01*
X92446989Y-21122733D01*
X92284373Y-21148040D01*
X92103541Y-21176605D01*
X91910879Y-21207394D01*
X91712772Y-21239372D01*
X91515607Y-21271505D01*
X91325769Y-21302760D01*
X91149646Y-21332101D01*
X90993622Y-21358495D01*
X90864085Y-21380908D01*
X90767420Y-21398304D01*
X90710014Y-21409651D01*
X90696645Y-21413398D01*
X90709589Y-21432425D01*
X90754187Y-21470510D01*
X90803113Y-21506753D01*
X90867148Y-21555373D01*
X90909720Y-21594372D01*
X90920320Y-21610672D01*
X90905988Y-21633760D01*
X90865689Y-21692295D01*
X90803468Y-21780674D01*
X90723369Y-21893295D01*
X90629437Y-22024556D01*
X90525716Y-22168852D01*
X90416251Y-22320581D01*
X90305087Y-22474141D01*
X90196268Y-22623928D01*
X90093839Y-22764341D01*
X90001844Y-22889775D01*
X89924329Y-22994629D01*
X89865337Y-23073299D01*
X89849555Y-23093948D01*
X89860767Y-23119686D01*
X89904781Y-23180085D01*
X89979583Y-23272742D01*
X90083160Y-23395255D01*
X90213496Y-23545224D01*
X90368577Y-23720245D01*
X90463533Y-23826140D01*
X90606921Y-23985931D01*
X90738978Y-24134039D01*
X90855957Y-24266190D01*
X90954113Y-24378111D01*
X91029698Y-24465528D01*
X91078966Y-24524166D01*
X91098172Y-24549752D01*
X91098298Y-24550271D01*
X91081472Y-24576621D01*
X91037616Y-24626504D01*
X90983639Y-24681721D01*
X90868980Y-24794251D01*
X90809449Y-24731510D01*
X90778407Y-24697800D01*
X90717921Y-24631229D01*
X90632496Y-24536790D01*
X90526640Y-24419477D01*
X90404862Y-24284283D01*
X90271667Y-24136202D01*
X90183946Y-24038567D01*
X89617974Y-23408365D01*
X89397608Y-23708036D01*
X89319529Y-23814302D01*
X89218665Y-23951710D01*
X89102269Y-24110373D01*
X88977595Y-24280402D01*
X88851895Y-24451909D01*
X88772186Y-24560710D01*
X88664783Y-24706629D01*
X88567069Y-24838019D01*
X88483064Y-24949585D01*
X88416787Y-25036034D01*
X88372257Y-25092071D01*
X88353493Y-25112401D01*
X88353385Y-25112405D01*
X88327545Y-25097148D01*
X88275016Y-25059064D01*
X88225225Y-25020579D01*
X88163456Y-24966373D01*
X88123063Y-24920628D01*
X88113587Y-24899286D01*
X88128763Y-24872777D01*
X88170964Y-24809782D01*
X88237036Y-24714745D01*
X88323825Y-24592108D01*
X88428177Y-24446312D01*
X88546940Y-24281802D01*
X88676959Y-24103018D01*
X88742867Y-24012853D01*
X88876922Y-23829438D01*
X89001162Y-23658826D01*
X89112460Y-23505355D01*
X89207692Y-23373361D01*
X89283733Y-23267183D01*
X89337458Y-23191159D01*
X89365743Y-23149626D01*
X89369369Y-23143164D01*
X89352900Y-23121892D01*
X89305849Y-23066904D01*
X89231751Y-22982195D01*
X89134142Y-22871755D01*
X89016557Y-22739577D01*
X88882531Y-22589654D01*
X88735599Y-22425979D01*
X88657457Y-22339187D01*
X88505267Y-22169838D01*
X88364207Y-22011953D01*
X88237817Y-21869563D01*
X88129638Y-21746699D01*
X88043212Y-21647394D01*
X87982078Y-21575677D01*
X87949777Y-21535580D01*
X87945545Y-21528639D01*
X87963620Y-21502800D01*
X88010734Y-21455905D01*
X88068813Y-21404832D01*
X88192082Y-21301626D01*
X88812507Y-21991084D01*
X88958051Y-22152899D01*
X89095764Y-22306153D01*
X89221220Y-22445908D01*
X89329990Y-22567226D01*
X89417646Y-22665169D01*
X89479761Y-22734799D01*
X89510501Y-22769558D01*
X89588069Y-22858573D01*
X90643931Y-21420039D01*
X90508802Y-21437667D01*
X90421237Y-21450203D01*
X90347647Y-21462641D01*
X90320914Y-21468226D01*
X90292337Y-21470324D01*
X90273178Y-21452844D01*
X90258503Y-21405813D01*
X90243381Y-21319257D01*
X90241632Y-21307896D01*
X90228854Y-21221499D01*
X90220411Y-21158644D01*
X90218047Y-21132371D01*
X90218115Y-21132255D01*
X90245809Y-21125781D01*
X90318137Y-21112584D01*
X90429702Y-21093508D01*
X90575108Y-21069395D01*
X90748958Y-21041087D01*
X90945855Y-21009426D01*
X91160401Y-20975255D01*
X91387201Y-20939417D01*
X91620857Y-20902753D01*
X91855972Y-20866106D01*
X92087149Y-20830318D01*
X92308993Y-20796233D01*
X92516104Y-20764692D01*
X92703088Y-20736537D01*
X92864547Y-20712612D01*
X92995084Y-20693758D01*
X93089302Y-20680817D01*
X93141805Y-20674633D01*
X93151003Y-20674460D01*
X93153459Y-20703812D01*
G36*
X84316293Y-19351985D02*
G01*
X84563693Y-19432263D01*
X84783664Y-19551440D01*
X84978785Y-19711705D01*
X85151637Y-19915251D01*
X85304799Y-20164268D01*
X85329742Y-20212629D01*
X85428660Y-20409342D01*
X85625591Y-20396319D01*
X85728808Y-20389089D01*
X85865125Y-20378975D01*
X86016965Y-20367305D01*
X86166752Y-20355409D01*
X86169759Y-20355165D01*
X86303088Y-20345947D01*
X86423183Y-20340550D01*
X86518399Y-20339295D01*
X86577094Y-20342503D01*
X86583711Y-20343779D01*
X86660195Y-20387052D01*
X86713976Y-20465475D01*
X86742163Y-20567364D01*
X86741864Y-20681037D01*
X86710188Y-20794811D01*
X86700437Y-20815370D01*
X86611260Y-20936598D01*
X86485336Y-21032189D01*
X86330947Y-21100134D01*
X86156375Y-21138422D01*
X85969902Y-21145045D01*
X85779811Y-21117992D01*
X85637247Y-21073369D01*
X85562211Y-21044456D01*
X85508462Y-21025152D01*
X85491050Y-21020220D01*
X85483132Y-21042714D01*
X85478267Y-21098479D01*
X85477813Y-21115565D01*
X85470443Y-21189602D01*
X85452610Y-21289963D01*
X85429672Y-21388889D01*
X85407755Y-21476466D01*
X85393297Y-21542150D01*
X85389094Y-21573103D01*
X85389398Y-21573859D01*
X85411128Y-21564785D01*
X85454654Y-21533191D01*
X85455783Y-21532278D01*
X85495047Y-21493709D01*
X85496078Y-21463240D01*
X85481697Y-21442654D01*
X85464183Y-21409637D01*
X85474724Y-21401601D01*
X85515399Y-21424164D01*
X85552140Y-21480851D01*
X85576227Y-21555163D01*
X85580981Y-21602635D01*
X85560731Y-21716099D01*
X85506299Y-21836886D01*
X85427159Y-21946242D01*
X85387624Y-21985316D01*
X85295553Y-22054678D01*
X85190002Y-22116850D01*
X85086632Y-22163968D01*
X85001110Y-22188169D01*
X84980305Y-22189790D01*
X84937404Y-22199499D01*
X84861368Y-22225103D01*
X84765290Y-22261314D01*
X84662265Y-22302845D01*
X84565386Y-22344409D01*
X84487748Y-22380718D01*
X84442443Y-22406485D01*
X84441133Y-22407505D01*
X84440651Y-22434449D01*
X84466860Y-22473703D01*
X84505096Y-22507986D01*
X84536851Y-22520320D01*
X84601716Y-22535742D01*
X84692034Y-22576940D01*
X84794898Y-22636312D01*
X84897396Y-22706256D01*
X84986620Y-22779171D01*
X85003371Y-22795037D01*
X85130933Y-22946816D01*
X85213162Y-23105653D01*
X85248805Y-23266942D01*
X85236607Y-23426081D01*
X85202494Y-23526043D01*
X85156735Y-23600528D01*
X85090354Y-23678253D01*
X85015584Y-23747834D01*
X84944654Y-23797883D01*
X84889918Y-23817017D01*
X84851591Y-23812583D01*
X84853094Y-23796698D01*
X84896925Y-23765485D01*
X84938989Y-23740940D01*
X85052362Y-23651188D01*
X85138820Y-23531758D01*
X85188055Y-23398105D01*
X85193908Y-23358796D01*
X85190995Y-23240955D01*
X85164883Y-23118828D01*
X85121104Y-23010659D01*
X85065285Y-22934777D01*
X85015266Y-22900822D01*
X84935072Y-22857905D01*
X84836311Y-22810971D01*
X84730593Y-22764966D01*
X84629528Y-22724836D01*
X84544725Y-22695526D01*
X84487795Y-22681982D01*
X84473444Y-22682654D01*
X84446807Y-22716232D01*
X84436836Y-22773262D01*
X84426968Y-22845314D01*
X84402318Y-22932165D01*
X84392373Y-22958394D01*
X84360690Y-23079522D01*
X84348035Y-23236724D01*
X84347878Y-23257657D01*
X84349609Y-23353454D01*
X84358386Y-23424998D01*
X84379529Y-23490321D01*
X84418361Y-23567455D01*
X84461418Y-23642407D01*
X84574989Y-23836466D01*
X84704706Y-23849854D01*
X84786188Y-23864139D01*
X84897290Y-23891370D01*
X85019924Y-23926884D01*
X85083339Y-23947446D01*
X85213644Y-23995211D01*
X85300411Y-24037910D01*
X85349837Y-24081072D01*
X85368121Y-24130225D01*
X85361458Y-24190900D01*
X85360477Y-24194734D01*
X85363138Y-24247461D01*
X85385351Y-24322576D01*
X85403392Y-24364468D01*
X85444798Y-24496649D01*
X85441444Y-24634877D01*
X85392814Y-24785913D01*
X85367207Y-24838823D01*
X85332118Y-24909612D01*
X85310596Y-24959266D01*
X85307011Y-24974755D01*
X85333109Y-24971928D01*
X85395428Y-24958520D01*
X85481126Y-24937326D01*
X85491992Y-24934491D01*
X85647482Y-24899759D01*
X85761217Y-24888962D01*
X85836550Y-24902567D01*
X85876835Y-24941036D01*
X85886086Y-24989038D01*
X85863353Y-25043469D01*
X85801957Y-25104567D01*
X85712101Y-25164932D01*
X85603986Y-25217159D01*
X85540594Y-25239686D01*
X85422052Y-25267020D01*
X85283711Y-25284750D01*
X85141383Y-25292258D01*
X85010877Y-25288925D01*
X84908002Y-25274132D01*
X84879910Y-25265555D01*
X84829390Y-25242207D01*
X84827567Y-25229498D01*
X84873371Y-25227628D01*
X84965731Y-25236796D01*
X85005479Y-25242169D01*
X85152263Y-25251374D01*
X85306799Y-25241357D01*
X85458435Y-25214877D01*
X85596518Y-25174692D01*
X85710392Y-25123562D01*
X85789406Y-25064245D01*
X85812013Y-25033319D01*
X85831439Y-24985206D01*
X85818918Y-24975035D01*
X85776087Y-25002563D01*
X85727136Y-25045841D01*
X85610898Y-25123969D01*
X85455488Y-25175367D01*
X85259581Y-25200266D01*
X85021854Y-25198896D01*
X84900959Y-25189778D01*
X84817805Y-25179115D01*
X84777826Y-25162328D01*
X84773365Y-25132052D01*
X84789297Y-25096431D01*
X85054243Y-25096431D01*
X85084049Y-25117131D01*
X85119330Y-25118472D01*
X85162373Y-25122554D01*
X85174174Y-25137541D01*
X85189333Y-25162774D01*
X85234837Y-25147271D01*
X85285159Y-25111868D01*
X85330691Y-25079944D01*
X85349454Y-25080939D01*
X85352152Y-25099155D01*
X85363541Y-25134856D01*
X85398092Y-25126140D01*
X85453759Y-25075676D01*
X85493341Y-25022914D01*
X85493388Y-24996003D01*
X85456318Y-24999903D01*
X85424249Y-25015161D01*
X85360760Y-25037633D01*
X85316335Y-25040365D01*
X85249768Y-25037965D01*
X85174877Y-25046177D01*
X85107356Y-25061645D01*
X85062898Y-25081012D01*
X85054243Y-25096431D01*
X84789297Y-25096431D01*
X84793687Y-25086617D01*
X84804606Y-25046930D01*
X84785897Y-25039779D01*
X84748909Y-25067587D01*
X84741942Y-25075575D01*
X84699939Y-25107820D01*
X84677696Y-25113713D01*
X84646067Y-25100685D01*
X84579743Y-25064691D01*
X84486735Y-25010364D01*
X84375056Y-24942339D01*
X84298433Y-24894355D01*
X84181314Y-24821111D01*
X84080083Y-24759444D01*
X84002078Y-24713695D01*
X83954639Y-24688201D01*
X83943624Y-24684595D01*
X83942319Y-24712864D01*
X83947152Y-24776612D01*
X83955186Y-24846747D01*
X83966854Y-24963104D01*
X83974977Y-25092449D01*
X83977033Y-25159364D01*
X83970045Y-25273385D01*
X83939762Y-25354389D01*
X83877667Y-25418018D01*
X83813991Y-25458736D01*
X83786320Y-25478548D01*
X83784600Y-25502369D01*
X83811186Y-25544862D01*
X83832383Y-25573151D01*
X83890999Y-25670057D01*
X83941169Y-25788421D01*
X83977410Y-25910924D01*
X83994244Y-26020249D01*
X83991953Y-26077407D01*
X83952755Y-26192347D01*
X83885399Y-26268689D01*
X83796220Y-26303029D01*
X83691554Y-26291963D01*
X83635992Y-26268653D01*
X83566808Y-26227098D01*
X83512262Y-26186177D01*
X83461029Y-26131175D01*
X83407774Y-26060427D01*
X83361462Y-25987865D01*
X83331055Y-25927419D01*
X83324744Y-25894734D01*
X83341724Y-25889803D01*
X83366807Y-25923288D01*
X83418533Y-25999792D01*
X83491823Y-26084749D01*
X83571258Y-26162037D01*
X83641423Y-26215532D01*
X83651831Y-26221365D01*
X83753685Y-26254831D01*
X83837155Y-26244873D01*
X83899068Y-26196592D01*
X83936253Y-26115089D01*
X83945534Y-26005463D01*
X83923740Y-25872813D01*
X83905394Y-25813835D01*
X83870972Y-25727171D01*
X83835888Y-25656548D01*
X83812723Y-25623145D01*
X83793606Y-25609728D01*
X83796124Y-25631700D01*
X83820935Y-25693915D01*
X83822915Y-25698498D01*
X83861953Y-25810917D01*
X83886691Y-25927675D01*
X83895132Y-26033368D01*
X83885279Y-26112593D01*
X83878664Y-26128514D01*
X83831193Y-26168226D01*
X83755671Y-26181724D01*
X83667706Y-26168866D01*
X83585370Y-26131157D01*
X83533802Y-26084427D01*
X83470657Y-26009348D01*
X83435256Y-25958869D01*
X83597797Y-25958869D01*
X83617902Y-25976759D01*
X83669707Y-25971589D01*
X83740452Y-25944976D01*
X83751613Y-25939387D01*
X83804427Y-25902077D01*
X83827628Y-25866776D01*
X83819611Y-25844352D01*
X83778770Y-25845674D01*
X83764757Y-25850407D01*
X83687932Y-25885416D01*
X83627865Y-25923115D01*
X83598685Y-25954328D01*
X83597797Y-25958869D01*
X83435256Y-25958869D01*
X83409312Y-25921877D01*
X83407392Y-25918835D01*
X83382284Y-25880993D01*
X83521521Y-25880993D01*
X83537484Y-25900518D01*
X83586999Y-25887369D01*
X83657637Y-25849879D01*
X83715773Y-25808151D01*
X83755398Y-25766357D01*
X83768753Y-25734871D01*
X83751834Y-25723924D01*
X83716063Y-25737257D01*
X83659485Y-25770114D01*
X83597809Y-25811783D01*
X83546743Y-25851552D01*
X83521993Y-25878708D01*
X83521521Y-25880993D01*
X83382284Y-25880993D01*
X83337561Y-25813589D01*
X83258397Y-25702844D01*
X83197347Y-25623565D01*
X83141963Y-25548284D01*
X83102991Y-25481761D01*
X83089289Y-25440664D01*
X83086450Y-25417204D01*
X83080337Y-25408207D01*
X83117294Y-25408207D01*
X83123159Y-25434457D01*
X83154765Y-25486558D01*
X83203424Y-25552933D01*
X83260450Y-25622007D01*
X83317159Y-25682203D01*
X83335885Y-25699525D01*
X83423196Y-25754061D01*
X83514694Y-25775400D01*
X83595661Y-25761688D01*
X83632071Y-25736869D01*
X83665264Y-25687736D01*
X83696837Y-25617110D01*
X83700419Y-25606721D01*
X83715328Y-25535569D01*
X83697778Y-25493449D01*
X83641423Y-25473543D01*
X83572372Y-25469124D01*
X83501151Y-25463484D01*
X83402484Y-25450052D01*
X83305405Y-25433158D01*
X83216695Y-25417404D01*
X83149738Y-25408356D01*
X83117957Y-25407793D01*
X83117294Y-25408207D01*
X83080337Y-25408207D01*
X83072702Y-25396972D01*
X83040201Y-25375596D01*
X82981100Y-25348707D01*
X82887554Y-25311934D01*
X82796897Y-25277793D01*
X82726435Y-25247509D01*
X82704345Y-25227648D01*
X82716447Y-25220537D01*
X82748454Y-25202578D01*
X82749269Y-25158940D01*
X82745546Y-25143211D01*
X82739991Y-25098591D01*
X82735276Y-25026843D01*
X83522294Y-25026843D01*
X83529467Y-25075544D01*
X83546454Y-25103736D01*
X83564063Y-25098348D01*
X83567285Y-25090835D01*
X83562887Y-25049447D01*
X83551801Y-25024467D01*
X83629999Y-25024467D01*
X83651884Y-25069907D01*
X83658085Y-25081932D01*
X83692504Y-25136215D01*
X83722382Y-25163723D01*
X83726472Y-25164564D01*
X83738911Y-25147298D01*
X83727207Y-25117979D01*
X83686092Y-25062051D01*
X83658820Y-25035346D01*
X83632273Y-25015360D01*
X83629999Y-25024467D01*
X83551801Y-25024467D01*
X83549519Y-25019326D01*
X83529050Y-24989411D01*
X83522842Y-25006788D01*
X83522294Y-25026843D01*
X82735276Y-25026843D01*
X82734268Y-25011513D01*
X82728738Y-24890364D01*
X82723758Y-24743532D01*
X82719688Y-24579407D01*
X82718339Y-24507478D01*
X82718229Y-24500934D01*
X84836961Y-24500934D01*
X84903866Y-24580446D01*
X84952606Y-24653739D01*
X84968679Y-24728917D01*
X84954877Y-24824250D01*
X84946082Y-24856891D01*
X84932513Y-24939457D01*
X84947174Y-24981907D01*
X84985242Y-24982766D01*
X85041892Y-24940562D01*
X85079796Y-24897742D01*
X85152286Y-24828465D01*
X85238467Y-24795142D01*
X85253403Y-24792474D01*
X85332500Y-24766212D01*
X85379892Y-24713567D01*
X85399222Y-24627623D01*
X85396140Y-24521384D01*
X85359764Y-24393950D01*
X85278040Y-24285736D01*
X85165991Y-24207244D01*
X85121036Y-24187880D01*
X85083993Y-24187844D01*
X85046069Y-24213002D01*
X84998468Y-24269221D01*
X84932395Y-24362367D01*
X84931513Y-24363647D01*
X84836961Y-24500934D01*
X82718229Y-24500934D01*
X82708710Y-23939381D01*
X82638389Y-23886300D01*
X82545171Y-23807966D01*
X82456968Y-23719976D01*
X82383460Y-23633389D01*
X82334327Y-23559264D01*
X82319954Y-23522535D01*
X82312599Y-23437161D01*
X82314546Y-23428168D01*
X82359198Y-23428168D01*
X82374425Y-23526776D01*
X82434725Y-23626345D01*
X82505025Y-23700629D01*
X82576037Y-23763735D01*
X82623536Y-23795185D01*
X82658488Y-23800699D01*
X82680982Y-23792394D01*
X82729242Y-23759592D01*
X82738189Y-23726829D01*
X82706309Y-23684336D01*
X82657793Y-23642688D01*
X82578598Y-23586095D01*
X82521549Y-23565522D01*
X82475712Y-23578364D01*
X82455626Y-23594544D01*
X82434240Y-23611131D01*
X82441120Y-23589762D01*
X82448353Y-23575475D01*
X82483554Y-23526743D01*
X82539473Y-23466798D01*
X82559126Y-23448348D01*
X82598948Y-23414713D01*
X82609038Y-23411602D01*
X82598347Y-23426146D01*
X82575618Y-23457181D01*
X82573504Y-23483398D01*
X82597481Y-23516478D01*
X82653026Y-23568098D01*
X82673309Y-23585992D01*
X82740721Y-23639320D01*
X82796581Y-23672832D01*
X82825672Y-23679410D01*
X82850974Y-23677670D01*
X82845047Y-23698845D01*
X82815166Y-23732633D01*
X82768606Y-23768732D01*
X82757961Y-23775305D01*
X82700708Y-23815526D01*
X82688680Y-23848980D01*
X82722413Y-23886068D01*
X82765115Y-23914565D01*
X82849533Y-23949374D01*
X82942547Y-23948819D01*
X83056124Y-23912320D01*
X83085934Y-23899003D01*
X83143925Y-23856543D01*
X83255432Y-23856543D01*
X83256766Y-23896869D01*
X83256864Y-23897031D01*
X83290042Y-23908630D01*
X83363684Y-23912339D01*
X83468107Y-23908697D01*
X83593628Y-23898245D01*
X83730562Y-23881521D01*
X83838216Y-23864618D01*
X83942161Y-23843050D01*
X84057171Y-23813648D01*
X84171694Y-23780071D01*
X84274176Y-23745979D01*
X84353062Y-23715032D01*
X84396800Y-23690889D01*
X84400864Y-23686385D01*
X84396295Y-23671131D01*
X84348862Y-23676404D01*
X84331959Y-23680394D01*
X84179092Y-23699439D01*
X84043728Y-23673610D01*
X83936047Y-23615512D01*
X83882212Y-23578881D01*
X83837953Y-23556575D01*
X83789218Y-23546104D01*
X83721953Y-23544977D01*
X83622105Y-23550705D01*
X83584961Y-23553298D01*
X83345973Y-23570097D01*
X83328983Y-23649063D01*
X83303869Y-23732558D01*
X83275878Y-23798694D01*
X83255432Y-23856543D01*
X83143925Y-23856543D01*
X83183581Y-23827508D01*
X83244354Y-23721950D01*
X83267039Y-23584520D01*
X83267172Y-23572316D01*
X83246777Y-23402431D01*
X83189308Y-23243705D01*
X83100714Y-23107893D01*
X82986941Y-23006751D01*
X82978286Y-23001334D01*
X82893437Y-22961082D01*
X82815701Y-22954062D01*
X82734535Y-22982728D01*
X82639395Y-23049532D01*
X82590486Y-23091554D01*
X82466575Y-23215212D01*
X82389697Y-23325865D01*
X82359198Y-23428168D01*
X82314546Y-23428168D01*
X82329983Y-23356886D01*
X82376887Y-23269756D01*
X82458091Y-23163819D01*
X82468256Y-23151762D01*
X82604885Y-22990690D01*
X82527811Y-22982614D01*
X82468971Y-22966321D01*
X82437169Y-22939181D01*
X82409304Y-22912251D01*
X82346991Y-22871488D01*
X82261975Y-22824326D01*
X82231203Y-22808757D01*
X82134341Y-22756869D01*
X82082003Y-22720936D01*
X82073677Y-22703717D01*
X82108851Y-22707973D01*
X82187011Y-22736463D01*
X82240287Y-22759850D01*
X82316635Y-22794147D01*
X82372209Y-22817881D01*
X82393162Y-22825425D01*
X82398897Y-22802668D01*
X82398963Y-22801560D01*
X82567044Y-22801560D01*
X82575327Y-22873975D01*
X82603908Y-22915996D01*
X82638620Y-22922133D01*
X82671371Y-22905499D01*
X82699510Y-22860203D01*
X82704015Y-22847202D01*
X82893851Y-22847202D01*
X82904072Y-22886360D01*
X82939488Y-22921294D01*
X83005795Y-22965265D01*
X83126792Y-23062471D01*
X83218697Y-23186537D01*
X83286560Y-23338603D01*
X83314699Y-23408150D01*
X83339255Y-23452518D01*
X83349352Y-23461061D01*
X83376018Y-23446768D01*
X83434996Y-23407725D01*
X83517908Y-23349680D01*
X83616379Y-23278385D01*
X83629420Y-23268787D01*
X83734489Y-23191412D01*
X83829819Y-23121383D01*
X83905154Y-23066222D01*
X83950242Y-23033451D01*
X83951254Y-23032724D01*
X83991069Y-22995606D01*
X84001905Y-22950533D01*
X83994616Y-22894567D01*
X83966889Y-22811781D01*
X83923741Y-22739468D01*
X83920838Y-22736050D01*
X83864764Y-22671899D01*
X83560266Y-22848852D01*
X83423982Y-22926043D01*
X83324264Y-22978180D01*
X83262409Y-23004833D01*
X83239715Y-23005569D01*
X83257479Y-22979956D01*
X83312153Y-22931527D01*
X83372980Y-22867538D01*
X83392155Y-22813374D01*
X83368763Y-22775180D01*
X83337187Y-22763156D01*
X83283705Y-22751019D01*
X83199424Y-22731312D01*
X83106667Y-22709275D01*
X83019640Y-22690049D01*
X82954261Y-22678630D01*
X82923922Y-22677331D01*
X82923497Y-22677637D01*
X82914039Y-22706762D01*
X82902615Y-22767176D01*
X82899468Y-22788242D01*
X82893851Y-22847202D01*
X82704015Y-22847202D01*
X82728474Y-22776616D01*
X82736330Y-22749149D01*
X82760301Y-22655354D01*
X82777285Y-22574083D01*
X82783291Y-22527018D01*
X82801319Y-22478643D01*
X82810829Y-22472182D01*
X83958620Y-22472182D01*
X83977438Y-22501438D01*
X84026601Y-22531260D01*
X84102014Y-22597262D01*
X84160026Y-22704405D01*
X84196486Y-22844731D01*
X84198950Y-22861470D01*
X84218916Y-22943331D01*
X84249381Y-22975694D01*
X84290006Y-22958393D01*
X84320980Y-22921470D01*
X84347803Y-22851373D01*
X84359268Y-22753003D01*
X84355287Y-22646592D01*
X84335775Y-22552371D01*
X84322701Y-22520859D01*
X84276741Y-22459069D01*
X84212817Y-22428911D01*
X84119401Y-22426382D01*
X84068500Y-22432610D01*
X83988651Y-22450001D01*
X83958620Y-22472182D01*
X82810829Y-22472182D01*
X82859517Y-22439108D01*
X82877674Y-22431089D01*
X82936090Y-22398383D01*
X82947437Y-22372792D01*
X82915433Y-22358831D01*
X82843793Y-22361015D01*
X82822605Y-22364190D01*
X82755338Y-22382089D01*
X82708719Y-22417274D01*
X82664431Y-22484215D01*
X82659534Y-22493016D01*
X82609591Y-22601974D01*
X82578613Y-22707858D01*
X82567044Y-22801560D01*
X82398963Y-22801560D01*
X82402349Y-22745055D01*
X82402802Y-22710194D01*
X82411063Y-22616711D01*
X82431574Y-22528178D01*
X82438273Y-22510070D01*
X82473744Y-22425177D01*
X82388100Y-22444493D01*
X82310755Y-22474504D01*
X82232590Y-22522981D01*
X82222310Y-22531247D01*
X82166303Y-22571485D01*
X82131326Y-22584258D01*
X82124808Y-22569326D01*
X82148038Y-22533647D01*
X82166993Y-22491622D01*
X82150208Y-22458757D01*
X82135370Y-22433437D01*
X82160786Y-22433414D01*
X82173357Y-22436515D01*
X82238842Y-22428340D01*
X82286491Y-22389642D01*
X82381836Y-22389642D01*
X82400348Y-22393149D01*
X82449381Y-22370034D01*
X82457716Y-22365593D01*
X82501071Y-22323859D01*
X82543906Y-22254635D01*
X82577648Y-22176446D01*
X82593724Y-22107823D01*
X82590898Y-22077781D01*
X82555394Y-22043572D01*
X82527209Y-22037237D01*
X82490592Y-22051768D01*
X82479128Y-22102540D01*
X82479079Y-22108137D01*
X82467405Y-22176106D01*
X82438366Y-22257467D01*
X82428228Y-22278779D01*
X82391808Y-22353517D01*
X82381836Y-22389642D01*
X82286491Y-22389642D01*
X82306685Y-22373242D01*
X82372754Y-22274735D01*
X82380083Y-22260722D01*
X82422748Y-22133822D01*
X82418051Y-22020545D01*
X82368839Y-21926461D01*
X82277958Y-21857143D01*
X82154417Y-21819110D01*
X82031190Y-21823739D01*
X81914645Y-21874305D01*
X81809852Y-21965919D01*
X81721877Y-22093692D01*
X81655791Y-22252736D01*
X81638283Y-22316917D01*
X81638158Y-22412626D01*
X81681756Y-22493709D01*
X81762776Y-22554663D01*
X81874914Y-22589984D01*
X81958541Y-22596596D01*
X82016829Y-22602571D01*
X82035639Y-22618403D01*
X82034134Y-22622022D01*
X81993525Y-22643872D01*
X81922797Y-22644528D01*
X81836357Y-22627359D01*
X81748612Y-22595732D01*
X81673968Y-22553016D01*
X81649505Y-22532097D01*
X81601552Y-22450646D01*
X81589750Y-22347090D01*
X81610132Y-22230572D01*
X81658731Y-22110233D01*
X81731581Y-21995217D01*
X81824717Y-21894667D01*
X81934171Y-21817725D01*
X81966187Y-21802105D01*
X82096323Y-21770516D01*
X82225954Y-21785991D01*
X82343571Y-21845946D01*
X82401510Y-21899809D01*
X82475639Y-21964631D01*
X82541381Y-21986386D01*
X82595042Y-22007770D01*
X82624823Y-22066108D01*
X82629195Y-22152677D01*
X82606628Y-22258755D01*
X82594919Y-22291684D01*
X82594541Y-22308170D01*
X82613933Y-22318508D01*
X82660833Y-22323522D01*
X82742981Y-22324035D01*
X82868115Y-22320871D01*
X82869008Y-22320843D01*
X83007106Y-22318169D01*
X83105379Y-22321028D01*
X83174643Y-22330349D01*
X83225714Y-22347061D01*
X83236769Y-22352432D01*
X83328302Y-22380363D01*
X83458204Y-22391791D01*
X83488477Y-22391950D01*
X83661361Y-22390707D01*
X83501773Y-22329295D01*
X83389673Y-22279623D01*
X83271493Y-22217343D01*
X83204191Y-22176287D01*
X83095892Y-22093564D01*
X82981621Y-21988424D01*
X82873844Y-21873983D01*
X82785032Y-21763357D01*
X82733016Y-21680660D01*
X82691487Y-21613023D01*
X82649122Y-21564339D01*
X82638166Y-21556291D01*
X82615107Y-21535727D01*
X82624826Y-21529502D01*
X82635661Y-21509130D01*
X82631303Y-21480340D01*
X82679483Y-21480340D01*
X82774377Y-21650731D01*
X82913165Y-21850122D01*
X83091340Y-22026909D01*
X83300116Y-22174764D01*
X83530705Y-22287360D01*
X83750350Y-22353476D01*
X83888026Y-22371797D01*
X84053597Y-22377213D01*
X84225899Y-22370201D01*
X84383767Y-22351240D01*
X84449549Y-22337705D01*
X84563521Y-22297237D01*
X84696770Y-22230723D01*
X84832333Y-22147782D01*
X84834646Y-22146065D01*
X84974846Y-22146065D01*
X85010405Y-22144941D01*
X85087889Y-22116819D01*
X85180703Y-22073092D01*
X85285869Y-22004216D01*
X85382883Y-21912499D01*
X85462215Y-21809989D01*
X85514336Y-21708729D01*
X85530130Y-21631443D01*
X85525947Y-21593136D01*
X85506762Y-21583459D01*
X85462616Y-21602519D01*
X85412038Y-21632703D01*
X85325743Y-21702032D01*
X85283283Y-21780581D01*
X85275876Y-21842971D01*
X85264660Y-21886835D01*
X85225569Y-21932973D01*
X85150436Y-21990446D01*
X85131180Y-22003551D01*
X85034087Y-22073760D01*
X84982358Y-22121801D01*
X84974846Y-22146065D01*
X84834646Y-22146065D01*
X84953245Y-22058037D01*
X84974001Y-22040272D01*
X85055295Y-21949771D01*
X85156155Y-21949771D01*
X85158750Y-21960961D01*
X85183867Y-21945210D01*
X85210496Y-21921007D01*
X85240546Y-21881020D01*
X85250051Y-21849539D01*
X85236132Y-21841191D01*
X85225161Y-21846462D01*
X85198774Y-21873639D01*
X85172039Y-21914512D01*
X85156155Y-21949771D01*
X85055295Y-21949771D01*
X85095895Y-21904574D01*
X85171216Y-21751179D01*
X85201808Y-21575635D01*
X85201590Y-21490590D01*
X85193147Y-21252576D01*
X85193570Y-21059407D01*
X85203086Y-20905816D01*
X85221920Y-20786536D01*
X85233608Y-20742282D01*
X85261722Y-20644872D01*
X85271436Y-20583220D01*
X85260477Y-20544859D01*
X85226577Y-20517324D01*
X85189190Y-20498388D01*
X85121436Y-20450777D01*
X85087109Y-20395913D01*
X85059319Y-20353123D01*
X85001823Y-20296695D01*
X84929196Y-20237991D01*
X84856016Y-20188369D01*
X84796857Y-20159191D01*
X84778956Y-20155756D01*
X84752680Y-20176903D01*
X84719809Y-20229819D01*
X84709067Y-20252447D01*
X84637975Y-20377234D01*
X84546168Y-20485322D01*
X84441835Y-20571715D01*
X84333165Y-20631418D01*
X84228345Y-20659437D01*
X84135564Y-20650776D01*
X84092562Y-20628516D01*
X84062895Y-20599531D01*
X84056146Y-20561627D01*
X84069492Y-20496100D01*
X84071457Y-20488676D01*
X84099241Y-20384584D01*
X84024826Y-20384584D01*
X83930248Y-20369908D01*
X83870530Y-20328739D01*
X83852052Y-20272454D01*
X83838620Y-20225143D01*
X83789807Y-20200754D01*
X83777820Y-20198116D01*
X83708555Y-20167319D01*
X83683329Y-20115219D01*
X83703207Y-20047700D01*
X83741523Y-19997580D01*
X83813914Y-19920454D01*
X83648648Y-19933129D01*
X83528215Y-19947951D01*
X83398435Y-19972225D01*
X83327962Y-19989588D01*
X83172542Y-20033372D01*
X83159533Y-20304323D01*
X83146637Y-20474188D01*
X83124535Y-20602626D01*
X83090214Y-20698681D01*
X83040667Y-20771398D01*
X82988406Y-20818573D01*
X82890160Y-20895252D01*
X82824403Y-20957714D01*
X82781890Y-21020790D01*
X82753373Y-21099314D01*
X82729606Y-21208118D01*
X82722797Y-21244648D01*
X82679483Y-21480340D01*
X82631303Y-21480340D01*
X82628151Y-21459520D01*
X82607864Y-21396309D01*
X82580368Y-21335135D01*
X82551232Y-21291637D01*
X82536275Y-21280827D01*
X82512786Y-21291862D01*
X82504286Y-21335168D01*
X82509793Y-21394739D01*
X82528329Y-21454567D01*
X82548999Y-21488588D01*
X82593493Y-21541441D01*
X82533535Y-21490590D01*
X82496502Y-21450972D01*
X82482724Y-21404205D01*
X82486572Y-21329842D01*
X82487376Y-21322903D01*
X82491749Y-21250076D01*
X82479873Y-21192458D01*
X82445261Y-21128883D01*
X82413950Y-21083382D01*
X82369728Y-21016008D01*
X82343674Y-20965933D01*
X82340681Y-20946739D01*
X82352746Y-20946731D01*
X82376326Y-20966811D01*
X82416789Y-21012850D01*
X82479502Y-21090717D01*
X82522765Y-21145833D01*
X82543922Y-21165530D01*
X82552833Y-21145925D01*
X82554546Y-21104508D01*
X82546764Y-21022489D01*
X82529946Y-20956699D01*
X82502964Y-20910095D01*
X82458920Y-20896044D01*
X82422468Y-20897837D01*
X82347012Y-20923101D01*
X82300805Y-20983591D01*
X82282125Y-21082759D01*
X82284309Y-21174613D01*
X82322599Y-21350389D01*
X82405546Y-21506904D01*
X82528505Y-21637353D01*
X82657057Y-21720671D01*
X82708793Y-21753133D01*
X82717860Y-21772408D01*
X82691310Y-21775958D01*
X82636196Y-21761245D01*
X82593971Y-21743367D01*
X82495585Y-21676949D01*
X82398047Y-21578064D01*
X82315525Y-21463319D01*
X82264872Y-21357524D01*
X82232727Y-21219545D01*
X82227862Y-21085441D01*
X82250393Y-20972191D01*
X82262022Y-20945762D01*
X82305949Y-20883587D01*
X82365589Y-20851805D01*
X82456964Y-20842285D01*
X82466060Y-20842242D01*
X82515448Y-20839580D01*
X82542721Y-20823147D01*
X82557588Y-20780274D01*
X82568368Y-20708759D01*
X82586713Y-20612543D01*
X82616534Y-20496567D01*
X82645877Y-20402521D01*
X82751760Y-20162416D01*
X82892473Y-19945470D01*
X83020698Y-19801918D01*
X84793566Y-19801918D01*
X84799718Y-19858727D01*
X84811861Y-19886832D01*
X84831067Y-19889415D01*
X84838892Y-19859560D01*
X84834845Y-19823374D01*
X84894494Y-19823374D01*
X84906105Y-19869798D01*
X84933722Y-19928054D01*
X84966519Y-19978877D01*
X84993674Y-20003000D01*
X84995526Y-20003203D01*
X85005090Y-19982496D01*
X84993222Y-19929330D01*
X84992900Y-19928403D01*
X84966341Y-19871514D01*
X84934809Y-19827595D01*
X84907767Y-19806746D01*
X84894678Y-19819065D01*
X84894494Y-19823374D01*
X84834845Y-19823374D01*
X84833874Y-19814702D01*
X84820701Y-19781529D01*
X84801600Y-19755048D01*
X84794551Y-19772138D01*
X84793566Y-19801918D01*
X83020698Y-19801918D01*
X83062433Y-19755195D01*
X83256059Y-19595101D01*
X83467768Y-19468698D01*
X83691980Y-19379496D01*
X83923112Y-19331007D01*
X84155583Y-19326739D01*
X84316293Y-19351985D01*
G37*
X84316293Y-19351985D02*
X84563693Y-19432263D01*
X84783664Y-19551440D01*
X84978785Y-19711705D01*
X85151637Y-19915251D01*
X85304799Y-20164268D01*
X85329742Y-20212629D01*
X85428660Y-20409342D01*
X85625591Y-20396319D01*
X85728808Y-20389089D01*
X85865125Y-20378975D01*
X86016965Y-20367305D01*
X86166752Y-20355409D01*
X86169759Y-20355165D01*
X86303088Y-20345947D01*
X86423183Y-20340550D01*
X86518399Y-20339295D01*
X86577094Y-20342503D01*
X86583711Y-20343779D01*
X86660195Y-20387052D01*
X86713976Y-20465475D01*
X86742163Y-20567364D01*
X86741864Y-20681037D01*
X86710188Y-20794811D01*
X86700437Y-20815370D01*
X86611260Y-20936598D01*
X86485336Y-21032189D01*
X86330947Y-21100134D01*
X86156375Y-21138422D01*
X85969902Y-21145045D01*
X85779811Y-21117992D01*
X85637247Y-21073369D01*
X85562211Y-21044456D01*
X85508462Y-21025152D01*
X85491050Y-21020220D01*
X85483132Y-21042714D01*
X85478267Y-21098479D01*
X85477813Y-21115565D01*
X85470443Y-21189602D01*
X85452610Y-21289963D01*
X85429672Y-21388889D01*
X85407755Y-21476466D01*
X85393297Y-21542150D01*
X85389094Y-21573103D01*
X85389398Y-21573859D01*
X85411128Y-21564785D01*
X85454654Y-21533191D01*
X85455783Y-21532278D01*
X85495047Y-21493709D01*
X85496078Y-21463240D01*
X85481697Y-21442654D01*
X85464183Y-21409637D01*
X85474724Y-21401601D01*
X85515399Y-21424164D01*
X85552140Y-21480851D01*
X85576227Y-21555163D01*
X85580981Y-21602635D01*
X85560731Y-21716099D01*
X85506299Y-21836886D01*
X85427159Y-21946242D01*
X85387624Y-21985316D01*
X85295553Y-22054678D01*
X85190002Y-22116850D01*
X85086632Y-22163968D01*
X85001110Y-22188169D01*
X84980305Y-22189790D01*
X84937404Y-22199499D01*
X84861368Y-22225103D01*
X84765290Y-22261314D01*
X84662265Y-22302845D01*
X84565386Y-22344409D01*
X84487748Y-22380718D01*
X84442443Y-22406485D01*
X84441133Y-22407505D01*
X84440651Y-22434449D01*
X84466860Y-22473703D01*
X84505096Y-22507986D01*
X84536851Y-22520320D01*
X84601716Y-22535742D01*
X84692034Y-22576940D01*
X84794898Y-22636312D01*
X84897396Y-22706256D01*
X84986620Y-22779171D01*
X85003371Y-22795037D01*
X85130933Y-22946816D01*
X85213162Y-23105653D01*
X85248805Y-23266942D01*
X85236607Y-23426081D01*
X85202494Y-23526043D01*
X85156735Y-23600528D01*
X85090354Y-23678253D01*
X85015584Y-23747834D01*
X84944654Y-23797883D01*
X84889918Y-23817017D01*
X84851591Y-23812583D01*
X84853094Y-23796698D01*
X84896925Y-23765485D01*
X84938989Y-23740940D01*
X85052362Y-23651188D01*
X85138820Y-23531758D01*
X85188055Y-23398105D01*
X85193908Y-23358796D01*
X85190995Y-23240955D01*
X85164883Y-23118828D01*
X85121104Y-23010659D01*
X85065285Y-22934777D01*
X85015266Y-22900822D01*
X84935072Y-22857905D01*
X84836311Y-22810971D01*
X84730593Y-22764966D01*
X84629528Y-22724836D01*
X84544725Y-22695526D01*
X84487795Y-22681982D01*
X84473444Y-22682654D01*
X84446807Y-22716232D01*
X84436836Y-22773262D01*
X84426968Y-22845314D01*
X84402318Y-22932165D01*
X84392373Y-22958394D01*
X84360690Y-23079522D01*
X84348035Y-23236724D01*
X84347878Y-23257657D01*
X84349609Y-23353454D01*
X84358386Y-23424998D01*
X84379529Y-23490321D01*
X84418361Y-23567455D01*
X84461418Y-23642407D01*
X84574989Y-23836466D01*
X84704706Y-23849854D01*
X84786188Y-23864139D01*
X84897290Y-23891370D01*
X85019924Y-23926884D01*
X85083339Y-23947446D01*
X85213644Y-23995211D01*
X85300411Y-24037910D01*
X85349837Y-24081072D01*
X85368121Y-24130225D01*
X85361458Y-24190900D01*
X85360477Y-24194734D01*
X85363138Y-24247461D01*
X85385351Y-24322576D01*
X85403392Y-24364468D01*
X85444798Y-24496649D01*
X85441444Y-24634877D01*
X85392814Y-24785913D01*
X85367207Y-24838823D01*
X85332118Y-24909612D01*
X85310596Y-24959266D01*
X85307011Y-24974755D01*
X85333109Y-24971928D01*
X85395428Y-24958520D01*
X85481126Y-24937326D01*
X85491992Y-24934491D01*
X85647482Y-24899759D01*
X85761217Y-24888962D01*
X85836550Y-24902567D01*
X85876835Y-24941036D01*
X85886086Y-24989038D01*
X85863353Y-25043469D01*
X85801957Y-25104567D01*
X85712101Y-25164932D01*
X85603986Y-25217159D01*
X85540594Y-25239686D01*
X85422052Y-25267020D01*
X85283711Y-25284750D01*
X85141383Y-25292258D01*
X85010877Y-25288925D01*
X84908002Y-25274132D01*
X84879910Y-25265555D01*
X84829390Y-25242207D01*
X84827567Y-25229498D01*
X84873371Y-25227628D01*
X84965731Y-25236796D01*
X85005479Y-25242169D01*
X85152263Y-25251374D01*
X85306799Y-25241357D01*
X85458435Y-25214877D01*
X85596518Y-25174692D01*
X85710392Y-25123562D01*
X85789406Y-25064245D01*
X85812013Y-25033319D01*
X85831439Y-24985206D01*
X85818918Y-24975035D01*
X85776087Y-25002563D01*
X85727136Y-25045841D01*
X85610898Y-25123969D01*
X85455488Y-25175367D01*
X85259581Y-25200266D01*
X85021854Y-25198896D01*
X84900959Y-25189778D01*
X84817805Y-25179115D01*
X84777826Y-25162328D01*
X84773365Y-25132052D01*
X84789297Y-25096431D01*
X85054243Y-25096431D01*
X85084049Y-25117131D01*
X85119330Y-25118472D01*
X85162373Y-25122554D01*
X85174174Y-25137541D01*
X85189333Y-25162774D01*
X85234837Y-25147271D01*
X85285159Y-25111868D01*
X85330691Y-25079944D01*
X85349454Y-25080939D01*
X85352152Y-25099155D01*
X85363541Y-25134856D01*
X85398092Y-25126140D01*
X85453759Y-25075676D01*
X85493341Y-25022914D01*
X85493388Y-24996003D01*
X85456318Y-24999903D01*
X85424249Y-25015161D01*
X85360760Y-25037633D01*
X85316335Y-25040365D01*
X85249768Y-25037965D01*
X85174877Y-25046177D01*
X85107356Y-25061645D01*
X85062898Y-25081012D01*
X85054243Y-25096431D01*
X84789297Y-25096431D01*
X84793687Y-25086617D01*
X84804606Y-25046930D01*
X84785897Y-25039779D01*
X84748909Y-25067587D01*
X84741942Y-25075575D01*
X84699939Y-25107820D01*
X84677696Y-25113713D01*
X84646067Y-25100685D01*
X84579743Y-25064691D01*
X84486735Y-25010364D01*
X84375056Y-24942339D01*
X84298433Y-24894355D01*
X84181314Y-24821111D01*
X84080083Y-24759444D01*
X84002078Y-24713695D01*
X83954639Y-24688201D01*
X83943624Y-24684595D01*
X83942319Y-24712864D01*
X83947152Y-24776612D01*
X83955186Y-24846747D01*
X83966854Y-24963104D01*
X83974977Y-25092449D01*
X83977033Y-25159364D01*
X83970045Y-25273385D01*
X83939762Y-25354389D01*
X83877667Y-25418018D01*
X83813991Y-25458736D01*
X83786320Y-25478548D01*
X83784600Y-25502369D01*
X83811186Y-25544862D01*
X83832383Y-25573151D01*
X83890999Y-25670057D01*
X83941169Y-25788421D01*
X83977410Y-25910924D01*
X83994244Y-26020249D01*
X83991953Y-26077407D01*
X83952755Y-26192347D01*
X83885399Y-26268689D01*
X83796220Y-26303029D01*
X83691554Y-26291963D01*
X83635992Y-26268653D01*
X83566808Y-26227098D01*
X83512262Y-26186177D01*
X83461029Y-26131175D01*
X83407774Y-26060427D01*
X83361462Y-25987865D01*
X83331055Y-25927419D01*
X83324744Y-25894734D01*
X83341724Y-25889803D01*
X83366807Y-25923288D01*
X83418533Y-25999792D01*
X83491823Y-26084749D01*
X83571258Y-26162037D01*
X83641423Y-26215532D01*
X83651831Y-26221365D01*
X83753685Y-26254831D01*
X83837155Y-26244873D01*
X83899068Y-26196592D01*
X83936253Y-26115089D01*
X83945534Y-26005463D01*
X83923740Y-25872813D01*
X83905394Y-25813835D01*
X83870972Y-25727171D01*
X83835888Y-25656548D01*
X83812723Y-25623145D01*
X83793606Y-25609728D01*
X83796124Y-25631700D01*
X83820935Y-25693915D01*
X83822915Y-25698498D01*
X83861953Y-25810917D01*
X83886691Y-25927675D01*
X83895132Y-26033368D01*
X83885279Y-26112593D01*
X83878664Y-26128514D01*
X83831193Y-26168226D01*
X83755671Y-26181724D01*
X83667706Y-26168866D01*
X83585370Y-26131157D01*
X83533802Y-26084427D01*
X83470657Y-26009348D01*
X83435256Y-25958869D01*
X83597797Y-25958869D01*
X83617902Y-25976759D01*
X83669707Y-25971589D01*
X83740452Y-25944976D01*
X83751613Y-25939387D01*
X83804427Y-25902077D01*
X83827628Y-25866776D01*
X83819611Y-25844352D01*
X83778770Y-25845674D01*
X83764757Y-25850407D01*
X83687932Y-25885416D01*
X83627865Y-25923115D01*
X83598685Y-25954328D01*
X83597797Y-25958869D01*
X83435256Y-25958869D01*
X83409312Y-25921877D01*
X83407392Y-25918835D01*
X83382284Y-25880993D01*
X83521521Y-25880993D01*
X83537484Y-25900518D01*
X83586999Y-25887369D01*
X83657637Y-25849879D01*
X83715773Y-25808151D01*
X83755398Y-25766357D01*
X83768753Y-25734871D01*
X83751834Y-25723924D01*
X83716063Y-25737257D01*
X83659485Y-25770114D01*
X83597809Y-25811783D01*
X83546743Y-25851552D01*
X83521993Y-25878708D01*
X83521521Y-25880993D01*
X83382284Y-25880993D01*
X83337561Y-25813589D01*
X83258397Y-25702844D01*
X83197347Y-25623565D01*
X83141963Y-25548284D01*
X83102991Y-25481761D01*
X83089289Y-25440664D01*
X83086450Y-25417204D01*
X83080337Y-25408207D01*
X83117294Y-25408207D01*
X83123159Y-25434457D01*
X83154765Y-25486558D01*
X83203424Y-25552933D01*
X83260450Y-25622007D01*
X83317159Y-25682203D01*
X83335885Y-25699525D01*
X83423196Y-25754061D01*
X83514694Y-25775400D01*
X83595661Y-25761688D01*
X83632071Y-25736869D01*
X83665264Y-25687736D01*
X83696837Y-25617110D01*
X83700419Y-25606721D01*
X83715328Y-25535569D01*
X83697778Y-25493449D01*
X83641423Y-25473543D01*
X83572372Y-25469124D01*
X83501151Y-25463484D01*
X83402484Y-25450052D01*
X83305405Y-25433158D01*
X83216695Y-25417404D01*
X83149738Y-25408356D01*
X83117957Y-25407793D01*
X83117294Y-25408207D01*
X83080337Y-25408207D01*
X83072702Y-25396972D01*
X83040201Y-25375596D01*
X82981100Y-25348707D01*
X82887554Y-25311934D01*
X82796897Y-25277793D01*
X82726435Y-25247509D01*
X82704345Y-25227648D01*
X82716447Y-25220537D01*
X82748454Y-25202578D01*
X82749269Y-25158940D01*
X82745546Y-25143211D01*
X82739991Y-25098591D01*
X82735276Y-25026843D01*
X83522294Y-25026843D01*
X83529467Y-25075544D01*
X83546454Y-25103736D01*
X83564063Y-25098348D01*
X83567285Y-25090835D01*
X83562887Y-25049447D01*
X83551801Y-25024467D01*
X83629999Y-25024467D01*
X83651884Y-25069907D01*
X83658085Y-25081932D01*
X83692504Y-25136215D01*
X83722382Y-25163723D01*
X83726472Y-25164564D01*
X83738911Y-25147298D01*
X83727207Y-25117979D01*
X83686092Y-25062051D01*
X83658820Y-25035346D01*
X83632273Y-25015360D01*
X83629999Y-25024467D01*
X83551801Y-25024467D01*
X83549519Y-25019326D01*
X83529050Y-24989411D01*
X83522842Y-25006788D01*
X83522294Y-25026843D01*
X82735276Y-25026843D01*
X82734268Y-25011513D01*
X82728738Y-24890364D01*
X82723758Y-24743532D01*
X82719688Y-24579407D01*
X82718339Y-24507478D01*
X82718229Y-24500934D01*
X84836961Y-24500934D01*
X84903866Y-24580446D01*
X84952606Y-24653739D01*
X84968679Y-24728917D01*
X84954877Y-24824250D01*
X84946082Y-24856891D01*
X84932513Y-24939457D01*
X84947174Y-24981907D01*
X84985242Y-24982766D01*
X85041892Y-24940562D01*
X85079796Y-24897742D01*
X85152286Y-24828465D01*
X85238467Y-24795142D01*
X85253403Y-24792474D01*
X85332500Y-24766212D01*
X85379892Y-24713567D01*
X85399222Y-24627623D01*
X85396140Y-24521384D01*
X85359764Y-24393950D01*
X85278040Y-24285736D01*
X85165991Y-24207244D01*
X85121036Y-24187880D01*
X85083993Y-24187844D01*
X85046069Y-24213002D01*
X84998468Y-24269221D01*
X84932395Y-24362367D01*
X84931513Y-24363647D01*
X84836961Y-24500934D01*
X82718229Y-24500934D01*
X82708710Y-23939381D01*
X82638389Y-23886300D01*
X82545171Y-23807966D01*
X82456968Y-23719976D01*
X82383460Y-23633389D01*
X82334327Y-23559264D01*
X82319954Y-23522535D01*
X82312599Y-23437161D01*
X82314546Y-23428168D01*
X82359198Y-23428168D01*
X82374425Y-23526776D01*
X82434725Y-23626345D01*
X82505025Y-23700629D01*
X82576037Y-23763735D01*
X82623536Y-23795185D01*
X82658488Y-23800699D01*
X82680982Y-23792394D01*
X82729242Y-23759592D01*
X82738189Y-23726829D01*
X82706309Y-23684336D01*
X82657793Y-23642688D01*
X82578598Y-23586095D01*
X82521549Y-23565522D01*
X82475712Y-23578364D01*
X82455626Y-23594544D01*
X82434240Y-23611131D01*
X82441120Y-23589762D01*
X82448353Y-23575475D01*
X82483554Y-23526743D01*
X82539473Y-23466798D01*
X82559126Y-23448348D01*
X82598948Y-23414713D01*
X82609038Y-23411602D01*
X82598347Y-23426146D01*
X82575618Y-23457181D01*
X82573504Y-23483398D01*
X82597481Y-23516478D01*
X82653026Y-23568098D01*
X82673309Y-23585992D01*
X82740721Y-23639320D01*
X82796581Y-23672832D01*
X82825672Y-23679410D01*
X82850974Y-23677670D01*
X82845047Y-23698845D01*
X82815166Y-23732633D01*
X82768606Y-23768732D01*
X82757961Y-23775305D01*
X82700708Y-23815526D01*
X82688680Y-23848980D01*
X82722413Y-23886068D01*
X82765115Y-23914565D01*
X82849533Y-23949374D01*
X82942547Y-23948819D01*
X83056124Y-23912320D01*
X83085934Y-23899003D01*
X83143925Y-23856543D01*
X83255432Y-23856543D01*
X83256766Y-23896869D01*
X83256864Y-23897031D01*
X83290042Y-23908630D01*
X83363684Y-23912339D01*
X83468107Y-23908697D01*
X83593628Y-23898245D01*
X83730562Y-23881521D01*
X83838216Y-23864618D01*
X83942161Y-23843050D01*
X84057171Y-23813648D01*
X84171694Y-23780071D01*
X84274176Y-23745979D01*
X84353062Y-23715032D01*
X84396800Y-23690889D01*
X84400864Y-23686385D01*
X84396295Y-23671131D01*
X84348862Y-23676404D01*
X84331959Y-23680394D01*
X84179092Y-23699439D01*
X84043728Y-23673610D01*
X83936047Y-23615512D01*
X83882212Y-23578881D01*
X83837953Y-23556575D01*
X83789218Y-23546104D01*
X83721953Y-23544977D01*
X83622105Y-23550705D01*
X83584961Y-23553298D01*
X83345973Y-23570097D01*
X83328983Y-23649063D01*
X83303869Y-23732558D01*
X83275878Y-23798694D01*
X83255432Y-23856543D01*
X83143925Y-23856543D01*
X83183581Y-23827508D01*
X83244354Y-23721950D01*
X83267039Y-23584520D01*
X83267172Y-23572316D01*
X83246777Y-23402431D01*
X83189308Y-23243705D01*
X83100714Y-23107893D01*
X82986941Y-23006751D01*
X82978286Y-23001334D01*
X82893437Y-22961082D01*
X82815701Y-22954062D01*
X82734535Y-22982728D01*
X82639395Y-23049532D01*
X82590486Y-23091554D01*
X82466575Y-23215212D01*
X82389697Y-23325865D01*
X82359198Y-23428168D01*
X82314546Y-23428168D01*
X82329983Y-23356886D01*
X82376887Y-23269756D01*
X82458091Y-23163819D01*
X82468256Y-23151762D01*
X82604885Y-22990690D01*
X82527811Y-22982614D01*
X82468971Y-22966321D01*
X82437169Y-22939181D01*
X82409304Y-22912251D01*
X82346991Y-22871488D01*
X82261975Y-22824326D01*
X82231203Y-22808757D01*
X82134341Y-22756869D01*
X82082003Y-22720936D01*
X82073677Y-22703717D01*
X82108851Y-22707973D01*
X82187011Y-22736463D01*
X82240287Y-22759850D01*
X82316635Y-22794147D01*
X82372209Y-22817881D01*
X82393162Y-22825425D01*
X82398897Y-22802668D01*
X82398963Y-22801560D01*
X82567044Y-22801560D01*
X82575327Y-22873975D01*
X82603908Y-22915996D01*
X82638620Y-22922133D01*
X82671371Y-22905499D01*
X82699510Y-22860203D01*
X82704015Y-22847202D01*
X82893851Y-22847202D01*
X82904072Y-22886360D01*
X82939488Y-22921294D01*
X83005795Y-22965265D01*
X83126792Y-23062471D01*
X83218697Y-23186537D01*
X83286560Y-23338603D01*
X83314699Y-23408150D01*
X83339255Y-23452518D01*
X83349352Y-23461061D01*
X83376018Y-23446768D01*
X83434996Y-23407725D01*
X83517908Y-23349680D01*
X83616379Y-23278385D01*
X83629420Y-23268787D01*
X83734489Y-23191412D01*
X83829819Y-23121383D01*
X83905154Y-23066222D01*
X83950242Y-23033451D01*
X83951254Y-23032724D01*
X83991069Y-22995606D01*
X84001905Y-22950533D01*
X83994616Y-22894567D01*
X83966889Y-22811781D01*
X83923741Y-22739468D01*
X83920838Y-22736050D01*
X83864764Y-22671899D01*
X83560266Y-22848852D01*
X83423982Y-22926043D01*
X83324264Y-22978180D01*
X83262409Y-23004833D01*
X83239715Y-23005569D01*
X83257479Y-22979956D01*
X83312153Y-22931527D01*
X83372980Y-22867538D01*
X83392155Y-22813374D01*
X83368763Y-22775180D01*
X83337187Y-22763156D01*
X83283705Y-22751019D01*
X83199424Y-22731312D01*
X83106667Y-22709275D01*
X83019640Y-22690049D01*
X82954261Y-22678630D01*
X82923922Y-22677331D01*
X82923497Y-22677637D01*
X82914039Y-22706762D01*
X82902615Y-22767176D01*
X82899468Y-22788242D01*
X82893851Y-22847202D01*
X82704015Y-22847202D01*
X82728474Y-22776616D01*
X82736330Y-22749149D01*
X82760301Y-22655354D01*
X82777285Y-22574083D01*
X82783291Y-22527018D01*
X82801319Y-22478643D01*
X82810829Y-22472182D01*
X83958620Y-22472182D01*
X83977438Y-22501438D01*
X84026601Y-22531260D01*
X84102014Y-22597262D01*
X84160026Y-22704405D01*
X84196486Y-22844731D01*
X84198950Y-22861470D01*
X84218916Y-22943331D01*
X84249381Y-22975694D01*
X84290006Y-22958393D01*
X84320980Y-22921470D01*
X84347803Y-22851373D01*
X84359268Y-22753003D01*
X84355287Y-22646592D01*
X84335775Y-22552371D01*
X84322701Y-22520859D01*
X84276741Y-22459069D01*
X84212817Y-22428911D01*
X84119401Y-22426382D01*
X84068500Y-22432610D01*
X83988651Y-22450001D01*
X83958620Y-22472182D01*
X82810829Y-22472182D01*
X82859517Y-22439108D01*
X82877674Y-22431089D01*
X82936090Y-22398383D01*
X82947437Y-22372792D01*
X82915433Y-22358831D01*
X82843793Y-22361015D01*
X82822605Y-22364190D01*
X82755338Y-22382089D01*
X82708719Y-22417274D01*
X82664431Y-22484215D01*
X82659534Y-22493016D01*
X82609591Y-22601974D01*
X82578613Y-22707858D01*
X82567044Y-22801560D01*
X82398963Y-22801560D01*
X82402349Y-22745055D01*
X82402802Y-22710194D01*
X82411063Y-22616711D01*
X82431574Y-22528178D01*
X82438273Y-22510070D01*
X82473744Y-22425177D01*
X82388100Y-22444493D01*
X82310755Y-22474504D01*
X82232590Y-22522981D01*
X82222310Y-22531247D01*
X82166303Y-22571485D01*
X82131326Y-22584258D01*
X82124808Y-22569326D01*
X82148038Y-22533647D01*
X82166993Y-22491622D01*
X82150208Y-22458757D01*
X82135370Y-22433437D01*
X82160786Y-22433414D01*
X82173357Y-22436515D01*
X82238842Y-22428340D01*
X82286491Y-22389642D01*
X82381836Y-22389642D01*
X82400348Y-22393149D01*
X82449381Y-22370034D01*
X82457716Y-22365593D01*
X82501071Y-22323859D01*
X82543906Y-22254635D01*
X82577648Y-22176446D01*
X82593724Y-22107823D01*
X82590898Y-22077781D01*
X82555394Y-22043572D01*
X82527209Y-22037237D01*
X82490592Y-22051768D01*
X82479128Y-22102540D01*
X82479079Y-22108137D01*
X82467405Y-22176106D01*
X82438366Y-22257467D01*
X82428228Y-22278779D01*
X82391808Y-22353517D01*
X82381836Y-22389642D01*
X82286491Y-22389642D01*
X82306685Y-22373242D01*
X82372754Y-22274735D01*
X82380083Y-22260722D01*
X82422748Y-22133822D01*
X82418051Y-22020545D01*
X82368839Y-21926461D01*
X82277958Y-21857143D01*
X82154417Y-21819110D01*
X82031190Y-21823739D01*
X81914645Y-21874305D01*
X81809852Y-21965919D01*
X81721877Y-22093692D01*
X81655791Y-22252736D01*
X81638283Y-22316917D01*
X81638158Y-22412626D01*
X81681756Y-22493709D01*
X81762776Y-22554663D01*
X81874914Y-22589984D01*
X81958541Y-22596596D01*
X82016829Y-22602571D01*
X82035639Y-22618403D01*
X82034134Y-22622022D01*
X81993525Y-22643872D01*
X81922797Y-22644528D01*
X81836357Y-22627359D01*
X81748612Y-22595732D01*
X81673968Y-22553016D01*
X81649505Y-22532097D01*
X81601552Y-22450646D01*
X81589750Y-22347090D01*
X81610132Y-22230572D01*
X81658731Y-22110233D01*
X81731581Y-21995217D01*
X81824717Y-21894667D01*
X81934171Y-21817725D01*
X81966187Y-21802105D01*
X82096323Y-21770516D01*
X82225954Y-21785991D01*
X82343571Y-21845946D01*
X82401510Y-21899809D01*
X82475639Y-21964631D01*
X82541381Y-21986386D01*
X82595042Y-22007770D01*
X82624823Y-22066108D01*
X82629195Y-22152677D01*
X82606628Y-22258755D01*
X82594919Y-22291684D01*
X82594541Y-22308170D01*
X82613933Y-22318508D01*
X82660833Y-22323522D01*
X82742981Y-22324035D01*
X82868115Y-22320871D01*
X82869008Y-22320843D01*
X83007106Y-22318169D01*
X83105379Y-22321028D01*
X83174643Y-22330349D01*
X83225714Y-22347061D01*
X83236769Y-22352432D01*
X83328302Y-22380363D01*
X83458204Y-22391791D01*
X83488477Y-22391950D01*
X83661361Y-22390707D01*
X83501773Y-22329295D01*
X83389673Y-22279623D01*
X83271493Y-22217343D01*
X83204191Y-22176287D01*
X83095892Y-22093564D01*
X82981621Y-21988424D01*
X82873844Y-21873983D01*
X82785032Y-21763357D01*
X82733016Y-21680660D01*
X82691487Y-21613023D01*
X82649122Y-21564339D01*
X82638166Y-21556291D01*
X82615107Y-21535727D01*
X82624826Y-21529502D01*
X82635661Y-21509130D01*
X82631303Y-21480340D01*
X82679483Y-21480340D01*
X82774377Y-21650731D01*
X82913165Y-21850122D01*
X83091340Y-22026909D01*
X83300116Y-22174764D01*
X83530705Y-22287360D01*
X83750350Y-22353476D01*
X83888026Y-22371797D01*
X84053597Y-22377213D01*
X84225899Y-22370201D01*
X84383767Y-22351240D01*
X84449549Y-22337705D01*
X84563521Y-22297237D01*
X84696770Y-22230723D01*
X84832333Y-22147782D01*
X84834646Y-22146065D01*
X84974846Y-22146065D01*
X85010405Y-22144941D01*
X85087889Y-22116819D01*
X85180703Y-22073092D01*
X85285869Y-22004216D01*
X85382883Y-21912499D01*
X85462215Y-21809989D01*
X85514336Y-21708729D01*
X85530130Y-21631443D01*
X85525947Y-21593136D01*
X85506762Y-21583459D01*
X85462616Y-21602519D01*
X85412038Y-21632703D01*
X85325743Y-21702032D01*
X85283283Y-21780581D01*
X85275876Y-21842971D01*
X85264660Y-21886835D01*
X85225569Y-21932973D01*
X85150436Y-21990446D01*
X85131180Y-22003551D01*
X85034087Y-22073760D01*
X84982358Y-22121801D01*
X84974846Y-22146065D01*
X84834646Y-22146065D01*
X84953245Y-22058037D01*
X84974001Y-22040272D01*
X85055295Y-21949771D01*
X85156155Y-21949771D01*
X85158750Y-21960961D01*
X85183867Y-21945210D01*
X85210496Y-21921007D01*
X85240546Y-21881020D01*
X85250051Y-21849539D01*
X85236132Y-21841191D01*
X85225161Y-21846462D01*
X85198774Y-21873639D01*
X85172039Y-21914512D01*
X85156155Y-21949771D01*
X85055295Y-21949771D01*
X85095895Y-21904574D01*
X85171216Y-21751179D01*
X85201808Y-21575635D01*
X85201590Y-21490590D01*
X85193147Y-21252576D01*
X85193570Y-21059407D01*
X85203086Y-20905816D01*
X85221920Y-20786536D01*
X85233608Y-20742282D01*
X85261722Y-20644872D01*
X85271436Y-20583220D01*
X85260477Y-20544859D01*
X85226577Y-20517324D01*
X85189190Y-20498388D01*
X85121436Y-20450777D01*
X85087109Y-20395913D01*
X85059319Y-20353123D01*
X85001823Y-20296695D01*
X84929196Y-20237991D01*
X84856016Y-20188369D01*
X84796857Y-20159191D01*
X84778956Y-20155756D01*
X84752680Y-20176903D01*
X84719809Y-20229819D01*
X84709067Y-20252447D01*
X84637975Y-20377234D01*
X84546168Y-20485322D01*
X84441835Y-20571715D01*
X84333165Y-20631418D01*
X84228345Y-20659437D01*
X84135564Y-20650776D01*
X84092562Y-20628516D01*
X84062895Y-20599531D01*
X84056146Y-20561627D01*
X84069492Y-20496100D01*
X84071457Y-20488676D01*
X84099241Y-20384584D01*
X84024826Y-20384584D01*
X83930248Y-20369908D01*
X83870530Y-20328739D01*
X83852052Y-20272454D01*
X83838620Y-20225143D01*
X83789807Y-20200754D01*
X83777820Y-20198116D01*
X83708555Y-20167319D01*
X83683329Y-20115219D01*
X83703207Y-20047700D01*
X83741523Y-19997580D01*
X83813914Y-19920454D01*
X83648648Y-19933129D01*
X83528215Y-19947951D01*
X83398435Y-19972225D01*
X83327962Y-19989588D01*
X83172542Y-20033372D01*
X83159533Y-20304323D01*
X83146637Y-20474188D01*
X83124535Y-20602626D01*
X83090214Y-20698681D01*
X83040667Y-20771398D01*
X82988406Y-20818573D01*
X82890160Y-20895252D01*
X82824403Y-20957714D01*
X82781890Y-21020790D01*
X82753373Y-21099314D01*
X82729606Y-21208118D01*
X82722797Y-21244648D01*
X82679483Y-21480340D01*
X82631303Y-21480340D01*
X82628151Y-21459520D01*
X82607864Y-21396309D01*
X82580368Y-21335135D01*
X82551232Y-21291637D01*
X82536275Y-21280827D01*
X82512786Y-21291862D01*
X82504286Y-21335168D01*
X82509793Y-21394739D01*
X82528329Y-21454567D01*
X82548999Y-21488588D01*
X82593493Y-21541441D01*
X82533535Y-21490590D01*
X82496502Y-21450972D01*
X82482724Y-21404205D01*
X82486572Y-21329842D01*
X82487376Y-21322903D01*
X82491749Y-21250076D01*
X82479873Y-21192458D01*
X82445261Y-21128883D01*
X82413950Y-21083382D01*
X82369728Y-21016008D01*
X82343674Y-20965933D01*
X82340681Y-20946739D01*
X82352746Y-20946731D01*
X82376326Y-20966811D01*
X82416789Y-21012850D01*
X82479502Y-21090717D01*
X82522765Y-21145833D01*
X82543922Y-21165530D01*
X82552833Y-21145925D01*
X82554546Y-21104508D01*
X82546764Y-21022489D01*
X82529946Y-20956699D01*
X82502964Y-20910095D01*
X82458920Y-20896044D01*
X82422468Y-20897837D01*
X82347012Y-20923101D01*
X82300805Y-20983591D01*
X82282125Y-21082759D01*
X82284309Y-21174613D01*
X82322599Y-21350389D01*
X82405546Y-21506904D01*
X82528505Y-21637353D01*
X82657057Y-21720671D01*
X82708793Y-21753133D01*
X82717860Y-21772408D01*
X82691310Y-21775958D01*
X82636196Y-21761245D01*
X82593971Y-21743367D01*
X82495585Y-21676949D01*
X82398047Y-21578064D01*
X82315525Y-21463319D01*
X82264872Y-21357524D01*
X82232727Y-21219545D01*
X82227862Y-21085441D01*
X82250393Y-20972191D01*
X82262022Y-20945762D01*
X82305949Y-20883587D01*
X82365589Y-20851805D01*
X82456964Y-20842285D01*
X82466060Y-20842242D01*
X82515448Y-20839580D01*
X82542721Y-20823147D01*
X82557588Y-20780274D01*
X82568368Y-20708759D01*
X82586713Y-20612543D01*
X82616534Y-20496567D01*
X82645877Y-20402521D01*
X82751760Y-20162416D01*
X82892473Y-19945470D01*
X83020698Y-19801918D01*
X84793566Y-19801918D01*
X84799718Y-19858727D01*
X84811861Y-19886832D01*
X84831067Y-19889415D01*
X84838892Y-19859560D01*
X84834845Y-19823374D01*
X84894494Y-19823374D01*
X84906105Y-19869798D01*
X84933722Y-19928054D01*
X84966519Y-19978877D01*
X84993674Y-20003000D01*
X84995526Y-20003203D01*
X85005090Y-19982496D01*
X84993222Y-19929330D01*
X84992900Y-19928403D01*
X84966341Y-19871514D01*
X84934809Y-19827595D01*
X84907767Y-19806746D01*
X84894678Y-19819065D01*
X84894494Y-19823374D01*
X84834845Y-19823374D01*
X84833874Y-19814702D01*
X84820701Y-19781529D01*
X84801600Y-19755048D01*
X84794551Y-19772138D01*
X84793566Y-19801918D01*
X83020698Y-19801918D01*
X83062433Y-19755195D01*
X83256059Y-19595101D01*
X83467768Y-19468698D01*
X83691980Y-19379496D01*
X83923112Y-19331007D01*
X84155583Y-19326739D01*
X84316293Y-19351985D01*
%TD*%
D11*
%TO.C,REF\u002A\u002A*%
X120350000Y-22700000D03*
X117810000Y-22700000D03*
X115270000Y-22700000D03*
X112730000Y-22700000D03*
X110190000Y-22700000D03*
D12*
X107650000Y-22700000D03*
%TD*%
D11*
%TO.C,REF\u002A\u002A*%
X120350000Y-166700000D03*
X117810000Y-166700000D03*
X115270000Y-166700000D03*
X112730000Y-166700000D03*
X110190000Y-166700000D03*
D12*
X107650000Y-166700000D03*
%TD*%
D13*
%TO.C,C1*%
X116400000Y-145200000D03*
D14*
X114400000Y-145200000D03*
%TD*%
%TO.C,C2*%
X123400000Y-145200000D03*
D13*
X125400000Y-145200000D03*
%TD*%
%TO.C,C3*%
X118150000Y-37450000D03*
X123150000Y-37450000D03*
%TD*%
%TO.C,C4*%
X111400000Y-137200000D03*
D15*
X118900000Y-137200000D03*
%TD*%
%TO.C,C5*%
X128900000Y-137200000D03*
D13*
X121400000Y-137200000D03*
%TD*%
%TO.C,C6*%
X133900000Y-70200000D03*
X128900000Y-70200000D03*
%TD*%
%TO.C,C7*%
X133900000Y-78200000D03*
X128900000Y-78200000D03*
%TD*%
%TO.C,C8*%
X112650000Y-32700000D03*
X107650000Y-32700000D03*
%TD*%
D15*
%TO.C,C9*%
X118900000Y-133200000D03*
D13*
X111400000Y-133200000D03*
%TD*%
%TO.C,C10*%
X121400000Y-133200000D03*
D15*
X128900000Y-133200000D03*
%TD*%
D13*
%TO.C,C11*%
X119400000Y-66450000D03*
X119400000Y-61450000D03*
%TD*%
%TO.C,C12*%
X103400000Y-49450000D03*
X108400000Y-49450000D03*
%TD*%
D16*
%TO.C,Q1*%
X98900000Y-109680000D03*
X98900000Y-108410000D03*
D17*
X98900000Y-110950000D03*
%TD*%
D16*
%TO.C,Q2*%
X115400000Y-115430000D03*
X115400000Y-114160000D03*
D17*
X115400000Y-116700000D03*
%TD*%
D15*
%TO.C,R7*%
X135270000Y-74200000D03*
D13*
X127650000Y-74200000D03*
%TD*%
%TO.C,R4*%
X129150000Y-46200000D03*
D15*
X136770000Y-46200000D03*
%TD*%
%TO.C,R12*%
X107900000Y-75320000D03*
D13*
X107900000Y-67700000D03*
%TD*%
D15*
%TO.C,R21*%
X123270000Y-90200000D03*
D13*
X115650000Y-90200000D03*
%TD*%
%TO.C,R23*%
X135400000Y-105700000D03*
D15*
X127780000Y-105700000D03*
%TD*%
D14*
%TO.C,D2*%
X138650000Y-90450000D03*
D15*
X138650000Y-98070000D03*
%TD*%
D18*
%TO.C,J6*%
X98474000Y-178152000D03*
X107110000Y-186280000D03*
X103808000Y-174215000D03*
X110666000Y-180184000D03*
D19*
X99998000Y-185264000D03*
%TD*%
D15*
%TO.C,R1*%
X106400000Y-157820000D03*
D13*
X106400000Y-150200000D03*
%TD*%
D15*
%TO.C,R13*%
X100780000Y-53450000D03*
D13*
X108400000Y-53450000D03*
%TD*%
%TO.C,C13*%
X127900000Y-94200000D03*
X132900000Y-94200000D03*
%TD*%
D18*
%TO.C,J7*%
X126224000Y-178152000D03*
X134860000Y-186280000D03*
X131558000Y-174215000D03*
X138416000Y-180184000D03*
D19*
X127748000Y-185264000D03*
%TD*%
D15*
%TO.C,R15*%
X136770000Y-42200000D03*
D13*
X129150000Y-42200000D03*
%TD*%
%TO.C,R17*%
X115900000Y-28700000D03*
D15*
X123520000Y-28700000D03*
%TD*%
%TO.C,R18*%
X100150000Y-44820000D03*
D13*
X100150000Y-37200000D03*
%TD*%
%TO.C,R19*%
X99900000Y-75200000D03*
D15*
X99900000Y-67580000D03*
%TD*%
%TO.C,R35*%
X100280000Y-99200000D03*
D13*
X107900000Y-99200000D03*
%TD*%
D12*
%TO.C,J1*%
X124840000Y-157700000D03*
D11*
X124840000Y-155160000D03*
X122300000Y-157700000D03*
X122300000Y-155160000D03*
X119760000Y-157700000D03*
X119760000Y-155160000D03*
X117220000Y-157700000D03*
X117220000Y-155160000D03*
X114680000Y-157700000D03*
X114680000Y-155160000D03*
%TD*%
D20*
%TO.C,RV1*%
X133150000Y-36030000D03*
X135690000Y-33490000D03*
X133150000Y-30950000D03*
%TD*%
D19*
%TO.C,J5*%
X72248000Y-148764000D03*
D18*
X82916000Y-143684000D03*
X76058000Y-137715000D03*
X79360000Y-149780000D03*
X70724000Y-141652000D03*
%TD*%
%TO.C,J4*%
X70724000Y-105152000D03*
X79360000Y-113280000D03*
X76058000Y-101215000D03*
X82916000Y-107184000D03*
D19*
X72248000Y-112264000D03*
%TD*%
D17*
%TO.C,Q3*%
X106150000Y-108450000D03*
D16*
X106150000Y-110990000D03*
X106150000Y-109720000D03*
%TD*%
D13*
%TO.C,R20*%
X103900000Y-75200000D03*
D15*
X103900000Y-67580000D03*
%TD*%
D18*
%TO.C,J8*%
X70724000Y-178152000D03*
X79360000Y-186280000D03*
X76058000Y-174215000D03*
X82916000Y-180184000D03*
D19*
X72248000Y-185264000D03*
%TD*%
D14*
%TO.C,D1*%
X115650000Y-85700000D03*
D15*
X123270000Y-85700000D03*
%TD*%
D19*
%TO.C,J3*%
X72248000Y-75764000D03*
D18*
X82916000Y-70684000D03*
X76058000Y-64715000D03*
X79360000Y-76780000D03*
X70724000Y-68652000D03*
%TD*%
D15*
%TO.C,R6*%
X136770000Y-50200000D03*
D13*
X129150000Y-50200000D03*
%TD*%
D15*
%TO.C,R8*%
X108150000Y-37200000D03*
D13*
X108150000Y-44820000D03*
%TD*%
%TO.C,C14*%
X124600000Y-115200000D03*
X119600000Y-115200000D03*
%TD*%
D19*
%TO.C,J2*%
X72248000Y-39264000D03*
D18*
X82916000Y-34184000D03*
X76058000Y-28215000D03*
X79360000Y-40280000D03*
X70724000Y-32152000D03*
%TD*%
D15*
%TO.C,R2*%
X133400000Y-157820000D03*
D13*
X133400000Y-150200000D03*
%TD*%
D15*
%TO.C,R9*%
X127780000Y-82200000D03*
D13*
X135400000Y-82200000D03*
%TD*%
%TO.C,R14*%
X108400000Y-58450000D03*
D15*
X100780000Y-58450000D03*
%TD*%
%TO.C,D3*%
X127900000Y-117820000D03*
D14*
X127900000Y-110200000D03*
%TD*%
D21*
%TO.C,D4*%
X91600000Y-132100000D03*
D22*
X91600000Y-129560000D03*
%TD*%
D13*
%TO.C,R5*%
X115900000Y-32700000D03*
D15*
X123520000Y-32700000D03*
%TD*%
D13*
%TO.C,R3*%
X115650000Y-81450000D03*
D15*
X123270000Y-81450000D03*
%TD*%
%TO.C,R10*%
X104150000Y-44820000D03*
D13*
X104150000Y-37200000D03*
%TD*%
%TO.C,R11*%
X129150000Y-54200000D03*
D15*
X136770000Y-54200000D03*
%TD*%
%TO.C,R16*%
X100780000Y-63450000D03*
D13*
X108400000Y-63450000D03*
%TD*%
%TO.C,R22*%
X134150000Y-90200000D03*
D15*
X126530000Y-90200000D03*
%TD*%
%TO.C,R24*%
X127780000Y-102200000D03*
D13*
X135400000Y-102200000D03*
%TD*%
%TO.C,R25*%
X127650000Y-97950000D03*
D15*
X135270000Y-97950000D03*
%TD*%
%TO.C,R26*%
X108020000Y-83950000D03*
D13*
X100400000Y-83950000D03*
%TD*%
%TO.C,R27*%
X108150000Y-80450000D03*
D15*
X100530000Y-80450000D03*
%TD*%
D13*
%TO.C,R29*%
X95650000Y-122450000D03*
D15*
X95650000Y-114830000D03*
%TD*%
%TO.C,R30*%
X107770000Y-123450000D03*
D13*
X100150000Y-123450000D03*
%TD*%
%TO.C,R31*%
X107900000Y-95200000D03*
D15*
X100280000Y-95200000D03*
%TD*%
%TO.C,R28*%
X108020000Y-91450000D03*
D13*
X100400000Y-91450000D03*
%TD*%
%TO.C,R32*%
X107650000Y-118950000D03*
D15*
X100030000Y-118950000D03*
%TD*%
D13*
%TO.C,R33*%
X100650000Y-134200000D03*
D15*
X108270000Y-134200000D03*
%TD*%
%TO.C,R34*%
X107770000Y-115200000D03*
D13*
X100150000Y-115200000D03*
%TD*%
%TO.C,R36*%
X100400000Y-87700000D03*
D15*
X108020000Y-87700000D03*
%TD*%
D20*
%TO.C,R37*%
X90900000Y-118780000D03*
X90900000Y-116240000D03*
X90900000Y-113700000D03*
%TD*%
D23*
%TO.C,U1*%
X115400000Y-42450000D03*
D24*
X123020000Y-57690000D03*
X115400000Y-44990000D03*
X123020000Y-55150000D03*
X115400000Y-47530000D03*
X123020000Y-52610000D03*
X115400000Y-50070000D03*
X123020000Y-50070000D03*
X115400000Y-52610000D03*
X123020000Y-47530000D03*
X115400000Y-55150000D03*
X123020000Y-44990000D03*
X115400000Y-57690000D03*
X123020000Y-42450000D03*
%TD*%
%TO.C,U2*%
X115530000Y-77450000D03*
X123150000Y-69830000D03*
X115530000Y-74910000D03*
X123150000Y-72370000D03*
X115530000Y-72370000D03*
X123150000Y-74910000D03*
X115530000Y-69830000D03*
D23*
X123150000Y-77450000D03*
%TD*%
D24*
%TO.C,U3*%
X123020000Y-95200000D03*
X115400000Y-110440000D03*
X123020000Y-97740000D03*
X115400000Y-107900000D03*
X123020000Y-100280000D03*
X115400000Y-105360000D03*
X123020000Y-102820000D03*
X115400000Y-102820000D03*
X123020000Y-105360000D03*
X115400000Y-100280000D03*
X123020000Y-107900000D03*
X115400000Y-97740000D03*
X123020000Y-110440000D03*
D23*
X115400000Y-95200000D03*
%TD*%
%TO.C,U4*%
X123150000Y-127950000D03*
D24*
X115530000Y-120330000D03*
X123150000Y-125410000D03*
X115530000Y-122870000D03*
X123150000Y-122870000D03*
X115530000Y-125410000D03*
X123150000Y-120330000D03*
X115530000Y-127950000D03*
%TD*%
M02*
