%TF.GenerationSoftware,KiCad,Pcbnew,(5.1.6)-1*%
%TF.CreationDate,2020-06-22T20:03:53-05:00*%
%TF.ProjectId,NOISE_x_S_and_H,4e4f4953-455f-4785-9f53-5f616e645f48,rev?*%
%TF.SameCoordinates,Original*%
%TF.FileFunction,Soldermask,Top*%
%TF.FilePolarity,Negative*%
%FSLAX46Y46*%
G04 Gerber Fmt 4.6, Leading zero omitted, Abs format (unit mm)*
G04 Created by KiCad (PCBNEW (5.1.6)-1) date 2020-06-22 20:03:53*
%MOMM*%
%LPD*%
G01*
G04 APERTURE LIST*
%ADD10C,0.010000*%
%ADD11O,1.800000X1.800000*%
%ADD12R,1.800000X1.800000*%
%ADD13C,1.700000*%
%ADD14R,1.700000X1.700000*%
%ADD15O,1.700000X1.700000*%
%ADD16O,1.600000X1.150000*%
%ADD17R,1.600000X1.150000*%
%ADD18C,4.600000*%
%ADD19R,4.600000X4.600000*%
%ADD20C,1.540000*%
%ADD21R,1.900000X1.900000*%
%ADD22C,1.900000*%
%ADD23R,2.500000X1.700000*%
%ADD24O,2.500000X1.700000*%
G04 APERTURE END LIST*
D10*
%TO.C,G\u002A\u002A\u002A*%
G36*
X89433320Y-160175290D02*
G01*
X89469528Y-160230618D01*
X89504800Y-160317579D01*
X89537209Y-160425740D01*
X89564827Y-160544666D01*
X89585728Y-160663925D01*
X89597984Y-160773082D01*
X89599668Y-160861705D01*
X89588852Y-160919358D01*
X89573733Y-160935441D01*
X89482433Y-160960742D01*
X89423901Y-160964037D01*
X89383904Y-160942727D01*
X89348254Y-160894291D01*
X89306551Y-160804601D01*
X89272236Y-160691221D01*
X89246766Y-160566140D01*
X89231599Y-160441346D01*
X89228193Y-160328830D01*
X89238006Y-160240579D01*
X89262441Y-160188634D01*
X89326384Y-160154419D01*
X89394380Y-160153743D01*
X89433320Y-160175290D01*
G37*
X89433320Y-160175290D02*
X89469528Y-160230618D01*
X89504800Y-160317579D01*
X89537209Y-160425740D01*
X89564827Y-160544666D01*
X89585728Y-160663925D01*
X89597984Y-160773082D01*
X89599668Y-160861705D01*
X89588852Y-160919358D01*
X89573733Y-160935441D01*
X89482433Y-160960742D01*
X89423901Y-160964037D01*
X89383904Y-160942727D01*
X89348254Y-160894291D01*
X89306551Y-160804601D01*
X89272236Y-160691221D01*
X89246766Y-160566140D01*
X89231599Y-160441346D01*
X89228193Y-160328830D01*
X89238006Y-160240579D01*
X89262441Y-160188634D01*
X89326384Y-160154419D01*
X89394380Y-160153743D01*
X89433320Y-160175290D01*
G36*
X88848116Y-160275493D02*
G01*
X88900109Y-160321471D01*
X88941237Y-160404907D01*
X88977017Y-160512098D01*
X89005989Y-160632500D01*
X89026696Y-160755574D01*
X89037679Y-160870776D01*
X89037480Y-160967565D01*
X89024639Y-161035399D01*
X89002625Y-161062445D01*
X88904523Y-161080940D01*
X88825075Y-161057423D01*
X88776540Y-161002886D01*
X88729115Y-160888995D01*
X88693596Y-160760009D01*
X88671121Y-160627510D01*
X88662831Y-160503077D01*
X88669867Y-160398289D01*
X88693369Y-160324725D01*
X88707958Y-160306343D01*
X88778557Y-160268761D01*
X88848116Y-160275493D01*
G37*
X88848116Y-160275493D02*
X88900109Y-160321471D01*
X88941237Y-160404907D01*
X88977017Y-160512098D01*
X89005989Y-160632500D01*
X89026696Y-160755574D01*
X89037679Y-160870776D01*
X89037480Y-160967565D01*
X89024639Y-161035399D01*
X89002625Y-161062445D01*
X88904523Y-161080940D01*
X88825075Y-161057423D01*
X88776540Y-161002886D01*
X88729115Y-160888995D01*
X88693596Y-160760009D01*
X88671121Y-160627510D01*
X88662831Y-160503077D01*
X88669867Y-160398289D01*
X88693369Y-160324725D01*
X88707958Y-160306343D01*
X88778557Y-160268761D01*
X88848116Y-160275493D01*
G36*
X89699813Y-161107243D02*
G01*
X89676190Y-161158429D01*
X89633672Y-161219749D01*
X89566157Y-161298655D01*
X89486298Y-161382196D01*
X89406750Y-161457419D01*
X89340166Y-161511373D01*
X89317775Y-161525278D01*
X89215056Y-161554868D01*
X89091413Y-161555763D01*
X88967446Y-161528617D01*
X88928428Y-161512906D01*
X88874073Y-161481890D01*
X88814501Y-161439408D01*
X88760391Y-161394591D01*
X88722423Y-161356568D01*
X88711276Y-161334469D01*
X88716978Y-161332132D01*
X88744391Y-161343092D01*
X88804820Y-161372130D01*
X88886365Y-161413484D01*
X88905745Y-161423552D01*
X89008086Y-161473143D01*
X89083528Y-161498735D01*
X89147343Y-161504749D01*
X89177278Y-161502120D01*
X89285483Y-161467347D01*
X89397759Y-161389881D01*
X89517636Y-161267020D01*
X89572266Y-161199730D01*
X89634276Y-161126183D01*
X89678929Y-161085170D01*
X89702137Y-161078315D01*
X89699813Y-161107243D01*
G37*
X89699813Y-161107243D02*
X89676190Y-161158429D01*
X89633672Y-161219749D01*
X89566157Y-161298655D01*
X89486298Y-161382196D01*
X89406750Y-161457419D01*
X89340166Y-161511373D01*
X89317775Y-161525278D01*
X89215056Y-161554868D01*
X89091413Y-161555763D01*
X88967446Y-161528617D01*
X88928428Y-161512906D01*
X88874073Y-161481890D01*
X88814501Y-161439408D01*
X88760391Y-161394591D01*
X88722423Y-161356568D01*
X88711276Y-161334469D01*
X88716978Y-161332132D01*
X88744391Y-161343092D01*
X88804820Y-161372130D01*
X88886365Y-161413484D01*
X88905745Y-161423552D01*
X89008086Y-161473143D01*
X89083528Y-161498735D01*
X89147343Y-161504749D01*
X89177278Y-161502120D01*
X89285483Y-161467347D01*
X89397759Y-161389881D01*
X89517636Y-161267020D01*
X89572266Y-161199730D01*
X89634276Y-161126183D01*
X89678929Y-161085170D01*
X89702137Y-161078315D01*
X89699813Y-161107243D01*
G36*
X91484853Y-160351821D02*
G01*
X91487835Y-160352079D01*
X91622655Y-160370440D01*
X91766011Y-160401133D01*
X91909259Y-160440984D01*
X92043760Y-160486818D01*
X92160871Y-160535463D01*
X92251950Y-160583743D01*
X92308355Y-160628485D01*
X92322722Y-160658724D01*
X92319278Y-160690793D01*
X92316366Y-160693767D01*
X92292770Y-160680644D01*
X92238256Y-160649498D01*
X92182883Y-160617605D01*
X91978260Y-160523315D01*
X91732268Y-160452089D01*
X91507034Y-160412425D01*
X91386138Y-160392975D01*
X91311191Y-160374339D01*
X91282890Y-160358711D01*
X91301935Y-160348285D01*
X91369023Y-160345257D01*
X91484853Y-160351821D01*
G37*
X91484853Y-160351821D02*
X91487835Y-160352079D01*
X91622655Y-160370440D01*
X91766011Y-160401133D01*
X91909259Y-160440984D01*
X92043760Y-160486818D01*
X92160871Y-160535463D01*
X92251950Y-160583743D01*
X92308355Y-160628485D01*
X92322722Y-160658724D01*
X92319278Y-160690793D01*
X92316366Y-160693767D01*
X92292770Y-160680644D01*
X92238256Y-160649498D01*
X92182883Y-160617605D01*
X91978260Y-160523315D01*
X91732268Y-160452089D01*
X91507034Y-160412425D01*
X91386138Y-160392975D01*
X91311191Y-160374339D01*
X91282890Y-160358711D01*
X91301935Y-160348285D01*
X91369023Y-160345257D01*
X91484853Y-160351821D01*
G36*
X92446903Y-160768921D02*
G01*
X92473097Y-160819776D01*
X92491735Y-160879112D01*
X92494632Y-160926130D01*
X92493375Y-160930389D01*
X92477206Y-160931284D01*
X92451154Y-160892682D01*
X92439975Y-160868935D01*
X92410526Y-160797828D01*
X92400989Y-160761457D01*
X92409636Y-160748540D01*
X92421339Y-160747347D01*
X92446903Y-160768921D01*
G37*
X92446903Y-160768921D02*
X92473097Y-160819776D01*
X92491735Y-160879112D01*
X92494632Y-160926130D01*
X92493375Y-160930389D01*
X92477206Y-160931284D01*
X92451154Y-160892682D01*
X92439975Y-160868935D01*
X92410526Y-160797828D01*
X92400989Y-160761457D01*
X92409636Y-160748540D01*
X92421339Y-160747347D01*
X92446903Y-160768921D01*
G36*
X76639343Y-160829032D02*
G01*
X76733175Y-160833845D01*
X76773270Y-160836911D01*
X76878471Y-160846483D01*
X76942903Y-160856147D01*
X76976524Y-160869536D01*
X76989293Y-160890285D01*
X76991191Y-160916436D01*
X76971283Y-161033507D01*
X76917388Y-161132129D01*
X76838252Y-161203603D01*
X76742618Y-161239230D01*
X76668219Y-161237756D01*
X76618467Y-161212009D01*
X76600108Y-161184325D01*
X76577204Y-161093668D01*
X76557580Y-160999280D01*
X76543612Y-160915102D01*
X76537675Y-160855072D01*
X76540360Y-160833747D01*
X76570864Y-160828942D01*
X76639343Y-160829032D01*
G37*
X76639343Y-160829032D02*
X76733175Y-160833845D01*
X76773270Y-160836911D01*
X76878471Y-160846483D01*
X76942903Y-160856147D01*
X76976524Y-160869536D01*
X76989293Y-160890285D01*
X76991191Y-160916436D01*
X76971283Y-161033507D01*
X76917388Y-161132129D01*
X76838252Y-161203603D01*
X76742618Y-161239230D01*
X76668219Y-161237756D01*
X76618467Y-161212009D01*
X76600108Y-161184325D01*
X76577204Y-161093668D01*
X76557580Y-160999280D01*
X76543612Y-160915102D01*
X76537675Y-160855072D01*
X76540360Y-160833747D01*
X76570864Y-160828942D01*
X76639343Y-160829032D01*
G36*
X76237521Y-160786793D02*
G01*
X76247968Y-160833410D01*
X76253007Y-160919451D01*
X76253853Y-161000101D01*
X76251862Y-161101924D01*
X76246535Y-161182462D01*
X76238839Y-161229692D01*
X76234784Y-161236915D01*
X76199665Y-161239394D01*
X76135077Y-161234064D01*
X76110956Y-161230788D01*
X75987463Y-161195334D01*
X75894668Y-161133456D01*
X75844758Y-161059145D01*
X75832211Y-161014314D01*
X76025025Y-161014314D01*
X76037737Y-161027027D01*
X76050450Y-161014314D01*
X76037737Y-161001601D01*
X76025025Y-161014314D01*
X75832211Y-161014314D01*
X75824057Y-160985180D01*
X75832130Y-160931372D01*
X75875167Y-160889266D01*
X75959360Y-160850408D01*
X76010908Y-160832204D01*
X76101968Y-160803006D01*
X76176319Y-160781800D01*
X76218971Y-160772834D01*
X76220668Y-160772773D01*
X76237521Y-160786793D01*
G37*
X76237521Y-160786793D02*
X76247968Y-160833410D01*
X76253007Y-160919451D01*
X76253853Y-161000101D01*
X76251862Y-161101924D01*
X76246535Y-161182462D01*
X76238839Y-161229692D01*
X76234784Y-161236915D01*
X76199665Y-161239394D01*
X76135077Y-161234064D01*
X76110956Y-161230788D01*
X75987463Y-161195334D01*
X75894668Y-161133456D01*
X75844758Y-161059145D01*
X75832211Y-161014314D01*
X76025025Y-161014314D01*
X76037737Y-161027027D01*
X76050450Y-161014314D01*
X76037737Y-161001601D01*
X76025025Y-161014314D01*
X75832211Y-161014314D01*
X75824057Y-160985180D01*
X75832130Y-160931372D01*
X75875167Y-160889266D01*
X75959360Y-160850408D01*
X76010908Y-160832204D01*
X76101968Y-160803006D01*
X76176319Y-160781800D01*
X76218971Y-160772834D01*
X76220668Y-160772773D01*
X76237521Y-160786793D01*
G36*
X90989084Y-161760111D02*
G01*
X90927264Y-161824272D01*
X90892396Y-161856521D01*
X90877080Y-161862440D01*
X90873918Y-161847611D01*
X90873931Y-161846997D01*
X90892412Y-161821693D01*
X90939460Y-161776913D01*
X90981989Y-161741042D01*
X91089589Y-161654157D01*
X90989084Y-161760111D01*
G37*
X90989084Y-161760111D02*
X90927264Y-161824272D01*
X90892396Y-161856521D01*
X90877080Y-161862440D01*
X90873918Y-161847611D01*
X90873931Y-161846997D01*
X90892412Y-161821693D01*
X90939460Y-161776913D01*
X90981989Y-161741042D01*
X91089589Y-161654157D01*
X90989084Y-161760111D01*
G36*
X92547163Y-161150268D02*
G01*
X92541829Y-161217134D01*
X92507019Y-161359719D01*
X92439507Y-161523094D01*
X92345143Y-161694886D01*
X92248035Y-161838497D01*
X92167292Y-161939133D01*
X92066406Y-162052191D01*
X91951733Y-162171813D01*
X91829627Y-162292147D01*
X91706442Y-162407337D01*
X91588532Y-162511528D01*
X91482252Y-162598866D01*
X91393956Y-162663497D01*
X91329998Y-162699564D01*
X91307481Y-162705105D01*
X91281285Y-162698044D01*
X91280280Y-162695447D01*
X91299031Y-162676618D01*
X91348452Y-162635984D01*
X91418298Y-162581933D01*
X91426476Y-162575763D01*
X91533773Y-162488747D01*
X91660145Y-162376446D01*
X91795099Y-162249158D01*
X91928142Y-162117183D01*
X92048782Y-161990818D01*
X92146524Y-161880362D01*
X92188250Y-161828097D01*
X92311291Y-161644958D01*
X92408030Y-161460793D01*
X92471298Y-161289550D01*
X92477637Y-161265106D01*
X92503272Y-161175592D01*
X92525573Y-161124994D01*
X92541286Y-161115743D01*
X92547163Y-161150268D01*
G37*
X92547163Y-161150268D02*
X92541829Y-161217134D01*
X92507019Y-161359719D01*
X92439507Y-161523094D01*
X92345143Y-161694886D01*
X92248035Y-161838497D01*
X92167292Y-161939133D01*
X92066406Y-162052191D01*
X91951733Y-162171813D01*
X91829627Y-162292147D01*
X91706442Y-162407337D01*
X91588532Y-162511528D01*
X91482252Y-162598866D01*
X91393956Y-162663497D01*
X91329998Y-162699564D01*
X91307481Y-162705105D01*
X91281285Y-162698044D01*
X91280280Y-162695447D01*
X91299031Y-162676618D01*
X91348452Y-162635984D01*
X91418298Y-162581933D01*
X91426476Y-162575763D01*
X91533773Y-162488747D01*
X91660145Y-162376446D01*
X91795099Y-162249158D01*
X91928142Y-162117183D01*
X92048782Y-161990818D01*
X92146524Y-161880362D01*
X92188250Y-161828097D01*
X92311291Y-161644958D01*
X92408030Y-161460793D01*
X92471298Y-161289550D01*
X92477637Y-161265106D01*
X92503272Y-161175592D01*
X92525573Y-161124994D01*
X92541286Y-161115743D01*
X92547163Y-161150268D01*
G36*
X86916636Y-161026385D02*
G01*
X86922140Y-161053195D01*
X86905002Y-161063382D01*
X86538380Y-161207346D01*
X86204594Y-161370560D01*
X85905969Y-161550910D01*
X85644827Y-161746283D01*
X85423491Y-161954566D01*
X85244284Y-162173645D01*
X85109529Y-162401408D01*
X85021550Y-162635740D01*
X84988534Y-162806807D01*
X84984857Y-162946494D01*
X85001693Y-163091344D01*
X85035888Y-163214978D01*
X85037930Y-163219970D01*
X85043585Y-163257067D01*
X85024329Y-163262573D01*
X84993040Y-163238921D01*
X84971452Y-163207405D01*
X84945655Y-163126417D01*
X84931446Y-163011689D01*
X84929136Y-162879066D01*
X84939034Y-162744392D01*
X84960148Y-162628508D01*
X85039858Y-162410369D01*
X85165792Y-162190272D01*
X85333793Y-161973151D01*
X85539702Y-161763943D01*
X85779364Y-161567581D01*
X85956510Y-161445816D01*
X86077753Y-161372876D01*
X86213502Y-161298846D01*
X86356010Y-161227110D01*
X86497535Y-161161050D01*
X86630330Y-161104051D01*
X86746650Y-161059496D01*
X86838752Y-161030767D01*
X86898891Y-161021248D01*
X86916636Y-161026385D01*
G37*
X86916636Y-161026385D02*
X86922140Y-161053195D01*
X86905002Y-161063382D01*
X86538380Y-161207346D01*
X86204594Y-161370560D01*
X85905969Y-161550910D01*
X85644827Y-161746283D01*
X85423491Y-161954566D01*
X85244284Y-162173645D01*
X85109529Y-162401408D01*
X85021550Y-162635740D01*
X84988534Y-162806807D01*
X84984857Y-162946494D01*
X85001693Y-163091344D01*
X85035888Y-163214978D01*
X85037930Y-163219970D01*
X85043585Y-163257067D01*
X85024329Y-163262573D01*
X84993040Y-163238921D01*
X84971452Y-163207405D01*
X84945655Y-163126417D01*
X84931446Y-163011689D01*
X84929136Y-162879066D01*
X84939034Y-162744392D01*
X84960148Y-162628508D01*
X85039858Y-162410369D01*
X85165792Y-162190272D01*
X85333793Y-161973151D01*
X85539702Y-161763943D01*
X85779364Y-161567581D01*
X85956510Y-161445816D01*
X86077753Y-161372876D01*
X86213502Y-161298846D01*
X86356010Y-161227110D01*
X86497535Y-161161050D01*
X86630330Y-161104051D01*
X86746650Y-161059496D01*
X86838752Y-161030767D01*
X86898891Y-161021248D01*
X86916636Y-161026385D01*
G36*
X86395071Y-162341428D02*
G01*
X86577435Y-162397412D01*
X86734108Y-162495769D01*
X86791036Y-162548951D01*
X86850630Y-162617244D01*
X86882510Y-162677567D01*
X86897179Y-162753903D01*
X86900971Y-162799979D01*
X86903193Y-162893076D01*
X86890304Y-162961600D01*
X86856016Y-163031059D01*
X86836121Y-163062918D01*
X86711423Y-163213573D01*
X86549237Y-163343984D01*
X86359624Y-163450657D01*
X86152646Y-163530100D01*
X85938362Y-163578820D01*
X85726835Y-163593323D01*
X85528125Y-163570116D01*
X85444510Y-163546068D01*
X85305305Y-163497142D01*
X85305305Y-163569839D01*
X85328254Y-163704641D01*
X85393973Y-163818874D01*
X85497773Y-163910224D01*
X85634964Y-163976379D01*
X85800856Y-164015025D01*
X85990759Y-164023848D01*
X86184255Y-164003359D01*
X86338351Y-163962267D01*
X86506490Y-163894044D01*
X86671701Y-163807390D01*
X86817015Y-163711004D01*
X86907851Y-163632414D01*
X86968445Y-163568346D01*
X87002440Y-163518988D01*
X87017507Y-163464996D01*
X87021318Y-163387025D01*
X87021409Y-163346053D01*
X87018021Y-163250980D01*
X87009288Y-163171244D01*
X86998289Y-163127511D01*
X86987901Y-163092523D01*
X87010445Y-163090979D01*
X87011113Y-163091195D01*
X87039926Y-163120744D01*
X87070987Y-163181790D01*
X87082684Y-163214006D01*
X87101151Y-163351420D01*
X87073300Y-163492281D01*
X87002908Y-163622963D01*
X86932829Y-163695739D01*
X86827996Y-163777564D01*
X86701395Y-163859974D01*
X86566014Y-163934507D01*
X86436736Y-163991976D01*
X86333144Y-164026947D01*
X86232391Y-164049298D01*
X86115592Y-164062265D01*
X85991791Y-164068259D01*
X85873549Y-164069901D01*
X85768515Y-164067484D01*
X85690781Y-164061535D01*
X85661096Y-164055873D01*
X85496983Y-163981464D01*
X85373347Y-163880638D01*
X85292371Y-163756019D01*
X85256239Y-163610232D01*
X85254454Y-163566885D01*
X85233089Y-163453285D01*
X85199253Y-163391145D01*
X85154061Y-163289279D01*
X85149490Y-163212515D01*
X85211359Y-163212515D01*
X85243994Y-163324103D01*
X85322092Y-163413559D01*
X85446086Y-163481906D01*
X85530285Y-163509845D01*
X85640512Y-163527180D01*
X85780618Y-163530181D01*
X85931900Y-163519534D01*
X86075654Y-163495923D01*
X86105533Y-163488770D01*
X86271165Y-163431551D01*
X86433554Y-163348998D01*
X86581567Y-163248878D01*
X86704073Y-163138954D01*
X86789940Y-163026994D01*
X86803170Y-163002115D01*
X86849737Y-162875149D01*
X86853348Y-162766973D01*
X86812830Y-162667398D01*
X86756491Y-162596182D01*
X86656725Y-162489229D01*
X86624922Y-162615532D01*
X86569303Y-162741705D01*
X86470785Y-162864015D01*
X86337145Y-162974371D01*
X86207583Y-163049883D01*
X86065529Y-163102327D01*
X85907786Y-163132389D01*
X85749963Y-163139182D01*
X85607667Y-163121821D01*
X85514110Y-163089242D01*
X85436051Y-163044585D01*
X85391517Y-163000098D01*
X85366548Y-162937757D01*
X85355087Y-162883946D01*
X85338383Y-162794094D01*
X85280752Y-162918854D01*
X85223755Y-163077773D01*
X85211359Y-163212515D01*
X85149490Y-163212515D01*
X85146668Y-163165127D01*
X85174641Y-163027503D01*
X85235547Y-162885220D01*
X85326953Y-162747092D01*
X85387097Y-162679679D01*
X85762963Y-162679679D01*
X85783447Y-162702484D01*
X85799600Y-162705105D01*
X85842888Y-162689609D01*
X85851952Y-162679679D01*
X85844167Y-162659667D01*
X85815314Y-162654254D01*
X85773191Y-162664627D01*
X85762963Y-162679679D01*
X85387097Y-162679679D01*
X85399514Y-162665762D01*
X85470708Y-162607484D01*
X85737537Y-162607484D01*
X85754386Y-162628370D01*
X85794356Y-162620700D01*
X85841581Y-162588565D01*
X85851952Y-162577978D01*
X85880408Y-162541229D01*
X85882514Y-162527127D01*
X85841321Y-162538340D01*
X85789443Y-162564039D01*
X85748365Y-162592315D01*
X85737537Y-162607484D01*
X85470708Y-162607484D01*
X85581106Y-162517115D01*
X85786770Y-162411892D01*
X85963569Y-162358941D01*
X86189591Y-162328407D01*
X86395071Y-162341428D01*
G37*
X86395071Y-162341428D02*
X86577435Y-162397412D01*
X86734108Y-162495769D01*
X86791036Y-162548951D01*
X86850630Y-162617244D01*
X86882510Y-162677567D01*
X86897179Y-162753903D01*
X86900971Y-162799979D01*
X86903193Y-162893076D01*
X86890304Y-162961600D01*
X86856016Y-163031059D01*
X86836121Y-163062918D01*
X86711423Y-163213573D01*
X86549237Y-163343984D01*
X86359624Y-163450657D01*
X86152646Y-163530100D01*
X85938362Y-163578820D01*
X85726835Y-163593323D01*
X85528125Y-163570116D01*
X85444510Y-163546068D01*
X85305305Y-163497142D01*
X85305305Y-163569839D01*
X85328254Y-163704641D01*
X85393973Y-163818874D01*
X85497773Y-163910224D01*
X85634964Y-163976379D01*
X85800856Y-164015025D01*
X85990759Y-164023848D01*
X86184255Y-164003359D01*
X86338351Y-163962267D01*
X86506490Y-163894044D01*
X86671701Y-163807390D01*
X86817015Y-163711004D01*
X86907851Y-163632414D01*
X86968445Y-163568346D01*
X87002440Y-163518988D01*
X87017507Y-163464996D01*
X87021318Y-163387025D01*
X87021409Y-163346053D01*
X87018021Y-163250980D01*
X87009288Y-163171244D01*
X86998289Y-163127511D01*
X86987901Y-163092523D01*
X87010445Y-163090979D01*
X87011113Y-163091195D01*
X87039926Y-163120744D01*
X87070987Y-163181790D01*
X87082684Y-163214006D01*
X87101151Y-163351420D01*
X87073300Y-163492281D01*
X87002908Y-163622963D01*
X86932829Y-163695739D01*
X86827996Y-163777564D01*
X86701395Y-163859974D01*
X86566014Y-163934507D01*
X86436736Y-163991976D01*
X86333144Y-164026947D01*
X86232391Y-164049298D01*
X86115592Y-164062265D01*
X85991791Y-164068259D01*
X85873549Y-164069901D01*
X85768515Y-164067484D01*
X85690781Y-164061535D01*
X85661096Y-164055873D01*
X85496983Y-163981464D01*
X85373347Y-163880638D01*
X85292371Y-163756019D01*
X85256239Y-163610232D01*
X85254454Y-163566885D01*
X85233089Y-163453285D01*
X85199253Y-163391145D01*
X85154061Y-163289279D01*
X85149490Y-163212515D01*
X85211359Y-163212515D01*
X85243994Y-163324103D01*
X85322092Y-163413559D01*
X85446086Y-163481906D01*
X85530285Y-163509845D01*
X85640512Y-163527180D01*
X85780618Y-163530181D01*
X85931900Y-163519534D01*
X86075654Y-163495923D01*
X86105533Y-163488770D01*
X86271165Y-163431551D01*
X86433554Y-163348998D01*
X86581567Y-163248878D01*
X86704073Y-163138954D01*
X86789940Y-163026994D01*
X86803170Y-163002115D01*
X86849737Y-162875149D01*
X86853348Y-162766973D01*
X86812830Y-162667398D01*
X86756491Y-162596182D01*
X86656725Y-162489229D01*
X86624922Y-162615532D01*
X86569303Y-162741705D01*
X86470785Y-162864015D01*
X86337145Y-162974371D01*
X86207583Y-163049883D01*
X86065529Y-163102327D01*
X85907786Y-163132389D01*
X85749963Y-163139182D01*
X85607667Y-163121821D01*
X85514110Y-163089242D01*
X85436051Y-163044585D01*
X85391517Y-163000098D01*
X85366548Y-162937757D01*
X85355087Y-162883946D01*
X85338383Y-162794094D01*
X85280752Y-162918854D01*
X85223755Y-163077773D01*
X85211359Y-163212515D01*
X85149490Y-163212515D01*
X85146668Y-163165127D01*
X85174641Y-163027503D01*
X85235547Y-162885220D01*
X85326953Y-162747092D01*
X85387097Y-162679679D01*
X85762963Y-162679679D01*
X85783447Y-162702484D01*
X85799600Y-162705105D01*
X85842888Y-162689609D01*
X85851952Y-162679679D01*
X85844167Y-162659667D01*
X85815314Y-162654254D01*
X85773191Y-162664627D01*
X85762963Y-162679679D01*
X85387097Y-162679679D01*
X85399514Y-162665762D01*
X85470708Y-162607484D01*
X85737537Y-162607484D01*
X85754386Y-162628370D01*
X85794356Y-162620700D01*
X85841581Y-162588565D01*
X85851952Y-162577978D01*
X85880408Y-162541229D01*
X85882514Y-162527127D01*
X85841321Y-162538340D01*
X85789443Y-162564039D01*
X85748365Y-162592315D01*
X85737537Y-162607484D01*
X85470708Y-162607484D01*
X85581106Y-162517115D01*
X85786770Y-162411892D01*
X85963569Y-162358941D01*
X86189591Y-162328407D01*
X86395071Y-162341428D01*
G36*
X74860135Y-161230653D02*
G01*
X74917328Y-161280248D01*
X74997854Y-161353266D01*
X75095640Y-161443905D01*
X75204617Y-161546362D01*
X75318712Y-161654836D01*
X75431854Y-161763525D01*
X75537972Y-161866627D01*
X75630994Y-161958339D01*
X75704848Y-162032860D01*
X75753463Y-162084387D01*
X75770770Y-162107054D01*
X75753803Y-162138392D01*
X75709621Y-162191924D01*
X75656424Y-162247380D01*
X75542078Y-162359602D01*
X75433952Y-162259413D01*
X75372706Y-162201823D01*
X75286653Y-162119803D01*
X75187375Y-162024436D01*
X75089753Y-161930012D01*
X74853681Y-161700801D01*
X74675154Y-161883599D01*
X74496626Y-162066397D01*
X74510708Y-162214129D01*
X74516320Y-162285321D01*
X74523318Y-162393390D01*
X74531379Y-162531459D01*
X74540178Y-162692649D01*
X74549389Y-162870080D01*
X74558689Y-163056873D01*
X74567753Y-163246150D01*
X74576256Y-163431032D01*
X74583874Y-163604640D01*
X74590281Y-163760094D01*
X74595154Y-163890517D01*
X74598167Y-163989028D01*
X74598997Y-164048750D01*
X74598008Y-164063932D01*
X74569805Y-164071003D01*
X74504974Y-164080788D01*
X74417508Y-164091177D01*
X74416866Y-164091245D01*
X74317466Y-164098819D01*
X74262130Y-164095176D01*
X74245245Y-164080259D01*
X74243572Y-164044646D01*
X74238831Y-163964538D01*
X74231439Y-163846171D01*
X74221814Y-163695781D01*
X74210371Y-163519603D01*
X74197527Y-163323875D01*
X74183700Y-163114831D01*
X74169307Y-162898709D01*
X74154764Y-162681744D01*
X74140488Y-162470171D01*
X74126897Y-162270228D01*
X74114406Y-162088151D01*
X74103433Y-161930174D01*
X74094395Y-161802535D01*
X74087709Y-161711470D01*
X74083791Y-161663214D01*
X74083427Y-161659690D01*
X74073013Y-161567729D01*
X74254226Y-161550887D01*
X74364461Y-161544379D01*
X74427386Y-161549958D01*
X74444766Y-161562026D01*
X74464445Y-161556325D01*
X74510363Y-161519030D01*
X74575111Y-161456675D01*
X74632466Y-161396427D01*
X74708371Y-161316838D01*
X74772621Y-161254636D01*
X74817093Y-161217387D01*
X74832347Y-161210282D01*
X74860135Y-161230653D01*
G37*
X74860135Y-161230653D02*
X74917328Y-161280248D01*
X74997854Y-161353266D01*
X75095640Y-161443905D01*
X75204617Y-161546362D01*
X75318712Y-161654836D01*
X75431854Y-161763525D01*
X75537972Y-161866627D01*
X75630994Y-161958339D01*
X75704848Y-162032860D01*
X75753463Y-162084387D01*
X75770770Y-162107054D01*
X75753803Y-162138392D01*
X75709621Y-162191924D01*
X75656424Y-162247380D01*
X75542078Y-162359602D01*
X75433952Y-162259413D01*
X75372706Y-162201823D01*
X75286653Y-162119803D01*
X75187375Y-162024436D01*
X75089753Y-161930012D01*
X74853681Y-161700801D01*
X74675154Y-161883599D01*
X74496626Y-162066397D01*
X74510708Y-162214129D01*
X74516320Y-162285321D01*
X74523318Y-162393390D01*
X74531379Y-162531459D01*
X74540178Y-162692649D01*
X74549389Y-162870080D01*
X74558689Y-163056873D01*
X74567753Y-163246150D01*
X74576256Y-163431032D01*
X74583874Y-163604640D01*
X74590281Y-163760094D01*
X74595154Y-163890517D01*
X74598167Y-163989028D01*
X74598997Y-164048750D01*
X74598008Y-164063932D01*
X74569805Y-164071003D01*
X74504974Y-164080788D01*
X74417508Y-164091177D01*
X74416866Y-164091245D01*
X74317466Y-164098819D01*
X74262130Y-164095176D01*
X74245245Y-164080259D01*
X74243572Y-164044646D01*
X74238831Y-163964538D01*
X74231439Y-163846171D01*
X74221814Y-163695781D01*
X74210371Y-163519603D01*
X74197527Y-163323875D01*
X74183700Y-163114831D01*
X74169307Y-162898709D01*
X74154764Y-162681744D01*
X74140488Y-162470171D01*
X74126897Y-162270228D01*
X74114406Y-162088151D01*
X74103433Y-161930174D01*
X74094395Y-161802535D01*
X74087709Y-161711470D01*
X74083791Y-161663214D01*
X74083427Y-161659690D01*
X74073013Y-161567729D01*
X74254226Y-161550887D01*
X74364461Y-161544379D01*
X74427386Y-161549958D01*
X74444766Y-161562026D01*
X74464445Y-161556325D01*
X74510363Y-161519030D01*
X74575111Y-161456675D01*
X74632466Y-161396427D01*
X74708371Y-161316838D01*
X74772621Y-161254636D01*
X74817093Y-161217387D01*
X74832347Y-161210282D01*
X74860135Y-161230653D01*
G36*
X72992300Y-161250436D02*
G01*
X73058833Y-161286162D01*
X73155928Y-161339741D01*
X73276824Y-161407430D01*
X73414760Y-161485484D01*
X73476600Y-161520714D01*
X73962852Y-161798286D01*
X73881576Y-161946288D01*
X73837129Y-162021487D01*
X73799563Y-162074870D01*
X73777534Y-162094593D01*
X73749204Y-162082719D01*
X73685594Y-162050102D01*
X73595387Y-162001558D01*
X73487264Y-161941902D01*
X73369905Y-161875953D01*
X73251993Y-161808524D01*
X73142208Y-161744435D01*
X73087095Y-161711545D01*
X73009526Y-161664774D01*
X72507205Y-162167565D01*
X72004885Y-162670357D01*
X72583332Y-163164458D01*
X72729524Y-163289038D01*
X72863515Y-163402656D01*
X72980359Y-163501164D01*
X73075109Y-163580409D01*
X73142816Y-163636242D01*
X73178533Y-163664513D01*
X73182489Y-163667100D01*
X73209005Y-163655307D01*
X73266736Y-163616974D01*
X73347593Y-163557829D01*
X73443492Y-163483601D01*
X73459689Y-163470710D01*
X73716179Y-163265778D01*
X73830831Y-163406527D01*
X73885682Y-163476159D01*
X73923467Y-163528600D01*
X73936781Y-163553503D01*
X73936456Y-163554101D01*
X73906455Y-163577584D01*
X73845333Y-163625971D01*
X73761346Y-163692683D01*
X73662751Y-163771137D01*
X73557806Y-163854752D01*
X73454766Y-163936949D01*
X73361890Y-164011144D01*
X73287434Y-164070758D01*
X73239656Y-164109209D01*
X73227313Y-164119313D01*
X73213497Y-164123606D01*
X73190457Y-164117284D01*
X73154855Y-164097752D01*
X73103357Y-164062415D01*
X73032628Y-164008679D01*
X72939331Y-163933947D01*
X72820130Y-163835626D01*
X72671692Y-163711119D01*
X72490679Y-163557833D01*
X72331500Y-163422389D01*
X71474739Y-162692392D01*
X72205287Y-161960933D01*
X72364249Y-161802586D01*
X72512615Y-161656354D01*
X72646452Y-161525999D01*
X72761830Y-161415278D01*
X72854817Y-161327952D01*
X72921483Y-161267779D01*
X72957894Y-161238519D01*
X72963092Y-161236309D01*
X72992300Y-161250436D01*
G37*
X72992300Y-161250436D02*
X73058833Y-161286162D01*
X73155928Y-161339741D01*
X73276824Y-161407430D01*
X73414760Y-161485484D01*
X73476600Y-161520714D01*
X73962852Y-161798286D01*
X73881576Y-161946288D01*
X73837129Y-162021487D01*
X73799563Y-162074870D01*
X73777534Y-162094593D01*
X73749204Y-162082719D01*
X73685594Y-162050102D01*
X73595387Y-162001558D01*
X73487264Y-161941902D01*
X73369905Y-161875953D01*
X73251993Y-161808524D01*
X73142208Y-161744435D01*
X73087095Y-161711545D01*
X73009526Y-161664774D01*
X72507205Y-162167565D01*
X72004885Y-162670357D01*
X72583332Y-163164458D01*
X72729524Y-163289038D01*
X72863515Y-163402656D01*
X72980359Y-163501164D01*
X73075109Y-163580409D01*
X73142816Y-163636242D01*
X73178533Y-163664513D01*
X73182489Y-163667100D01*
X73209005Y-163655307D01*
X73266736Y-163616974D01*
X73347593Y-163557829D01*
X73443492Y-163483601D01*
X73459689Y-163470710D01*
X73716179Y-163265778D01*
X73830831Y-163406527D01*
X73885682Y-163476159D01*
X73923467Y-163528600D01*
X73936781Y-163553503D01*
X73936456Y-163554101D01*
X73906455Y-163577584D01*
X73845333Y-163625971D01*
X73761346Y-163692683D01*
X73662751Y-163771137D01*
X73557806Y-163854752D01*
X73454766Y-163936949D01*
X73361890Y-164011144D01*
X73287434Y-164070758D01*
X73239656Y-164109209D01*
X73227313Y-164119313D01*
X73213497Y-164123606D01*
X73190457Y-164117284D01*
X73154855Y-164097752D01*
X73103357Y-164062415D01*
X73032628Y-164008679D01*
X72939331Y-163933947D01*
X72820130Y-163835626D01*
X72671692Y-163711119D01*
X72490679Y-163557833D01*
X72331500Y-163422389D01*
X71474739Y-162692392D01*
X72205287Y-161960933D01*
X72364249Y-161802586D01*
X72512615Y-161656354D01*
X72646452Y-161525999D01*
X72761830Y-161415278D01*
X72854817Y-161327952D01*
X72921483Y-161267779D01*
X72957894Y-161238519D01*
X72963092Y-161236309D01*
X72992300Y-161250436D01*
G36*
X78905924Y-161420494D02*
G01*
X78970104Y-161454351D01*
X79065263Y-161506383D01*
X79184855Y-161572990D01*
X79322333Y-161650575D01*
X79393354Y-161691001D01*
X79888455Y-161973593D01*
X79806440Y-162122931D01*
X79762243Y-162198445D01*
X79725554Y-162252248D01*
X79704514Y-162272571D01*
X79676922Y-162260579D01*
X79613027Y-162227171D01*
X79520471Y-162176516D01*
X79406898Y-162112781D01*
X79310420Y-162057693D01*
X78936236Y-161842513D01*
X78434419Y-162343156D01*
X78280225Y-162497952D01*
X78160020Y-162621015D01*
X78070900Y-162715612D01*
X78009963Y-162785010D01*
X77974309Y-162832474D01*
X77961033Y-162861271D01*
X77964048Y-162872612D01*
X77994137Y-162898856D01*
X78056727Y-162952520D01*
X78145490Y-163028239D01*
X78254097Y-163120647D01*
X78376218Y-163224381D01*
X78505526Y-163334074D01*
X78635690Y-163444363D01*
X78760382Y-163549882D01*
X78873273Y-163645266D01*
X78968034Y-163725150D01*
X79038335Y-163784169D01*
X79077849Y-163816959D01*
X79082225Y-163820469D01*
X79104955Y-163832020D01*
X79133679Y-163828968D01*
X79176024Y-163807063D01*
X79239621Y-163762055D01*
X79332098Y-163689694D01*
X79366543Y-163662073D01*
X79461419Y-163586745D01*
X79542796Y-163523969D01*
X79602071Y-163480255D01*
X79630642Y-163462115D01*
X79630747Y-163462084D01*
X79654974Y-163476612D01*
X79698401Y-163518746D01*
X79750905Y-163576630D01*
X79802362Y-163638413D01*
X79842647Y-163692238D01*
X79861637Y-163726254D01*
X79860990Y-163731669D01*
X79829823Y-163756148D01*
X79767859Y-163805243D01*
X79683338Y-163872390D01*
X79584498Y-163951025D01*
X79479578Y-164034585D01*
X79376817Y-164116507D01*
X79284454Y-164190227D01*
X79210727Y-164249182D01*
X79163876Y-164286808D01*
X79152352Y-164296198D01*
X79138196Y-164299794D01*
X79113758Y-164291923D01*
X79075763Y-164270019D01*
X79020931Y-164231522D01*
X78945988Y-164173867D01*
X78847654Y-164094492D01*
X78722654Y-163990833D01*
X78567710Y-163860327D01*
X78379545Y-163700411D01*
X78258289Y-163596928D01*
X77402365Y-162865676D01*
X78131324Y-162137042D01*
X78289962Y-161978928D01*
X78437627Y-161832621D01*
X78570423Y-161701919D01*
X78684453Y-161590617D01*
X78775820Y-161502510D01*
X78840628Y-161441396D01*
X78874980Y-161411071D01*
X78879268Y-161408408D01*
X78905924Y-161420494D01*
G37*
X78905924Y-161420494D02*
X78970104Y-161454351D01*
X79065263Y-161506383D01*
X79184855Y-161572990D01*
X79322333Y-161650575D01*
X79393354Y-161691001D01*
X79888455Y-161973593D01*
X79806440Y-162122931D01*
X79762243Y-162198445D01*
X79725554Y-162252248D01*
X79704514Y-162272571D01*
X79676922Y-162260579D01*
X79613027Y-162227171D01*
X79520471Y-162176516D01*
X79406898Y-162112781D01*
X79310420Y-162057693D01*
X78936236Y-161842513D01*
X78434419Y-162343156D01*
X78280225Y-162497952D01*
X78160020Y-162621015D01*
X78070900Y-162715612D01*
X78009963Y-162785010D01*
X77974309Y-162832474D01*
X77961033Y-162861271D01*
X77964048Y-162872612D01*
X77994137Y-162898856D01*
X78056727Y-162952520D01*
X78145490Y-163028239D01*
X78254097Y-163120647D01*
X78376218Y-163224381D01*
X78505526Y-163334074D01*
X78635690Y-163444363D01*
X78760382Y-163549882D01*
X78873273Y-163645266D01*
X78968034Y-163725150D01*
X79038335Y-163784169D01*
X79077849Y-163816959D01*
X79082225Y-163820469D01*
X79104955Y-163832020D01*
X79133679Y-163828968D01*
X79176024Y-163807063D01*
X79239621Y-163762055D01*
X79332098Y-163689694D01*
X79366543Y-163662073D01*
X79461419Y-163586745D01*
X79542796Y-163523969D01*
X79602071Y-163480255D01*
X79630642Y-163462115D01*
X79630747Y-163462084D01*
X79654974Y-163476612D01*
X79698401Y-163518746D01*
X79750905Y-163576630D01*
X79802362Y-163638413D01*
X79842647Y-163692238D01*
X79861637Y-163726254D01*
X79860990Y-163731669D01*
X79829823Y-163756148D01*
X79767859Y-163805243D01*
X79683338Y-163872390D01*
X79584498Y-163951025D01*
X79479578Y-164034585D01*
X79376817Y-164116507D01*
X79284454Y-164190227D01*
X79210727Y-164249182D01*
X79163876Y-164286808D01*
X79152352Y-164296198D01*
X79138196Y-164299794D01*
X79113758Y-164291923D01*
X79075763Y-164270019D01*
X79020931Y-164231522D01*
X78945988Y-164173867D01*
X78847654Y-164094492D01*
X78722654Y-163990833D01*
X78567710Y-163860327D01*
X78379545Y-163700411D01*
X78258289Y-163596928D01*
X77402365Y-162865676D01*
X78131324Y-162137042D01*
X78289962Y-161978928D01*
X78437627Y-161832621D01*
X78570423Y-161701919D01*
X78684453Y-161590617D01*
X78775820Y-161502510D01*
X78840628Y-161441396D01*
X78874980Y-161411071D01*
X78879268Y-161408408D01*
X78905924Y-161420494D01*
G36*
X77286501Y-162628829D02*
G01*
X77297230Y-162871243D01*
X77307126Y-163097568D01*
X77315981Y-163302853D01*
X77323586Y-163482145D01*
X77329734Y-163630491D01*
X77334217Y-163742940D01*
X77336827Y-163814539D01*
X77337357Y-163840336D01*
X77337351Y-163840346D01*
X77312572Y-163843393D01*
X77250124Y-163847827D01*
X77163137Y-163852723D01*
X77156489Y-163853058D01*
X76978544Y-163861962D01*
X76961314Y-163687975D01*
X76951320Y-163599603D01*
X76941522Y-163533594D01*
X76934001Y-163503919D01*
X76933859Y-163503762D01*
X76920705Y-163522716D01*
X76889542Y-163581473D01*
X76843547Y-163673613D01*
X76785899Y-163792712D01*
X76719777Y-163932348D01*
X76687291Y-164001924D01*
X76618377Y-164149530D01*
X76556763Y-164280294D01*
X76505599Y-164387629D01*
X76468034Y-164464952D01*
X76447217Y-164505678D01*
X76444147Y-164510310D01*
X76433857Y-164488820D01*
X76419792Y-164440390D01*
X76398341Y-164352596D01*
X76368830Y-164228348D01*
X76332467Y-164072983D01*
X76290460Y-163891839D01*
X76244019Y-163690251D01*
X76194351Y-163473557D01*
X76142665Y-163247093D01*
X76090171Y-163016197D01*
X76038075Y-162786205D01*
X75987588Y-162562453D01*
X75939917Y-162350279D01*
X75896271Y-162155019D01*
X75857859Y-161982010D01*
X75825889Y-161836589D01*
X75801570Y-161724092D01*
X75786110Y-161649858D01*
X75780718Y-161619221D01*
X75780799Y-161618733D01*
X75809337Y-161607629D01*
X75870128Y-161590910D01*
X75947157Y-161572255D01*
X76024404Y-161555340D01*
X76085852Y-161543845D01*
X76115482Y-161541447D01*
X76116005Y-161541765D01*
X76123160Y-161567351D01*
X76140331Y-161637011D01*
X76166221Y-161745243D01*
X76199534Y-161886545D01*
X76238973Y-162055414D01*
X76283241Y-162246348D01*
X76331042Y-162453845D01*
X76334803Y-162470221D01*
X76382987Y-162678443D01*
X76428107Y-162870200D01*
X76468822Y-163040043D01*
X76503794Y-163182523D01*
X76531683Y-163292191D01*
X76551151Y-163363598D01*
X76560859Y-163391294D01*
X76561177Y-163391458D01*
X76576256Y-163369612D01*
X76608382Y-163309120D01*
X76653703Y-163217693D01*
X76708364Y-163103041D01*
X76748526Y-163016566D01*
X76920944Y-162641541D01*
X76896817Y-162044044D01*
X76890106Y-161875631D01*
X76884285Y-161725273D01*
X76879614Y-161600043D01*
X76876353Y-161507013D01*
X76874761Y-161453257D01*
X76874733Y-161442737D01*
X76899056Y-161439692D01*
X76961134Y-161435262D01*
X77047924Y-161430369D01*
X77054754Y-161430024D01*
X77232732Y-161421121D01*
X77286501Y-162628829D01*
G37*
X77286501Y-162628829D02*
X77297230Y-162871243D01*
X77307126Y-163097568D01*
X77315981Y-163302853D01*
X77323586Y-163482145D01*
X77329734Y-163630491D01*
X77334217Y-163742940D01*
X77336827Y-163814539D01*
X77337357Y-163840336D01*
X77337351Y-163840346D01*
X77312572Y-163843393D01*
X77250124Y-163847827D01*
X77163137Y-163852723D01*
X77156489Y-163853058D01*
X76978544Y-163861962D01*
X76961314Y-163687975D01*
X76951320Y-163599603D01*
X76941522Y-163533594D01*
X76934001Y-163503919D01*
X76933859Y-163503762D01*
X76920705Y-163522716D01*
X76889542Y-163581473D01*
X76843547Y-163673613D01*
X76785899Y-163792712D01*
X76719777Y-163932348D01*
X76687291Y-164001924D01*
X76618377Y-164149530D01*
X76556763Y-164280294D01*
X76505599Y-164387629D01*
X76468034Y-164464952D01*
X76447217Y-164505678D01*
X76444147Y-164510310D01*
X76433857Y-164488820D01*
X76419792Y-164440390D01*
X76398341Y-164352596D01*
X76368830Y-164228348D01*
X76332467Y-164072983D01*
X76290460Y-163891839D01*
X76244019Y-163690251D01*
X76194351Y-163473557D01*
X76142665Y-163247093D01*
X76090171Y-163016197D01*
X76038075Y-162786205D01*
X75987588Y-162562453D01*
X75939917Y-162350279D01*
X75896271Y-162155019D01*
X75857859Y-161982010D01*
X75825889Y-161836589D01*
X75801570Y-161724092D01*
X75786110Y-161649858D01*
X75780718Y-161619221D01*
X75780799Y-161618733D01*
X75809337Y-161607629D01*
X75870128Y-161590910D01*
X75947157Y-161572255D01*
X76024404Y-161555340D01*
X76085852Y-161543845D01*
X76115482Y-161541447D01*
X76116005Y-161541765D01*
X76123160Y-161567351D01*
X76140331Y-161637011D01*
X76166221Y-161745243D01*
X76199534Y-161886545D01*
X76238973Y-162055414D01*
X76283241Y-162246348D01*
X76331042Y-162453845D01*
X76334803Y-162470221D01*
X76382987Y-162678443D01*
X76428107Y-162870200D01*
X76468822Y-163040043D01*
X76503794Y-163182523D01*
X76531683Y-163292191D01*
X76551151Y-163363598D01*
X76560859Y-163391294D01*
X76561177Y-163391458D01*
X76576256Y-163369612D01*
X76608382Y-163309120D01*
X76653703Y-163217693D01*
X76708364Y-163103041D01*
X76748526Y-163016566D01*
X76920944Y-162641541D01*
X76896817Y-162044044D01*
X76890106Y-161875631D01*
X76884285Y-161725273D01*
X76879614Y-161600043D01*
X76876353Y-161507013D01*
X76874761Y-161453257D01*
X76874733Y-161442737D01*
X76899056Y-161439692D01*
X76961134Y-161435262D01*
X77047924Y-161430369D01*
X77054754Y-161430024D01*
X77232732Y-161421121D01*
X77286501Y-162628829D01*
G36*
X80076669Y-160249635D02*
G01*
X80146856Y-160259960D01*
X80256494Y-160276904D01*
X80400232Y-160299588D01*
X80572718Y-160327136D01*
X80768598Y-160358670D01*
X80982521Y-160393313D01*
X81209135Y-160430186D01*
X81443087Y-160468413D01*
X81679024Y-160507116D01*
X81911595Y-160545418D01*
X82135447Y-160582440D01*
X82345228Y-160617305D01*
X82535586Y-160649136D01*
X82701167Y-160677056D01*
X82836621Y-160700186D01*
X82936593Y-160717649D01*
X82995734Y-160728568D01*
X83010051Y-160731906D01*
X83012151Y-160760974D01*
X83005042Y-160822279D01*
X82991773Y-160900133D01*
X82975393Y-160978851D01*
X82958952Y-161042746D01*
X82945498Y-161076130D01*
X82942800Y-161077878D01*
X82909742Y-161073573D01*
X82842874Y-161062429D01*
X82777656Y-161050704D01*
X82697159Y-161037954D01*
X82639153Y-161032753D01*
X82619161Y-161035026D01*
X82630135Y-161058013D01*
X82667657Y-161115690D01*
X82727467Y-161202293D01*
X82805305Y-161312056D01*
X82896911Y-161439214D01*
X82998025Y-161578001D01*
X83104387Y-161722652D01*
X83211737Y-161867401D01*
X83315814Y-162006485D01*
X83412360Y-162134136D01*
X83497113Y-162244591D01*
X83565814Y-162332083D01*
X83614203Y-162390847D01*
X83638020Y-162415119D01*
X83639161Y-162415435D01*
X83661028Y-162396544D01*
X83713042Y-162343787D01*
X83791449Y-162261197D01*
X83892496Y-162152812D01*
X84012428Y-162022665D01*
X84147494Y-161874792D01*
X84293939Y-161713229D01*
X84345286Y-161656306D01*
X84494448Y-161491216D01*
X84633202Y-161338554D01*
X84757839Y-161202333D01*
X84864652Y-161086566D01*
X84949932Y-160995263D01*
X85009971Y-160932437D01*
X85041061Y-160902101D01*
X85044390Y-160899900D01*
X85070184Y-160916451D01*
X85120489Y-160959745D01*
X85181394Y-161017481D01*
X85300770Y-161135063D01*
X84624966Y-161888302D01*
X84474951Y-162055520D01*
X84334160Y-162212485D01*
X84206535Y-162354799D01*
X84096020Y-162478063D01*
X84006559Y-162577878D01*
X83942094Y-162649846D01*
X83906571Y-162689568D01*
X83902418Y-162694233D01*
X83891774Y-162707794D01*
X83886119Y-162723240D01*
X83887904Y-162744390D01*
X83899581Y-162775060D01*
X83923601Y-162819069D01*
X83962414Y-162880234D01*
X84018473Y-162962373D01*
X84094228Y-163069303D01*
X84192130Y-163204843D01*
X84314631Y-163372808D01*
X84464182Y-163577019D01*
X84504835Y-163632479D01*
X85153995Y-164518032D01*
X85019890Y-164615053D01*
X84948510Y-164664989D01*
X84893546Y-164700299D01*
X84868155Y-164712893D01*
X84849807Y-164693243D01*
X84804760Y-164636791D01*
X84736259Y-164547838D01*
X84647551Y-164430680D01*
X84541880Y-164289616D01*
X84422494Y-164128943D01*
X84292637Y-163952961D01*
X84234623Y-163873973D01*
X84101283Y-163692969D01*
X83976929Y-163525693D01*
X83864813Y-163376408D01*
X83768187Y-163249374D01*
X83690303Y-163148852D01*
X83634411Y-163079101D01*
X83603764Y-163044385D01*
X83599151Y-163041291D01*
X83578167Y-163061200D01*
X83527244Y-163114660D01*
X83450366Y-163197338D01*
X83351516Y-163304900D01*
X83234679Y-163433016D01*
X83103837Y-163577352D01*
X82978996Y-163715766D01*
X82839230Y-163870520D01*
X82710003Y-164012519D01*
X82595277Y-164137495D01*
X82499012Y-164241180D01*
X82425166Y-164319305D01*
X82377699Y-164367603D01*
X82360827Y-164382044D01*
X82334237Y-164365694D01*
X82281913Y-164324070D01*
X82219215Y-164269743D01*
X82095186Y-164158583D01*
X82727723Y-163455860D01*
X82871227Y-163296054D01*
X83003770Y-163147721D01*
X83121538Y-163015188D01*
X83220713Y-162902782D01*
X83297481Y-162814829D01*
X83348024Y-162755655D01*
X83368526Y-162729587D01*
X83368730Y-162729137D01*
X83355967Y-162704728D01*
X83316790Y-162644677D01*
X83254975Y-162554258D01*
X83174300Y-162438746D01*
X83078543Y-162303415D01*
X82971482Y-162153540D01*
X82856894Y-161994395D01*
X82738557Y-161831256D01*
X82620249Y-161669397D01*
X82505746Y-161514092D01*
X82398828Y-161370616D01*
X82337319Y-161289011D01*
X82275739Y-161207751D01*
X82410157Y-161111181D01*
X82475409Y-161059793D01*
X82509526Y-161023136D01*
X82507473Y-161007766D01*
X82413780Y-160991151D01*
X82286529Y-160969574D01*
X82132067Y-160944027D01*
X81956744Y-160915507D01*
X81766906Y-160885006D01*
X81568903Y-160853520D01*
X81369081Y-160822042D01*
X81173790Y-160791568D01*
X80989377Y-160763092D01*
X80822190Y-160737608D01*
X80678577Y-160716111D01*
X80564887Y-160699594D01*
X80487467Y-160689053D01*
X80452666Y-160685483D01*
X80451390Y-160685680D01*
X80451025Y-160711968D01*
X80453937Y-160781536D01*
X80459622Y-160886956D01*
X80467576Y-161020796D01*
X80477294Y-161175627D01*
X80488272Y-161344021D01*
X80500007Y-161518546D01*
X80511993Y-161691773D01*
X80523728Y-161856273D01*
X80534706Y-162004616D01*
X80544424Y-162129372D01*
X80552377Y-162223111D01*
X80558062Y-162278404D01*
X80560264Y-162290170D01*
X80585608Y-162292951D01*
X80653135Y-162297681D01*
X80754237Y-162303827D01*
X80880309Y-162310855D01*
X80970617Y-162315595D01*
X81377077Y-162336436D01*
X81369749Y-162513266D01*
X81365406Y-162601482D01*
X81360913Y-162666310D01*
X81357203Y-162694409D01*
X81357037Y-162694627D01*
X81331164Y-162694825D01*
X81263641Y-162692309D01*
X81163572Y-162687495D01*
X81040061Y-162680801D01*
X80984229Y-162677578D01*
X80852966Y-162670738D01*
X80740655Y-162666532D01*
X80656631Y-162665182D01*
X80610228Y-162666911D01*
X80604268Y-162668537D01*
X80601613Y-162698023D01*
X80604186Y-162770307D01*
X80611239Y-162877691D01*
X80622024Y-163012475D01*
X80635791Y-163166959D01*
X80651792Y-163333445D01*
X80669278Y-163504232D01*
X80687501Y-163671621D01*
X80705711Y-163827912D01*
X80723160Y-163965407D01*
X80739099Y-164076406D01*
X80744250Y-164107969D01*
X80760194Y-164201424D01*
X80602048Y-164281256D01*
X80522158Y-164319249D01*
X80461513Y-164343722D01*
X80432599Y-164349670D01*
X80432163Y-164349347D01*
X80418682Y-164313417D01*
X80401776Y-164232325D01*
X80382220Y-164111586D01*
X80360787Y-163956716D01*
X80338253Y-163773229D01*
X80315391Y-163566640D01*
X80297691Y-163391591D01*
X80281170Y-163222966D01*
X80265411Y-163064982D01*
X80251370Y-162926979D01*
X80239998Y-162818300D01*
X80232251Y-162748285D01*
X80230862Y-162736887D01*
X80217104Y-162628829D01*
X80057634Y-162628829D01*
X79973029Y-162627283D01*
X79911283Y-162623255D01*
X79887571Y-162618333D01*
X79883373Y-162589512D01*
X79882685Y-162524297D01*
X79885502Y-162440355D01*
X79894028Y-162272873D01*
X80199955Y-162272873D01*
X80183450Y-162101251D01*
X80176991Y-162027792D01*
X80168132Y-161917972D01*
X80157360Y-161778615D01*
X80145161Y-161616546D01*
X80132022Y-161438589D01*
X80118428Y-161251568D01*
X80104867Y-161062307D01*
X80091825Y-160877630D01*
X80079787Y-160704362D01*
X80069241Y-160549327D01*
X80060673Y-160419348D01*
X80054568Y-160321251D01*
X80051414Y-160261859D01*
X80051287Y-160246807D01*
X80076669Y-160249635D01*
G37*
X80076669Y-160249635D02*
X80146856Y-160259960D01*
X80256494Y-160276904D01*
X80400232Y-160299588D01*
X80572718Y-160327136D01*
X80768598Y-160358670D01*
X80982521Y-160393313D01*
X81209135Y-160430186D01*
X81443087Y-160468413D01*
X81679024Y-160507116D01*
X81911595Y-160545418D01*
X82135447Y-160582440D01*
X82345228Y-160617305D01*
X82535586Y-160649136D01*
X82701167Y-160677056D01*
X82836621Y-160700186D01*
X82936593Y-160717649D01*
X82995734Y-160728568D01*
X83010051Y-160731906D01*
X83012151Y-160760974D01*
X83005042Y-160822279D01*
X82991773Y-160900133D01*
X82975393Y-160978851D01*
X82958952Y-161042746D01*
X82945498Y-161076130D01*
X82942800Y-161077878D01*
X82909742Y-161073573D01*
X82842874Y-161062429D01*
X82777656Y-161050704D01*
X82697159Y-161037954D01*
X82639153Y-161032753D01*
X82619161Y-161035026D01*
X82630135Y-161058013D01*
X82667657Y-161115690D01*
X82727467Y-161202293D01*
X82805305Y-161312056D01*
X82896911Y-161439214D01*
X82998025Y-161578001D01*
X83104387Y-161722652D01*
X83211737Y-161867401D01*
X83315814Y-162006485D01*
X83412360Y-162134136D01*
X83497113Y-162244591D01*
X83565814Y-162332083D01*
X83614203Y-162390847D01*
X83638020Y-162415119D01*
X83639161Y-162415435D01*
X83661028Y-162396544D01*
X83713042Y-162343787D01*
X83791449Y-162261197D01*
X83892496Y-162152812D01*
X84012428Y-162022665D01*
X84147494Y-161874792D01*
X84293939Y-161713229D01*
X84345286Y-161656306D01*
X84494448Y-161491216D01*
X84633202Y-161338554D01*
X84757839Y-161202333D01*
X84864652Y-161086566D01*
X84949932Y-160995263D01*
X85009971Y-160932437D01*
X85041061Y-160902101D01*
X85044390Y-160899900D01*
X85070184Y-160916451D01*
X85120489Y-160959745D01*
X85181394Y-161017481D01*
X85300770Y-161135063D01*
X84624966Y-161888302D01*
X84474951Y-162055520D01*
X84334160Y-162212485D01*
X84206535Y-162354799D01*
X84096020Y-162478063D01*
X84006559Y-162577878D01*
X83942094Y-162649846D01*
X83906571Y-162689568D01*
X83902418Y-162694233D01*
X83891774Y-162707794D01*
X83886119Y-162723240D01*
X83887904Y-162744390D01*
X83899581Y-162775060D01*
X83923601Y-162819069D01*
X83962414Y-162880234D01*
X84018473Y-162962373D01*
X84094228Y-163069303D01*
X84192130Y-163204843D01*
X84314631Y-163372808D01*
X84464182Y-163577019D01*
X84504835Y-163632479D01*
X85153995Y-164518032D01*
X85019890Y-164615053D01*
X84948510Y-164664989D01*
X84893546Y-164700299D01*
X84868155Y-164712893D01*
X84849807Y-164693243D01*
X84804760Y-164636791D01*
X84736259Y-164547838D01*
X84647551Y-164430680D01*
X84541880Y-164289616D01*
X84422494Y-164128943D01*
X84292637Y-163952961D01*
X84234623Y-163873973D01*
X84101283Y-163692969D01*
X83976929Y-163525693D01*
X83864813Y-163376408D01*
X83768187Y-163249374D01*
X83690303Y-163148852D01*
X83634411Y-163079101D01*
X83603764Y-163044385D01*
X83599151Y-163041291D01*
X83578167Y-163061200D01*
X83527244Y-163114660D01*
X83450366Y-163197338D01*
X83351516Y-163304900D01*
X83234679Y-163433016D01*
X83103837Y-163577352D01*
X82978996Y-163715766D01*
X82839230Y-163870520D01*
X82710003Y-164012519D01*
X82595277Y-164137495D01*
X82499012Y-164241180D01*
X82425166Y-164319305D01*
X82377699Y-164367603D01*
X82360827Y-164382044D01*
X82334237Y-164365694D01*
X82281913Y-164324070D01*
X82219215Y-164269743D01*
X82095186Y-164158583D01*
X82727723Y-163455860D01*
X82871227Y-163296054D01*
X83003770Y-163147721D01*
X83121538Y-163015188D01*
X83220713Y-162902782D01*
X83297481Y-162814829D01*
X83348024Y-162755655D01*
X83368526Y-162729587D01*
X83368730Y-162729137D01*
X83355967Y-162704728D01*
X83316790Y-162644677D01*
X83254975Y-162554258D01*
X83174300Y-162438746D01*
X83078543Y-162303415D01*
X82971482Y-162153540D01*
X82856894Y-161994395D01*
X82738557Y-161831256D01*
X82620249Y-161669397D01*
X82505746Y-161514092D01*
X82398828Y-161370616D01*
X82337319Y-161289011D01*
X82275739Y-161207751D01*
X82410157Y-161111181D01*
X82475409Y-161059793D01*
X82509526Y-161023136D01*
X82507473Y-161007766D01*
X82413780Y-160991151D01*
X82286529Y-160969574D01*
X82132067Y-160944027D01*
X81956744Y-160915507D01*
X81766906Y-160885006D01*
X81568903Y-160853520D01*
X81369081Y-160822042D01*
X81173790Y-160791568D01*
X80989377Y-160763092D01*
X80822190Y-160737608D01*
X80678577Y-160716111D01*
X80564887Y-160699594D01*
X80487467Y-160689053D01*
X80452666Y-160685483D01*
X80451390Y-160685680D01*
X80451025Y-160711968D01*
X80453937Y-160781536D01*
X80459622Y-160886956D01*
X80467576Y-161020796D01*
X80477294Y-161175627D01*
X80488272Y-161344021D01*
X80500007Y-161518546D01*
X80511993Y-161691773D01*
X80523728Y-161856273D01*
X80534706Y-162004616D01*
X80544424Y-162129372D01*
X80552377Y-162223111D01*
X80558062Y-162278404D01*
X80560264Y-162290170D01*
X80585608Y-162292951D01*
X80653135Y-162297681D01*
X80754237Y-162303827D01*
X80880309Y-162310855D01*
X80970617Y-162315595D01*
X81377077Y-162336436D01*
X81369749Y-162513266D01*
X81365406Y-162601482D01*
X81360913Y-162666310D01*
X81357203Y-162694409D01*
X81357037Y-162694627D01*
X81331164Y-162694825D01*
X81263641Y-162692309D01*
X81163572Y-162687495D01*
X81040061Y-162680801D01*
X80984229Y-162677578D01*
X80852966Y-162670738D01*
X80740655Y-162666532D01*
X80656631Y-162665182D01*
X80610228Y-162666911D01*
X80604268Y-162668537D01*
X80601613Y-162698023D01*
X80604186Y-162770307D01*
X80611239Y-162877691D01*
X80622024Y-163012475D01*
X80635791Y-163166959D01*
X80651792Y-163333445D01*
X80669278Y-163504232D01*
X80687501Y-163671621D01*
X80705711Y-163827912D01*
X80723160Y-163965407D01*
X80739099Y-164076406D01*
X80744250Y-164107969D01*
X80760194Y-164201424D01*
X80602048Y-164281256D01*
X80522158Y-164319249D01*
X80461513Y-164343722D01*
X80432599Y-164349670D01*
X80432163Y-164349347D01*
X80418682Y-164313417D01*
X80401776Y-164232325D01*
X80382220Y-164111586D01*
X80360787Y-163956716D01*
X80338253Y-163773229D01*
X80315391Y-163566640D01*
X80297691Y-163391591D01*
X80281170Y-163222966D01*
X80265411Y-163064982D01*
X80251370Y-162926979D01*
X80239998Y-162818300D01*
X80232251Y-162748285D01*
X80230862Y-162736887D01*
X80217104Y-162628829D01*
X80057634Y-162628829D01*
X79973029Y-162627283D01*
X79911283Y-162623255D01*
X79887571Y-162618333D01*
X79883373Y-162589512D01*
X79882685Y-162524297D01*
X79885502Y-162440355D01*
X79894028Y-162272873D01*
X80199955Y-162272873D01*
X80183450Y-162101251D01*
X80176991Y-162027792D01*
X80168132Y-161917972D01*
X80157360Y-161778615D01*
X80145161Y-161616546D01*
X80132022Y-161438589D01*
X80118428Y-161251568D01*
X80104867Y-161062307D01*
X80091825Y-160877630D01*
X80079787Y-160704362D01*
X80069241Y-160549327D01*
X80060673Y-160419348D01*
X80054568Y-160321251D01*
X80051414Y-160261859D01*
X80051287Y-160246807D01*
X80076669Y-160249635D01*
G36*
X89394610Y-158942141D02*
G01*
X89632091Y-159008494D01*
X89858564Y-159115655D01*
X90068031Y-159260436D01*
X90254497Y-159439652D01*
X90411964Y-159650114D01*
X90485941Y-159781828D01*
X90560955Y-159948223D01*
X90619326Y-160110884D01*
X90657035Y-160256946D01*
X90670070Y-160371308D01*
X90674100Y-160415523D01*
X90695506Y-160436091D01*
X90748264Y-160441984D01*
X90780543Y-160442242D01*
X90873507Y-160453591D01*
X90936277Y-160492246D01*
X90974495Y-160565123D01*
X90993802Y-160679136D01*
X90995802Y-160706082D01*
X90996419Y-160823397D01*
X90977758Y-160921191D01*
X90949686Y-160996114D01*
X90895778Y-161091186D01*
X90819238Y-161188788D01*
X90732061Y-161276647D01*
X90646240Y-161342488D01*
X90582093Y-161372288D01*
X90522310Y-161382337D01*
X90508383Y-161371226D01*
X90540129Y-161339396D01*
X90617275Y-161287340D01*
X90704727Y-161222080D01*
X90786625Y-161143430D01*
X90819532Y-161103535D01*
X90878228Y-160997873D01*
X90920140Y-160874358D01*
X90940760Y-160751580D01*
X90935576Y-160648132D01*
X90932720Y-160636893D01*
X90910510Y-160559452D01*
X90817426Y-160686257D01*
X90765127Y-160762492D01*
X90739556Y-160819217D01*
X90734326Y-160875513D01*
X90738828Y-160921054D01*
X90743168Y-160998868D01*
X90725695Y-161052578D01*
X90694546Y-161091600D01*
X90645671Y-161134504D01*
X90606502Y-161154040D01*
X90604501Y-161154154D01*
X90576114Y-161174602D01*
X90534131Y-161227696D01*
X90496185Y-161287637D01*
X90357996Y-161481305D01*
X90180163Y-161658588D01*
X89973309Y-161810784D01*
X89748057Y-161929191D01*
X89679868Y-161956314D01*
X89589489Y-161989610D01*
X89723789Y-161991401D01*
X89823001Y-161984522D01*
X89894951Y-161969899D01*
X90250550Y-161969899D01*
X90337359Y-162016140D01*
X90392610Y-162053597D01*
X90428064Y-162104139D01*
X90455398Y-162185349D01*
X90459049Y-162199409D01*
X90493222Y-162332573D01*
X90518053Y-162423954D01*
X90536580Y-162481091D01*
X90551838Y-162511520D01*
X90566866Y-162522782D01*
X90584699Y-162522413D01*
X90588846Y-162521611D01*
X90613488Y-162507114D01*
X90626214Y-162468728D01*
X90629942Y-162394985D01*
X90629697Y-162361110D01*
X90612344Y-162205532D01*
X90566574Y-162086990D01*
X90494169Y-162008047D01*
X90396912Y-161971267D01*
X90356792Y-161968833D01*
X90250550Y-161969899D01*
X89894951Y-161969899D01*
X89918761Y-161965060D01*
X89952618Y-161953414D01*
X90025031Y-161934563D01*
X90131725Y-161920430D01*
X90256549Y-161911665D01*
X90383354Y-161908915D01*
X90495987Y-161912829D01*
X90578299Y-161924057D01*
X90591283Y-161927756D01*
X90633684Y-161937936D01*
X90638972Y-161921209D01*
X90630674Y-161900782D01*
X90617608Y-161847886D01*
X90609217Y-161767947D01*
X90607759Y-161726226D01*
X90608382Y-161696597D01*
X90639847Y-161696597D01*
X90648164Y-161760618D01*
X90676190Y-161833067D01*
X90722321Y-161901905D01*
X90723554Y-161903319D01*
X90783769Y-161965153D01*
X90820958Y-161989546D01*
X90831876Y-161976212D01*
X90813276Y-161924866D01*
X90806017Y-161910560D01*
X90770869Y-161825664D01*
X90747770Y-161739212D01*
X90723732Y-161669185D01*
X90688752Y-161642003D01*
X90652842Y-161653045D01*
X90639847Y-161696597D01*
X90608382Y-161696597D01*
X90609360Y-161650148D01*
X90620378Y-161610862D01*
X90647205Y-161594398D01*
X90670021Y-161590148D01*
X90726198Y-161566775D01*
X90792408Y-161518575D01*
X90816546Y-161495724D01*
X90932296Y-161407399D01*
X91057334Y-161365805D01*
X91185400Y-161369261D01*
X91310231Y-161416084D01*
X91425567Y-161504591D01*
X91525145Y-161633100D01*
X91559144Y-161695291D01*
X91621395Y-161850504D01*
X91641302Y-161978900D01*
X91618533Y-162082308D01*
X91552756Y-162162558D01*
X91465431Y-162212818D01*
X91398850Y-162232582D01*
X91321224Y-162244149D01*
X91248247Y-162246821D01*
X91195612Y-162239903D01*
X91178578Y-162225563D01*
X91201452Y-162210627D01*
X91260205Y-162195725D01*
X91311701Y-162187913D01*
X91441614Y-162158711D01*
X91527938Y-162106023D01*
X91573085Y-162028036D01*
X91580463Y-161986001D01*
X91569045Y-161873051D01*
X91522298Y-161747916D01*
X91447565Y-161626069D01*
X91366957Y-161536119D01*
X91298722Y-161477482D01*
X91243490Y-161446866D01*
X91179334Y-161435335D01*
X91115984Y-161433834D01*
X91025343Y-161438431D01*
X90962425Y-161457256D01*
X90904542Y-161497854D01*
X90892943Y-161508024D01*
X90826373Y-161597994D01*
X90806149Y-161704455D01*
X90832411Y-161822669D01*
X90881021Y-161913672D01*
X90944412Y-161996643D01*
X90999276Y-162035702D01*
X91053704Y-162034997D01*
X91086601Y-162019029D01*
X91123197Y-161997793D01*
X91121779Y-162006243D01*
X91095304Y-162036797D01*
X91065812Y-162077128D01*
X91072199Y-162104167D01*
X91088948Y-162119788D01*
X91121263Y-162156623D01*
X91127727Y-162174284D01*
X91110842Y-162195804D01*
X91070888Y-162188678D01*
X91023923Y-162156746D01*
X91014683Y-162147260D01*
X90963095Y-162108604D01*
X90887200Y-162070749D01*
X90858366Y-162059874D01*
X90746698Y-162021825D01*
X90784660Y-162095235D01*
X90808640Y-162167778D01*
X90821775Y-162258397D01*
X90822622Y-162284323D01*
X90826998Y-162354985D01*
X90845421Y-162391530D01*
X90885831Y-162395992D01*
X90956170Y-162370405D01*
X91026026Y-162336436D01*
X91106933Y-162296390D01*
X91152754Y-162277756D01*
X91173334Y-162278138D01*
X91178519Y-162295139D01*
X91178578Y-162299291D01*
X91157211Y-162321874D01*
X91100484Y-162358322D01*
X91019456Y-162401738D01*
X90995362Y-162413513D01*
X90906131Y-162459634D01*
X90834790Y-162502722D01*
X90794214Y-162534842D01*
X90790695Y-162539647D01*
X90751957Y-162567120D01*
X90692486Y-162577978D01*
X90615727Y-162577978D01*
X90741395Y-162724174D01*
X90826967Y-162827705D01*
X90881991Y-162906018D01*
X90912296Y-162969426D01*
X90923710Y-163028245D01*
X90924324Y-163047939D01*
X90911283Y-163127737D01*
X90868822Y-163210764D01*
X90791930Y-163304563D01*
X90685247Y-163407971D01*
X90520971Y-163556857D01*
X90509787Y-164141641D01*
X90505787Y-164311215D01*
X90500718Y-164465414D01*
X90494953Y-164596401D01*
X90488864Y-164696334D01*
X90482827Y-164757375D01*
X90479804Y-164771209D01*
X90473541Y-164803057D01*
X90502532Y-164800037D01*
X90505443Y-164798939D01*
X90538067Y-164795340D01*
X90537977Y-164817720D01*
X90509649Y-164843790D01*
X90446357Y-164878589D01*
X90361409Y-164914871D01*
X90355432Y-164917117D01*
X90261856Y-164954876D01*
X90200976Y-164990668D01*
X90156766Y-165037078D01*
X90113199Y-165106688D01*
X90112562Y-165107808D01*
X90061879Y-165188502D01*
X90010318Y-165257444D01*
X89984029Y-165285635D01*
X89943702Y-165332328D01*
X89889947Y-165408085D01*
X89833727Y-165497351D01*
X89828339Y-165506510D01*
X89734340Y-165642572D01*
X89636896Y-165737682D01*
X89539913Y-165789532D01*
X89447303Y-165795812D01*
X89383393Y-165769443D01*
X89338199Y-165714225D01*
X89322150Y-165624798D01*
X89334874Y-165497770D01*
X89341946Y-165463936D01*
X89413903Y-165463936D01*
X89435409Y-165491877D01*
X89476657Y-165526302D01*
X89525565Y-165557630D01*
X89570047Y-165576281D01*
X89583133Y-165578052D01*
X89620931Y-165571955D01*
X89627627Y-165565092D01*
X89607158Y-165541979D01*
X89557777Y-165509369D01*
X89497529Y-165477288D01*
X89444454Y-165455762D01*
X89424224Y-165452060D01*
X89413903Y-165463936D01*
X89341946Y-165463936D01*
X89347149Y-165439052D01*
X89362080Y-165362528D01*
X89362120Y-165338608D01*
X89478885Y-165338608D01*
X89480987Y-165363373D01*
X89514864Y-165400621D01*
X89566642Y-165440436D01*
X89622444Y-165472901D01*
X89668397Y-165488097D01*
X89684421Y-165485516D01*
X89677963Y-165465661D01*
X89637455Y-165429484D01*
X89597228Y-165401508D01*
X89533643Y-165363005D01*
X89489939Y-165340880D01*
X89478885Y-165338608D01*
X89362120Y-165338608D01*
X89362131Y-165332096D01*
X89349838Y-165346071D01*
X89327735Y-165402769D01*
X89308417Y-165464792D01*
X89284897Y-165594982D01*
X89292487Y-165705087D01*
X89327990Y-165788644D01*
X89388212Y-165839186D01*
X89469956Y-165850247D01*
X89496512Y-165845327D01*
X89599211Y-165798075D01*
X89705433Y-165710804D01*
X89804558Y-165592340D01*
X89809589Y-165585101D01*
X89858298Y-165524289D01*
X89892946Y-165498125D01*
X89907221Y-165507143D01*
X89894813Y-165551876D01*
X89881432Y-165579018D01*
X89831383Y-165652429D01*
X89759327Y-165735354D01*
X89680814Y-165811649D01*
X89611394Y-165865169D01*
X89599019Y-165872216D01*
X89500909Y-165903108D01*
X89401620Y-165902312D01*
X89341591Y-165881246D01*
X89276540Y-165815971D01*
X89236612Y-165717822D01*
X89226900Y-165600664D01*
X89229145Y-165575208D01*
X89251723Y-165464687D01*
X89290577Y-165348701D01*
X89319582Y-165285786D01*
X89373373Y-165285786D01*
X89386086Y-165298498D01*
X89398798Y-165285786D01*
X89386086Y-165273073D01*
X89373373Y-165285786D01*
X89319582Y-165285786D01*
X89338652Y-165244423D01*
X89344974Y-165234935D01*
X89398798Y-165234935D01*
X89411511Y-165247647D01*
X89424224Y-165234935D01*
X89411511Y-165222222D01*
X89398798Y-165234935D01*
X89344974Y-165234935D01*
X89388893Y-165169023D01*
X89401150Y-165156531D01*
X89438066Y-165115694D01*
X89525645Y-165115694D01*
X89526162Y-165166179D01*
X89540586Y-165229578D01*
X89565993Y-165288923D01*
X89578622Y-165307782D01*
X89648908Y-165363001D01*
X89734630Y-165369879D01*
X89835421Y-165328408D01*
X89857932Y-165313920D01*
X89914393Y-165266867D01*
X89973969Y-165204007D01*
X90027642Y-165136990D01*
X90066396Y-165077465D01*
X90081212Y-165037084D01*
X90078490Y-165028974D01*
X90048883Y-165026693D01*
X89980539Y-165032017D01*
X89884822Y-165043847D01*
X89811069Y-165054860D01*
X89703039Y-165071797D01*
X89614595Y-165085216D01*
X89557233Y-165093398D01*
X89541961Y-165095095D01*
X89525645Y-165115694D01*
X89438066Y-165115694D01*
X89440587Y-165112906D01*
X89440154Y-165080229D01*
X89396389Y-165047728D01*
X89360385Y-165029696D01*
X89311814Y-165001908D01*
X89278285Y-164966695D01*
X89257861Y-164915522D01*
X89248604Y-164839848D01*
X89248584Y-164745124D01*
X89492821Y-164745124D01*
X89495066Y-164764523D01*
X89495833Y-164764564D01*
X89521292Y-164744033D01*
X89546725Y-164701001D01*
X89553843Y-164682889D01*
X89668755Y-164682889D01*
X89679276Y-164688288D01*
X89701129Y-164667682D01*
X89703904Y-164650150D01*
X89698464Y-164616227D01*
X89693911Y-164612012D01*
X89677517Y-164631893D01*
X89669284Y-164650150D01*
X89668755Y-164682889D01*
X89553843Y-164682889D01*
X89564799Y-164655015D01*
X89566443Y-164637437D01*
X89547598Y-164656212D01*
X89515551Y-164701001D01*
X89492821Y-164745124D01*
X89248584Y-164745124D01*
X89248580Y-164731138D01*
X89255850Y-164580852D01*
X89256418Y-164571301D01*
X89273677Y-164282610D01*
X88911068Y-164509702D01*
X88775027Y-164594002D01*
X88675031Y-164653324D01*
X88604711Y-164690747D01*
X88557701Y-164709346D01*
X88527632Y-164712199D01*
X88509614Y-164703695D01*
X88456618Y-164664115D01*
X88432632Y-164649137D01*
X88407965Y-164639294D01*
X88420860Y-164662394D01*
X88422329Y-164664338D01*
X88462605Y-164727910D01*
X88461612Y-164766001D01*
X88415887Y-164785798D01*
X88360693Y-164792249D01*
X88110038Y-164803587D01*
X87903568Y-164797333D01*
X87737511Y-164772803D01*
X87608095Y-164729313D01*
X87511547Y-164666179D01*
X87478857Y-164632418D01*
X87449561Y-164602716D01*
X87730249Y-164602716D01*
X87751084Y-164640609D01*
X87787320Y-164680391D01*
X87834228Y-164722951D01*
X87857976Y-164730304D01*
X87867897Y-164708707D01*
X87877667Y-164682970D01*
X87900866Y-164683456D01*
X87951329Y-164711114D01*
X87957510Y-164714865D01*
X88011502Y-164740614D01*
X88044057Y-164742760D01*
X88047013Y-164738941D01*
X88075850Y-164719528D01*
X88116933Y-164713713D01*
X88168753Y-164706797D01*
X88178353Y-164690798D01*
X88151710Y-164672840D01*
X88094804Y-164660047D01*
X88070320Y-164658169D01*
X87966775Y-164653134D01*
X87900180Y-164647534D01*
X87856664Y-164639128D01*
X87822354Y-164625671D01*
X87801175Y-164614652D01*
X87747220Y-164592761D01*
X87730249Y-164602716D01*
X87449561Y-164602716D01*
X87434429Y-164587375D01*
X87402808Y-164569176D01*
X87397520Y-164570781D01*
X87399313Y-164600243D01*
X87436828Y-164644655D01*
X87500515Y-164695805D01*
X87580825Y-164745482D01*
X87627877Y-164768866D01*
X87689499Y-164794141D01*
X87750103Y-164811102D01*
X87821975Y-164821348D01*
X87917403Y-164826477D01*
X88048673Y-164828087D01*
X88083509Y-164828128D01*
X88216713Y-164828815D01*
X88305418Y-164831384D01*
X88355965Y-164836601D01*
X88374694Y-164845229D01*
X88367943Y-164858034D01*
X88363188Y-164861849D01*
X88324574Y-164877598D01*
X88255495Y-164886591D01*
X88148866Y-164889361D01*
X88025261Y-164887274D01*
X87894104Y-164882495D01*
X87799267Y-164874983D01*
X87726216Y-164861886D01*
X87660420Y-164840349D01*
X87587348Y-164807518D01*
X87565923Y-164797055D01*
X87442742Y-164723987D01*
X87367920Y-164653735D01*
X87338994Y-164590836D01*
X87353501Y-164539827D01*
X87408978Y-164505247D01*
X87502962Y-164491633D01*
X87632991Y-164503523D01*
X87715403Y-164521645D01*
X87799567Y-164542504D01*
X87864362Y-164556824D01*
X87892080Y-164561161D01*
X87894184Y-164540776D01*
X87876029Y-164487497D01*
X87843915Y-164417738D01*
X87784884Y-164257470D01*
X87779791Y-164178647D01*
X87828619Y-164178647D01*
X87845578Y-164283934D01*
X87870918Y-164349388D01*
X87903008Y-164378184D01*
X87944213Y-164384084D01*
X88053310Y-164409860D01*
X88150903Y-164484627D01*
X88177178Y-164515510D01*
X88229961Y-164565128D01*
X88268980Y-164570769D01*
X88286134Y-164535547D01*
X88277778Y-164476859D01*
X88256344Y-164356494D01*
X88271625Y-164260460D01*
X88318139Y-164184510D01*
X88381624Y-164109062D01*
X88278125Y-163954071D01*
X88224349Y-163876265D01*
X88179300Y-163815977D01*
X88151988Y-163785210D01*
X88150613Y-163784240D01*
X88113111Y-163787014D01*
X88053204Y-163815914D01*
X87985214Y-163861898D01*
X87923463Y-163915920D01*
X87899783Y-163942633D01*
X87844831Y-164051113D01*
X87828619Y-164178647D01*
X87779791Y-164178647D01*
X87775200Y-164107596D01*
X87814787Y-163966536D01*
X87822111Y-163951561D01*
X87857227Y-163851906D01*
X87858670Y-163780952D01*
X87859711Y-163709385D01*
X87878051Y-163665025D01*
X87920709Y-163633664D01*
X88000892Y-163595262D01*
X88106534Y-163554015D01*
X88225567Y-163514121D01*
X88345923Y-163479778D01*
X88455535Y-163455183D01*
X88502277Y-163447886D01*
X88648748Y-163429663D01*
X88738594Y-163271335D01*
X88825423Y-163271335D01*
X88829670Y-163281008D01*
X88839439Y-163288315D01*
X88888837Y-163312740D01*
X88974061Y-163344780D01*
X89081491Y-163380193D01*
X89197503Y-163414736D01*
X89308477Y-163444167D01*
X89400789Y-163464244D01*
X89408782Y-163465626D01*
X89493009Y-163476159D01*
X89595826Y-163483866D01*
X89705633Y-163488574D01*
X89810828Y-163490108D01*
X89899812Y-163488296D01*
X89960984Y-163482962D01*
X89982775Y-163474224D01*
X89968294Y-163440873D01*
X89946475Y-163408315D01*
X89918459Y-163351962D01*
X89896650Y-163275747D01*
X89894769Y-163265497D01*
X89878553Y-163169517D01*
X89703415Y-163160356D01*
X89957809Y-163160356D01*
X89964844Y-163287000D01*
X89967032Y-163296359D01*
X90011946Y-163382251D01*
X90094748Y-163459760D01*
X90202550Y-163517717D01*
X90235289Y-163528869D01*
X90311105Y-163548241D01*
X90364290Y-163547976D01*
X90419944Y-163525978D01*
X90447597Y-163511134D01*
X90506141Y-163474556D01*
X90539776Y-163445289D01*
X90542943Y-163438413D01*
X90522781Y-163413844D01*
X90474169Y-163382547D01*
X90473023Y-163381947D01*
X90427234Y-163350765D01*
X90495511Y-163350765D01*
X90523874Y-163374753D01*
X90588724Y-163387702D01*
X90649551Y-163365447D01*
X90717025Y-163306622D01*
X90765436Y-163252623D01*
X90780588Y-163219723D01*
X90767287Y-163195303D01*
X90761371Y-163190107D01*
X90706760Y-163170790D01*
X90637474Y-163194545D01*
X90562012Y-163251199D01*
X90506314Y-163310139D01*
X90495511Y-163350765D01*
X90427234Y-163350765D01*
X90406759Y-163336822D01*
X90342168Y-163277430D01*
X90339539Y-163274526D01*
X90275976Y-163203480D01*
X90347575Y-163248372D01*
X90389541Y-163272302D01*
X90422161Y-163276457D01*
X90460959Y-163256838D01*
X90521455Y-163209447D01*
X90531909Y-163200885D01*
X90603475Y-163137783D01*
X90636769Y-163091947D01*
X90635774Y-163052354D01*
X90604475Y-163007978D01*
X90602424Y-163005700D01*
X90575222Y-162965723D01*
X90573779Y-162945473D01*
X90595491Y-162956400D01*
X90639360Y-162998095D01*
X90695881Y-163061522D01*
X90763039Y-163134124D01*
X90809725Y-163167979D01*
X90828771Y-163166784D01*
X90848932Y-163117279D01*
X90851644Y-163041265D01*
X90838273Y-162959478D01*
X90810792Y-162893573D01*
X90759540Y-162828751D01*
X90684213Y-162748287D01*
X90600729Y-162667946D01*
X90525009Y-162603490D01*
X90498560Y-162584424D01*
X90417816Y-162559590D01*
X90320597Y-162572291D01*
X90221338Y-162619684D01*
X90186485Y-162645865D01*
X90101784Y-162743098D01*
X90031774Y-162872117D01*
X89981950Y-163016633D01*
X89957809Y-163160356D01*
X89703415Y-163160356D01*
X89633137Y-163156680D01*
X89519535Y-163151300D01*
X89443471Y-163151174D01*
X89391703Y-163158863D01*
X89350987Y-163176928D01*
X89308082Y-163207928D01*
X89288960Y-163223223D01*
X89214553Y-163274424D01*
X89142935Y-163297645D01*
X89059314Y-163302602D01*
X88969514Y-163298560D01*
X88891133Y-163288313D01*
X88864864Y-163281868D01*
X88825423Y-163271335D01*
X88738594Y-163271335D01*
X88754768Y-163242834D01*
X88838351Y-163066583D01*
X88878053Y-162902629D01*
X88874649Y-162738944D01*
X88828912Y-162563500D01*
X88802822Y-162496551D01*
X88780867Y-162427987D01*
X88775466Y-162375339D01*
X88777285Y-162367356D01*
X88771717Y-162323355D01*
X88754019Y-162301260D01*
X88728960Y-162291682D01*
X88687120Y-162296569D01*
X88620587Y-162318285D01*
X88521450Y-162359192D01*
X88441400Y-162394663D01*
X88319640Y-162450910D01*
X88235334Y-162494726D01*
X88178759Y-162532658D01*
X88140191Y-162571249D01*
X88109905Y-162617045D01*
X88109222Y-162618248D01*
X88050106Y-162768179D01*
X88035772Y-162921396D01*
X88063734Y-163068772D01*
X88131505Y-163201177D01*
X88236599Y-163309483D01*
X88310111Y-163355835D01*
X88355905Y-163388081D01*
X88369421Y-163415947D01*
X88368457Y-163418006D01*
X88336610Y-163427772D01*
X88282275Y-163405608D01*
X88214762Y-163359265D01*
X88143385Y-163296496D01*
X88077454Y-163225051D01*
X88026282Y-163152681D01*
X88009356Y-163119085D01*
X87980880Y-163003787D01*
X87976379Y-162867159D01*
X87995023Y-162732262D01*
X88026558Y-162640027D01*
X88083900Y-162550506D01*
X88169228Y-162452726D01*
X88272635Y-162354696D01*
X88384210Y-162264430D01*
X88426576Y-162235696D01*
X88865628Y-162235696D01*
X88868450Y-162320041D01*
X88869720Y-162340456D01*
X88880623Y-162443846D01*
X88899300Y-162507749D01*
X88927218Y-162542099D01*
X88977591Y-162565110D01*
X88986450Y-162558590D01*
X89221379Y-162558590D01*
X89241393Y-162597465D01*
X89293493Y-162646200D01*
X89328879Y-162670881D01*
X89396567Y-162716147D01*
X89489638Y-162781793D01*
X89593170Y-162857192D01*
X89650574Y-162900028D01*
X89740158Y-162966414D01*
X89814669Y-163019497D01*
X89864910Y-163052853D01*
X89881116Y-163061061D01*
X89897288Y-163038933D01*
X89921445Y-162981774D01*
X89941068Y-162924498D01*
X89992634Y-162808798D01*
X90068797Y-162695487D01*
X90157689Y-162599181D01*
X90247441Y-162534493D01*
X90263992Y-162526825D01*
X90313349Y-162502325D01*
X90332470Y-162472026D01*
X90329815Y-162417102D01*
X90325523Y-162389895D01*
X90313280Y-162323356D01*
X90303390Y-162282543D01*
X90301229Y-162277724D01*
X90275013Y-162279586D01*
X90214788Y-162292629D01*
X90157938Y-162307427D01*
X90060128Y-162332431D01*
X89964986Y-162353665D01*
X89926376Y-162360935D01*
X89854794Y-162385936D01*
X89830277Y-162426250D01*
X89852994Y-162477533D01*
X89919705Y-162533250D01*
X89982409Y-162579953D01*
X90008816Y-162613449D01*
X89995138Y-162628486D01*
X89988639Y-162628829D01*
X89960108Y-162616814D01*
X89896557Y-162583953D01*
X89806894Y-162535021D01*
X89700022Y-162474794D01*
X89680415Y-162463563D01*
X89569822Y-162401596D01*
X89473062Y-162350219D01*
X89399631Y-162314273D01*
X89359025Y-162298601D01*
X89356298Y-162298298D01*
X89326170Y-162319876D01*
X89289284Y-162373833D01*
X89254018Y-162444001D01*
X89228753Y-162514215D01*
X89221379Y-162558590D01*
X88986450Y-162558590D01*
X89007181Y-162543333D01*
X89017883Y-162475229D01*
X89017975Y-162468419D01*
X89036892Y-162358775D01*
X89085400Y-162248959D01*
X89153265Y-162158578D01*
X89198846Y-162121939D01*
X89243995Y-162091273D01*
X89254227Y-162070373D01*
X89224932Y-162054462D01*
X89151502Y-162038766D01*
X89112086Y-162032033D01*
X89045047Y-162026708D01*
X88995262Y-162044289D01*
X88938762Y-162093363D01*
X88937562Y-162094562D01*
X88895420Y-162140225D01*
X88873030Y-162181513D01*
X88865628Y-162235696D01*
X88426576Y-162235696D01*
X88494045Y-162189938D01*
X88592230Y-162139231D01*
X88668855Y-162120322D01*
X88669388Y-162120320D01*
X88712001Y-162102875D01*
X88748481Y-162071646D01*
X88766900Y-162047795D01*
X88767430Y-162027567D01*
X88743216Y-162004811D01*
X88687404Y-161973376D01*
X88593138Y-161927109D01*
X88580800Y-161921174D01*
X88467531Y-161870968D01*
X88352751Y-161827089D01*
X88256658Y-161797077D01*
X88234315Y-161791867D01*
X88140654Y-161768164D01*
X88054983Y-161739036D01*
X88023036Y-161724784D01*
X87920038Y-161656786D01*
X87816994Y-161564595D01*
X87731420Y-161465213D01*
X87693454Y-161404799D01*
X87659384Y-161310856D01*
X87647763Y-161227322D01*
X87696447Y-161227322D01*
X87713847Y-161292410D01*
X87748013Y-161371254D01*
X87793159Y-161449625D01*
X87824301Y-161491947D01*
X87877767Y-161544205D01*
X87950631Y-161599537D01*
X88032858Y-161652423D01*
X88114411Y-161697341D01*
X88185251Y-161728768D01*
X88235344Y-161741184D01*
X88254650Y-161729066D01*
X88254654Y-161728698D01*
X88235174Y-161710566D01*
X88184182Y-161673033D01*
X88115074Y-161625810D01*
X88016782Y-161554033D01*
X87957517Y-161491702D01*
X87936203Y-161443754D01*
X87982004Y-161443754D01*
X87984043Y-161471959D01*
X87999890Y-161496783D01*
X88034731Y-161531834D01*
X88042865Y-161524424D01*
X88024660Y-161482507D01*
X87998001Y-161447175D01*
X87982004Y-161443754D01*
X87936203Y-161443754D01*
X87929436Y-161428533D01*
X87924124Y-161375320D01*
X87906669Y-161320911D01*
X87849578Y-161265263D01*
X87820089Y-161244617D01*
X87757405Y-161207564D01*
X87713019Y-161189488D01*
X87701601Y-161190224D01*
X87696447Y-161227322D01*
X87647763Y-161227322D01*
X87645649Y-161212127D01*
X87650941Y-161120576D01*
X87673956Y-161048168D01*
X87713388Y-161006865D01*
X87737441Y-161001601D01*
X87763690Y-161008357D01*
X87748959Y-161036310D01*
X87746146Y-161039740D01*
X87727311Y-161080434D01*
X87746146Y-161116016D01*
X87786973Y-161148980D01*
X87820945Y-161153932D01*
X87833366Y-161132223D01*
X87825325Y-161108728D01*
X87812557Y-161070085D01*
X87793697Y-160996376D01*
X87772000Y-160902519D01*
X87750723Y-160803434D01*
X87733122Y-160714039D01*
X87722453Y-160649251D01*
X87720720Y-160629471D01*
X87701250Y-160632240D01*
X87654061Y-160653367D01*
X87650800Y-160655040D01*
X87484671Y-160718684D01*
X87303834Y-160750111D01*
X87119232Y-160750523D01*
X86941803Y-160721117D01*
X86782488Y-160663094D01*
X86652228Y-160577654D01*
X86615556Y-160541527D01*
X86537179Y-160442921D01*
X86493458Y-160351642D01*
X86476202Y-160247636D01*
X86474875Y-160197089D01*
X86477069Y-160172825D01*
X87959322Y-160172825D01*
X87963502Y-160220536D01*
X87981488Y-160297388D01*
X88012520Y-160413362D01*
X88013447Y-160416817D01*
X88035389Y-160513944D01*
X88045940Y-160608927D01*
X88046267Y-160720357D01*
X88039775Y-160836336D01*
X88029872Y-160989723D01*
X88025794Y-161104290D01*
X88028367Y-161191822D01*
X88038419Y-161264102D01*
X88056776Y-161332915D01*
X88079088Y-161396304D01*
X88144480Y-161520350D01*
X88245978Y-161633662D01*
X88388469Y-161740652D01*
X88576844Y-161845732D01*
X88577559Y-161846086D01*
X88689447Y-161898828D01*
X88779340Y-161931933D01*
X88869219Y-161951296D01*
X88981069Y-161962808D01*
X89023871Y-161965719D01*
X89211623Y-161971821D01*
X89370862Y-161961951D01*
X89522076Y-161933728D01*
X89667347Y-161890965D01*
X89875774Y-161798800D01*
X90073654Y-161668378D01*
X90249878Y-161509159D01*
X90393342Y-161330603D01*
X90460410Y-161215455D01*
X90517096Y-161101688D01*
X90593793Y-161101688D01*
X90608923Y-161117710D01*
X90643376Y-161105648D01*
X90680744Y-161073599D01*
X90696201Y-161051132D01*
X90716463Y-160991966D01*
X90718936Y-160936272D01*
X90703869Y-160902855D01*
X90694198Y-160899900D01*
X90669915Y-160920987D01*
X90639123Y-160971885D01*
X90611051Y-161034052D01*
X90594925Y-161088942D01*
X90593793Y-161101688D01*
X90517096Y-161101688D01*
X90535295Y-161065165D01*
X90501001Y-160866895D01*
X90484246Y-160785485D01*
X90663269Y-160785485D01*
X90765956Y-160658379D01*
X90817057Y-160590300D01*
X90849701Y-160537289D01*
X90856845Y-160512183D01*
X90823684Y-160496917D01*
X90769674Y-160494018D01*
X90723255Y-160503492D01*
X90712184Y-160512162D01*
X90701984Y-160546609D01*
X90689000Y-160613294D01*
X90681858Y-160658358D01*
X90663269Y-160785485D01*
X90484246Y-160785485D01*
X90471499Y-160723553D01*
X90436897Y-160620196D01*
X90391418Y-160545962D01*
X90329285Y-160489991D01*
X90286330Y-160463287D01*
X90205821Y-160406708D01*
X90146849Y-160335170D01*
X90105851Y-160240068D01*
X90079265Y-160112800D01*
X90063529Y-159944760D01*
X90062229Y-159921985D01*
X90047147Y-159643270D01*
X89899360Y-159598356D01*
X89789315Y-159570781D01*
X89662368Y-159547312D01*
X89581542Y-159536835D01*
X89411511Y-159520227D01*
X89483779Y-159597339D01*
X89537469Y-159672403D01*
X89542780Y-159733210D01*
X89499094Y-159781818D01*
X89417867Y-159816687D01*
X89380576Y-159850351D01*
X89373373Y-159878971D01*
X89350881Y-159941943D01*
X89286259Y-159980892D01*
X89224365Y-159991746D01*
X89173887Y-159998774D01*
X89155074Y-160020426D01*
X89158122Y-160072351D01*
X89161248Y-160092505D01*
X89163261Y-160177990D01*
X89144659Y-160225988D01*
X89089306Y-160256479D01*
X89005323Y-160261547D01*
X88907783Y-160241767D01*
X88841523Y-160214476D01*
X88751135Y-160152554D01*
X88656548Y-160062728D01*
X88572533Y-159961327D01*
X88513859Y-159864676D01*
X88504397Y-159841842D01*
X88477150Y-159779896D01*
X88446536Y-159759891D01*
X88397668Y-159777308D01*
X88361818Y-159798588D01*
X88248784Y-159880867D01*
X88173407Y-159962283D01*
X88150833Y-160003789D01*
X88114028Y-160051891D01*
X88051472Y-160097402D01*
X88037224Y-160104746D01*
X87995423Y-160124910D01*
X87969709Y-160144277D01*
X87959322Y-160172825D01*
X86477069Y-160172825D01*
X86482564Y-160112089D01*
X86513035Y-160049099D01*
X86552637Y-160004612D01*
X86630399Y-159926850D01*
X86864098Y-159943035D01*
X86982030Y-159950539D01*
X87131797Y-159959105D01*
X87294424Y-159967691D01*
X87450940Y-159975258D01*
X87455298Y-159975456D01*
X87812799Y-159991693D01*
X87856047Y-159878449D01*
X87915154Y-159754088D01*
X88000623Y-159612404D01*
X88021416Y-159582871D01*
X88230353Y-159582871D01*
X88241061Y-159583368D01*
X88266932Y-159546952D01*
X88283042Y-159518171D01*
X88308408Y-159463363D01*
X88382560Y-159463363D01*
X88386401Y-159496718D01*
X88402555Y-159483088D01*
X88407207Y-159476076D01*
X88428423Y-159418196D01*
X88431854Y-159387087D01*
X88428012Y-159353732D01*
X88411858Y-159367362D01*
X88407207Y-159374374D01*
X88385991Y-159432254D01*
X88382560Y-159463363D01*
X88308408Y-159463363D01*
X88311762Y-159456117D01*
X88323431Y-159414830D01*
X88321931Y-159407750D01*
X88303886Y-159418057D01*
X88277050Y-159458869D01*
X88250387Y-159513042D01*
X88232864Y-159563432D01*
X88230353Y-159582871D01*
X88021416Y-159582871D01*
X88100909Y-159469968D01*
X88204466Y-159343350D01*
X88286824Y-159260197D01*
X88425909Y-159156669D01*
X88592468Y-159062117D01*
X88765869Y-158986980D01*
X88910610Y-158944608D01*
X89152117Y-158919783D01*
X89394610Y-158942141D01*
G37*
X89394610Y-158942141D02*
X89632091Y-159008494D01*
X89858564Y-159115655D01*
X90068031Y-159260436D01*
X90254497Y-159439652D01*
X90411964Y-159650114D01*
X90485941Y-159781828D01*
X90560955Y-159948223D01*
X90619326Y-160110884D01*
X90657035Y-160256946D01*
X90670070Y-160371308D01*
X90674100Y-160415523D01*
X90695506Y-160436091D01*
X90748264Y-160441984D01*
X90780543Y-160442242D01*
X90873507Y-160453591D01*
X90936277Y-160492246D01*
X90974495Y-160565123D01*
X90993802Y-160679136D01*
X90995802Y-160706082D01*
X90996419Y-160823397D01*
X90977758Y-160921191D01*
X90949686Y-160996114D01*
X90895778Y-161091186D01*
X90819238Y-161188788D01*
X90732061Y-161276647D01*
X90646240Y-161342488D01*
X90582093Y-161372288D01*
X90522310Y-161382337D01*
X90508383Y-161371226D01*
X90540129Y-161339396D01*
X90617275Y-161287340D01*
X90704727Y-161222080D01*
X90786625Y-161143430D01*
X90819532Y-161103535D01*
X90878228Y-160997873D01*
X90920140Y-160874358D01*
X90940760Y-160751580D01*
X90935576Y-160648132D01*
X90932720Y-160636893D01*
X90910510Y-160559452D01*
X90817426Y-160686257D01*
X90765127Y-160762492D01*
X90739556Y-160819217D01*
X90734326Y-160875513D01*
X90738828Y-160921054D01*
X90743168Y-160998868D01*
X90725695Y-161052578D01*
X90694546Y-161091600D01*
X90645671Y-161134504D01*
X90606502Y-161154040D01*
X90604501Y-161154154D01*
X90576114Y-161174602D01*
X90534131Y-161227696D01*
X90496185Y-161287637D01*
X90357996Y-161481305D01*
X90180163Y-161658588D01*
X89973309Y-161810784D01*
X89748057Y-161929191D01*
X89679868Y-161956314D01*
X89589489Y-161989610D01*
X89723789Y-161991401D01*
X89823001Y-161984522D01*
X89894951Y-161969899D01*
X90250550Y-161969899D01*
X90337359Y-162016140D01*
X90392610Y-162053597D01*
X90428064Y-162104139D01*
X90455398Y-162185349D01*
X90459049Y-162199409D01*
X90493222Y-162332573D01*
X90518053Y-162423954D01*
X90536580Y-162481091D01*
X90551838Y-162511520D01*
X90566866Y-162522782D01*
X90584699Y-162522413D01*
X90588846Y-162521611D01*
X90613488Y-162507114D01*
X90626214Y-162468728D01*
X90629942Y-162394985D01*
X90629697Y-162361110D01*
X90612344Y-162205532D01*
X90566574Y-162086990D01*
X90494169Y-162008047D01*
X90396912Y-161971267D01*
X90356792Y-161968833D01*
X90250550Y-161969899D01*
X89894951Y-161969899D01*
X89918761Y-161965060D01*
X89952618Y-161953414D01*
X90025031Y-161934563D01*
X90131725Y-161920430D01*
X90256549Y-161911665D01*
X90383354Y-161908915D01*
X90495987Y-161912829D01*
X90578299Y-161924057D01*
X90591283Y-161927756D01*
X90633684Y-161937936D01*
X90638972Y-161921209D01*
X90630674Y-161900782D01*
X90617608Y-161847886D01*
X90609217Y-161767947D01*
X90607759Y-161726226D01*
X90608382Y-161696597D01*
X90639847Y-161696597D01*
X90648164Y-161760618D01*
X90676190Y-161833067D01*
X90722321Y-161901905D01*
X90723554Y-161903319D01*
X90783769Y-161965153D01*
X90820958Y-161989546D01*
X90831876Y-161976212D01*
X90813276Y-161924866D01*
X90806017Y-161910560D01*
X90770869Y-161825664D01*
X90747770Y-161739212D01*
X90723732Y-161669185D01*
X90688752Y-161642003D01*
X90652842Y-161653045D01*
X90639847Y-161696597D01*
X90608382Y-161696597D01*
X90609360Y-161650148D01*
X90620378Y-161610862D01*
X90647205Y-161594398D01*
X90670021Y-161590148D01*
X90726198Y-161566775D01*
X90792408Y-161518575D01*
X90816546Y-161495724D01*
X90932296Y-161407399D01*
X91057334Y-161365805D01*
X91185400Y-161369261D01*
X91310231Y-161416084D01*
X91425567Y-161504591D01*
X91525145Y-161633100D01*
X91559144Y-161695291D01*
X91621395Y-161850504D01*
X91641302Y-161978900D01*
X91618533Y-162082308D01*
X91552756Y-162162558D01*
X91465431Y-162212818D01*
X91398850Y-162232582D01*
X91321224Y-162244149D01*
X91248247Y-162246821D01*
X91195612Y-162239903D01*
X91178578Y-162225563D01*
X91201452Y-162210627D01*
X91260205Y-162195725D01*
X91311701Y-162187913D01*
X91441614Y-162158711D01*
X91527938Y-162106023D01*
X91573085Y-162028036D01*
X91580463Y-161986001D01*
X91569045Y-161873051D01*
X91522298Y-161747916D01*
X91447565Y-161626069D01*
X91366957Y-161536119D01*
X91298722Y-161477482D01*
X91243490Y-161446866D01*
X91179334Y-161435335D01*
X91115984Y-161433834D01*
X91025343Y-161438431D01*
X90962425Y-161457256D01*
X90904542Y-161497854D01*
X90892943Y-161508024D01*
X90826373Y-161597994D01*
X90806149Y-161704455D01*
X90832411Y-161822669D01*
X90881021Y-161913672D01*
X90944412Y-161996643D01*
X90999276Y-162035702D01*
X91053704Y-162034997D01*
X91086601Y-162019029D01*
X91123197Y-161997793D01*
X91121779Y-162006243D01*
X91095304Y-162036797D01*
X91065812Y-162077128D01*
X91072199Y-162104167D01*
X91088948Y-162119788D01*
X91121263Y-162156623D01*
X91127727Y-162174284D01*
X91110842Y-162195804D01*
X91070888Y-162188678D01*
X91023923Y-162156746D01*
X91014683Y-162147260D01*
X90963095Y-162108604D01*
X90887200Y-162070749D01*
X90858366Y-162059874D01*
X90746698Y-162021825D01*
X90784660Y-162095235D01*
X90808640Y-162167778D01*
X90821775Y-162258397D01*
X90822622Y-162284323D01*
X90826998Y-162354985D01*
X90845421Y-162391530D01*
X90885831Y-162395992D01*
X90956170Y-162370405D01*
X91026026Y-162336436D01*
X91106933Y-162296390D01*
X91152754Y-162277756D01*
X91173334Y-162278138D01*
X91178519Y-162295139D01*
X91178578Y-162299291D01*
X91157211Y-162321874D01*
X91100484Y-162358322D01*
X91019456Y-162401738D01*
X90995362Y-162413513D01*
X90906131Y-162459634D01*
X90834790Y-162502722D01*
X90794214Y-162534842D01*
X90790695Y-162539647D01*
X90751957Y-162567120D01*
X90692486Y-162577978D01*
X90615727Y-162577978D01*
X90741395Y-162724174D01*
X90826967Y-162827705D01*
X90881991Y-162906018D01*
X90912296Y-162969426D01*
X90923710Y-163028245D01*
X90924324Y-163047939D01*
X90911283Y-163127737D01*
X90868822Y-163210764D01*
X90791930Y-163304563D01*
X90685247Y-163407971D01*
X90520971Y-163556857D01*
X90509787Y-164141641D01*
X90505787Y-164311215D01*
X90500718Y-164465414D01*
X90494953Y-164596401D01*
X90488864Y-164696334D01*
X90482827Y-164757375D01*
X90479804Y-164771209D01*
X90473541Y-164803057D01*
X90502532Y-164800037D01*
X90505443Y-164798939D01*
X90538067Y-164795340D01*
X90537977Y-164817720D01*
X90509649Y-164843790D01*
X90446357Y-164878589D01*
X90361409Y-164914871D01*
X90355432Y-164917117D01*
X90261856Y-164954876D01*
X90200976Y-164990668D01*
X90156766Y-165037078D01*
X90113199Y-165106688D01*
X90112562Y-165107808D01*
X90061879Y-165188502D01*
X90010318Y-165257444D01*
X89984029Y-165285635D01*
X89943702Y-165332328D01*
X89889947Y-165408085D01*
X89833727Y-165497351D01*
X89828339Y-165506510D01*
X89734340Y-165642572D01*
X89636896Y-165737682D01*
X89539913Y-165789532D01*
X89447303Y-165795812D01*
X89383393Y-165769443D01*
X89338199Y-165714225D01*
X89322150Y-165624798D01*
X89334874Y-165497770D01*
X89341946Y-165463936D01*
X89413903Y-165463936D01*
X89435409Y-165491877D01*
X89476657Y-165526302D01*
X89525565Y-165557630D01*
X89570047Y-165576281D01*
X89583133Y-165578052D01*
X89620931Y-165571955D01*
X89627627Y-165565092D01*
X89607158Y-165541979D01*
X89557777Y-165509369D01*
X89497529Y-165477288D01*
X89444454Y-165455762D01*
X89424224Y-165452060D01*
X89413903Y-165463936D01*
X89341946Y-165463936D01*
X89347149Y-165439052D01*
X89362080Y-165362528D01*
X89362120Y-165338608D01*
X89478885Y-165338608D01*
X89480987Y-165363373D01*
X89514864Y-165400621D01*
X89566642Y-165440436D01*
X89622444Y-165472901D01*
X89668397Y-165488097D01*
X89684421Y-165485516D01*
X89677963Y-165465661D01*
X89637455Y-165429484D01*
X89597228Y-165401508D01*
X89533643Y-165363005D01*
X89489939Y-165340880D01*
X89478885Y-165338608D01*
X89362120Y-165338608D01*
X89362131Y-165332096D01*
X89349838Y-165346071D01*
X89327735Y-165402769D01*
X89308417Y-165464792D01*
X89284897Y-165594982D01*
X89292487Y-165705087D01*
X89327990Y-165788644D01*
X89388212Y-165839186D01*
X89469956Y-165850247D01*
X89496512Y-165845327D01*
X89599211Y-165798075D01*
X89705433Y-165710804D01*
X89804558Y-165592340D01*
X89809589Y-165585101D01*
X89858298Y-165524289D01*
X89892946Y-165498125D01*
X89907221Y-165507143D01*
X89894813Y-165551876D01*
X89881432Y-165579018D01*
X89831383Y-165652429D01*
X89759327Y-165735354D01*
X89680814Y-165811649D01*
X89611394Y-165865169D01*
X89599019Y-165872216D01*
X89500909Y-165903108D01*
X89401620Y-165902312D01*
X89341591Y-165881246D01*
X89276540Y-165815971D01*
X89236612Y-165717822D01*
X89226900Y-165600664D01*
X89229145Y-165575208D01*
X89251723Y-165464687D01*
X89290577Y-165348701D01*
X89319582Y-165285786D01*
X89373373Y-165285786D01*
X89386086Y-165298498D01*
X89398798Y-165285786D01*
X89386086Y-165273073D01*
X89373373Y-165285786D01*
X89319582Y-165285786D01*
X89338652Y-165244423D01*
X89344974Y-165234935D01*
X89398798Y-165234935D01*
X89411511Y-165247647D01*
X89424224Y-165234935D01*
X89411511Y-165222222D01*
X89398798Y-165234935D01*
X89344974Y-165234935D01*
X89388893Y-165169023D01*
X89401150Y-165156531D01*
X89438066Y-165115694D01*
X89525645Y-165115694D01*
X89526162Y-165166179D01*
X89540586Y-165229578D01*
X89565993Y-165288923D01*
X89578622Y-165307782D01*
X89648908Y-165363001D01*
X89734630Y-165369879D01*
X89835421Y-165328408D01*
X89857932Y-165313920D01*
X89914393Y-165266867D01*
X89973969Y-165204007D01*
X90027642Y-165136990D01*
X90066396Y-165077465D01*
X90081212Y-165037084D01*
X90078490Y-165028974D01*
X90048883Y-165026693D01*
X89980539Y-165032017D01*
X89884822Y-165043847D01*
X89811069Y-165054860D01*
X89703039Y-165071797D01*
X89614595Y-165085216D01*
X89557233Y-165093398D01*
X89541961Y-165095095D01*
X89525645Y-165115694D01*
X89438066Y-165115694D01*
X89440587Y-165112906D01*
X89440154Y-165080229D01*
X89396389Y-165047728D01*
X89360385Y-165029696D01*
X89311814Y-165001908D01*
X89278285Y-164966695D01*
X89257861Y-164915522D01*
X89248604Y-164839848D01*
X89248584Y-164745124D01*
X89492821Y-164745124D01*
X89495066Y-164764523D01*
X89495833Y-164764564D01*
X89521292Y-164744033D01*
X89546725Y-164701001D01*
X89553843Y-164682889D01*
X89668755Y-164682889D01*
X89679276Y-164688288D01*
X89701129Y-164667682D01*
X89703904Y-164650150D01*
X89698464Y-164616227D01*
X89693911Y-164612012D01*
X89677517Y-164631893D01*
X89669284Y-164650150D01*
X89668755Y-164682889D01*
X89553843Y-164682889D01*
X89564799Y-164655015D01*
X89566443Y-164637437D01*
X89547598Y-164656212D01*
X89515551Y-164701001D01*
X89492821Y-164745124D01*
X89248584Y-164745124D01*
X89248580Y-164731138D01*
X89255850Y-164580852D01*
X89256418Y-164571301D01*
X89273677Y-164282610D01*
X88911068Y-164509702D01*
X88775027Y-164594002D01*
X88675031Y-164653324D01*
X88604711Y-164690747D01*
X88557701Y-164709346D01*
X88527632Y-164712199D01*
X88509614Y-164703695D01*
X88456618Y-164664115D01*
X88432632Y-164649137D01*
X88407965Y-164639294D01*
X88420860Y-164662394D01*
X88422329Y-164664338D01*
X88462605Y-164727910D01*
X88461612Y-164766001D01*
X88415887Y-164785798D01*
X88360693Y-164792249D01*
X88110038Y-164803587D01*
X87903568Y-164797333D01*
X87737511Y-164772803D01*
X87608095Y-164729313D01*
X87511547Y-164666179D01*
X87478857Y-164632418D01*
X87449561Y-164602716D01*
X87730249Y-164602716D01*
X87751084Y-164640609D01*
X87787320Y-164680391D01*
X87834228Y-164722951D01*
X87857976Y-164730304D01*
X87867897Y-164708707D01*
X87877667Y-164682970D01*
X87900866Y-164683456D01*
X87951329Y-164711114D01*
X87957510Y-164714865D01*
X88011502Y-164740614D01*
X88044057Y-164742760D01*
X88047013Y-164738941D01*
X88075850Y-164719528D01*
X88116933Y-164713713D01*
X88168753Y-164706797D01*
X88178353Y-164690798D01*
X88151710Y-164672840D01*
X88094804Y-164660047D01*
X88070320Y-164658169D01*
X87966775Y-164653134D01*
X87900180Y-164647534D01*
X87856664Y-164639128D01*
X87822354Y-164625671D01*
X87801175Y-164614652D01*
X87747220Y-164592761D01*
X87730249Y-164602716D01*
X87449561Y-164602716D01*
X87434429Y-164587375D01*
X87402808Y-164569176D01*
X87397520Y-164570781D01*
X87399313Y-164600243D01*
X87436828Y-164644655D01*
X87500515Y-164695805D01*
X87580825Y-164745482D01*
X87627877Y-164768866D01*
X87689499Y-164794141D01*
X87750103Y-164811102D01*
X87821975Y-164821348D01*
X87917403Y-164826477D01*
X88048673Y-164828087D01*
X88083509Y-164828128D01*
X88216713Y-164828815D01*
X88305418Y-164831384D01*
X88355965Y-164836601D01*
X88374694Y-164845229D01*
X88367943Y-164858034D01*
X88363188Y-164861849D01*
X88324574Y-164877598D01*
X88255495Y-164886591D01*
X88148866Y-164889361D01*
X88025261Y-164887274D01*
X87894104Y-164882495D01*
X87799267Y-164874983D01*
X87726216Y-164861886D01*
X87660420Y-164840349D01*
X87587348Y-164807518D01*
X87565923Y-164797055D01*
X87442742Y-164723987D01*
X87367920Y-164653735D01*
X87338994Y-164590836D01*
X87353501Y-164539827D01*
X87408978Y-164505247D01*
X87502962Y-164491633D01*
X87632991Y-164503523D01*
X87715403Y-164521645D01*
X87799567Y-164542504D01*
X87864362Y-164556824D01*
X87892080Y-164561161D01*
X87894184Y-164540776D01*
X87876029Y-164487497D01*
X87843915Y-164417738D01*
X87784884Y-164257470D01*
X87779791Y-164178647D01*
X87828619Y-164178647D01*
X87845578Y-164283934D01*
X87870918Y-164349388D01*
X87903008Y-164378184D01*
X87944213Y-164384084D01*
X88053310Y-164409860D01*
X88150903Y-164484627D01*
X88177178Y-164515510D01*
X88229961Y-164565128D01*
X88268980Y-164570769D01*
X88286134Y-164535547D01*
X88277778Y-164476859D01*
X88256344Y-164356494D01*
X88271625Y-164260460D01*
X88318139Y-164184510D01*
X88381624Y-164109062D01*
X88278125Y-163954071D01*
X88224349Y-163876265D01*
X88179300Y-163815977D01*
X88151988Y-163785210D01*
X88150613Y-163784240D01*
X88113111Y-163787014D01*
X88053204Y-163815914D01*
X87985214Y-163861898D01*
X87923463Y-163915920D01*
X87899783Y-163942633D01*
X87844831Y-164051113D01*
X87828619Y-164178647D01*
X87779791Y-164178647D01*
X87775200Y-164107596D01*
X87814787Y-163966536D01*
X87822111Y-163951561D01*
X87857227Y-163851906D01*
X87858670Y-163780952D01*
X87859711Y-163709385D01*
X87878051Y-163665025D01*
X87920709Y-163633664D01*
X88000892Y-163595262D01*
X88106534Y-163554015D01*
X88225567Y-163514121D01*
X88345923Y-163479778D01*
X88455535Y-163455183D01*
X88502277Y-163447886D01*
X88648748Y-163429663D01*
X88738594Y-163271335D01*
X88825423Y-163271335D01*
X88829670Y-163281008D01*
X88839439Y-163288315D01*
X88888837Y-163312740D01*
X88974061Y-163344780D01*
X89081491Y-163380193D01*
X89197503Y-163414736D01*
X89308477Y-163444167D01*
X89400789Y-163464244D01*
X89408782Y-163465626D01*
X89493009Y-163476159D01*
X89595826Y-163483866D01*
X89705633Y-163488574D01*
X89810828Y-163490108D01*
X89899812Y-163488296D01*
X89960984Y-163482962D01*
X89982775Y-163474224D01*
X89968294Y-163440873D01*
X89946475Y-163408315D01*
X89918459Y-163351962D01*
X89896650Y-163275747D01*
X89894769Y-163265497D01*
X89878553Y-163169517D01*
X89703415Y-163160356D01*
X89957809Y-163160356D01*
X89964844Y-163287000D01*
X89967032Y-163296359D01*
X90011946Y-163382251D01*
X90094748Y-163459760D01*
X90202550Y-163517717D01*
X90235289Y-163528869D01*
X90311105Y-163548241D01*
X90364290Y-163547976D01*
X90419944Y-163525978D01*
X90447597Y-163511134D01*
X90506141Y-163474556D01*
X90539776Y-163445289D01*
X90542943Y-163438413D01*
X90522781Y-163413844D01*
X90474169Y-163382547D01*
X90473023Y-163381947D01*
X90427234Y-163350765D01*
X90495511Y-163350765D01*
X90523874Y-163374753D01*
X90588724Y-163387702D01*
X90649551Y-163365447D01*
X90717025Y-163306622D01*
X90765436Y-163252623D01*
X90780588Y-163219723D01*
X90767287Y-163195303D01*
X90761371Y-163190107D01*
X90706760Y-163170790D01*
X90637474Y-163194545D01*
X90562012Y-163251199D01*
X90506314Y-163310139D01*
X90495511Y-163350765D01*
X90427234Y-163350765D01*
X90406759Y-163336822D01*
X90342168Y-163277430D01*
X90339539Y-163274526D01*
X90275976Y-163203480D01*
X90347575Y-163248372D01*
X90389541Y-163272302D01*
X90422161Y-163276457D01*
X90460959Y-163256838D01*
X90521455Y-163209447D01*
X90531909Y-163200885D01*
X90603475Y-163137783D01*
X90636769Y-163091947D01*
X90635774Y-163052354D01*
X90604475Y-163007978D01*
X90602424Y-163005700D01*
X90575222Y-162965723D01*
X90573779Y-162945473D01*
X90595491Y-162956400D01*
X90639360Y-162998095D01*
X90695881Y-163061522D01*
X90763039Y-163134124D01*
X90809725Y-163167979D01*
X90828771Y-163166784D01*
X90848932Y-163117279D01*
X90851644Y-163041265D01*
X90838273Y-162959478D01*
X90810792Y-162893573D01*
X90759540Y-162828751D01*
X90684213Y-162748287D01*
X90600729Y-162667946D01*
X90525009Y-162603490D01*
X90498560Y-162584424D01*
X90417816Y-162559590D01*
X90320597Y-162572291D01*
X90221338Y-162619684D01*
X90186485Y-162645865D01*
X90101784Y-162743098D01*
X90031774Y-162872117D01*
X89981950Y-163016633D01*
X89957809Y-163160356D01*
X89703415Y-163160356D01*
X89633137Y-163156680D01*
X89519535Y-163151300D01*
X89443471Y-163151174D01*
X89391703Y-163158863D01*
X89350987Y-163176928D01*
X89308082Y-163207928D01*
X89288960Y-163223223D01*
X89214553Y-163274424D01*
X89142935Y-163297645D01*
X89059314Y-163302602D01*
X88969514Y-163298560D01*
X88891133Y-163288313D01*
X88864864Y-163281868D01*
X88825423Y-163271335D01*
X88738594Y-163271335D01*
X88754768Y-163242834D01*
X88838351Y-163066583D01*
X88878053Y-162902629D01*
X88874649Y-162738944D01*
X88828912Y-162563500D01*
X88802822Y-162496551D01*
X88780867Y-162427987D01*
X88775466Y-162375339D01*
X88777285Y-162367356D01*
X88771717Y-162323355D01*
X88754019Y-162301260D01*
X88728960Y-162291682D01*
X88687120Y-162296569D01*
X88620587Y-162318285D01*
X88521450Y-162359192D01*
X88441400Y-162394663D01*
X88319640Y-162450910D01*
X88235334Y-162494726D01*
X88178759Y-162532658D01*
X88140191Y-162571249D01*
X88109905Y-162617045D01*
X88109222Y-162618248D01*
X88050106Y-162768179D01*
X88035772Y-162921396D01*
X88063734Y-163068772D01*
X88131505Y-163201177D01*
X88236599Y-163309483D01*
X88310111Y-163355835D01*
X88355905Y-163388081D01*
X88369421Y-163415947D01*
X88368457Y-163418006D01*
X88336610Y-163427772D01*
X88282275Y-163405608D01*
X88214762Y-163359265D01*
X88143385Y-163296496D01*
X88077454Y-163225051D01*
X88026282Y-163152681D01*
X88009356Y-163119085D01*
X87980880Y-163003787D01*
X87976379Y-162867159D01*
X87995023Y-162732262D01*
X88026558Y-162640027D01*
X88083900Y-162550506D01*
X88169228Y-162452726D01*
X88272635Y-162354696D01*
X88384210Y-162264430D01*
X88426576Y-162235696D01*
X88865628Y-162235696D01*
X88868450Y-162320041D01*
X88869720Y-162340456D01*
X88880623Y-162443846D01*
X88899300Y-162507749D01*
X88927218Y-162542099D01*
X88977591Y-162565110D01*
X88986450Y-162558590D01*
X89221379Y-162558590D01*
X89241393Y-162597465D01*
X89293493Y-162646200D01*
X89328879Y-162670881D01*
X89396567Y-162716147D01*
X89489638Y-162781793D01*
X89593170Y-162857192D01*
X89650574Y-162900028D01*
X89740158Y-162966414D01*
X89814669Y-163019497D01*
X89864910Y-163052853D01*
X89881116Y-163061061D01*
X89897288Y-163038933D01*
X89921445Y-162981774D01*
X89941068Y-162924498D01*
X89992634Y-162808798D01*
X90068797Y-162695487D01*
X90157689Y-162599181D01*
X90247441Y-162534493D01*
X90263992Y-162526825D01*
X90313349Y-162502325D01*
X90332470Y-162472026D01*
X90329815Y-162417102D01*
X90325523Y-162389895D01*
X90313280Y-162323356D01*
X90303390Y-162282543D01*
X90301229Y-162277724D01*
X90275013Y-162279586D01*
X90214788Y-162292629D01*
X90157938Y-162307427D01*
X90060128Y-162332431D01*
X89964986Y-162353665D01*
X89926376Y-162360935D01*
X89854794Y-162385936D01*
X89830277Y-162426250D01*
X89852994Y-162477533D01*
X89919705Y-162533250D01*
X89982409Y-162579953D01*
X90008816Y-162613449D01*
X89995138Y-162628486D01*
X89988639Y-162628829D01*
X89960108Y-162616814D01*
X89896557Y-162583953D01*
X89806894Y-162535021D01*
X89700022Y-162474794D01*
X89680415Y-162463563D01*
X89569822Y-162401596D01*
X89473062Y-162350219D01*
X89399631Y-162314273D01*
X89359025Y-162298601D01*
X89356298Y-162298298D01*
X89326170Y-162319876D01*
X89289284Y-162373833D01*
X89254018Y-162444001D01*
X89228753Y-162514215D01*
X89221379Y-162558590D01*
X88986450Y-162558590D01*
X89007181Y-162543333D01*
X89017883Y-162475229D01*
X89017975Y-162468419D01*
X89036892Y-162358775D01*
X89085400Y-162248959D01*
X89153265Y-162158578D01*
X89198846Y-162121939D01*
X89243995Y-162091273D01*
X89254227Y-162070373D01*
X89224932Y-162054462D01*
X89151502Y-162038766D01*
X89112086Y-162032033D01*
X89045047Y-162026708D01*
X88995262Y-162044289D01*
X88938762Y-162093363D01*
X88937562Y-162094562D01*
X88895420Y-162140225D01*
X88873030Y-162181513D01*
X88865628Y-162235696D01*
X88426576Y-162235696D01*
X88494045Y-162189938D01*
X88592230Y-162139231D01*
X88668855Y-162120322D01*
X88669388Y-162120320D01*
X88712001Y-162102875D01*
X88748481Y-162071646D01*
X88766900Y-162047795D01*
X88767430Y-162027567D01*
X88743216Y-162004811D01*
X88687404Y-161973376D01*
X88593138Y-161927109D01*
X88580800Y-161921174D01*
X88467531Y-161870968D01*
X88352751Y-161827089D01*
X88256658Y-161797077D01*
X88234315Y-161791867D01*
X88140654Y-161768164D01*
X88054983Y-161739036D01*
X88023036Y-161724784D01*
X87920038Y-161656786D01*
X87816994Y-161564595D01*
X87731420Y-161465213D01*
X87693454Y-161404799D01*
X87659384Y-161310856D01*
X87647763Y-161227322D01*
X87696447Y-161227322D01*
X87713847Y-161292410D01*
X87748013Y-161371254D01*
X87793159Y-161449625D01*
X87824301Y-161491947D01*
X87877767Y-161544205D01*
X87950631Y-161599537D01*
X88032858Y-161652423D01*
X88114411Y-161697341D01*
X88185251Y-161728768D01*
X88235344Y-161741184D01*
X88254650Y-161729066D01*
X88254654Y-161728698D01*
X88235174Y-161710566D01*
X88184182Y-161673033D01*
X88115074Y-161625810D01*
X88016782Y-161554033D01*
X87957517Y-161491702D01*
X87936203Y-161443754D01*
X87982004Y-161443754D01*
X87984043Y-161471959D01*
X87999890Y-161496783D01*
X88034731Y-161531834D01*
X88042865Y-161524424D01*
X88024660Y-161482507D01*
X87998001Y-161447175D01*
X87982004Y-161443754D01*
X87936203Y-161443754D01*
X87929436Y-161428533D01*
X87924124Y-161375320D01*
X87906669Y-161320911D01*
X87849578Y-161265263D01*
X87820089Y-161244617D01*
X87757405Y-161207564D01*
X87713019Y-161189488D01*
X87701601Y-161190224D01*
X87696447Y-161227322D01*
X87647763Y-161227322D01*
X87645649Y-161212127D01*
X87650941Y-161120576D01*
X87673956Y-161048168D01*
X87713388Y-161006865D01*
X87737441Y-161001601D01*
X87763690Y-161008357D01*
X87748959Y-161036310D01*
X87746146Y-161039740D01*
X87727311Y-161080434D01*
X87746146Y-161116016D01*
X87786973Y-161148980D01*
X87820945Y-161153932D01*
X87833366Y-161132223D01*
X87825325Y-161108728D01*
X87812557Y-161070085D01*
X87793697Y-160996376D01*
X87772000Y-160902519D01*
X87750723Y-160803434D01*
X87733122Y-160714039D01*
X87722453Y-160649251D01*
X87720720Y-160629471D01*
X87701250Y-160632240D01*
X87654061Y-160653367D01*
X87650800Y-160655040D01*
X87484671Y-160718684D01*
X87303834Y-160750111D01*
X87119232Y-160750523D01*
X86941803Y-160721117D01*
X86782488Y-160663094D01*
X86652228Y-160577654D01*
X86615556Y-160541527D01*
X86537179Y-160442921D01*
X86493458Y-160351642D01*
X86476202Y-160247636D01*
X86474875Y-160197089D01*
X86477069Y-160172825D01*
X87959322Y-160172825D01*
X87963502Y-160220536D01*
X87981488Y-160297388D01*
X88012520Y-160413362D01*
X88013447Y-160416817D01*
X88035389Y-160513944D01*
X88045940Y-160608927D01*
X88046267Y-160720357D01*
X88039775Y-160836336D01*
X88029872Y-160989723D01*
X88025794Y-161104290D01*
X88028367Y-161191822D01*
X88038419Y-161264102D01*
X88056776Y-161332915D01*
X88079088Y-161396304D01*
X88144480Y-161520350D01*
X88245978Y-161633662D01*
X88388469Y-161740652D01*
X88576844Y-161845732D01*
X88577559Y-161846086D01*
X88689447Y-161898828D01*
X88779340Y-161931933D01*
X88869219Y-161951296D01*
X88981069Y-161962808D01*
X89023871Y-161965719D01*
X89211623Y-161971821D01*
X89370862Y-161961951D01*
X89522076Y-161933728D01*
X89667347Y-161890965D01*
X89875774Y-161798800D01*
X90073654Y-161668378D01*
X90249878Y-161509159D01*
X90393342Y-161330603D01*
X90460410Y-161215455D01*
X90517096Y-161101688D01*
X90593793Y-161101688D01*
X90608923Y-161117710D01*
X90643376Y-161105648D01*
X90680744Y-161073599D01*
X90696201Y-161051132D01*
X90716463Y-160991966D01*
X90718936Y-160936272D01*
X90703869Y-160902855D01*
X90694198Y-160899900D01*
X90669915Y-160920987D01*
X90639123Y-160971885D01*
X90611051Y-161034052D01*
X90594925Y-161088942D01*
X90593793Y-161101688D01*
X90517096Y-161101688D01*
X90535295Y-161065165D01*
X90501001Y-160866895D01*
X90484246Y-160785485D01*
X90663269Y-160785485D01*
X90765956Y-160658379D01*
X90817057Y-160590300D01*
X90849701Y-160537289D01*
X90856845Y-160512183D01*
X90823684Y-160496917D01*
X90769674Y-160494018D01*
X90723255Y-160503492D01*
X90712184Y-160512162D01*
X90701984Y-160546609D01*
X90689000Y-160613294D01*
X90681858Y-160658358D01*
X90663269Y-160785485D01*
X90484246Y-160785485D01*
X90471499Y-160723553D01*
X90436897Y-160620196D01*
X90391418Y-160545962D01*
X90329285Y-160489991D01*
X90286330Y-160463287D01*
X90205821Y-160406708D01*
X90146849Y-160335170D01*
X90105851Y-160240068D01*
X90079265Y-160112800D01*
X90063529Y-159944760D01*
X90062229Y-159921985D01*
X90047147Y-159643270D01*
X89899360Y-159598356D01*
X89789315Y-159570781D01*
X89662368Y-159547312D01*
X89581542Y-159536835D01*
X89411511Y-159520227D01*
X89483779Y-159597339D01*
X89537469Y-159672403D01*
X89542780Y-159733210D01*
X89499094Y-159781818D01*
X89417867Y-159816687D01*
X89380576Y-159850351D01*
X89373373Y-159878971D01*
X89350881Y-159941943D01*
X89286259Y-159980892D01*
X89224365Y-159991746D01*
X89173887Y-159998774D01*
X89155074Y-160020426D01*
X89158122Y-160072351D01*
X89161248Y-160092505D01*
X89163261Y-160177990D01*
X89144659Y-160225988D01*
X89089306Y-160256479D01*
X89005323Y-160261547D01*
X88907783Y-160241767D01*
X88841523Y-160214476D01*
X88751135Y-160152554D01*
X88656548Y-160062728D01*
X88572533Y-159961327D01*
X88513859Y-159864676D01*
X88504397Y-159841842D01*
X88477150Y-159779896D01*
X88446536Y-159759891D01*
X88397668Y-159777308D01*
X88361818Y-159798588D01*
X88248784Y-159880867D01*
X88173407Y-159962283D01*
X88150833Y-160003789D01*
X88114028Y-160051891D01*
X88051472Y-160097402D01*
X88037224Y-160104746D01*
X87995423Y-160124910D01*
X87969709Y-160144277D01*
X87959322Y-160172825D01*
X86477069Y-160172825D01*
X86482564Y-160112089D01*
X86513035Y-160049099D01*
X86552637Y-160004612D01*
X86630399Y-159926850D01*
X86864098Y-159943035D01*
X86982030Y-159950539D01*
X87131797Y-159959105D01*
X87294424Y-159967691D01*
X87450940Y-159975258D01*
X87455298Y-159975456D01*
X87812799Y-159991693D01*
X87856047Y-159878449D01*
X87915154Y-159754088D01*
X88000623Y-159612404D01*
X88021416Y-159582871D01*
X88230353Y-159582871D01*
X88241061Y-159583368D01*
X88266932Y-159546952D01*
X88283042Y-159518171D01*
X88308408Y-159463363D01*
X88382560Y-159463363D01*
X88386401Y-159496718D01*
X88402555Y-159483088D01*
X88407207Y-159476076D01*
X88428423Y-159418196D01*
X88431854Y-159387087D01*
X88428012Y-159353732D01*
X88411858Y-159367362D01*
X88407207Y-159374374D01*
X88385991Y-159432254D01*
X88382560Y-159463363D01*
X88308408Y-159463363D01*
X88311762Y-159456117D01*
X88323431Y-159414830D01*
X88321931Y-159407750D01*
X88303886Y-159418057D01*
X88277050Y-159458869D01*
X88250387Y-159513042D01*
X88232864Y-159563432D01*
X88230353Y-159582871D01*
X88021416Y-159582871D01*
X88100909Y-159469968D01*
X88204466Y-159343350D01*
X88286824Y-159260197D01*
X88425909Y-159156669D01*
X88592468Y-159062117D01*
X88765869Y-158986980D01*
X88910610Y-158944608D01*
X89152117Y-158919783D01*
X89394610Y-158942141D01*
%TD*%
D11*
%TO.C,REF\u002A\u002A*%
X120350000Y-22700000D03*
X117810000Y-22700000D03*
X115270000Y-22700000D03*
X112730000Y-22700000D03*
X110190000Y-22700000D03*
D12*
X107650000Y-22700000D03*
%TD*%
D11*
%TO.C,REF\u002A\u002A*%
X120350000Y-166700000D03*
X117810000Y-166700000D03*
X115270000Y-166700000D03*
X112730000Y-166700000D03*
X110190000Y-166700000D03*
D12*
X107650000Y-166700000D03*
%TD*%
D13*
%TO.C,C1*%
X116400000Y-145200000D03*
D14*
X114400000Y-145200000D03*
%TD*%
%TO.C,C2*%
X123400000Y-145200000D03*
D13*
X125400000Y-145200000D03*
%TD*%
%TO.C,C3*%
X118150000Y-37450000D03*
X123150000Y-37450000D03*
%TD*%
%TO.C,C4*%
X111400000Y-137200000D03*
D15*
X118900000Y-137200000D03*
%TD*%
%TO.C,C5*%
X128900000Y-137200000D03*
D13*
X121400000Y-137200000D03*
%TD*%
%TO.C,C6*%
X133900000Y-70200000D03*
X128900000Y-70200000D03*
%TD*%
%TO.C,C7*%
X133900000Y-78200000D03*
X128900000Y-78200000D03*
%TD*%
%TO.C,C8*%
X112650000Y-32700000D03*
X107650000Y-32700000D03*
%TD*%
D15*
%TO.C,C9*%
X118900000Y-133200000D03*
D13*
X111400000Y-133200000D03*
%TD*%
%TO.C,C10*%
X121400000Y-133200000D03*
D15*
X128900000Y-133200000D03*
%TD*%
D13*
%TO.C,C11*%
X119400000Y-66450000D03*
X119400000Y-61450000D03*
%TD*%
%TO.C,C12*%
X103400000Y-49450000D03*
X108400000Y-49450000D03*
%TD*%
D16*
%TO.C,Q1*%
X98900000Y-109680000D03*
X98900000Y-108410000D03*
D17*
X98900000Y-110950000D03*
%TD*%
D16*
%TO.C,Q2*%
X115400000Y-115430000D03*
X115400000Y-114160000D03*
D17*
X115400000Y-116700000D03*
%TD*%
D15*
%TO.C,R7*%
X135270000Y-74200000D03*
D13*
X127650000Y-74200000D03*
%TD*%
%TO.C,R4*%
X129150000Y-46200000D03*
D15*
X136770000Y-46200000D03*
%TD*%
%TO.C,R12*%
X107900000Y-75320000D03*
D13*
X107900000Y-67700000D03*
%TD*%
D15*
%TO.C,R21*%
X123270000Y-90200000D03*
D13*
X115650000Y-90200000D03*
%TD*%
%TO.C,R23*%
X135400000Y-105700000D03*
D15*
X127780000Y-105700000D03*
%TD*%
D14*
%TO.C,D2*%
X138650000Y-90450000D03*
D15*
X138650000Y-98070000D03*
%TD*%
D18*
%TO.C,J6*%
X98474000Y-178152000D03*
X107110000Y-186280000D03*
X103808000Y-174215000D03*
X110666000Y-180184000D03*
D19*
X99998000Y-185264000D03*
%TD*%
D15*
%TO.C,R1*%
X106400000Y-157820000D03*
D13*
X106400000Y-150200000D03*
%TD*%
D15*
%TO.C,R13*%
X100780000Y-53450000D03*
D13*
X108400000Y-53450000D03*
%TD*%
%TO.C,C13*%
X127900000Y-94200000D03*
X132900000Y-94200000D03*
%TD*%
D18*
%TO.C,J7*%
X126224000Y-178152000D03*
X134860000Y-186280000D03*
X131558000Y-174215000D03*
X138416000Y-180184000D03*
D19*
X127748000Y-185264000D03*
%TD*%
D15*
%TO.C,R15*%
X136770000Y-42200000D03*
D13*
X129150000Y-42200000D03*
%TD*%
%TO.C,R17*%
X115900000Y-28700000D03*
D15*
X123520000Y-28700000D03*
%TD*%
%TO.C,R18*%
X100150000Y-44820000D03*
D13*
X100150000Y-37200000D03*
%TD*%
%TO.C,R19*%
X99900000Y-75200000D03*
D15*
X99900000Y-67580000D03*
%TD*%
%TO.C,R35*%
X100280000Y-99200000D03*
D13*
X107900000Y-99200000D03*
%TD*%
D12*
%TO.C,J1*%
X124840000Y-157700000D03*
D11*
X124840000Y-155160000D03*
X122300000Y-157700000D03*
X122300000Y-155160000D03*
X119760000Y-157700000D03*
X119760000Y-155160000D03*
X117220000Y-157700000D03*
X117220000Y-155160000D03*
X114680000Y-157700000D03*
X114680000Y-155160000D03*
%TD*%
D20*
%TO.C,RV1*%
X133150000Y-36030000D03*
X135690000Y-33490000D03*
X133150000Y-30950000D03*
%TD*%
D19*
%TO.C,J5*%
X72248000Y-148764000D03*
D18*
X82916000Y-143684000D03*
X76058000Y-137715000D03*
X79360000Y-149780000D03*
X70724000Y-141652000D03*
%TD*%
%TO.C,J4*%
X70724000Y-105152000D03*
X79360000Y-113280000D03*
X76058000Y-101215000D03*
X82916000Y-107184000D03*
D19*
X72248000Y-112264000D03*
%TD*%
D17*
%TO.C,Q3*%
X106150000Y-108450000D03*
D16*
X106150000Y-110990000D03*
X106150000Y-109720000D03*
%TD*%
D13*
%TO.C,R20*%
X103900000Y-75200000D03*
D15*
X103900000Y-67580000D03*
%TD*%
D18*
%TO.C,J8*%
X70724000Y-178152000D03*
X79360000Y-186280000D03*
X76058000Y-174215000D03*
X82916000Y-180184000D03*
D19*
X72248000Y-185264000D03*
%TD*%
D14*
%TO.C,D1*%
X115650000Y-85700000D03*
D15*
X123270000Y-85700000D03*
%TD*%
D19*
%TO.C,J3*%
X72248000Y-75764000D03*
D18*
X82916000Y-70684000D03*
X76058000Y-64715000D03*
X79360000Y-76780000D03*
X70724000Y-68652000D03*
%TD*%
D15*
%TO.C,R6*%
X136770000Y-50200000D03*
D13*
X129150000Y-50200000D03*
%TD*%
D15*
%TO.C,R8*%
X108150000Y-37200000D03*
D13*
X108150000Y-44820000D03*
%TD*%
%TO.C,C14*%
X124600000Y-115200000D03*
X119600000Y-115200000D03*
%TD*%
D19*
%TO.C,J2*%
X72248000Y-39264000D03*
D18*
X82916000Y-34184000D03*
X76058000Y-28215000D03*
X79360000Y-40280000D03*
X70724000Y-32152000D03*
%TD*%
D15*
%TO.C,R2*%
X133400000Y-157820000D03*
D13*
X133400000Y-150200000D03*
%TD*%
D15*
%TO.C,R9*%
X127780000Y-82200000D03*
D13*
X135400000Y-82200000D03*
%TD*%
%TO.C,R14*%
X108400000Y-58450000D03*
D15*
X100780000Y-58450000D03*
%TD*%
%TO.C,D3*%
X127900000Y-117820000D03*
D14*
X127900000Y-110200000D03*
%TD*%
D21*
%TO.C,D4*%
X91600000Y-132100000D03*
D22*
X91600000Y-129560000D03*
%TD*%
D13*
%TO.C,R5*%
X115900000Y-32700000D03*
D15*
X123520000Y-32700000D03*
%TD*%
D13*
%TO.C,R3*%
X115650000Y-81450000D03*
D15*
X123270000Y-81450000D03*
%TD*%
%TO.C,R10*%
X104150000Y-44820000D03*
D13*
X104150000Y-37200000D03*
%TD*%
%TO.C,R11*%
X129150000Y-54200000D03*
D15*
X136770000Y-54200000D03*
%TD*%
%TO.C,R16*%
X100780000Y-63450000D03*
D13*
X108400000Y-63450000D03*
%TD*%
%TO.C,R22*%
X134150000Y-90200000D03*
D15*
X126530000Y-90200000D03*
%TD*%
%TO.C,R24*%
X127780000Y-102200000D03*
D13*
X135400000Y-102200000D03*
%TD*%
%TO.C,R25*%
X127650000Y-97950000D03*
D15*
X135270000Y-97950000D03*
%TD*%
%TO.C,R26*%
X108020000Y-83950000D03*
D13*
X100400000Y-83950000D03*
%TD*%
%TO.C,R27*%
X108150000Y-80450000D03*
D15*
X100530000Y-80450000D03*
%TD*%
D13*
%TO.C,R29*%
X95650000Y-122450000D03*
D15*
X95650000Y-114830000D03*
%TD*%
%TO.C,R30*%
X107770000Y-123450000D03*
D13*
X100150000Y-123450000D03*
%TD*%
%TO.C,R31*%
X107900000Y-95200000D03*
D15*
X100280000Y-95200000D03*
%TD*%
%TO.C,R28*%
X108020000Y-91450000D03*
D13*
X100400000Y-91450000D03*
%TD*%
%TO.C,R32*%
X107650000Y-118950000D03*
D15*
X100030000Y-118950000D03*
%TD*%
D13*
%TO.C,R33*%
X100650000Y-134200000D03*
D15*
X108270000Y-134200000D03*
%TD*%
%TO.C,R34*%
X107770000Y-115200000D03*
D13*
X100150000Y-115200000D03*
%TD*%
%TO.C,R36*%
X100400000Y-87700000D03*
D15*
X108020000Y-87700000D03*
%TD*%
D20*
%TO.C,R37*%
X90900000Y-118780000D03*
X90900000Y-116240000D03*
X90900000Y-113700000D03*
%TD*%
D23*
%TO.C,U1*%
X115400000Y-42450000D03*
D24*
X123020000Y-57690000D03*
X115400000Y-44990000D03*
X123020000Y-55150000D03*
X115400000Y-47530000D03*
X123020000Y-52610000D03*
X115400000Y-50070000D03*
X123020000Y-50070000D03*
X115400000Y-52610000D03*
X123020000Y-47530000D03*
X115400000Y-55150000D03*
X123020000Y-44990000D03*
X115400000Y-57690000D03*
X123020000Y-42450000D03*
%TD*%
%TO.C,U2*%
X115530000Y-77450000D03*
X123150000Y-69830000D03*
X115530000Y-74910000D03*
X123150000Y-72370000D03*
X115530000Y-72370000D03*
X123150000Y-74910000D03*
X115530000Y-69830000D03*
D23*
X123150000Y-77450000D03*
%TD*%
D24*
%TO.C,U3*%
X123020000Y-95200000D03*
X115400000Y-110440000D03*
X123020000Y-97740000D03*
X115400000Y-107900000D03*
X123020000Y-100280000D03*
X115400000Y-105360000D03*
X123020000Y-102820000D03*
X115400000Y-102820000D03*
X123020000Y-105360000D03*
X115400000Y-100280000D03*
X123020000Y-107900000D03*
X115400000Y-97740000D03*
X123020000Y-110440000D03*
D23*
X115400000Y-95200000D03*
%TD*%
%TO.C,U4*%
X123150000Y-127950000D03*
D24*
X115530000Y-120330000D03*
X123150000Y-125410000D03*
X115530000Y-122870000D03*
X123150000Y-122870000D03*
X115530000Y-125410000D03*
X123150000Y-120330000D03*
X115530000Y-127950000D03*
%TD*%
M02*
