M48
; DRILL file {KiCad (5.1.6)-1} date 06/22/20 20:03:57
; FORMAT={-:-/ absolute / inch / decimal}
; #@! TF.CreationDate,2020-06-22T20:03:57-05:00
; #@! TF.GenerationSoftware,Kicad,Pcbnew,(5.1.6)-1
; #@! TF.FileFunction,Plated,1,2,PTH
FMAT,2
INCH
T1C0.0157
T2C0.0295
T3C0.0315
T4C0.0354
T5C0.0394
T6C0.1063
%
G90
G05
T1
X4.4587Y-4.7697
T2
X4.1791Y-4.2697
X4.1791Y-4.3197
X4.1791Y-4.3697
X4.5433Y-4.4945
X4.5433Y-4.5445
X4.5433Y-4.5945
X3.8937Y-4.2681
X3.8937Y-4.3181
X3.8937Y-4.3681
T3
X4.2382Y-1.2874
X4.435Y-1.2874
X4.3858Y-5.4016
X4.6811Y-5.4016
X3.9382Y-4.6831
X4.2382Y-4.6831
X5.0256Y-3.8563
X5.3256Y-3.8563
X4.563Y-1.2874
X4.863Y-1.2874
X4.7087Y-4.5354
X4.9055Y-4.5354
X3.9429Y-1.4646
X3.9429Y-1.7646
X5.0748Y-3.0787
X5.2717Y-3.0787
X4.6516Y-1.4744
X4.8484Y-1.4744
X4.5484Y-2.7492
X4.5484Y-2.8492
X4.5484Y-2.9492
X4.5484Y-3.0492
X4.8484Y-2.7492
X4.8484Y-2.8492
X4.8484Y-2.9492
X4.8484Y-3.0492
X3.9528Y-3.6004
X4.2528Y-3.6004
X5.0307Y-4.0236
X5.3307Y-4.0236
X4.2579Y-1.4646
X4.2579Y-1.7646
X4.563Y-1.1299
X4.863Y-1.1299
X5.4587Y-3.561
X5.4587Y-3.861
X4.5433Y-1.6713
X4.5433Y-1.7713
X4.5433Y-1.8713
X4.5433Y-1.9713
X4.5433Y-2.0713
X4.5433Y-2.1713
X4.5433Y-2.2713
X4.8433Y-1.6713
X4.8433Y-1.7713
X4.8433Y-1.8713
X4.8433Y-1.9713
X4.8433Y-2.0713
X4.8433Y-2.1713
X4.8433Y-2.2713
X3.948Y-3.748
X4.248Y-3.748
X4.9815Y-3.5512
X5.2815Y-3.5512
X5.0354Y-4.3386
X5.0354Y-4.6386
X5.0846Y-1.9764
X5.3846Y-1.9764
X5.0846Y-1.6614
X5.3846Y-1.6614
X5.0307Y-4.1614
X5.3307Y-4.1614
X4.0709Y-1.9469
X4.2677Y-1.9469
X3.5787Y-4.4764
X3.5787Y-4.5764
X3.5787Y-4.6764
X3.9429Y-4.8602
X4.2429Y-4.8602
X3.9677Y-2.498
X4.2677Y-2.498
X3.9677Y-2.3012
X4.2677Y-2.3012
X5.2421Y-1.2185
X5.2421Y-1.4185
X5.3421Y-1.3185
X4.5531Y-3.5512
X4.8531Y-3.5512
X4.7008Y-2.4193
X4.7008Y-2.6161
X5.0748Y-2.7638
X5.2717Y-2.7638
X4.8583Y-5.7165
X4.937Y-5.7165
X3.9528Y-3.4528
X4.2528Y-3.4528
X3.7657Y-4.5209
X3.7657Y-4.8209
X5.0846Y-2.1339
X5.3846Y-2.1339
X5.0307Y-3.2362
X5.3307Y-3.2362
X4.5531Y-3.374
X4.8531Y-3.374
X5.0354Y-3.7087
X5.2323Y-3.7087
X4.248Y-2.6654
X4.248Y-2.9654
X4.7795Y-5.2441
X5.0748Y-5.2441
X4.7795Y-5.4016
X5.0748Y-5.4016
X4.5039Y-5.7165
X4.5827Y-5.7165
X4.5484Y-4.7374
X4.5484Y-4.8374
X4.5484Y-4.9374
X4.5484Y-5.0374
X4.8484Y-4.7374
X4.8484Y-4.8374
X4.8484Y-4.9374
X4.8484Y-5.0374
X3.9429Y-4.5354
X4.2429Y-4.5354
X3.9579Y-3.1673
X4.2579Y-3.1673
X4.1004Y-1.4646
X4.1004Y-1.7646
X5.252Y-5.9134
X5.252Y-6.2134
X3.948Y-3.9055
X4.248Y-3.9055
X3.9677Y-2.1043
X4.2677Y-2.1043
X5.0846Y-1.8189
X5.3846Y-1.8189
X4.3858Y-5.2441
X4.6811Y-5.2441
X4.5433Y-3.748
X4.5433Y-3.848
X4.5433Y-3.948
X4.5433Y-4.048
X4.5433Y-4.148
X4.5433Y-4.248
X4.5433Y-4.348
X4.8433Y-3.748
X4.8433Y-3.848
X4.8433Y-3.948
X4.8433Y-4.048
X4.8433Y-4.148
X4.8433Y-4.248
X4.8433Y-4.348
X3.9626Y-5.2835
X4.2626Y-5.2835
X3.9528Y-3.3051
X4.2528Y-3.3051
X4.5531Y-3.2067
X4.8531Y-3.2067
X4.0906Y-2.6606
X4.0906Y-2.9606
X3.9331Y-2.6606
X3.9331Y-2.9606
X4.189Y-5.9134
X4.189Y-6.2134
X5.0256Y-2.9213
X5.3256Y-2.9213
T4
X3.6063Y-5.1008
X3.6063Y-5.2008
T5
X4.2382Y-6.563
X4.3382Y-6.563
X4.4382Y-6.563
X4.5382Y-6.563
X4.6382Y-6.563
X4.7382Y-6.563
X4.2382Y-0.8937
X4.3382Y-0.8937
X4.4382Y-0.8937
X4.5382Y-0.8937
X4.6382Y-0.8937
X4.7382Y-0.8937
X4.515Y-6.1087
X4.515Y-6.2087
X4.615Y-6.1087
X4.615Y-6.2087
X4.715Y-6.1087
X4.715Y-6.2087
X4.815Y-6.1087
X4.815Y-6.2087
X4.915Y-6.1087
X4.915Y-6.2087
T6
X2.7844Y-7.0139
X2.8444Y-7.2939
X2.9944Y-6.8589
X3.1244Y-7.3339
X3.2644Y-7.0939
X2.7844Y-1.2658
X2.8444Y-1.5458
X2.9944Y-1.1108
X3.1244Y-1.5858
X3.2644Y-1.3458
X3.8769Y-7.0139
X3.9369Y-7.2939
X4.0869Y-6.8589
X4.2169Y-7.3339
X4.3569Y-7.0939
X2.7844Y-4.1398
X2.8444Y-4.4198
X2.9944Y-3.9848
X3.1244Y-4.4598
X3.2644Y-4.2198
X2.7844Y-5.5769
X2.8444Y-5.8569
X2.9944Y-5.4219
X3.1244Y-5.8969
X3.2644Y-5.6569
X2.7844Y-2.7028
X2.8444Y-2.9828
X2.9944Y-2.5478
X3.1244Y-3.0228
X3.2644Y-2.7828
X4.9694Y-7.0139
X5.0294Y-7.2939
X5.1794Y-6.8589
X5.3094Y-7.3339
X5.4494Y-7.0939
T0
M30
