M48
; DRILL file {KiCad (5.1.6)-1} date 06/22/20 20:02:44
; FORMAT={-:-/ absolute / inch / decimal}
; #@! TF.CreationDate,2020-06-22T20:02:44-05:00
; #@! TF.GenerationSoftware,Kicad,Pcbnew,(5.1.6)-1
; #@! TF.FileFunction,Plated,1,2,PTH
FMAT,2
INCH
T1C0.0157
T2C0.0394
T3C0.0709
%
G90
G05
T1
X6.3925Y-5.865
X6.4945Y-5.9669
T2
X6.1634Y-2.4567
X6.2618Y-2.4567
X6.3602Y-2.4567
X6.0209Y-6.5906
X6.1209Y-6.5906
X6.2209Y-6.5906
X6.3209Y-6.5906
X6.4209Y-6.5906
X6.5209Y-6.5906
X6.1634Y-5.4094
X6.2618Y-5.4094
X6.3602Y-5.4094
X6.0209Y-0.9213
X6.1209Y-0.9213
X6.2209Y-0.9213
X6.3209Y-0.9213
X6.4209Y-0.9213
X6.5209Y-0.9213
T3
X6.0728Y-5.1142
X6.4508Y-5.1142
X6.0728Y-2.1614
X6.4508Y-2.1614
T0
M30
