%TF.GenerationSoftware,KiCad,Pcbnew,(5.1.6)-1*%
%TF.CreationDate,2020-06-22T20:02:40-05:00*%
%TF.ProjectId,NOISE_x_S_and_H,4e4f4953-455f-4785-9f53-5f616e645f48,rev?*%
%TF.SameCoordinates,Original*%
%TF.FileFunction,Legend,Top*%
%TF.FilePolarity,Positive*%
%FSLAX46Y46*%
G04 Gerber Fmt 4.6, Leading zero omitted, Abs format (unit mm)*
G04 Created by KiCad (PCBNEW (5.1.6)-1) date 2020-06-22 20:02:40*
%MOMM*%
%LPD*%
G01*
G04 APERTURE LIST*
%ADD10C,0.150000*%
%ADD11C,0.120000*%
G04 APERTURE END LIST*
D10*
X151964761Y-95132380D02*
X151964761Y-94132380D01*
X152345714Y-94132380D01*
X152440952Y-94180000D01*
X152488571Y-94227619D01*
X152536190Y-94322857D01*
X152536190Y-94465714D01*
X152488571Y-94560952D01*
X152440952Y-94608571D01*
X152345714Y-94656190D01*
X151964761Y-94656190D01*
X153107619Y-95132380D02*
X153012380Y-95084761D01*
X152964761Y-95037142D01*
X152917142Y-94941904D01*
X152917142Y-94656190D01*
X152964761Y-94560952D01*
X153012380Y-94513333D01*
X153107619Y-94465714D01*
X153250476Y-94465714D01*
X153345714Y-94513333D01*
X153393333Y-94560952D01*
X153440952Y-94656190D01*
X153440952Y-94941904D01*
X153393333Y-95037142D01*
X153345714Y-95084761D01*
X153250476Y-95132380D01*
X153107619Y-95132380D01*
X153726666Y-94465714D02*
X154107619Y-94465714D01*
X153869523Y-94132380D02*
X153869523Y-94989523D01*
X153917142Y-95084761D01*
X154012380Y-95132380D01*
X154107619Y-95132380D01*
X154393333Y-95084761D02*
X154488571Y-95132380D01*
X154679047Y-95132380D01*
X154774285Y-95084761D01*
X154821904Y-94989523D01*
X154821904Y-94941904D01*
X154774285Y-94846666D01*
X154679047Y-94799047D01*
X154536190Y-94799047D01*
X154440952Y-94751428D01*
X154393333Y-94656190D01*
X154393333Y-94608571D01*
X154440952Y-94513333D01*
X154536190Y-94465714D01*
X154679047Y-94465714D01*
X154774285Y-94513333D01*
X156155238Y-95132380D02*
X156060000Y-95084761D01*
X156012380Y-95037142D01*
X155964761Y-94941904D01*
X155964761Y-94656190D01*
X156012380Y-94560952D01*
X156060000Y-94513333D01*
X156155238Y-94465714D01*
X156298095Y-94465714D01*
X156393333Y-94513333D01*
X156440952Y-94560952D01*
X156488571Y-94656190D01*
X156488571Y-94941904D01*
X156440952Y-95037142D01*
X156393333Y-95084761D01*
X156298095Y-95132380D01*
X156155238Y-95132380D01*
X156917142Y-94465714D02*
X156917142Y-95132380D01*
X156917142Y-94560952D02*
X156964761Y-94513333D01*
X157060000Y-94465714D01*
X157202857Y-94465714D01*
X157298095Y-94513333D01*
X157345714Y-94608571D01*
X157345714Y-95132380D01*
X158440952Y-94465714D02*
X158821904Y-94465714D01*
X158583809Y-94132380D02*
X158583809Y-94989523D01*
X158631428Y-95084761D01*
X158726666Y-95132380D01*
X158821904Y-95132380D01*
X159155238Y-95132380D02*
X159155238Y-94132380D01*
X159583809Y-95132380D02*
X159583809Y-94608571D01*
X159536190Y-94513333D01*
X159440952Y-94465714D01*
X159298095Y-94465714D01*
X159202857Y-94513333D01*
X159155238Y-94560952D01*
X160060000Y-95132380D02*
X160060000Y-94465714D01*
X160060000Y-94132380D02*
X160012380Y-94180000D01*
X160060000Y-94227619D01*
X160107619Y-94180000D01*
X160060000Y-94132380D01*
X160060000Y-94227619D01*
X160488571Y-95084761D02*
X160583809Y-95132380D01*
X160774285Y-95132380D01*
X160869523Y-95084761D01*
X160917142Y-94989523D01*
X160917142Y-94941904D01*
X160869523Y-94846666D01*
X160774285Y-94799047D01*
X160631428Y-94799047D01*
X160536190Y-94751428D01*
X160488571Y-94656190D01*
X160488571Y-94608571D01*
X160536190Y-94513333D01*
X160631428Y-94465714D01*
X160774285Y-94465714D01*
X160869523Y-94513333D01*
X162060000Y-95084761D02*
X162155238Y-95132380D01*
X162345714Y-95132380D01*
X162440952Y-95084761D01*
X162488571Y-94989523D01*
X162488571Y-94941904D01*
X162440952Y-94846666D01*
X162345714Y-94799047D01*
X162202857Y-94799047D01*
X162107619Y-94751428D01*
X162060000Y-94656190D01*
X162060000Y-94608571D01*
X162107619Y-94513333D01*
X162202857Y-94465714D01*
X162345714Y-94465714D01*
X162440952Y-94513333D01*
X162917142Y-95132380D02*
X162917142Y-94465714D01*
X162917142Y-94132380D02*
X162869523Y-94180000D01*
X162917142Y-94227619D01*
X162964761Y-94180000D01*
X162917142Y-94132380D01*
X162917142Y-94227619D01*
X163821904Y-95132380D02*
X163821904Y-94132380D01*
X163821904Y-95084761D02*
X163726666Y-95132380D01*
X163536190Y-95132380D01*
X163440952Y-95084761D01*
X163393333Y-95037142D01*
X163345714Y-94941904D01*
X163345714Y-94656190D01*
X163393333Y-94560952D01*
X163440952Y-94513333D01*
X163536190Y-94465714D01*
X163726666Y-94465714D01*
X163821904Y-94513333D01*
X164679047Y-95084761D02*
X164583809Y-95132380D01*
X164393333Y-95132380D01*
X164298095Y-95084761D01*
X164250476Y-94989523D01*
X164250476Y-94608571D01*
X164298095Y-94513333D01*
X164393333Y-94465714D01*
X164583809Y-94465714D01*
X164679047Y-94513333D01*
X164726666Y-94608571D01*
X164726666Y-94703809D01*
X164250476Y-94799047D01*
X165155238Y-95037142D02*
X165202857Y-95084761D01*
X165155238Y-95132380D01*
X165107619Y-95084761D01*
X165155238Y-95037142D01*
X165155238Y-95132380D01*
X165155238Y-94751428D02*
X165107619Y-94180000D01*
X165155238Y-94132380D01*
X165202857Y-94180000D01*
X165155238Y-94751428D01*
X165155238Y-94132380D01*
X158307619Y-140192380D02*
X157974285Y-139716190D01*
X157736190Y-140192380D02*
X157736190Y-139192380D01*
X158117142Y-139192380D01*
X158212380Y-139240000D01*
X158260000Y-139287619D01*
X158307619Y-139382857D01*
X158307619Y-139525714D01*
X158260000Y-139620952D01*
X158212380Y-139668571D01*
X158117142Y-139716190D01*
X157736190Y-139716190D01*
X158688571Y-139906666D02*
X159164761Y-139906666D01*
X158593333Y-140192380D02*
X158926666Y-139192380D01*
X159260000Y-140192380D01*
X159450476Y-139192380D02*
X160021904Y-139192380D01*
X159736190Y-140192380D02*
X159736190Y-139192380D01*
X160355238Y-139668571D02*
X160688571Y-139668571D01*
X160831428Y-140192380D02*
X160355238Y-140192380D01*
X160355238Y-139192380D01*
X160831428Y-139192380D01*
X155147619Y-64198571D02*
X154814285Y-64198571D01*
X154814285Y-64722380D02*
X154814285Y-63722380D01*
X155290476Y-63722380D01*
X155671428Y-64722380D02*
X155671428Y-64055714D01*
X155671428Y-64246190D02*
X155719047Y-64150952D01*
X155766666Y-64103333D01*
X155861904Y-64055714D01*
X155957142Y-64055714D01*
X156671428Y-64674761D02*
X156576190Y-64722380D01*
X156385714Y-64722380D01*
X156290476Y-64674761D01*
X156242857Y-64579523D01*
X156242857Y-64198571D01*
X156290476Y-64103333D01*
X156385714Y-64055714D01*
X156576190Y-64055714D01*
X156671428Y-64103333D01*
X156719047Y-64198571D01*
X156719047Y-64293809D01*
X156242857Y-64389047D01*
X157576190Y-64055714D02*
X157576190Y-65055714D01*
X157576190Y-64674761D02*
X157480952Y-64722380D01*
X157290476Y-64722380D01*
X157195238Y-64674761D01*
X157147619Y-64627142D01*
X157100000Y-64531904D01*
X157100000Y-64246190D01*
X157147619Y-64150952D01*
X157195238Y-64103333D01*
X157290476Y-64055714D01*
X157480952Y-64055714D01*
X157576190Y-64103333D01*
X158052380Y-64627142D02*
X158100000Y-64674761D01*
X158052380Y-64722380D01*
X158004761Y-64674761D01*
X158052380Y-64627142D01*
X158052380Y-64722380D01*
X159861904Y-64722380D02*
X159528571Y-64246190D01*
X159290476Y-64722380D02*
X159290476Y-63722380D01*
X159671428Y-63722380D01*
X159766666Y-63770000D01*
X159814285Y-63817619D01*
X159861904Y-63912857D01*
X159861904Y-64055714D01*
X159814285Y-64150952D01*
X159766666Y-64198571D01*
X159671428Y-64246190D01*
X159290476Y-64246190D01*
X160719047Y-64722380D02*
X160719047Y-64198571D01*
X160671428Y-64103333D01*
X160576190Y-64055714D01*
X160385714Y-64055714D01*
X160290476Y-64103333D01*
X160719047Y-64674761D02*
X160623809Y-64722380D01*
X160385714Y-64722380D01*
X160290476Y-64674761D01*
X160242857Y-64579523D01*
X160242857Y-64484285D01*
X160290476Y-64389047D01*
X160385714Y-64341428D01*
X160623809Y-64341428D01*
X160719047Y-64293809D01*
X161195238Y-64055714D02*
X161195238Y-64722380D01*
X161195238Y-64150952D02*
X161242857Y-64103333D01*
X161338095Y-64055714D01*
X161480952Y-64055714D01*
X161576190Y-64103333D01*
X161623809Y-64198571D01*
X161623809Y-64722380D01*
X162528571Y-64055714D02*
X162528571Y-64865238D01*
X162480952Y-64960476D01*
X162433333Y-65008095D01*
X162338095Y-65055714D01*
X162195238Y-65055714D01*
X162100000Y-65008095D01*
X162528571Y-64674761D02*
X162433333Y-64722380D01*
X162242857Y-64722380D01*
X162147619Y-64674761D01*
X162100000Y-64627142D01*
X162052380Y-64531904D01*
X162052380Y-64246190D01*
X162100000Y-64150952D01*
X162147619Y-64103333D01*
X162242857Y-64055714D01*
X162433333Y-64055714D01*
X162528571Y-64103333D01*
X163385714Y-64674761D02*
X163290476Y-64722380D01*
X163100000Y-64722380D01*
X163004761Y-64674761D01*
X162957142Y-64579523D01*
X162957142Y-64198571D01*
X163004761Y-64103333D01*
X163100000Y-64055714D01*
X163290476Y-64055714D01*
X163385714Y-64103333D01*
X163433333Y-64198571D01*
X163433333Y-64293809D01*
X162957142Y-64389047D01*
D11*
%TO.C,RV3*%
X160710000Y-136520000D02*
X159880000Y-136520000D01*
X158260000Y-136520000D02*
X157730000Y-136520000D01*
X155360000Y-136520000D02*
X154180000Y-136520000D01*
X163920000Y-136520000D02*
X163920000Y-131800000D01*
X154180000Y-127990000D02*
X154180000Y-124930000D01*
X154170000Y-136520000D02*
X154170000Y-131800000D01*
X163920000Y-127990000D02*
X163920000Y-124930000D01*
X163920000Y-136520000D02*
X162430000Y-136520000D01*
X163920000Y-124930000D02*
X154180000Y-124930000D01*
%TO.C,RV2*%
X163920000Y-49930000D02*
X154180000Y-49930000D01*
X163920000Y-61520000D02*
X162430000Y-61520000D01*
X163920000Y-52990000D02*
X163920000Y-49930000D01*
X154170000Y-61520000D02*
X154170000Y-56800000D01*
X154180000Y-52990000D02*
X154180000Y-49930000D01*
X163920000Y-61520000D02*
X163920000Y-56800000D01*
X155360000Y-61520000D02*
X154180000Y-61520000D01*
X158260000Y-61520000D02*
X157730000Y-61520000D01*
X160710000Y-61520000D02*
X159880000Y-61520000D01*
%TO.C,RV3*%
D10*
X158604761Y-130882380D02*
X158271428Y-130406190D01*
X158033333Y-130882380D02*
X158033333Y-129882380D01*
X158414285Y-129882380D01*
X158509523Y-129930000D01*
X158557142Y-129977619D01*
X158604761Y-130072857D01*
X158604761Y-130215714D01*
X158557142Y-130310952D01*
X158509523Y-130358571D01*
X158414285Y-130406190D01*
X158033333Y-130406190D01*
X158890476Y-129882380D02*
X159223809Y-130882380D01*
X159557142Y-129882380D01*
X159795238Y-129882380D02*
X160414285Y-129882380D01*
X160080952Y-130263333D01*
X160223809Y-130263333D01*
X160319047Y-130310952D01*
X160366666Y-130358571D01*
X160414285Y-130453809D01*
X160414285Y-130691904D01*
X160366666Y-130787142D01*
X160319047Y-130834761D01*
X160223809Y-130882380D01*
X159938095Y-130882380D01*
X159842857Y-130834761D01*
X159795238Y-130787142D01*
X157993809Y-123908571D02*
X158136666Y-123956190D01*
X158184285Y-124003809D01*
X158231904Y-124099047D01*
X158231904Y-124241904D01*
X158184285Y-124337142D01*
X158136666Y-124384761D01*
X158041428Y-124432380D01*
X157660476Y-124432380D01*
X157660476Y-123432380D01*
X157993809Y-123432380D01*
X158089047Y-123480000D01*
X158136666Y-123527619D01*
X158184285Y-123622857D01*
X158184285Y-123718095D01*
X158136666Y-123813333D01*
X158089047Y-123860952D01*
X157993809Y-123908571D01*
X157660476Y-123908571D01*
X159184285Y-124432380D02*
X158612857Y-124432380D01*
X158898571Y-124432380D02*
X158898571Y-123432380D01*
X158803333Y-123575238D01*
X158708095Y-123670476D01*
X158612857Y-123718095D01*
X159612857Y-124432380D02*
X159612857Y-123432380D01*
X159946190Y-124146666D01*
X160279523Y-123432380D01*
X160279523Y-124432380D01*
%TO.C,RV2*%
X158504761Y-55442380D02*
X158171428Y-54966190D01*
X157933333Y-55442380D02*
X157933333Y-54442380D01*
X158314285Y-54442380D01*
X158409523Y-54490000D01*
X158457142Y-54537619D01*
X158504761Y-54632857D01*
X158504761Y-54775714D01*
X158457142Y-54870952D01*
X158409523Y-54918571D01*
X158314285Y-54966190D01*
X157933333Y-54966190D01*
X158790476Y-54442380D02*
X159123809Y-55442380D01*
X159457142Y-54442380D01*
X159742857Y-54537619D02*
X159790476Y-54490000D01*
X159885714Y-54442380D01*
X160123809Y-54442380D01*
X160219047Y-54490000D01*
X160266666Y-54537619D01*
X160314285Y-54632857D01*
X160314285Y-54728095D01*
X160266666Y-54870952D01*
X159695238Y-55442380D01*
X160314285Y-55442380D01*
X157863809Y-48728571D02*
X158006666Y-48776190D01*
X158054285Y-48823809D01*
X158101904Y-48919047D01*
X158101904Y-49061904D01*
X158054285Y-49157142D01*
X158006666Y-49204761D01*
X157911428Y-49252380D01*
X157530476Y-49252380D01*
X157530476Y-48252380D01*
X157863809Y-48252380D01*
X157959047Y-48300000D01*
X158006666Y-48347619D01*
X158054285Y-48442857D01*
X158054285Y-48538095D01*
X158006666Y-48633333D01*
X157959047Y-48680952D01*
X157863809Y-48728571D01*
X157530476Y-48728571D01*
X159054285Y-49252380D02*
X158482857Y-49252380D01*
X158768571Y-49252380D02*
X158768571Y-48252380D01*
X158673333Y-48395238D01*
X158578095Y-48490476D01*
X158482857Y-48538095D01*
X159482857Y-49252380D02*
X159482857Y-48252380D01*
X159816190Y-48966666D01*
X160149523Y-48252380D01*
X160149523Y-49252380D01*
%TD*%
M02*
