%TF.GenerationSoftware,KiCad,Pcbnew,(5.1.6)-1*%
%TF.CreationDate,2020-06-22T20:02:40-05:00*%
%TF.ProjectId,NOISE_x_S_and_H,4e4f4953-455f-4785-9f53-5f616e645f48,rev?*%
%TF.SameCoordinates,Original*%
%TF.FileFunction,Legend,Bot*%
%TF.FilePolarity,Positive*%
%FSLAX46Y46*%
G04 Gerber Fmt 4.6, Leading zero omitted, Abs format (unit mm)*
G04 Created by KiCad (PCBNEW (5.1.6)-1) date 2020-06-22 20:02:40*
%MOMM*%
%LPD*%
G01*
G04 APERTURE LIST*
%ADD10C,0.300000*%
%ADD11C,0.120000*%
G04 APERTURE END LIST*
D10*
X165771428Y-38353571D02*
X165771428Y-36853571D01*
X164914285Y-38353571D01*
X164914285Y-36853571D01*
X163914285Y-36853571D02*
X163628571Y-36853571D01*
X163485714Y-36925000D01*
X163342857Y-37067857D01*
X163271428Y-37353571D01*
X163271428Y-37853571D01*
X163342857Y-38139285D01*
X163485714Y-38282142D01*
X163628571Y-38353571D01*
X163914285Y-38353571D01*
X164057142Y-38282142D01*
X164200000Y-38139285D01*
X164271428Y-37853571D01*
X164271428Y-37353571D01*
X164200000Y-37067857D01*
X164057142Y-36925000D01*
X163914285Y-36853571D01*
X162628571Y-38353571D02*
X162628571Y-36853571D01*
X161985714Y-38282142D02*
X161771428Y-38353571D01*
X161414285Y-38353571D01*
X161271428Y-38282142D01*
X161200000Y-38210714D01*
X161128571Y-38067857D01*
X161128571Y-37925000D01*
X161200000Y-37782142D01*
X161271428Y-37710714D01*
X161414285Y-37639285D01*
X161700000Y-37567857D01*
X161842857Y-37496428D01*
X161914285Y-37425000D01*
X161985714Y-37282142D01*
X161985714Y-37139285D01*
X161914285Y-36996428D01*
X161842857Y-36925000D01*
X161700000Y-36853571D01*
X161342857Y-36853571D01*
X161128571Y-36925000D01*
X160485714Y-37567857D02*
X159985714Y-37567857D01*
X159771428Y-38353571D02*
X160485714Y-38353571D01*
X160485714Y-36853571D01*
X159771428Y-36853571D01*
X158128571Y-38353571D02*
X157342857Y-37353571D01*
X158128571Y-37353571D02*
X157342857Y-38353571D01*
X155700000Y-38282142D02*
X155485714Y-38353571D01*
X155128571Y-38353571D01*
X154985714Y-38282142D01*
X154914285Y-38210714D01*
X154842857Y-38067857D01*
X154842857Y-37925000D01*
X154914285Y-37782142D01*
X154985714Y-37710714D01*
X155128571Y-37639285D01*
X155414285Y-37567857D01*
X155557142Y-37496428D01*
X155628571Y-37425000D01*
X155700000Y-37282142D01*
X155700000Y-37139285D01*
X155628571Y-36996428D01*
X155557142Y-36925000D01*
X155414285Y-36853571D01*
X155057142Y-36853571D01*
X154842857Y-36925000D01*
X152985714Y-38353571D02*
X153057142Y-38353571D01*
X153200000Y-38282142D01*
X153414285Y-38067857D01*
X153771428Y-37639285D01*
X153914285Y-37425000D01*
X153985714Y-37210714D01*
X153985714Y-37067857D01*
X153914285Y-36925000D01*
X153771428Y-36853571D01*
X153700000Y-36853571D01*
X153557142Y-36925000D01*
X153485714Y-37067857D01*
X153485714Y-37139285D01*
X153557142Y-37282142D01*
X153628571Y-37353571D01*
X154057142Y-37639285D01*
X154128571Y-37710714D01*
X154200000Y-37853571D01*
X154200000Y-38067857D01*
X154128571Y-38210714D01*
X154057142Y-38282142D01*
X153914285Y-38353571D01*
X153700000Y-38353571D01*
X153557142Y-38282142D01*
X153485714Y-38210714D01*
X153271428Y-37925000D01*
X153200000Y-37710714D01*
X153200000Y-37567857D01*
X152342857Y-38353571D02*
X152342857Y-36853571D01*
X152342857Y-37567857D02*
X151485714Y-37567857D01*
X151485714Y-38353571D02*
X151485714Y-36853571D01*
X167664285Y-40903571D02*
X167664285Y-39403571D01*
X167307142Y-39403571D01*
X167092857Y-39475000D01*
X166950000Y-39617857D01*
X166878571Y-39760714D01*
X166807142Y-40046428D01*
X166807142Y-40260714D01*
X166878571Y-40546428D01*
X166950000Y-40689285D01*
X167092857Y-40832142D01*
X167307142Y-40903571D01*
X167664285Y-40903571D01*
X165521428Y-40903571D02*
X165521428Y-40117857D01*
X165592857Y-39975000D01*
X165735714Y-39903571D01*
X166021428Y-39903571D01*
X166164285Y-39975000D01*
X165521428Y-40832142D02*
X165664285Y-40903571D01*
X166021428Y-40903571D01*
X166164285Y-40832142D01*
X166235714Y-40689285D01*
X166235714Y-40546428D01*
X166164285Y-40403571D01*
X166021428Y-40332142D01*
X165664285Y-40332142D01*
X165521428Y-40260714D01*
X164164285Y-39903571D02*
X164164285Y-40903571D01*
X164807142Y-39903571D02*
X164807142Y-40689285D01*
X164735714Y-40832142D01*
X164592857Y-40903571D01*
X164378571Y-40903571D01*
X164235714Y-40832142D01*
X164164285Y-40760714D01*
X162807142Y-39903571D02*
X162807142Y-41117857D01*
X162878571Y-41260714D01*
X162950000Y-41332142D01*
X163092857Y-41403571D01*
X163307142Y-41403571D01*
X163450000Y-41332142D01*
X162807142Y-40832142D02*
X162950000Y-40903571D01*
X163235714Y-40903571D01*
X163378571Y-40832142D01*
X163450000Y-40760714D01*
X163521428Y-40617857D01*
X163521428Y-40189285D01*
X163450000Y-40046428D01*
X163378571Y-39975000D01*
X163235714Y-39903571D01*
X162950000Y-39903571D01*
X162807142Y-39975000D01*
X162092857Y-40903571D02*
X162092857Y-39403571D01*
X161450000Y-40903571D02*
X161450000Y-40117857D01*
X161521428Y-39975000D01*
X161664285Y-39903571D01*
X161878571Y-39903571D01*
X162021428Y-39975000D01*
X162092857Y-40046428D01*
X160950000Y-39903571D02*
X160378571Y-39903571D01*
X160735714Y-39403571D02*
X160735714Y-40689285D01*
X160664285Y-40832142D01*
X160521428Y-40903571D01*
X160378571Y-40903571D01*
X159307142Y-40832142D02*
X159450000Y-40903571D01*
X159735714Y-40903571D01*
X159878571Y-40832142D01*
X159950000Y-40689285D01*
X159950000Y-40117857D01*
X159878571Y-39975000D01*
X159735714Y-39903571D01*
X159450000Y-39903571D01*
X159307142Y-39975000D01*
X159235714Y-40117857D01*
X159235714Y-40260714D01*
X159950000Y-40403571D01*
X158592857Y-40903571D02*
X158592857Y-39903571D01*
X158592857Y-40189285D02*
X158521428Y-40046428D01*
X158450000Y-39975000D01*
X158307142Y-39903571D01*
X158164285Y-39903571D01*
X156021428Y-40117857D02*
X155807142Y-40189285D01*
X155735714Y-40260714D01*
X155664285Y-40403571D01*
X155664285Y-40617857D01*
X155735714Y-40760714D01*
X155807142Y-40832142D01*
X155950000Y-40903571D01*
X156521428Y-40903571D01*
X156521428Y-39403571D01*
X156021428Y-39403571D01*
X155878571Y-39475000D01*
X155807142Y-39546428D01*
X155735714Y-39689285D01*
X155735714Y-39832142D01*
X155807142Y-39975000D01*
X155878571Y-40046428D01*
X156021428Y-40117857D01*
X156521428Y-40117857D01*
X154807142Y-40903571D02*
X154950000Y-40832142D01*
X155021428Y-40760714D01*
X155092857Y-40617857D01*
X155092857Y-40189285D01*
X155021428Y-40046428D01*
X154950000Y-39975000D01*
X154807142Y-39903571D01*
X154592857Y-39903571D01*
X154450000Y-39975000D01*
X154378571Y-40046428D01*
X154307142Y-40189285D01*
X154307142Y-40617857D01*
X154378571Y-40760714D01*
X154450000Y-40832142D01*
X154592857Y-40903571D01*
X154807142Y-40903571D01*
X153021428Y-40903571D02*
X153021428Y-40117857D01*
X153092857Y-39975000D01*
X153235714Y-39903571D01*
X153521428Y-39903571D01*
X153664285Y-39975000D01*
X153021428Y-40832142D02*
X153164285Y-40903571D01*
X153521428Y-40903571D01*
X153664285Y-40832142D01*
X153735714Y-40689285D01*
X153735714Y-40546428D01*
X153664285Y-40403571D01*
X153521428Y-40332142D01*
X153164285Y-40332142D01*
X153021428Y-40260714D01*
X152307142Y-40903571D02*
X152307142Y-39903571D01*
X152307142Y-40189285D02*
X152235714Y-40046428D01*
X152164285Y-39975000D01*
X152021428Y-39903571D01*
X151878571Y-39903571D01*
X150735714Y-40903571D02*
X150735714Y-39403571D01*
X150735714Y-40832142D02*
X150878571Y-40903571D01*
X151164285Y-40903571D01*
X151307142Y-40832142D01*
X151378571Y-40760714D01*
X151450000Y-40617857D01*
X151450000Y-40189285D01*
X151378571Y-40046428D01*
X151307142Y-39975000D01*
X151164285Y-39903571D01*
X150878571Y-39903571D01*
X150735714Y-39975000D01*
X161164285Y-25928571D02*
X160307142Y-25928571D01*
X160735714Y-27428571D02*
X160735714Y-25928571D01*
X159521428Y-25928571D02*
X159235714Y-25928571D01*
X159092857Y-26000000D01*
X158950000Y-26142857D01*
X158878571Y-26428571D01*
X158878571Y-26928571D01*
X158950000Y-27214285D01*
X159092857Y-27357142D01*
X159235714Y-27428571D01*
X159521428Y-27428571D01*
X159664285Y-27357142D01*
X159807142Y-27214285D01*
X159878571Y-26928571D01*
X159878571Y-26428571D01*
X159807142Y-26142857D01*
X159664285Y-26000000D01*
X159521428Y-25928571D01*
X158235714Y-27428571D02*
X158235714Y-25928571D01*
X157664285Y-25928571D01*
X157521428Y-26000000D01*
X157450000Y-26071428D01*
X157378571Y-26214285D01*
X157378571Y-26428571D01*
X157450000Y-26571428D01*
X157521428Y-26642857D01*
X157664285Y-26714285D01*
X158235714Y-26714285D01*
D11*
%TO.C,REF\u002A\u002A*%
X151600000Y-23400000D02*
X151600000Y-24730000D01*
X151600000Y-24730000D02*
X152930000Y-24730000D01*
X154200000Y-24730000D02*
X166960000Y-24730000D01*
X166960000Y-22070000D02*
X166960000Y-24730000D01*
X154200000Y-22070000D02*
X166960000Y-22070000D01*
X154200000Y-22070000D02*
X154200000Y-24730000D01*
X151600000Y-167400000D02*
X151600000Y-168730000D01*
X151600000Y-168730000D02*
X152930000Y-168730000D01*
X154200000Y-168730000D02*
X166960000Y-168730000D01*
X166960000Y-166070000D02*
X166960000Y-168730000D01*
X154200000Y-166070000D02*
X166960000Y-166070000D01*
X154200000Y-166070000D02*
X154200000Y-168730000D01*
%TD*%
M02*
