%TF.GenerationSoftware,KiCad,Pcbnew,(5.1.6)-1*%
%TF.CreationDate,2020-06-22T20:02:40-05:00*%
%TF.ProjectId,NOISE_x_S_and_H,4e4f4953-455f-4785-9f53-5f616e645f48,rev?*%
%TF.SameCoordinates,Original*%
%TF.FileFunction,Copper,L1,Top*%
%TF.FilePolarity,Positive*%
%FSLAX46Y46*%
G04 Gerber Fmt 4.6, Leading zero omitted, Abs format (unit mm)*
G04 Created by KiCad (PCBNEW (5.1.6)-1) date 2020-06-22 20:02:40*
%MOMM*%
%LPD*%
G01*
G04 APERTURE LIST*
%TA.AperFunction,ComponentPad*%
%ADD10R,1.800000X1.800000*%
%TD*%
%TA.AperFunction,ComponentPad*%
%ADD11C,1.800000*%
%TD*%
%TA.AperFunction,ComponentPad*%
%ADD12C,3.240000*%
%TD*%
%TA.AperFunction,ComponentPad*%
%ADD13O,1.700000X1.700000*%
%TD*%
%TA.AperFunction,ComponentPad*%
%ADD14R,1.700000X1.700000*%
%TD*%
%TA.AperFunction,ViaPad*%
%ADD15C,0.800000*%
%TD*%
%TA.AperFunction,Conductor*%
%ADD16C,0.635000*%
%TD*%
%TA.AperFunction,Conductor*%
%ADD17C,0.254000*%
%TD*%
G04 APERTURE END LIST*
D10*
%TO.P,RV3,1*%
%TO.N,Net-(J8-PadT)*%
X156550000Y-137400000D03*
D11*
%TO.P,RV3,2*%
%TO.N,Net-(R27-Pad1)*%
X159050000Y-137400000D03*
%TO.P,RV3,3*%
%TO.N,GND*%
X161550000Y-137400000D03*
D12*
%TO.P,RV3,*%
%TO.N,*%
X163850000Y-129900000D03*
X154250000Y-129900000D03*
%TD*%
%TO.P,RV2,*%
%TO.N,*%
X154250000Y-54900000D03*
X163850000Y-54900000D03*
D11*
%TO.P,RV2,3*%
%TO.N,Net-(R23-Pad1)*%
X161550000Y-62400000D03*
%TO.P,RV2,2*%
%TO.N,Net-(R24-Pad1)*%
X159050000Y-62400000D03*
D10*
%TO.P,RV2,1*%
%TO.N,Net-(D2-Pad1)*%
X156550000Y-62400000D03*
%TD*%
D13*
%TO.P,REF\u002A\u002A,6*%
%TO.N,N/C*%
X165630000Y-23400000D03*
%TO.P,REF\u002A\u002A,5*%
X163090000Y-23400000D03*
%TO.P,REF\u002A\u002A,4*%
X160550000Y-23400000D03*
%TO.P,REF\u002A\u002A,3*%
X158010000Y-23400000D03*
%TO.P,REF\u002A\u002A,2*%
X155470000Y-23400000D03*
D14*
%TO.P,REF\u002A\u002A,1*%
X152930000Y-23400000D03*
%TD*%
D13*
%TO.P,REF\u002A\u002A,6*%
%TO.N,Net-(D2-Pad1)*%
X165630000Y-167400000D03*
%TO.P,REF\u002A\u002A,5*%
%TO.N,Net-(R24-Pad1)*%
X163090000Y-167400000D03*
%TO.P,REF\u002A\u002A,4*%
%TO.N,Net-(R23-Pad1)*%
X160550000Y-167400000D03*
%TO.P,REF\u002A\u002A,3*%
%TO.N,GND*%
X158010000Y-167400000D03*
%TO.P,REF\u002A\u002A,2*%
%TO.N,Net-(R27-Pad1)*%
X155470000Y-167400000D03*
D14*
%TO.P,REF\u002A\u002A,1*%
%TO.N,Net-(J8-PadT)*%
X152930000Y-167400000D03*
%TD*%
D15*
%TO.N,Net-(D2-Pad1)*%
X164960000Y-151560000D03*
X162370000Y-148970000D03*
%TD*%
D16*
%TO.N,GND*%
X161550000Y-142540000D02*
X158010000Y-146080000D01*
X158010000Y-146080000D02*
X158010000Y-167400000D01*
X161550000Y-137400000D02*
X161550000Y-142540000D01*
%TO.N,Net-(D2-Pad1)*%
X162370000Y-148970000D02*
X164960000Y-151560000D01*
%TO.N,Net-(R24-Pad1)*%
X159050000Y-64730000D02*
X157320000Y-66460000D01*
X157320000Y-66460000D02*
X157320000Y-111320000D01*
X168320000Y-122320000D02*
X168320000Y-149980000D01*
X159050000Y-62400000D02*
X159050000Y-64730000D01*
X168320000Y-149980000D02*
X163090000Y-155210000D01*
X157320000Y-111320000D02*
X168320000Y-122320000D01*
X163090000Y-155210000D02*
X163090000Y-167400000D01*
%TO.N,Net-(R27-Pad1)*%
X159050000Y-141620000D02*
X155470000Y-145200000D01*
X155470000Y-145200000D02*
X155470000Y-167400000D01*
X159050000Y-137400000D02*
X159050000Y-141620000D01*
%TO.N,Net-(J8-PadT)*%
X156550000Y-140130000D02*
X152930000Y-143750000D01*
X152930000Y-143750000D02*
X152930000Y-167400000D01*
X156550000Y-137400000D02*
X156550000Y-140130000D01*
%TD*%
D17*
%TO.N,GND*%
G36*
X168840001Y-121492962D02*
G01*
X158272500Y-110925462D01*
X158272500Y-66854538D01*
X159690431Y-65436607D01*
X159726778Y-65406778D01*
X159845806Y-65261741D01*
X159934252Y-65096269D01*
X159988717Y-64916723D01*
X160002500Y-64776785D01*
X160007108Y-64730001D01*
X160002500Y-64683216D01*
X160002500Y-63609688D01*
X160028505Y-63592312D01*
X160242312Y-63378505D01*
X160300000Y-63292169D01*
X160357688Y-63378505D01*
X160571495Y-63592312D01*
X160822905Y-63760299D01*
X161102257Y-63876011D01*
X161398816Y-63935000D01*
X161701184Y-63935000D01*
X161997743Y-63876011D01*
X162277095Y-63760299D01*
X162528505Y-63592312D01*
X162742312Y-63378505D01*
X162910299Y-63127095D01*
X163026011Y-62847743D01*
X163085000Y-62551184D01*
X163085000Y-62248816D01*
X163026011Y-61952257D01*
X162910299Y-61672905D01*
X162742312Y-61421495D01*
X162528505Y-61207688D01*
X162277095Y-61039701D01*
X161997743Y-60923989D01*
X161701184Y-60865000D01*
X161398816Y-60865000D01*
X161102257Y-60923989D01*
X160822905Y-61039701D01*
X160571495Y-61207688D01*
X160357688Y-61421495D01*
X160300000Y-61507831D01*
X160242312Y-61421495D01*
X160028505Y-61207688D01*
X159777095Y-61039701D01*
X159497743Y-60923989D01*
X159201184Y-60865000D01*
X158898816Y-60865000D01*
X158602257Y-60923989D01*
X158322905Y-61039701D01*
X158071495Y-61207688D01*
X158033880Y-61245303D01*
X157980537Y-61145506D01*
X157901185Y-61048815D01*
X157804494Y-60969463D01*
X157694180Y-60910498D01*
X157574482Y-60874188D01*
X157450000Y-60861928D01*
X155650000Y-60861928D01*
X155525518Y-60874188D01*
X155405820Y-60910498D01*
X155295506Y-60969463D01*
X155198815Y-61048815D01*
X155119463Y-61145506D01*
X155060498Y-61255820D01*
X155024188Y-61375518D01*
X155011928Y-61500000D01*
X155011928Y-63300000D01*
X155024188Y-63424482D01*
X155060498Y-63544180D01*
X155119463Y-63654494D01*
X155198815Y-63751185D01*
X155295506Y-63830537D01*
X155405820Y-63889502D01*
X155525518Y-63925812D01*
X155650000Y-63938072D01*
X157450000Y-63938072D01*
X157574482Y-63925812D01*
X157694180Y-63889502D01*
X157804494Y-63830537D01*
X157901185Y-63751185D01*
X157980537Y-63654494D01*
X158033880Y-63554697D01*
X158071495Y-63592312D01*
X158097501Y-63609688D01*
X158097501Y-64335461D01*
X156679569Y-65753393D01*
X156643222Y-65783222D01*
X156524194Y-65928259D01*
X156435748Y-66093732D01*
X156381283Y-66273277D01*
X156381283Y-66273278D01*
X156362892Y-66460000D01*
X156367500Y-66506785D01*
X156367501Y-111273205D01*
X156362892Y-111320000D01*
X156381283Y-111506722D01*
X156435749Y-111686269D01*
X156524195Y-111851741D01*
X156643223Y-111996778D01*
X156679564Y-112026602D01*
X167367500Y-122714539D01*
X167367501Y-149585460D01*
X165878966Y-151073995D01*
X165877205Y-151069744D01*
X165763937Y-150900226D01*
X165619774Y-150756063D01*
X165450256Y-150642795D01*
X165347108Y-150600070D01*
X163329931Y-148582893D01*
X163287205Y-148479744D01*
X163173937Y-148310226D01*
X163029774Y-148166063D01*
X162860256Y-148052795D01*
X162671898Y-147974774D01*
X162471939Y-147935000D01*
X162268061Y-147935000D01*
X162068102Y-147974774D01*
X161879744Y-148052795D01*
X161710226Y-148166063D01*
X161566063Y-148310226D01*
X161452795Y-148479744D01*
X161374774Y-148668102D01*
X161335000Y-148868061D01*
X161335000Y-149071939D01*
X161374774Y-149271898D01*
X161452795Y-149460256D01*
X161566063Y-149629774D01*
X161710226Y-149773937D01*
X161879744Y-149887205D01*
X161982893Y-149929931D01*
X164000070Y-151947108D01*
X164042795Y-152050256D01*
X164156063Y-152219774D01*
X164300226Y-152363937D01*
X164469744Y-152477205D01*
X164473996Y-152478966D01*
X162449569Y-154503393D01*
X162413222Y-154533222D01*
X162294194Y-154678259D01*
X162205748Y-154843732D01*
X162151283Y-155023277D01*
X162151283Y-155023278D01*
X162132892Y-155210000D01*
X162137500Y-155256785D01*
X162137501Y-166252392D01*
X161936525Y-166453368D01*
X161820000Y-166627760D01*
X161703475Y-166453368D01*
X161496632Y-166246525D01*
X161253411Y-166084010D01*
X160983158Y-165972068D01*
X160696260Y-165915000D01*
X160403740Y-165915000D01*
X160116842Y-165972068D01*
X159846589Y-166084010D01*
X159603368Y-166246525D01*
X159396525Y-166453368D01*
X159234010Y-166696589D01*
X159191060Y-166800279D01*
X159069907Y-166601539D01*
X158893769Y-166410104D01*
X158683668Y-166256710D01*
X158447679Y-166147252D01*
X158342072Y-166115221D01*
X158137000Y-166198946D01*
X158137000Y-167273000D01*
X158157000Y-167273000D01*
X158157000Y-167527000D01*
X158137000Y-167527000D01*
X158137000Y-168601054D01*
X158342072Y-168684779D01*
X158447679Y-168652748D01*
X158683668Y-168543290D01*
X158893769Y-168389896D01*
X159069907Y-168198461D01*
X159191060Y-167999721D01*
X159234010Y-168103411D01*
X159396525Y-168346632D01*
X159603368Y-168553475D01*
X159846589Y-168715990D01*
X160116842Y-168827932D01*
X160403740Y-168885000D01*
X160696260Y-168885000D01*
X160983158Y-168827932D01*
X161253411Y-168715990D01*
X161496632Y-168553475D01*
X161703475Y-168346632D01*
X161820000Y-168172240D01*
X161936525Y-168346632D01*
X162143368Y-168553475D01*
X162386589Y-168715990D01*
X162656842Y-168827932D01*
X162943740Y-168885000D01*
X163236260Y-168885000D01*
X163523158Y-168827932D01*
X163793411Y-168715990D01*
X164036632Y-168553475D01*
X164243475Y-168346632D01*
X164360000Y-168172240D01*
X164476525Y-168346632D01*
X164683368Y-168553475D01*
X164926589Y-168715990D01*
X165196842Y-168827932D01*
X165483740Y-168885000D01*
X165776260Y-168885000D01*
X166063158Y-168827932D01*
X166333411Y-168715990D01*
X166576632Y-168553475D01*
X166783475Y-168346632D01*
X166945990Y-168103411D01*
X167057932Y-167833158D01*
X167115000Y-167546260D01*
X167115000Y-167253740D01*
X167057932Y-166966842D01*
X166945990Y-166696589D01*
X166783475Y-166453368D01*
X166576632Y-166246525D01*
X166333411Y-166084010D01*
X166063158Y-165972068D01*
X165776260Y-165915000D01*
X165483740Y-165915000D01*
X165196842Y-165972068D01*
X164926589Y-166084010D01*
X164683368Y-166246525D01*
X164476525Y-166453368D01*
X164360000Y-166627760D01*
X164243475Y-166453368D01*
X164042500Y-166252393D01*
X164042500Y-155604538D01*
X168840001Y-150807038D01*
X168840001Y-169690000D01*
X149260000Y-169690000D01*
X149260000Y-166550000D01*
X151441928Y-166550000D01*
X151441928Y-168250000D01*
X151454188Y-168374482D01*
X151490498Y-168494180D01*
X151549463Y-168604494D01*
X151628815Y-168701185D01*
X151725506Y-168780537D01*
X151835820Y-168839502D01*
X151955518Y-168875812D01*
X152080000Y-168888072D01*
X153780000Y-168888072D01*
X153904482Y-168875812D01*
X154024180Y-168839502D01*
X154134494Y-168780537D01*
X154231185Y-168701185D01*
X154310537Y-168604494D01*
X154369502Y-168494180D01*
X154391513Y-168421620D01*
X154523368Y-168553475D01*
X154766589Y-168715990D01*
X155036842Y-168827932D01*
X155323740Y-168885000D01*
X155616260Y-168885000D01*
X155903158Y-168827932D01*
X156173411Y-168715990D01*
X156416632Y-168553475D01*
X156623475Y-168346632D01*
X156785990Y-168103411D01*
X156828940Y-167999721D01*
X156950093Y-168198461D01*
X157126231Y-168389896D01*
X157336332Y-168543290D01*
X157572321Y-168652748D01*
X157677928Y-168684779D01*
X157883000Y-168601054D01*
X157883000Y-167527000D01*
X157863000Y-167527000D01*
X157863000Y-167273000D01*
X157883000Y-167273000D01*
X157883000Y-166198946D01*
X157677928Y-166115221D01*
X157572321Y-166147252D01*
X157336332Y-166256710D01*
X157126231Y-166410104D01*
X156950093Y-166601539D01*
X156828940Y-166800279D01*
X156785990Y-166696589D01*
X156623475Y-166453368D01*
X156422500Y-166252393D01*
X156422500Y-145594538D01*
X159690431Y-142326607D01*
X159726778Y-142296778D01*
X159845806Y-142151741D01*
X159934252Y-141986269D01*
X159988717Y-141806723D01*
X160002500Y-141666785D01*
X160007108Y-141620000D01*
X160002500Y-141573215D01*
X160002500Y-138609688D01*
X160028505Y-138592312D01*
X160241461Y-138379356D01*
X160750249Y-138379356D01*
X160842881Y-138589330D01*
X161088495Y-138704430D01*
X161351845Y-138769400D01*
X161622809Y-138781745D01*
X161890975Y-138740991D01*
X162146038Y-138648703D01*
X162257119Y-138589330D01*
X162349751Y-138379356D01*
X161550000Y-137579605D01*
X160750249Y-138379356D01*
X160241461Y-138379356D01*
X160242312Y-138378505D01*
X160409309Y-138128577D01*
X160570644Y-138199751D01*
X161370395Y-137400000D01*
X161729605Y-137400000D01*
X162529356Y-138199751D01*
X162739330Y-138107119D01*
X162854430Y-137861505D01*
X162919400Y-137598155D01*
X162931745Y-137327191D01*
X162890991Y-137059025D01*
X162798703Y-136803962D01*
X162739330Y-136692881D01*
X162529356Y-136600249D01*
X161729605Y-137400000D01*
X161370395Y-137400000D01*
X160570644Y-136600249D01*
X160409309Y-136671423D01*
X160242312Y-136421495D01*
X160241461Y-136420644D01*
X160750249Y-136420644D01*
X161550000Y-137220395D01*
X162349751Y-136420644D01*
X162257119Y-136210670D01*
X162011505Y-136095570D01*
X161748155Y-136030600D01*
X161477191Y-136018255D01*
X161209025Y-136059009D01*
X160953962Y-136151297D01*
X160842881Y-136210670D01*
X160750249Y-136420644D01*
X160241461Y-136420644D01*
X160028505Y-136207688D01*
X159777095Y-136039701D01*
X159497743Y-135923989D01*
X159201184Y-135865000D01*
X158898816Y-135865000D01*
X158602257Y-135923989D01*
X158322905Y-136039701D01*
X158071495Y-136207688D01*
X158033880Y-136245303D01*
X157980537Y-136145506D01*
X157901185Y-136048815D01*
X157804494Y-135969463D01*
X157694180Y-135910498D01*
X157574482Y-135874188D01*
X157450000Y-135861928D01*
X155650000Y-135861928D01*
X155525518Y-135874188D01*
X155405820Y-135910498D01*
X155295506Y-135969463D01*
X155198815Y-136048815D01*
X155119463Y-136145506D01*
X155060498Y-136255820D01*
X155024188Y-136375518D01*
X155011928Y-136500000D01*
X155011928Y-138300000D01*
X155024188Y-138424482D01*
X155060498Y-138544180D01*
X155119463Y-138654494D01*
X155198815Y-138751185D01*
X155295506Y-138830537D01*
X155405820Y-138889502D01*
X155525518Y-138925812D01*
X155597501Y-138932901D01*
X155597501Y-139735460D01*
X152289569Y-143043393D01*
X152253222Y-143073222D01*
X152134194Y-143218259D01*
X152045748Y-143383732D01*
X151991283Y-143563277D01*
X151991283Y-143563278D01*
X151972892Y-143750000D01*
X151977500Y-143796785D01*
X151977501Y-165922023D01*
X151955518Y-165924188D01*
X151835820Y-165960498D01*
X151725506Y-166019463D01*
X151628815Y-166098815D01*
X151549463Y-166195506D01*
X151490498Y-166305820D01*
X151454188Y-166425518D01*
X151441928Y-166550000D01*
X149260000Y-166550000D01*
X149260000Y-129677902D01*
X151995000Y-129677902D01*
X151995000Y-130122098D01*
X152081658Y-130557759D01*
X152251645Y-130968143D01*
X152498427Y-131337479D01*
X152812521Y-131651573D01*
X153181857Y-131898355D01*
X153592241Y-132068342D01*
X154027902Y-132155000D01*
X154472098Y-132155000D01*
X154907759Y-132068342D01*
X155318143Y-131898355D01*
X155687479Y-131651573D01*
X156001573Y-131337479D01*
X156248355Y-130968143D01*
X156418342Y-130557759D01*
X156505000Y-130122098D01*
X156505000Y-129677902D01*
X161595000Y-129677902D01*
X161595000Y-130122098D01*
X161681658Y-130557759D01*
X161851645Y-130968143D01*
X162098427Y-131337479D01*
X162412521Y-131651573D01*
X162781857Y-131898355D01*
X163192241Y-132068342D01*
X163627902Y-132155000D01*
X164072098Y-132155000D01*
X164507759Y-132068342D01*
X164918143Y-131898355D01*
X165287479Y-131651573D01*
X165601573Y-131337479D01*
X165848355Y-130968143D01*
X166018342Y-130557759D01*
X166105000Y-130122098D01*
X166105000Y-129677902D01*
X166018342Y-129242241D01*
X165848355Y-128831857D01*
X165601573Y-128462521D01*
X165287479Y-128148427D01*
X164918143Y-127901645D01*
X164507759Y-127731658D01*
X164072098Y-127645000D01*
X163627902Y-127645000D01*
X163192241Y-127731658D01*
X162781857Y-127901645D01*
X162412521Y-128148427D01*
X162098427Y-128462521D01*
X161851645Y-128831857D01*
X161681658Y-129242241D01*
X161595000Y-129677902D01*
X156505000Y-129677902D01*
X156418342Y-129242241D01*
X156248355Y-128831857D01*
X156001573Y-128462521D01*
X155687479Y-128148427D01*
X155318143Y-127901645D01*
X154907759Y-127731658D01*
X154472098Y-127645000D01*
X154027902Y-127645000D01*
X153592241Y-127731658D01*
X153181857Y-127901645D01*
X152812521Y-128148427D01*
X152498427Y-128462521D01*
X152251645Y-128831857D01*
X152081658Y-129242241D01*
X151995000Y-129677902D01*
X149260000Y-129677902D01*
X149260000Y-54677902D01*
X151995000Y-54677902D01*
X151995000Y-55122098D01*
X152081658Y-55557759D01*
X152251645Y-55968143D01*
X152498427Y-56337479D01*
X152812521Y-56651573D01*
X153181857Y-56898355D01*
X153592241Y-57068342D01*
X154027902Y-57155000D01*
X154472098Y-57155000D01*
X154907759Y-57068342D01*
X155318143Y-56898355D01*
X155687479Y-56651573D01*
X156001573Y-56337479D01*
X156248355Y-55968143D01*
X156418342Y-55557759D01*
X156505000Y-55122098D01*
X156505000Y-54677902D01*
X161595000Y-54677902D01*
X161595000Y-55122098D01*
X161681658Y-55557759D01*
X161851645Y-55968143D01*
X162098427Y-56337479D01*
X162412521Y-56651573D01*
X162781857Y-56898355D01*
X163192241Y-57068342D01*
X163627902Y-57155000D01*
X164072098Y-57155000D01*
X164507759Y-57068342D01*
X164918143Y-56898355D01*
X165287479Y-56651573D01*
X165601573Y-56337479D01*
X165848355Y-55968143D01*
X166018342Y-55557759D01*
X166105000Y-55122098D01*
X166105000Y-54677902D01*
X166018342Y-54242241D01*
X165848355Y-53831857D01*
X165601573Y-53462521D01*
X165287479Y-53148427D01*
X164918143Y-52901645D01*
X164507759Y-52731658D01*
X164072098Y-52645000D01*
X163627902Y-52645000D01*
X163192241Y-52731658D01*
X162781857Y-52901645D01*
X162412521Y-53148427D01*
X162098427Y-53462521D01*
X161851645Y-53831857D01*
X161681658Y-54242241D01*
X161595000Y-54677902D01*
X156505000Y-54677902D01*
X156418342Y-54242241D01*
X156248355Y-53831857D01*
X156001573Y-53462521D01*
X155687479Y-53148427D01*
X155318143Y-52901645D01*
X154907759Y-52731658D01*
X154472098Y-52645000D01*
X154027902Y-52645000D01*
X153592241Y-52731658D01*
X153181857Y-52901645D01*
X152812521Y-53148427D01*
X152498427Y-53462521D01*
X152251645Y-53831857D01*
X152081658Y-54242241D01*
X151995000Y-54677902D01*
X149260000Y-54677902D01*
X149260000Y-22550000D01*
X151441928Y-22550000D01*
X151441928Y-24250000D01*
X151454188Y-24374482D01*
X151490498Y-24494180D01*
X151549463Y-24604494D01*
X151628815Y-24701185D01*
X151725506Y-24780537D01*
X151835820Y-24839502D01*
X151955518Y-24875812D01*
X152080000Y-24888072D01*
X153780000Y-24888072D01*
X153904482Y-24875812D01*
X154024180Y-24839502D01*
X154134494Y-24780537D01*
X154231185Y-24701185D01*
X154310537Y-24604494D01*
X154369502Y-24494180D01*
X154391513Y-24421620D01*
X154523368Y-24553475D01*
X154766589Y-24715990D01*
X155036842Y-24827932D01*
X155323740Y-24885000D01*
X155616260Y-24885000D01*
X155903158Y-24827932D01*
X156173411Y-24715990D01*
X156416632Y-24553475D01*
X156623475Y-24346632D01*
X156740000Y-24172240D01*
X156856525Y-24346632D01*
X157063368Y-24553475D01*
X157306589Y-24715990D01*
X157576842Y-24827932D01*
X157863740Y-24885000D01*
X158156260Y-24885000D01*
X158443158Y-24827932D01*
X158713411Y-24715990D01*
X158956632Y-24553475D01*
X159163475Y-24346632D01*
X159280000Y-24172240D01*
X159396525Y-24346632D01*
X159603368Y-24553475D01*
X159846589Y-24715990D01*
X160116842Y-24827932D01*
X160403740Y-24885000D01*
X160696260Y-24885000D01*
X160983158Y-24827932D01*
X161253411Y-24715990D01*
X161496632Y-24553475D01*
X161703475Y-24346632D01*
X161820000Y-24172240D01*
X161936525Y-24346632D01*
X162143368Y-24553475D01*
X162386589Y-24715990D01*
X162656842Y-24827932D01*
X162943740Y-24885000D01*
X163236260Y-24885000D01*
X163523158Y-24827932D01*
X163793411Y-24715990D01*
X164036632Y-24553475D01*
X164243475Y-24346632D01*
X164360000Y-24172240D01*
X164476525Y-24346632D01*
X164683368Y-24553475D01*
X164926589Y-24715990D01*
X165196842Y-24827932D01*
X165483740Y-24885000D01*
X165776260Y-24885000D01*
X166063158Y-24827932D01*
X166333411Y-24715990D01*
X166576632Y-24553475D01*
X166783475Y-24346632D01*
X166945990Y-24103411D01*
X167057932Y-23833158D01*
X167115000Y-23546260D01*
X167115000Y-23253740D01*
X167057932Y-22966842D01*
X166945990Y-22696589D01*
X166783475Y-22453368D01*
X166576632Y-22246525D01*
X166333411Y-22084010D01*
X166063158Y-21972068D01*
X165776260Y-21915000D01*
X165483740Y-21915000D01*
X165196842Y-21972068D01*
X164926589Y-22084010D01*
X164683368Y-22246525D01*
X164476525Y-22453368D01*
X164360000Y-22627760D01*
X164243475Y-22453368D01*
X164036632Y-22246525D01*
X163793411Y-22084010D01*
X163523158Y-21972068D01*
X163236260Y-21915000D01*
X162943740Y-21915000D01*
X162656842Y-21972068D01*
X162386589Y-22084010D01*
X162143368Y-22246525D01*
X161936525Y-22453368D01*
X161820000Y-22627760D01*
X161703475Y-22453368D01*
X161496632Y-22246525D01*
X161253411Y-22084010D01*
X160983158Y-21972068D01*
X160696260Y-21915000D01*
X160403740Y-21915000D01*
X160116842Y-21972068D01*
X159846589Y-22084010D01*
X159603368Y-22246525D01*
X159396525Y-22453368D01*
X159280000Y-22627760D01*
X159163475Y-22453368D01*
X158956632Y-22246525D01*
X158713411Y-22084010D01*
X158443158Y-21972068D01*
X158156260Y-21915000D01*
X157863740Y-21915000D01*
X157576842Y-21972068D01*
X157306589Y-22084010D01*
X157063368Y-22246525D01*
X156856525Y-22453368D01*
X156740000Y-22627760D01*
X156623475Y-22453368D01*
X156416632Y-22246525D01*
X156173411Y-22084010D01*
X155903158Y-21972068D01*
X155616260Y-21915000D01*
X155323740Y-21915000D01*
X155036842Y-21972068D01*
X154766589Y-22084010D01*
X154523368Y-22246525D01*
X154391513Y-22378380D01*
X154369502Y-22305820D01*
X154310537Y-22195506D01*
X154231185Y-22098815D01*
X154134494Y-22019463D01*
X154024180Y-21960498D01*
X153904482Y-21924188D01*
X153780000Y-21911928D01*
X152080000Y-21911928D01*
X151955518Y-21924188D01*
X151835820Y-21960498D01*
X151725506Y-22019463D01*
X151628815Y-22098815D01*
X151549463Y-22195506D01*
X151490498Y-22305820D01*
X151454188Y-22425518D01*
X151441928Y-22550000D01*
X149260000Y-22550000D01*
X149260000Y-21110000D01*
X168840000Y-21110000D01*
X168840001Y-121492962D01*
G37*
X168840001Y-121492962D02*
X158272500Y-110925462D01*
X158272500Y-66854538D01*
X159690431Y-65436607D01*
X159726778Y-65406778D01*
X159845806Y-65261741D01*
X159934252Y-65096269D01*
X159988717Y-64916723D01*
X160002500Y-64776785D01*
X160007108Y-64730001D01*
X160002500Y-64683216D01*
X160002500Y-63609688D01*
X160028505Y-63592312D01*
X160242312Y-63378505D01*
X160300000Y-63292169D01*
X160357688Y-63378505D01*
X160571495Y-63592312D01*
X160822905Y-63760299D01*
X161102257Y-63876011D01*
X161398816Y-63935000D01*
X161701184Y-63935000D01*
X161997743Y-63876011D01*
X162277095Y-63760299D01*
X162528505Y-63592312D01*
X162742312Y-63378505D01*
X162910299Y-63127095D01*
X163026011Y-62847743D01*
X163085000Y-62551184D01*
X163085000Y-62248816D01*
X163026011Y-61952257D01*
X162910299Y-61672905D01*
X162742312Y-61421495D01*
X162528505Y-61207688D01*
X162277095Y-61039701D01*
X161997743Y-60923989D01*
X161701184Y-60865000D01*
X161398816Y-60865000D01*
X161102257Y-60923989D01*
X160822905Y-61039701D01*
X160571495Y-61207688D01*
X160357688Y-61421495D01*
X160300000Y-61507831D01*
X160242312Y-61421495D01*
X160028505Y-61207688D01*
X159777095Y-61039701D01*
X159497743Y-60923989D01*
X159201184Y-60865000D01*
X158898816Y-60865000D01*
X158602257Y-60923989D01*
X158322905Y-61039701D01*
X158071495Y-61207688D01*
X158033880Y-61245303D01*
X157980537Y-61145506D01*
X157901185Y-61048815D01*
X157804494Y-60969463D01*
X157694180Y-60910498D01*
X157574482Y-60874188D01*
X157450000Y-60861928D01*
X155650000Y-60861928D01*
X155525518Y-60874188D01*
X155405820Y-60910498D01*
X155295506Y-60969463D01*
X155198815Y-61048815D01*
X155119463Y-61145506D01*
X155060498Y-61255820D01*
X155024188Y-61375518D01*
X155011928Y-61500000D01*
X155011928Y-63300000D01*
X155024188Y-63424482D01*
X155060498Y-63544180D01*
X155119463Y-63654494D01*
X155198815Y-63751185D01*
X155295506Y-63830537D01*
X155405820Y-63889502D01*
X155525518Y-63925812D01*
X155650000Y-63938072D01*
X157450000Y-63938072D01*
X157574482Y-63925812D01*
X157694180Y-63889502D01*
X157804494Y-63830537D01*
X157901185Y-63751185D01*
X157980537Y-63654494D01*
X158033880Y-63554697D01*
X158071495Y-63592312D01*
X158097501Y-63609688D01*
X158097501Y-64335461D01*
X156679569Y-65753393D01*
X156643222Y-65783222D01*
X156524194Y-65928259D01*
X156435748Y-66093732D01*
X156381283Y-66273277D01*
X156381283Y-66273278D01*
X156362892Y-66460000D01*
X156367500Y-66506785D01*
X156367501Y-111273205D01*
X156362892Y-111320000D01*
X156381283Y-111506722D01*
X156435749Y-111686269D01*
X156524195Y-111851741D01*
X156643223Y-111996778D01*
X156679564Y-112026602D01*
X167367500Y-122714539D01*
X167367501Y-149585460D01*
X165878966Y-151073995D01*
X165877205Y-151069744D01*
X165763937Y-150900226D01*
X165619774Y-150756063D01*
X165450256Y-150642795D01*
X165347108Y-150600070D01*
X163329931Y-148582893D01*
X163287205Y-148479744D01*
X163173937Y-148310226D01*
X163029774Y-148166063D01*
X162860256Y-148052795D01*
X162671898Y-147974774D01*
X162471939Y-147935000D01*
X162268061Y-147935000D01*
X162068102Y-147974774D01*
X161879744Y-148052795D01*
X161710226Y-148166063D01*
X161566063Y-148310226D01*
X161452795Y-148479744D01*
X161374774Y-148668102D01*
X161335000Y-148868061D01*
X161335000Y-149071939D01*
X161374774Y-149271898D01*
X161452795Y-149460256D01*
X161566063Y-149629774D01*
X161710226Y-149773937D01*
X161879744Y-149887205D01*
X161982893Y-149929931D01*
X164000070Y-151947108D01*
X164042795Y-152050256D01*
X164156063Y-152219774D01*
X164300226Y-152363937D01*
X164469744Y-152477205D01*
X164473996Y-152478966D01*
X162449569Y-154503393D01*
X162413222Y-154533222D01*
X162294194Y-154678259D01*
X162205748Y-154843732D01*
X162151283Y-155023277D01*
X162151283Y-155023278D01*
X162132892Y-155210000D01*
X162137500Y-155256785D01*
X162137501Y-166252392D01*
X161936525Y-166453368D01*
X161820000Y-166627760D01*
X161703475Y-166453368D01*
X161496632Y-166246525D01*
X161253411Y-166084010D01*
X160983158Y-165972068D01*
X160696260Y-165915000D01*
X160403740Y-165915000D01*
X160116842Y-165972068D01*
X159846589Y-166084010D01*
X159603368Y-166246525D01*
X159396525Y-166453368D01*
X159234010Y-166696589D01*
X159191060Y-166800279D01*
X159069907Y-166601539D01*
X158893769Y-166410104D01*
X158683668Y-166256710D01*
X158447679Y-166147252D01*
X158342072Y-166115221D01*
X158137000Y-166198946D01*
X158137000Y-167273000D01*
X158157000Y-167273000D01*
X158157000Y-167527000D01*
X158137000Y-167527000D01*
X158137000Y-168601054D01*
X158342072Y-168684779D01*
X158447679Y-168652748D01*
X158683668Y-168543290D01*
X158893769Y-168389896D01*
X159069907Y-168198461D01*
X159191060Y-167999721D01*
X159234010Y-168103411D01*
X159396525Y-168346632D01*
X159603368Y-168553475D01*
X159846589Y-168715990D01*
X160116842Y-168827932D01*
X160403740Y-168885000D01*
X160696260Y-168885000D01*
X160983158Y-168827932D01*
X161253411Y-168715990D01*
X161496632Y-168553475D01*
X161703475Y-168346632D01*
X161820000Y-168172240D01*
X161936525Y-168346632D01*
X162143368Y-168553475D01*
X162386589Y-168715990D01*
X162656842Y-168827932D01*
X162943740Y-168885000D01*
X163236260Y-168885000D01*
X163523158Y-168827932D01*
X163793411Y-168715990D01*
X164036632Y-168553475D01*
X164243475Y-168346632D01*
X164360000Y-168172240D01*
X164476525Y-168346632D01*
X164683368Y-168553475D01*
X164926589Y-168715990D01*
X165196842Y-168827932D01*
X165483740Y-168885000D01*
X165776260Y-168885000D01*
X166063158Y-168827932D01*
X166333411Y-168715990D01*
X166576632Y-168553475D01*
X166783475Y-168346632D01*
X166945990Y-168103411D01*
X167057932Y-167833158D01*
X167115000Y-167546260D01*
X167115000Y-167253740D01*
X167057932Y-166966842D01*
X166945990Y-166696589D01*
X166783475Y-166453368D01*
X166576632Y-166246525D01*
X166333411Y-166084010D01*
X166063158Y-165972068D01*
X165776260Y-165915000D01*
X165483740Y-165915000D01*
X165196842Y-165972068D01*
X164926589Y-166084010D01*
X164683368Y-166246525D01*
X164476525Y-166453368D01*
X164360000Y-166627760D01*
X164243475Y-166453368D01*
X164042500Y-166252393D01*
X164042500Y-155604538D01*
X168840001Y-150807038D01*
X168840001Y-169690000D01*
X149260000Y-169690000D01*
X149260000Y-166550000D01*
X151441928Y-166550000D01*
X151441928Y-168250000D01*
X151454188Y-168374482D01*
X151490498Y-168494180D01*
X151549463Y-168604494D01*
X151628815Y-168701185D01*
X151725506Y-168780537D01*
X151835820Y-168839502D01*
X151955518Y-168875812D01*
X152080000Y-168888072D01*
X153780000Y-168888072D01*
X153904482Y-168875812D01*
X154024180Y-168839502D01*
X154134494Y-168780537D01*
X154231185Y-168701185D01*
X154310537Y-168604494D01*
X154369502Y-168494180D01*
X154391513Y-168421620D01*
X154523368Y-168553475D01*
X154766589Y-168715990D01*
X155036842Y-168827932D01*
X155323740Y-168885000D01*
X155616260Y-168885000D01*
X155903158Y-168827932D01*
X156173411Y-168715990D01*
X156416632Y-168553475D01*
X156623475Y-168346632D01*
X156785990Y-168103411D01*
X156828940Y-167999721D01*
X156950093Y-168198461D01*
X157126231Y-168389896D01*
X157336332Y-168543290D01*
X157572321Y-168652748D01*
X157677928Y-168684779D01*
X157883000Y-168601054D01*
X157883000Y-167527000D01*
X157863000Y-167527000D01*
X157863000Y-167273000D01*
X157883000Y-167273000D01*
X157883000Y-166198946D01*
X157677928Y-166115221D01*
X157572321Y-166147252D01*
X157336332Y-166256710D01*
X157126231Y-166410104D01*
X156950093Y-166601539D01*
X156828940Y-166800279D01*
X156785990Y-166696589D01*
X156623475Y-166453368D01*
X156422500Y-166252393D01*
X156422500Y-145594538D01*
X159690431Y-142326607D01*
X159726778Y-142296778D01*
X159845806Y-142151741D01*
X159934252Y-141986269D01*
X159988717Y-141806723D01*
X160002500Y-141666785D01*
X160007108Y-141620000D01*
X160002500Y-141573215D01*
X160002500Y-138609688D01*
X160028505Y-138592312D01*
X160241461Y-138379356D01*
X160750249Y-138379356D01*
X160842881Y-138589330D01*
X161088495Y-138704430D01*
X161351845Y-138769400D01*
X161622809Y-138781745D01*
X161890975Y-138740991D01*
X162146038Y-138648703D01*
X162257119Y-138589330D01*
X162349751Y-138379356D01*
X161550000Y-137579605D01*
X160750249Y-138379356D01*
X160241461Y-138379356D01*
X160242312Y-138378505D01*
X160409309Y-138128577D01*
X160570644Y-138199751D01*
X161370395Y-137400000D01*
X161729605Y-137400000D01*
X162529356Y-138199751D01*
X162739330Y-138107119D01*
X162854430Y-137861505D01*
X162919400Y-137598155D01*
X162931745Y-137327191D01*
X162890991Y-137059025D01*
X162798703Y-136803962D01*
X162739330Y-136692881D01*
X162529356Y-136600249D01*
X161729605Y-137400000D01*
X161370395Y-137400000D01*
X160570644Y-136600249D01*
X160409309Y-136671423D01*
X160242312Y-136421495D01*
X160241461Y-136420644D01*
X160750249Y-136420644D01*
X161550000Y-137220395D01*
X162349751Y-136420644D01*
X162257119Y-136210670D01*
X162011505Y-136095570D01*
X161748155Y-136030600D01*
X161477191Y-136018255D01*
X161209025Y-136059009D01*
X160953962Y-136151297D01*
X160842881Y-136210670D01*
X160750249Y-136420644D01*
X160241461Y-136420644D01*
X160028505Y-136207688D01*
X159777095Y-136039701D01*
X159497743Y-135923989D01*
X159201184Y-135865000D01*
X158898816Y-135865000D01*
X158602257Y-135923989D01*
X158322905Y-136039701D01*
X158071495Y-136207688D01*
X158033880Y-136245303D01*
X157980537Y-136145506D01*
X157901185Y-136048815D01*
X157804494Y-135969463D01*
X157694180Y-135910498D01*
X157574482Y-135874188D01*
X157450000Y-135861928D01*
X155650000Y-135861928D01*
X155525518Y-135874188D01*
X155405820Y-135910498D01*
X155295506Y-135969463D01*
X155198815Y-136048815D01*
X155119463Y-136145506D01*
X155060498Y-136255820D01*
X155024188Y-136375518D01*
X155011928Y-136500000D01*
X155011928Y-138300000D01*
X155024188Y-138424482D01*
X155060498Y-138544180D01*
X155119463Y-138654494D01*
X155198815Y-138751185D01*
X155295506Y-138830537D01*
X155405820Y-138889502D01*
X155525518Y-138925812D01*
X155597501Y-138932901D01*
X155597501Y-139735460D01*
X152289569Y-143043393D01*
X152253222Y-143073222D01*
X152134194Y-143218259D01*
X152045748Y-143383732D01*
X151991283Y-143563277D01*
X151991283Y-143563278D01*
X151972892Y-143750000D01*
X151977500Y-143796785D01*
X151977501Y-165922023D01*
X151955518Y-165924188D01*
X151835820Y-165960498D01*
X151725506Y-166019463D01*
X151628815Y-166098815D01*
X151549463Y-166195506D01*
X151490498Y-166305820D01*
X151454188Y-166425518D01*
X151441928Y-166550000D01*
X149260000Y-166550000D01*
X149260000Y-129677902D01*
X151995000Y-129677902D01*
X151995000Y-130122098D01*
X152081658Y-130557759D01*
X152251645Y-130968143D01*
X152498427Y-131337479D01*
X152812521Y-131651573D01*
X153181857Y-131898355D01*
X153592241Y-132068342D01*
X154027902Y-132155000D01*
X154472098Y-132155000D01*
X154907759Y-132068342D01*
X155318143Y-131898355D01*
X155687479Y-131651573D01*
X156001573Y-131337479D01*
X156248355Y-130968143D01*
X156418342Y-130557759D01*
X156505000Y-130122098D01*
X156505000Y-129677902D01*
X161595000Y-129677902D01*
X161595000Y-130122098D01*
X161681658Y-130557759D01*
X161851645Y-130968143D01*
X162098427Y-131337479D01*
X162412521Y-131651573D01*
X162781857Y-131898355D01*
X163192241Y-132068342D01*
X163627902Y-132155000D01*
X164072098Y-132155000D01*
X164507759Y-132068342D01*
X164918143Y-131898355D01*
X165287479Y-131651573D01*
X165601573Y-131337479D01*
X165848355Y-130968143D01*
X166018342Y-130557759D01*
X166105000Y-130122098D01*
X166105000Y-129677902D01*
X166018342Y-129242241D01*
X165848355Y-128831857D01*
X165601573Y-128462521D01*
X165287479Y-128148427D01*
X164918143Y-127901645D01*
X164507759Y-127731658D01*
X164072098Y-127645000D01*
X163627902Y-127645000D01*
X163192241Y-127731658D01*
X162781857Y-127901645D01*
X162412521Y-128148427D01*
X162098427Y-128462521D01*
X161851645Y-128831857D01*
X161681658Y-129242241D01*
X161595000Y-129677902D01*
X156505000Y-129677902D01*
X156418342Y-129242241D01*
X156248355Y-128831857D01*
X156001573Y-128462521D01*
X155687479Y-128148427D01*
X155318143Y-127901645D01*
X154907759Y-127731658D01*
X154472098Y-127645000D01*
X154027902Y-127645000D01*
X153592241Y-127731658D01*
X153181857Y-127901645D01*
X152812521Y-128148427D01*
X152498427Y-128462521D01*
X152251645Y-128831857D01*
X152081658Y-129242241D01*
X151995000Y-129677902D01*
X149260000Y-129677902D01*
X149260000Y-54677902D01*
X151995000Y-54677902D01*
X151995000Y-55122098D01*
X152081658Y-55557759D01*
X152251645Y-55968143D01*
X152498427Y-56337479D01*
X152812521Y-56651573D01*
X153181857Y-56898355D01*
X153592241Y-57068342D01*
X154027902Y-57155000D01*
X154472098Y-57155000D01*
X154907759Y-57068342D01*
X155318143Y-56898355D01*
X155687479Y-56651573D01*
X156001573Y-56337479D01*
X156248355Y-55968143D01*
X156418342Y-55557759D01*
X156505000Y-55122098D01*
X156505000Y-54677902D01*
X161595000Y-54677902D01*
X161595000Y-55122098D01*
X161681658Y-55557759D01*
X161851645Y-55968143D01*
X162098427Y-56337479D01*
X162412521Y-56651573D01*
X162781857Y-56898355D01*
X163192241Y-57068342D01*
X163627902Y-57155000D01*
X164072098Y-57155000D01*
X164507759Y-57068342D01*
X164918143Y-56898355D01*
X165287479Y-56651573D01*
X165601573Y-56337479D01*
X165848355Y-55968143D01*
X166018342Y-55557759D01*
X166105000Y-55122098D01*
X166105000Y-54677902D01*
X166018342Y-54242241D01*
X165848355Y-53831857D01*
X165601573Y-53462521D01*
X165287479Y-53148427D01*
X164918143Y-52901645D01*
X164507759Y-52731658D01*
X164072098Y-52645000D01*
X163627902Y-52645000D01*
X163192241Y-52731658D01*
X162781857Y-52901645D01*
X162412521Y-53148427D01*
X162098427Y-53462521D01*
X161851645Y-53831857D01*
X161681658Y-54242241D01*
X161595000Y-54677902D01*
X156505000Y-54677902D01*
X156418342Y-54242241D01*
X156248355Y-53831857D01*
X156001573Y-53462521D01*
X155687479Y-53148427D01*
X155318143Y-52901645D01*
X154907759Y-52731658D01*
X154472098Y-52645000D01*
X154027902Y-52645000D01*
X153592241Y-52731658D01*
X153181857Y-52901645D01*
X152812521Y-53148427D01*
X152498427Y-53462521D01*
X152251645Y-53831857D01*
X152081658Y-54242241D01*
X151995000Y-54677902D01*
X149260000Y-54677902D01*
X149260000Y-22550000D01*
X151441928Y-22550000D01*
X151441928Y-24250000D01*
X151454188Y-24374482D01*
X151490498Y-24494180D01*
X151549463Y-24604494D01*
X151628815Y-24701185D01*
X151725506Y-24780537D01*
X151835820Y-24839502D01*
X151955518Y-24875812D01*
X152080000Y-24888072D01*
X153780000Y-24888072D01*
X153904482Y-24875812D01*
X154024180Y-24839502D01*
X154134494Y-24780537D01*
X154231185Y-24701185D01*
X154310537Y-24604494D01*
X154369502Y-24494180D01*
X154391513Y-24421620D01*
X154523368Y-24553475D01*
X154766589Y-24715990D01*
X155036842Y-24827932D01*
X155323740Y-24885000D01*
X155616260Y-24885000D01*
X155903158Y-24827932D01*
X156173411Y-24715990D01*
X156416632Y-24553475D01*
X156623475Y-24346632D01*
X156740000Y-24172240D01*
X156856525Y-24346632D01*
X157063368Y-24553475D01*
X157306589Y-24715990D01*
X157576842Y-24827932D01*
X157863740Y-24885000D01*
X158156260Y-24885000D01*
X158443158Y-24827932D01*
X158713411Y-24715990D01*
X158956632Y-24553475D01*
X159163475Y-24346632D01*
X159280000Y-24172240D01*
X159396525Y-24346632D01*
X159603368Y-24553475D01*
X159846589Y-24715990D01*
X160116842Y-24827932D01*
X160403740Y-24885000D01*
X160696260Y-24885000D01*
X160983158Y-24827932D01*
X161253411Y-24715990D01*
X161496632Y-24553475D01*
X161703475Y-24346632D01*
X161820000Y-24172240D01*
X161936525Y-24346632D01*
X162143368Y-24553475D01*
X162386589Y-24715990D01*
X162656842Y-24827932D01*
X162943740Y-24885000D01*
X163236260Y-24885000D01*
X163523158Y-24827932D01*
X163793411Y-24715990D01*
X164036632Y-24553475D01*
X164243475Y-24346632D01*
X164360000Y-24172240D01*
X164476525Y-24346632D01*
X164683368Y-24553475D01*
X164926589Y-24715990D01*
X165196842Y-24827932D01*
X165483740Y-24885000D01*
X165776260Y-24885000D01*
X166063158Y-24827932D01*
X166333411Y-24715990D01*
X166576632Y-24553475D01*
X166783475Y-24346632D01*
X166945990Y-24103411D01*
X167057932Y-23833158D01*
X167115000Y-23546260D01*
X167115000Y-23253740D01*
X167057932Y-22966842D01*
X166945990Y-22696589D01*
X166783475Y-22453368D01*
X166576632Y-22246525D01*
X166333411Y-22084010D01*
X166063158Y-21972068D01*
X165776260Y-21915000D01*
X165483740Y-21915000D01*
X165196842Y-21972068D01*
X164926589Y-22084010D01*
X164683368Y-22246525D01*
X164476525Y-22453368D01*
X164360000Y-22627760D01*
X164243475Y-22453368D01*
X164036632Y-22246525D01*
X163793411Y-22084010D01*
X163523158Y-21972068D01*
X163236260Y-21915000D01*
X162943740Y-21915000D01*
X162656842Y-21972068D01*
X162386589Y-22084010D01*
X162143368Y-22246525D01*
X161936525Y-22453368D01*
X161820000Y-22627760D01*
X161703475Y-22453368D01*
X161496632Y-22246525D01*
X161253411Y-22084010D01*
X160983158Y-21972068D01*
X160696260Y-21915000D01*
X160403740Y-21915000D01*
X160116842Y-21972068D01*
X159846589Y-22084010D01*
X159603368Y-22246525D01*
X159396525Y-22453368D01*
X159280000Y-22627760D01*
X159163475Y-22453368D01*
X158956632Y-22246525D01*
X158713411Y-22084010D01*
X158443158Y-21972068D01*
X158156260Y-21915000D01*
X157863740Y-21915000D01*
X157576842Y-21972068D01*
X157306589Y-22084010D01*
X157063368Y-22246525D01*
X156856525Y-22453368D01*
X156740000Y-22627760D01*
X156623475Y-22453368D01*
X156416632Y-22246525D01*
X156173411Y-22084010D01*
X155903158Y-21972068D01*
X155616260Y-21915000D01*
X155323740Y-21915000D01*
X155036842Y-21972068D01*
X154766589Y-22084010D01*
X154523368Y-22246525D01*
X154391513Y-22378380D01*
X154369502Y-22305820D01*
X154310537Y-22195506D01*
X154231185Y-22098815D01*
X154134494Y-22019463D01*
X154024180Y-21960498D01*
X153904482Y-21924188D01*
X153780000Y-21911928D01*
X152080000Y-21911928D01*
X151955518Y-21924188D01*
X151835820Y-21960498D01*
X151725506Y-22019463D01*
X151628815Y-22098815D01*
X151549463Y-22195506D01*
X151490498Y-22305820D01*
X151454188Y-22425518D01*
X151441928Y-22550000D01*
X149260000Y-22550000D01*
X149260000Y-21110000D01*
X168840000Y-21110000D01*
X168840001Y-121492962D01*
%TD*%
M02*
