%TF.GenerationSoftware,KiCad,Pcbnew,(5.1.6)-1*%
%TF.CreationDate,2020-06-22T20:05:39-05:00*%
%TF.ProjectId,NOISE_x_S_and_H,4e4f4953-455f-4785-9f53-5f616e645f48,rev?*%
%TF.SameCoordinates,Original*%
%TF.FileFunction,Legend,Bot*%
%TF.FilePolarity,Positive*%
%FSLAX46Y46*%
G04 Gerber Fmt 4.6, Leading zero omitted, Abs format (unit mm)*
G04 Created by KiCad (PCBNEW (5.1.6)-1) date 2020-06-22 20:05:39*
%MOMM*%
%LPD*%
G01*
G04 APERTURE LIST*
%ADD10C,0.150000*%
G04 APERTURE END LIST*
D10*
X29026480Y-197676717D02*
X28319374Y-198383824D01*
X28151015Y-198215465D01*
X28083671Y-198080778D01*
X28083671Y-197946091D01*
X28117343Y-197845076D01*
X28218358Y-197676717D01*
X28319374Y-197575702D01*
X28487732Y-197474687D01*
X28588748Y-197441015D01*
X28723435Y-197441015D01*
X28858122Y-197508358D01*
X29026480Y-197676717D01*
X28319374Y-196969610D02*
X27612267Y-197676717D01*
X27511251Y-196834923D02*
X27847969Y-196498206D01*
X27376564Y-197441015D02*
X27511251Y-196834923D01*
X26905160Y-196969610D01*
X28289289Y-198674839D02*
X28154602Y-198540152D01*
X28053587Y-198506480D01*
X27918900Y-198506480D01*
X27750541Y-198607496D01*
X27514839Y-198843198D01*
X27413824Y-199011557D01*
X27413824Y-199146244D01*
X27447496Y-199247259D01*
X27582183Y-199381946D01*
X27683198Y-199415618D01*
X27817885Y-199415618D01*
X27986244Y-199314602D01*
X28221946Y-199078900D01*
X28322961Y-198910541D01*
X28322961Y-198775854D01*
X28289289Y-198674839D01*
X26572030Y-198371793D02*
X27144450Y-198270778D01*
X26976091Y-198775854D02*
X27683198Y-198068748D01*
X27413824Y-197799374D01*
X27312809Y-197765702D01*
X27245465Y-197765702D01*
X27144450Y-197799374D01*
X27043435Y-197900389D01*
X27009763Y-198001404D01*
X27009763Y-198068748D01*
X27043435Y-198169763D01*
X27312809Y-198439137D01*
X25730236Y-197530000D02*
X26437343Y-196822893D01*
X26268984Y-196654534D01*
X26134297Y-196587190D01*
X25999610Y-196587190D01*
X25898595Y-196620862D01*
X25730236Y-196721877D01*
X25629221Y-196822893D01*
X25528206Y-196991251D01*
X25494534Y-197092267D01*
X25494534Y-197226954D01*
X25561877Y-197361641D01*
X25730236Y-197530000D01*
X25023129Y-196822893D02*
X25730236Y-196115786D01*
X25056801Y-196115786D02*
X24821099Y-195880084D01*
X24349694Y-196149458D02*
X24686412Y-196486175D01*
X25393519Y-195779068D01*
X25056801Y-195442351D01*
X25533519Y-195563282D02*
X26240625Y-194856175D01*
X26408984Y-195024534D01*
X26476328Y-195159221D01*
X26476328Y-195293908D01*
X26442656Y-195394923D01*
X26341641Y-195563282D01*
X26240625Y-195664297D01*
X26072267Y-195765312D01*
X25971251Y-195798984D01*
X25836564Y-195798984D01*
X25701877Y-195731641D01*
X25533519Y-195563282D01*
X26240625Y-196270389D02*
X26947732Y-195563282D01*
X27048748Y-196405076D02*
X26712030Y-196741793D01*
X27183435Y-195798984D02*
X27048748Y-196405076D01*
X27654839Y-196270389D01*
X26516717Y-200156480D02*
X27223824Y-199449374D01*
X27055465Y-199281015D01*
X26920778Y-199213671D01*
X26786091Y-199213671D01*
X26685076Y-199247343D01*
X26516717Y-199348358D01*
X26415702Y-199449374D01*
X26314687Y-199617732D01*
X26281015Y-199718748D01*
X26281015Y-199853435D01*
X26348358Y-199988122D01*
X26516717Y-200156480D01*
X25809610Y-199449374D02*
X26516717Y-198742267D01*
X25674923Y-198641251D02*
X25338206Y-198977969D01*
X26281015Y-198506564D02*
X25674923Y-198641251D01*
X25809610Y-198035160D01*
X24443282Y-196623519D02*
X23736175Y-197330625D01*
X23904534Y-197498984D01*
X24039221Y-197566328D01*
X24173908Y-197566328D01*
X24274923Y-197532656D01*
X24443282Y-197431641D01*
X24544297Y-197330625D01*
X24645312Y-197162267D01*
X24678984Y-197061251D01*
X24678984Y-196926564D01*
X24611641Y-196791877D01*
X24443282Y-196623519D01*
X25150389Y-197330625D02*
X24443282Y-198037732D01*
X25285076Y-198138748D02*
X25621793Y-197802030D01*
X24678984Y-198273435D02*
X25285076Y-198138748D01*
X25150389Y-198744839D01*
M02*
